<?xml version="1.0" encoding="UTF-8"?>
<svg id="Ebene_1" xmlns="http://www.w3.org/2000/svg" version="1.1" viewBox="0 0 327.53 33.13">
  <!-- Generator: Adobe Illustrator 29.4.0, SVG Export Plug-In . SVG Version: 2.1.0 Build 152)  -->
  <defs>
    <style>
      .st0 {
        fill: #f6dea9;
      }
    </style>
  </defs>
  <path class="st0" d="M5.6,29.87l1.38-6.87c.05-.22.17-.32.39-.32h3.49c.22,0,.37.1.42.32l1.35,6.87v.1c0,.2-.1.29-.32.29h-6.38c-.25,0-.37-.12-.32-.39ZM6.73,21.52v-8.08c0-.22.15-.37.37-.37h3.98c.22,0,.37.15.37.37v8.08c0,.22-.15.37-.37.37h-3.98c-.22,0-.37-.15-.37-.37Z"/>
  <path class="st0" d="M13.68,24.96l3.19-16.45c.05-.22.22-.34.44-.34h5.23c.25,0,.39.1.44.32l3.29,16.47v.1c0,.2-.15.29-.37.29h-3.81c-.25,0-.39-.1-.42-.34l-.61-3.63c-.05-.25-.2-.34-.42-.34h-2.16c-.25,0-.37.12-.42.34l-.81,3.63c-.05.22-.17.34-.42.34h-2.8c-.27,0-.42-.12-.37-.39ZM20.43,16.47l-.42-3.49c-.05-.32-.17-.47-.32-.47-.12,0-.27.15-.32.47l-.49,3.49v.05c0,.25.2.34.54.34h.42c.39,0,.64-.15.59-.39Z"/>
  <path class="st0" d="M27.24,24.98V8.54c0-.22.15-.37.37-.37h4.42c3.41,0,5.92,1.65,5.92,4.59,0,3.85-3.12,5.45-5.52,5.45-.37,0-.54.15-.54.37v6.41c0,.22-.15.37-.37.37h-3.9c-.22,0-.37-.15-.37-.37ZM32.1,15.12c.56,0,1.99-.69,1.99-2.33,0-1.33-1.3-2.14-1.92-2.14-.17,0-.29.07-.29.22v4.12c0,.07.1.12.22.12Z"/>
  <path class="st0" d="M38.04,19.56c0-6.92,2.41-11.51,6.02-11.51s5.75,4.42,5.75,11.51c0,3.83-2.06,5.89-5.87,5.89s-5.89-2.11-5.89-5.89ZM41.48,6.67c0-.07.05-.15.15-.2l3.27-2.16c.07-.05.17-.07.27-.07s.17.02.25.07l1.67,1.13c.15.12.17.25,0,.32l-3.76,1.84c-.07.05-.15.07-.25.07s-.2-.02-.27-.07l-1.18-.76c-.1-.05-.15-.12-.15-.17ZM45.38,13.94c0-1.89-.59-3.31-1.33-3.31-.93,0-1.55,1.38-1.55,3.31,0,1.01.61,1.67,1.55,1.67.76,0,1.33-.66,1.33-1.67Z"/>
  <path class="st0" d="M51.75,24.98v-8.1c0-.17,0-.27-.07-.44l-2.95-7.86c-.02-.07-.02-.12-.02-.17,0-.15.12-.25.32-.25h3.66c.2,0,.34.07.42.29l1.28,3.81c.07.17.17.25.29.25s.25-.07.29-.25l1.3-3.81c.07-.22.22-.29.42-.29h2.6c.27,0,.39.15.29.42l-3.19,7.95c-.05.15-.1.29-.1.47v7.98c0,.22-.15.37-.37.37h-3.81c-.22,0-.37-.15-.37-.37Z"/>
  <path class="st0" d="M58.23,24.96l3.19-16.45c.05-.22.22-.34.44-.34h5.23c.25,0,.39.1.44.32l3.29,16.47v.1c0,.2-.15.29-.37.29h-3.81c-.25,0-.39-.1-.42-.34l-.61-3.63c-.05-.25-.2-.34-.42-.34h-2.16c-.25,0-.37.12-.42.34l-.81,3.63c-.05.22-.17.34-.42.34h-2.8c-.27,0-.42-.12-.37-.39ZM64.98,16.47l-.42-3.49c-.05-.32-.17-.47-.32-.47-.12,0-.27.15-.32.47l-.49,3.49v.05c0,.25.2.34.54.34h.42c.39,0,.64-.15.59-.39Z"/>
  <path class="st0" d="M71.79,24.98V8.54c0-.22.15-.37.37-.37h3.54c.2,0,.34.07.42.29l2.33,6.43c.05.15.15.22.22.22.1,0,.2-.1.2-.29v-6.29c0-.22.15-.37.37-.37h2.58c.22,0,.37.15.37.37v16.45c0,.22-.15.37-.37.37h-3.54c-.2,0-.34-.07-.42-.29l-2.33-7.05c-.05-.15-.15-.22-.22-.22-.1,0-.2.1-.2.27v6.92c0,.22-.15.37-.37.37h-2.58c-.22,0-.37-.15-.37-.37Z"/>
  <path class="st0" d="M83.16,19.56c0-6.92,2.41-11.51,6.02-11.51s5.75,4.42,5.75,11.51c0,3.83-2.06,5.89-5.87,5.89s-5.89-2.11-5.89-5.89ZM90.5,13.94c0-1.89-.59-3.31-1.33-3.31-.93,0-1.55,1.38-1.55,3.31,0,1.01.61,1.67,1.55,1.67.76,0,1.33-.66,1.33-1.67Z"/>
  <path class="st0" d="M96.05,24.98v-8.42c0-.22.15-.37.37-.37,2.21,0,2.95-.15,2.95-.66,0-1.15-3.54-1.01-3.54-4.05,0-1.35,1.18-3.54,4.86-3.54,3.46,0,4.91,1.1,4.91,4.44v.02c0,.22-.15.37-.37.37h-2.5c-.22,0-.37-.15-.37-.37,0-1.13-.12-2.11-1.4-2.11-1.03,0-1.25.76-1.25,1.35,0,3.14,6.56,1.99,6.56,8.49,0,3.73-2.19,5.21-6.24,5.21h-3.61c-.22,0-.37-.15-.37-.37Z"/>
  <path class="st0" d="M112.53,24.98V8.54c0-.22.15-.37.37-.37h4.42c3.41,0,5.92,1.65,5.92,4.59,0,3.85-3.12,5.45-5.52,5.45-.37,0-.54.15-.54.37v6.41c0,.22-.15.37-.37.37h-3.9c-.22,0-.37-.15-.37-.37ZM117.39,15.12c.56,0,1.99-.69,1.99-2.33,0-1.33-1.3-2.14-1.92-2.14-.17,0-.29.07-.29.22v4.12c0,.07.1.12.22.12Z"/>
  <path class="st0" d="M124.32,24.98V8.54c0-.22.15-.37.37-.37h3.85c.22,0,.37.15.37.37v16.45c0,.22-.15.37-.37.37h-3.85c-.22,0-.37-.15-.37-.37Z"/>
  <path class="st0" d="M130.38,24.98V8.54c0-.22.15-.37.37-.37h3.81c5.08,0,6.33,4.47,6.33,8.77,0,3.88-.49,8.42-6.38,8.42h-3.76c-.22,0-.37-.15-.37-.37ZM137.21,13.15c0-1.67-1.13-2.5-1.74-2.5-.22,0-.39.12-.39.37v4.22c0,.39.15.54.47.54,1.15-.02,1.67-1.6,1.67-2.63Z"/>
  <path class="st0" d="M142,24.98V8.54c0-.22.15-.37.37-.37h3.85c.22,0,.37.15.37.37v16.45c0,.22-.15.37-.37.37h-3.85c-.22,0-.37-.15-.37-.37Z"/>
  <path class="st0" d="M155.11,25.35h-3.66c-2.14,0-3.39-1.15-3.39-3.31v-13.5c0-.22.22-.37.56-.37h6.29c.34,0,.56.15.56.37v1.79c0,.22-.22.37-.56.37h-1.62c-.32,0-.54.15-.54.37v1.03c0,.22.22.37.54.37h1.08c.32,0,.54.15.54.37v1.79c0,.22-.22.37-.54.37h-1.08c-.32,0-.54.1-.54.12v.76c0,.22.22.37.54.37h1.82c.32,0,.54.15.54.37v8.37c0,.22-.22.37-.54.37Z"/>
  <path class="st0" d="M157.13,24.98V8.54c0-.22.15-.37.37-.37h3.53c.2,0,.34.07.42.29l2.33,6.43c.05.15.15.22.22.22.1,0,.2-.1.2-.29v-6.29c0-.22.15-.37.37-.37h2.58c.22,0,.37.15.37.37v16.45c0,.22-.15.37-.37.37h-3.54c-.2,0-.34-.07-.42-.29l-2.33-7.05c-.05-.15-.15-.22-.22-.22-.1,0-.2.1-.2.27v6.92c0,.22-.15.37-.37.37h-2.58c-.22,0-.37-.15-.37-.37Z"/>
  <path class="st0" d="M168.99,24.98V8.54c0-.22.15-.37.37-.37h3.81c5.08,0,6.33,4.47,6.33,8.77,0,3.88-.49,8.42-6.38,8.42h-3.76c-.22,0-.37-.15-.37-.37ZM175.81,13.15c0-1.67-1.13-2.5-1.74-2.5-.22,0-.39.12-.39.37v4.22c0,.39.15.54.47.54,1.15-.02,1.67-1.6,1.67-2.63Z"/>
  <path class="st0" d="M180.11,19.56c0-6.92,2.41-11.51,6.02-11.51s5.75,4.42,5.75,11.51c0,3.83-2.06,5.89-5.87,5.89s-5.89-2.11-5.89-5.89ZM187.45,13.94c0-1.89-.59-3.31-1.33-3.31-.93,0-1.55,1.38-1.55,3.31,0,1.01.61,1.67,1.55,1.67.76,0,1.33-.66,1.33-1.67Z"/>
  <path class="st0" d="M204.03,14.92c0,1.18.79,1.33,2.11,1.33.25,0,.37.15.37.37v5.48c0,2.21-1.35,3.44-3.51,3.44s-3.39-1.2-3.39-3.36v-10.97h-1.4c-.22,0-.37-.15-.37-.37v-2.28c0-.22.15-.37.37-.37h7.96c.22,0,.37.15.37.37v2.28c0,.22-.15.37-.37.37h-2.14v3.73Z"/>
  <path class="st0" d="M208.01,19.8v-11.27c0-.22.15-.37.37-.37h3.95c.22,0,.37.15.37.37v6.02c0,1.28,0,1.92.96,1.92s.96-.64.96-1.92v-6.02c0-.22.15-.37.37-.37h3.93c.22,0,.37.15.37.37v11.27c0,2.63-.66,5.67-5.6,5.67s-5.67-3.04-5.67-5.67Z"/>
  <path class="st0" d="M225.55,18.53c0-3.76.66-10.48,5.89-10.48,1.62,0,4.03.81,4.03,4.96v.02c0,.22-.15.37-.37.37h-2.36c-.22,0-.37-.15-.37-.37,0-1.77-.22-2.36-.86-2.36-.91,0-1.69,1.28-1.69,3.19,0,1.65.49,2.36,1.4,2.36.49,0,1.03-.2,1.03-1.15v-.02c0-.22.15-.37.37-.37h2.55c.22,0,.37.15.37.37v9.94c0,.22-.2.37-.56.37h-2.8c-3.83,0-6.63-.52-6.63-6.83Z"/>
  <path class="st0" d="M236.47,24.96l3.19-16.45c.05-.22.22-.34.44-.34h5.23c.25,0,.39.1.44.32l3.29,16.47v.1c0,.2-.15.29-.37.29h-3.81c-.25,0-.39-.1-.42-.34l-.61-3.63c-.05-.25-.2-.34-.42-.34h-2.16c-.25,0-.37.12-.42.34l-.81,3.63c-.05.22-.17.34-.42.34h-2.8c-.27,0-.42-.12-.37-.39ZM243.23,16.47l-.42-3.49c-.05-.32-.17-.47-.32-.47-.12,0-.27.15-.32.47l-.49,3.49v.05c0,.25.2.34.54.34h.42c.39,0,.64-.15.59-.39Z"/>
  <path class="st0" d="M250.03,24.98V8.54c0-.22.15-.37.37-.37h4.54c.22,0,.34.12.39.32l1.64,6.31c.05.17.15.27.22.27.1,0,.17-.1.22-.27l1.72-6.31c.05-.2.17-.32.39-.32h4.57c.22,0,.37.15.37.37v16.45c0,.22-.15.37-.37.37h-3.24c-.22,0-.37-.15-.37-.37v-7.07c0-.15-.1-.25-.2-.25-.07,0-.17.07-.2.2l-1.94,7.17c-.05.2-.17.32-.39.32h-1.72c-.22,0-.34-.12-.39-.32l-1.92-7.14c-.02-.12-.12-.2-.2-.2-.1,0-.2.1-.2.25v7.05c0,.22-.15.37-.37.37h-2.58c-.22,0-.37-.15-.37-.37Z"/>
  <path class="st0" d="M265.95,24.98V8.54c0-.22.15-.37.37-.37h3.85c.22,0,.37.15.37.37v16.45c0,.22-.15.37-.37.37h-3.85c-.22,0-.37-.15-.37-.37Z"/>
  <path class="st0" d="M272.16,24.98v-8.42c0-.22.15-.37.37-.37,2.21,0,2.95-.15,2.95-.66,0-1.15-3.54-1.01-3.54-4.05,0-1.35,1.18-3.54,4.86-3.54,3.46,0,4.91,1.1,4.91,4.44v.02c0,.22-.15.37-.37.37h-2.5c-.22,0-.37-.15-.37-.37,0-1.13-.12-2.11-1.4-2.11-1.03,0-1.25.76-1.25,1.35,0,3.14,6.56,1.99,6.56,8.49,0,3.73-2.19,5.21-6.24,5.21h-3.61c-.22,0-.37-.15-.37-.37Z"/>
  <path class="st0" d="M290.53,25.35h-3.66c-2.14,0-3.39-1.15-3.39-3.31v-13.5c0-.22.22-.37.56-.37h6.29c.34,0,.57.15.57.37v1.79c0,.22-.22.37-.57.37h-1.62c-.32,0-.54.15-.54.37v1.03c0,.22.22.37.54.37h1.08c.32,0,.54.15.54.37v1.79c0,.22-.22.37-.54.37h-1.08c-.32,0-.54.1-.54.12v.76c0,.22.22.37.54.37h1.82c.32,0,.54.15.54.37v8.37c0,.22-.22.37-.54.37Z"/>
  <path class="st0" d="M297.82,14.92c0,1.18.79,1.33,2.11,1.33.25,0,.37.15.37.37v5.48c0,2.21-1.35,3.44-3.51,3.44s-3.39-1.2-3.39-3.36v-10.97h-1.4c-.22,0-.37-.15-.37-.37v-2.28c0-.22.15-.37.37-.37h7.96c.22,0,.37.15.37.37v2.28c0,.22-.15.37-.37.37h-2.14v3.73Z"/>
  <path class="st0" d="M300.84,24.96l3.19-16.45c.05-.22.22-.34.44-.34h5.23c.25,0,.39.1.44.32l3.29,16.47v.1c0,.2-.15.29-.37.29h-3.81c-.25,0-.39-.1-.42-.34l-.61-3.63c-.05-.25-.2-.34-.42-.34h-2.16c-.25,0-.37.12-.42.34l-.81,3.63c-.05.22-.17.34-.42.34h-2.8c-.27,0-.42-.12-.37-.39ZM307.59,16.47l-.42-3.49c-.05-.32-.17-.47-.32-.47-.12,0-.27.15-.32.47l-.49,3.49v.05c0,.25.2.34.54.34h.42c.39,0,.64-.15.59-.39Z"/>
  <path class="st0" d="M315.9,16.42l-1.38-7.86v-.1c0-.2.1-.29.32-.29h6.38c.25,0,.37.12.32.39l-1.35,7.86c-.05.22-.2.32-.42.32h-3.49c-.22,0-.34-.1-.39-.32ZM315.65,24.98v-7.1c0-.22.15-.37.37-.37h3.98c.22,0,.37.15.37.37v7.1c0,.22-.15.37-.37.37h-3.98c-.22,0-.37-.15-.37-.37Z"/>
</svg>