<?xml version="1.0" encoding="UTF-8"?>
<svg id="Ebene_1" xmlns="http://www.w3.org/2000/svg" version="1.1" viewBox="0 0 1649.56 590.85">
  <!-- Generator: Adobe Illustrator 30.5.0, SVG Export Plug-In . SVG Version: 2.1.4 Build 167)  -->
  <defs>
    <style>
      .st0 {
        fill: #ffdfa8;
      }
    </style>
  </defs>
  <g>
    <path class="st0" d="M2.11,582.02v-137.73c0-3.61,1.41-6.02,3.52-6.02,21.11,0,28.15-2.41,28.15-10.84,0-18.87-33.78-16.46-33.78-66.26,0-22.08,11.26-57.82,46.45-57.82,33.08,0,46.92,18.07,46.92,72.68v.4c0,3.61-1.41,6.02-3.52,6.02h-23.93c-2.11,0-3.52-2.41-3.52-6.02,0-18.47-1.17-34.53-13.37-34.53-9.85,0-11.96,12.45-11.96,22.08,0,51.4,62.64,32.53,62.64,138.94,0,61.04-20.88,85.13-59.59,85.13H5.63c-2.11,0-3.52-2.41-3.52-6.02Z"/>
    <path class="st0" d="M177.59,588.04h-34.96c-20.41,0-32.38-18.87-32.38-54.21v-220.85c0-3.61,2.11-6.02,5.4-6.02h60.06c3.28,0,5.4,2.41,5.4,6.02v29.31c0,3.61-2.11,6.02-5.4,6.02h-15.48c-3.05,0-5.16,2.41-5.16,6.02v16.87c0,3.61,2.11,6.02,5.16,6.02h10.32c3.05,0,5.16,2.41,5.16,6.02v29.31c0,3.61-2.11,6.02-5.16,6.02h-10.32c-3.05,0-5.16,1.61-5.16,2.01v12.45c0,3.61,2.11,6.02,5.16,6.02h17.36c3.05,0,5.16,2.41,5.16,6.02v136.93c0,3.61-2.11,6.02-5.16,6.02Z"/>
    <path class="st0" d="M270.02,582.82l-29.09-269.84v-1.61c0-2.81,1.17-4.42,3.28-4.42h32.84c2.11,0,3.52,2.01,3.99,5.22l13.84,131.71c.23,2.81,1.17,4.42,2.11,4.42.7,0,1.64-1.61,1.88-4.42l13.37-131.71c.47-3.21,1.88-5.22,3.99-5.22h32.84c2.35,0,3.75,2.41,3.28,6.02l-32.61,269.84c-.47,3.21-1.88,5.22-3.99,5.22h-41.76c-2.11,0-3.52-2.01-3.99-5.22Z"/>
    <path class="st0" d="M361.28,582.02v-269.04c0-3.61,1.41-6.02,3.52-6.02h36.83c2.11,0,3.52,2.41,3.52,6.02v269.04c0,3.61-1.41,6.02-3.52,6.02h-36.83c-2.11,0-3.52-2.41-3.52-6.02Z"/>
    <path class="st0" d="M486.56,588.04h-34.96c-20.41,0-32.38-18.87-32.38-54.21v-220.85c0-3.61,2.11-6.02,5.4-6.02h60.06c3.28,0,5.4,2.41,5.4,6.02v29.31c0,3.61-2.11,6.02-5.4,6.02h-15.48c-3.05,0-5.16,2.41-5.16,6.02v16.87c0,3.61,2.11,6.02,5.16,6.02h10.32c3.05,0,5.16,2.41,5.16,6.02v29.31c0,3.61-2.11,6.02-5.16,6.02h-10.32c-3.05,0-5.16,1.61-5.16,2.01v12.45c0,3.61,2.11,6.02,5.16,6.02h17.36c3.05,0,5.16,2.41,5.16,6.02v136.93c0,3.61-2.11,6.02-5.16,6.02Z"/>
    <path class="st0" d="M505.79,582.02v-269.04c0-3.61,1.41-6.02,3.52-6.02h33.78c1.88,0,3.28,1.2,3.99,4.82l22.29,105.21c.47,2.41,1.41,3.61,2.11,3.61.94,0,1.88-1.61,1.88-4.82v-102.8c0-3.61,1.41-6.02,3.52-6.02h24.63c2.11,0,3.52,2.41,3.52,6.02v269.04c0,3.61-1.41,6.02-3.52,6.02h-33.78c-1.88,0-3.28-1.21-3.99-4.82l-22.29-115.25c-.47-2.41-1.41-3.61-2.11-3.61-.94,0-1.88,1.61-1.88,4.42v113.24c0,3.61-1.41,6.02-3.52,6.02h-24.63c-2.11,0-3.52-2.41-3.52-6.02Z"/>
    <path class="st0" d="M686.43,588.04h-34.96c-20.41,0-32.38-18.87-32.38-54.21v-220.85c0-3.61,2.11-6.02,5.4-6.02h60.06c3.28,0,5.4,2.41,5.4,6.02v29.31c0,3.61-2.11,6.02-5.4,6.02h-15.48c-3.05,0-5.16,2.41-5.16,6.02v16.87c0,3.61,2.11,6.02,5.16,6.02h10.32c3.05,0,5.16,2.41,5.16,6.02v29.31c0,3.61-2.11,6.02-5.16,6.02h-10.32c-3.05,0-5.16,1.61-5.16,2.01v12.45c0,3.61,2.11,6.02,5.16,6.02h17.36c3.05,0,5.16,2.41,5.16,6.02v136.93c0,3.61-2.11,6.02-5.16,6.02Z"/>
    <path class="st0" d="M751.41,476.41c0-61.44,6.33-171.46,56.31-171.46,15.48,0,38.47,13.25,38.47,81.11v.4c0,3.61-1.41,6.02-3.52,6.02h-22.52c-2.11,0-3.52-2.41-3.52-6.02,0-28.91-2.11-38.55-8.21-38.55-8.68,0-16.19,20.88-16.19,52.2,0,26.9,4.69,38.55,13.37,38.55,4.69,0,9.85-3.21,9.85-18.87v-.4c0-3.61,1.41-6.02,3.52-6.02h24.4c2.11,0,3.52,2.41,3.52,6.02v162.63c0,3.61-1.88,6.02-5.4,6.02h-26.74c-36.6,0-63.34-8.43-63.34-111.63Z"/>
    <path class="st0" d="M856.28,493.28c0-113.24,22.99-188.33,57.48-188.33s54.9,72.28,54.9,188.33c0,62.64-19.71,96.37-56.07,96.37s-56.3-34.53-56.3-96.37ZM926.43,401.32c0-30.92-5.63-54.21-12.67-54.21-8.92,0-14.78,22.49-14.78,54.21,0,16.46,5.87,27.31,14.78,27.31,7.27,0,12.67-10.84,12.67-27.31Z"/>
    <path class="st0" d="M978.04,582.02v-269.04c0-3.61,1.41-6.02,3.52-6.02h33.78c1.88,0,3.29,1.2,3.99,4.82l22.29,105.21c.47,2.41,1.41,3.61,2.11,3.61.94,0,1.88-1.61,1.88-4.82v-102.8c0-3.61,1.41-6.02,3.52-6.02h24.63c2.11,0,3.52,2.41,3.52,6.02v269.04c0,3.61-1.41,6.02-3.52,6.02h-33.78c-1.88,0-3.28-1.21-3.99-4.82l-22.29-115.25c-.47-2.41-1.41-3.61-2.11-3.61-.94,0-1.88,1.61-1.88,4.42v113.24c0,3.61-1.41,6.02-3.52,6.02h-24.63c-2.11,0-3.52-2.41-3.52-6.02Z"/>
    <path class="st0" d="M1198.09,417.38c0,19.27,7.51,21.68,20.18,21.68,2.35,0,3.52,2.41,3.52,6.02v89.55c0,36.14-12.9,56.22-33.55,56.22s-32.38-19.68-32.38-55.01v-179.49h-13.37c-2.11,0-3.52-2.41-3.52-6.02v-37.34c0-3.61,1.41-6.02,3.52-6.02h76.01c2.11,0,3.52,2.41,3.52,6.02v37.34c0,3.61-1.41,6.02-3.52,6.02h-20.41v61.04Z"/>
    <path class="st0" d="M1231.4,493.28c0-113.24,22.99-188.33,57.48-188.33s54.9,72.28,54.9,188.33c0,62.64-19.71,96.37-56.07,96.37s-56.31-34.53-56.31-96.37ZM1301.55,401.32c0-30.92-5.63-54.21-12.67-54.21-8.92,0-14.78,22.49-14.78,54.21,0,16.46,5.87,27.31,14.78,27.31,7.27,0,12.67-10.84,12.67-27.31Z"/>
    <path class="st0" d="M1353.16,582.02v-269.04c0-3.61,1.41-6.02,3.52-6.02h36.36c48.56,0,60.53,73.08,60.53,143.35,0,63.44-4.69,137.73-61,137.73h-35.89c-2.11,0-3.52-2.41-3.52-6.02ZM1418.38,388.47c0-27.31-10.79-40.96-16.66-40.96-2.11,0-3.75,2.01-3.75,6.02v69.07c0,6.42,1.41,8.83,4.46,8.83,11.03-.4,15.95-26.1,15.95-42.97Z"/>
    <path class="st0" d="M1459.43,493.28c0-113.24,22.99-188.33,57.48-188.33s54.9,72.28,54.9,188.33c0,62.64-19.71,96.37-56.07,96.37s-56.31-34.53-56.31-96.37ZM1529.58,401.32c0-30.92-5.63-54.21-12.67-54.21-8.92,0-14.78,22.49-14.78,54.21,0,16.46,5.87,27.31,14.78,27.31,7.27,0,12.67-10.84,12.67-27.31Z"/>
    <path class="st0" d="M1595.5,441.88l-13.14-128.5v-1.61c0-3.21.94-4.82,3.05-4.82h61c2.35,0,3.52,2.01,3.05,6.42l-12.9,128.5c-.47,3.61-1.88,5.22-3.99,5.22h-33.31c-2.11,0-3.28-1.61-3.75-5.22ZM1593.15,582.02v-116.05c0-3.61,1.41-6.02,3.52-6.02h38.01c2.11,0,3.52,2.41,3.52,6.02v116.05c0,3.61-1.41,6.02-3.52,6.02h-38.01c-2.11,0-3.52-2.41-3.52-6.02Z"/>
  </g>
  <g>
    <path class="st0" d="M.7,278.68V9.64c0-3.61,1.41-6.02,3.52-6.02h47.86c26.74,0,40.12,15.26,40.12,44.97,0,15.66-5.16,31.72-13.61,40.56-1.17,1.2-1.88,2.41-1.88,3.21s.7,1.61,2.11,2.81c16.66,16.87,23.23,54.61,23.23,90.35,0,53.41-10.56,99.18-51.38,99.18H4.22c-2.11,0-3.52-2.41-3.52-6.02ZM47.16,78.3c4.93,0,13.84-7.23,13.84-19.27,0-11.24-8.21-16.46-13.14-16.46-2.11,0-3.75.8-3.75,2.81v29.71c0,2.01,1.17,3.21,3.05,3.21ZM47.39,145.76c5.63,0,16.66-6.83,16.66-20.88,0-12.85-9.62-18.87-15.48-18.87-2.58,0-4.46,1.2-4.46,3.61v33.73c0,1.61,1.17,2.41,3.28,2.41Z"/>
    <path class="st0" d="M179.94,284.7h-34.96c-20.41,0-32.38-18.87-32.38-54.21V9.64c0-3.61,2.11-6.02,5.4-6.02h60.06c3.28,0,5.4,2.41,5.4,6.02v29.31c0,3.61-2.11,6.02-5.4,6.02h-15.48c-3.05,0-5.16,2.41-5.16,6.02v16.87c0,3.61,2.11,6.02,5.16,6.02h10.32c3.05,0,5.16,2.41,5.16,6.02v29.31c0,3.61-2.11,6.02-5.16,6.02h-10.32c-3.05,0-5.16,1.61-5.16,2.01v12.45c0,3.61,2.11,6.02,5.16,6.02h17.36c3.05,0,5.16,2.41,5.16,6.02v136.93c0,3.61-2.11,6.02-5.16,6.02Z"/>
    <path class="st0" d="M199.17,278.68V9.24c0-3.61,1.41-6.02,3.52-6.02h42.7c45.28,0,61.94,26.9,61.94,66.26s-16.66,58.63-29.33,64.25c-1.88.8-2.58,2.01-2.58,2.81s.94,1.61,3.05,2.41c18.53,7.63,26.04,15.66,26.04,38.55v101.19c0,3.61-1.41,6.02-3.52,6.02h-36.6c-2.11,0-3.52-2.41-3.52-6.02v-103.6c0-12.45-6.1-15.66-11.26-15.66-3.52,0-5.63,1.61-5.63,5.62v113.64c0,3.61-1.41,6.02-3.52,6.02h-37.77c-2.11,0-3.52-2.41-3.52-6.02ZM246.8,106.81c6.1,0,19.24-8.43,19.24-32.93,0-21.28-11.73-28.11-18.06-28.11-2.35,0-3.99.8-3.99,2.41v56.62c0,1.2,1.17,2.01,2.81,2.01Z"/>
    <path class="st0" d="M318.58,230.49V9.64c0-3.61,1.41-6.02,3.52-6.02h37.77c2.11,0,3.52,2.41,3.52,6.02v120.06c0,3.61,1.41,6.02,3.52,6.02h17.83c2.11,0,3.52,2.41,3.52,6.02v136.93c0,3.61-1.41,6.02-3.52,6.02h-33.78c-20.41,0-32.38-18.87-32.38-54.21Z"/>
    <path class="st0" d="M401.16,278.68V9.64c0-3.61,1.41-6.02,3.52-6.02h36.83c2.11,0,3.52,2.41,3.52,6.02v269.04c0,3.61-1.41,6.02-3.52,6.02h-36.83c-2.11,0-3.52-2.41-3.52-6.02Z"/>
    <path class="st0" d="M459.11,278.68V9.64c0-3.61,1.41-6.02,3.52-6.02h33.78c1.88,0,3.29,1.2,3.99,4.82l22.29,105.21c.47,2.41,1.41,3.61,2.11,3.61.94,0,1.88-1.61,1.88-4.82V9.64c0-3.61,1.41-6.02,3.52-6.02h24.63c2.11,0,3.52,2.41,3.52,6.02v269.04c0,3.61-1.41,6.02-3.52,6.02h-33.78c-1.88,0-3.28-1.21-3.99-4.82l-22.29-115.25c-.47-2.41-1.41-3.61-2.11-3.61-.94,0-1.88,1.61-1.88,4.42v113.24c0,3.61-1.41,6.02-3.52,6.02h-24.63c-2.11,0-3.52-2.41-3.52-6.02Z"/>
    <path class="st0" d="M689.01,284.7h-34.96c-20.41,0-32.38-18.87-32.38-54.21V9.64c0-3.61,2.11-6.02,5.4-6.02h60.06c3.29,0,5.4,2.41,5.4,6.02v29.31c0,3.61-2.11,6.02-5.4,6.02h-15.48c-3.05,0-5.16,2.41-5.16,6.02v16.87c0,3.61,2.11,6.02,5.16,6.02h10.32c3.05,0,5.16,2.41,5.16,6.02v29.31c0,3.61-2.11,6.02-5.16,6.02h-10.32c-3.05,0-5.16,1.61-5.16,2.01v12.45c0,3.61,2.11,6.02,5.16,6.02h17.36c3.05,0,5.16,2.41,5.16,6.02v136.93c0,3.61-2.11,6.02-5.16,6.02Z"/>
    <path class="st0" d="M708.25,278.68V9.64c0-3.61,1.41-6.02,3.52-6.02h33.78c1.88,0,3.29,1.2,3.99,4.82l22.29,105.21c.47,2.41,1.41,3.61,2.11,3.61.94,0,1.88-1.61,1.88-4.82V9.64c0-3.61,1.41-6.02,3.52-6.02h24.63c2.11,0,3.52,2.41,3.52,6.02v269.04c0,3.61-1.41,6.02-3.52,6.02h-33.78c-1.88,0-3.28-1.21-3.99-4.82l-22.29-115.25c-.47-2.41-1.41-3.61-2.11-3.61-.94,0-1.88,1.61-1.88,4.42v113.24c0,3.61-1.41,6.02-3.52,6.02h-24.63c-2.11,0-3.52-2.41-3.52-6.02Z"/>
    <path class="st0" d="M872.23,278.68v-137.73c0-3.61,1.41-6.02,3.52-6.02,21.11,0,28.15-2.41,28.15-10.84,0-18.87-33.78-16.46-33.78-66.26,0-22.08,11.26-57.82,46.45-57.82,33.08,0,46.92,18.07,46.92,72.68v.4c0,3.61-1.41,6.02-3.52,6.02h-23.93c-2.11,0-3.52-2.41-3.52-6.02,0-18.47-1.17-34.53-13.37-34.53-9.85,0-11.96,12.45-11.96,22.09,0,51.4,62.64,32.53,62.64,138.94,0,61.04-20.88,85.13-59.59,85.13h-34.49c-2.11,0-3.52-2.41-3.52-6.02Z"/>
    <path class="st0" d="M972.87,278.27l30.5-269.04c.47-3.61,2.11-5.62,4.22-5.62h49.97c2.35,0,3.75,1.61,4.22,5.22l31.44,269.44v1.61c0,3.21-1.41,4.82-3.52,4.82h-36.36c-2.35,0-3.75-1.61-3.99-5.62l-5.87-59.43c-.47-4.02-1.88-5.62-3.99-5.62h-20.64c-2.35,0-3.52,2.01-3.99,5.62l-7.74,59.43c-.47,3.61-1.64,5.62-3.99,5.62h-26.75c-2.58,0-3.99-2.01-3.52-6.42ZM1037.39,139.34l-3.99-57.02c-.47-5.22-1.64-7.63-3.05-7.63-1.17,0-2.58,2.41-3.05,7.63l-4.69,57.02v.8c0,4.02,1.88,5.62,5.16,5.62h3.99c3.75,0,6.1-2.41,5.63-6.42Z"/>
    <path class="st0" d="M1097.68,230.49V9.64c0-3.61,1.41-6.02,3.52-6.02h37.77c2.11,0,3.52,2.41,3.52,6.02v120.06c0,3.61,1.41,6.02,3.52,6.02h17.83c2.11,0,3.52,2.41,3.52,6.02v136.93c0,3.61-1.41,6.02-3.52,6.02h-33.78c-20.41,0-32.38-18.87-32.38-54.21Z"/>
    <path class="st0" d="M1181.67,278.68v-137.73c0-3.61,1.41-6.02,3.52-6.02,21.11,0,28.15-2.41,28.15-10.84,0-18.87-33.78-16.46-33.78-66.26,0-22.08,11.26-57.82,46.45-57.82,33.08,0,46.92,18.07,46.92,72.68v.4c0,3.61-1.41,6.02-3.52,6.02h-23.93c-2.11,0-3.52-2.41-3.52-6.02,0-18.47-1.17-34.53-13.37-34.53-9.85,0-11.96,12.45-11.96,22.09,0,51.4,62.64,32.53,62.64,138.94,0,61.04-20.88,85.13-59.59,85.13h-34.49c-2.11,0-3.52-2.41-3.52-6.02Z"/>
    <path class="st0" d="M1282.31,278.27l30.5-269.04c.47-3.61,2.11-5.62,4.22-5.62h49.97c2.35,0,3.75,1.61,4.22,5.22l31.44,269.44v1.61c0,3.21-1.41,4.82-3.52,4.82h-36.36c-2.35,0-3.75-1.61-3.99-5.62l-5.87-59.43c-.47-4.02-1.88-5.62-3.99-5.62h-20.64c-2.35,0-3.52,2.01-3.99,5.62l-7.74,59.43c-.47,3.61-1.64,5.62-3.99,5.62h-26.75c-2.58,0-3.99-2.01-3.52-6.42ZM1346.83,139.34l-3.99-57.02c-.47-5.22-1.64-7.63-3.05-7.63-1.17,0-2.58,2.41-3.05,7.63l-4.69,57.02v.8c0,4.02,1.88,5.62,5.16,5.62h3.99c3.75,0,6.1-2.41,5.63-6.42Z"/>
  </g>
</svg>