<?xml version="1.0" encoding="utf-8"?>
<!-- Generator: Adobe Illustrator 27.8.0, SVG Export Plug-In . SVG Version: 6.00 Build 0)  -->
<svg version="1.1" id="Ebene_1" xmlns="http://www.w3.org/2000/svg" xmlns:xlink="http://www.w3.org/1999/xlink" x="0px" y="0px"
	 viewBox="360 1170 360 125" style="enable-background:new 0 0 1125 2436;" xml:space="preserve">
<style type="text/css">
	.st0{fill:#ffdfa8;}
</style>
<g>
	<path class="st0" d="M367.19,1236.68v-32.8c0-0.44,0.29-0.73,0.73-0.73h9.99c5.58,0,8.37,1.86,8.37,5.48
		c0,1.91-1.08,3.87-2.84,4.94c-0.24,0.15-0.39,0.29-0.39,0.39c0,0.1,0.15,0.2,0.44,0.34c3.48,2.06,4.85,6.66,4.85,11.01
		c0,6.51-2.2,12.09-10.72,12.09h-9.69C367.48,1237.41,367.19,1237.12,367.19,1236.68z M376.88,1212.25c1.03,0,2.89-0.88,2.89-2.35
		c0-1.37-1.71-2.01-2.74-2.01c-0.44,0-0.78,0.1-0.78,0.34v3.62C376.25,1212.1,376.49,1212.25,376.88,1212.25z M376.93,1220.47
		c1.17,0,3.48-0.83,3.48-2.55c0-1.57-2.01-2.3-3.23-2.3c-0.54,0-0.93,0.15-0.93,0.44v4.11
		C376.25,1220.38,376.49,1220.47,376.93,1220.47z"/>
	<path class="st0" d="M404.47,1237.41h-7.29c-4.26,0-6.76-2.3-6.76-6.61v-26.92c0-0.44,0.44-0.73,1.13-0.73h12.53
		c0.69,0,1.13,0.29,1.13,0.73v3.57c0,0.44-0.44,0.73-1.13,0.73h-3.23c-0.64,0-1.08,0.29-1.08,0.73v2.06c0,0.44,0.44,0.73,1.08,0.73
		h2.15c0.64,0,1.08,0.29,1.08,0.73v3.57c0,0.44-0.44,0.73-1.08,0.73h-2.15c-0.64,0-1.08,0.2-1.08,0.25v1.52
		c0,0.44,0.44,0.73,1.08,0.73h3.62c0.64,0,1.08,0.29,1.08,0.73v16.69C405.55,1237.12,405.11,1237.41,404.47,1237.41z"/>
	<path class="st0" d="M408.67,1236.68v-32.85c0-0.44,0.29-0.73,0.73-0.73h8.91c9.45,0,12.92,3.28,12.92,8.08
		c0,4.6-3.48,7.15-6.12,7.83c-0.39,0.1-0.54,0.24-0.54,0.34c0,0.1,0.2,0.2,0.64,0.29c3.87,0.93,5.43,1.91,5.43,4.7v12.34
		c0,0.44-0.29,0.73-0.73,0.73h-7.64c-0.44,0-0.73-0.29-0.73-0.73v-12.63c0-1.52-1.27-1.91-2.35-1.91c-0.73,0-1.17,0.2-1.17,0.69
		v13.85c0,0.44-0.29,0.73-0.73,0.73h-7.88C408.97,1237.41,408.67,1237.12,408.67,1236.68z M418.61,1215.72
		c1.27,0,4.01-1.03,4.01-4.01c0-2.59-2.45-3.43-3.77-3.43c-0.49,0-0.83,0.1-0.83,0.29v6.9
		C418.02,1215.63,418.27,1215.72,418.61,1215.72z"/>
	<path class="st0" d="M433.73,1230.8v-26.92c0-0.44,0.29-0.73,0.73-0.73h7.88c0.44,0,0.73,0.29,0.73,0.73v14.64
		c0,0.44,0.29,0.73,0.73,0.73h3.72c0.44,0,0.73,0.29,0.73,0.73v16.69c0,0.44-0.29,0.73-0.73,0.73h-7.05
		C436.22,1237.41,433.73,1235.11,433.73,1230.8z"/>
	<path class="st0" d="M450.96,1236.68v-32.8c0-0.44,0.29-0.73,0.73-0.73h7.69c0.44,0,0.73,0.29,0.73,0.73v32.8
		c0,0.44-0.29,0.73-0.73,0.73h-7.69C451.26,1237.41,450.96,1237.12,450.96,1236.68z"/>
	<path class="st0" d="M463.34,1236.68v-32.8c0-0.44,0.29-0.73,0.73-0.73h7.05c0.39,0,0.69,0.15,0.83,0.59l4.65,12.83
		c0.1,0.29,0.29,0.44,0.44,0.44c0.2,0,0.39-0.2,0.39-0.59v-12.53c0-0.44,0.29-0.73,0.73-0.73h5.14c0.44,0,0.73,0.29,0.73,0.73v32.8
		c0,0.44-0.29,0.73-0.73,0.73h-7.05c-0.39,0-0.69-0.15-0.83-0.59l-4.65-14.05c-0.1-0.29-0.29-0.44-0.44-0.44
		c-0.2,0-0.39,0.2-0.39,0.54v13.8c0,0.44-0.29,0.73-0.73,0.73h-5.14C463.63,1237.41,463.34,1237.12,463.34,1236.68z"/>
	<path class="st0" d="M512.29,1237.41h-7.29c-4.26,0-6.75-2.3-6.75-6.61v-26.92c0-0.44,0.44-0.73,1.13-0.73h12.53
		c0.69,0,1.13,0.29,1.13,0.73v3.57c0,0.44-0.44,0.73-1.13,0.73h-3.23c-0.64,0-1.08,0.29-1.08,0.73v2.06c0,0.44,0.44,0.73,1.08,0.73
		h2.15c0.64,0,1.08,0.29,1.08,0.73v3.57c0,0.44-0.44,0.73-1.08,0.73h-2.15c-0.64,0-1.08,0.2-1.08,0.25v1.52
		c0,0.44,0.44,0.73,1.08,0.73h3.62c0.64,0,1.08,0.29,1.08,0.73v16.69C513.36,1237.12,512.92,1237.41,512.29,1237.41z"/>
	<path class="st0" d="M516.49,1236.68v-32.8c0-0.44,0.29-0.73,0.73-0.73h7.05c0.39,0,0.69,0.15,0.83,0.59l4.65,12.83
		c0.1,0.29,0.29,0.44,0.44,0.44c0.2,0,0.39-0.2,0.39-0.59v-12.53c0-0.44,0.29-0.73,0.73-0.73h5.14c0.44,0,0.73,0.29,0.73,0.73v32.8
		c0,0.44-0.29,0.73-0.73,0.73h-7.05c-0.39,0-0.69-0.15-0.83-0.59l-4.65-14.05c-0.1-0.29-0.29-0.44-0.44-0.44
		c-0.2,0-0.39,0.2-0.39,0.54v13.8c0,0.44-0.29,0.73-0.73,0.73h-5.14C516.78,1237.41,516.49,1237.12,516.49,1236.68z"/>
	<path class="st0" d="M551.68,1236.68v-16.79c0-0.44,0.29-0.73,0.73-0.73c4.41,0,5.87-0.29,5.87-1.32c0-2.3-7.05-2.01-7.05-8.08
		c0-2.69,2.35-7.05,9.69-7.05c6.9,0,9.79,2.2,9.79,8.86v0.05c0,0.44-0.29,0.73-0.73,0.73h-4.99c-0.44,0-0.73-0.29-0.73-0.73
		c0-2.25-0.25-4.21-2.79-4.21c-2.06,0-2.5,1.52-2.5,2.69c0,6.27,13.07,3.97,13.07,16.94c0,7.44-4.36,10.38-12.43,10.38h-7.2
		C551.97,1237.41,551.68,1237.12,551.68,1236.68z"/>
	<path class="st0" d="M572.48,1236.63l6.36-32.8c0.1-0.44,0.44-0.69,0.88-0.69h10.43c0.49,0,0.78,0.2,0.88,0.64l6.56,32.85v0.2
		c0,0.39-0.29,0.59-0.73,0.59h-7.59c-0.49,0-0.78-0.2-0.83-0.69l-1.22-7.24c-0.1-0.49-0.39-0.69-0.83-0.69h-4.31
		c-0.49,0-0.73,0.24-0.83,0.69l-1.62,7.24c-0.1,0.44-0.34,0.69-0.83,0.69h-5.58C572.68,1237.41,572.39,1237.17,572.48,1236.63z
		 M585.95,1219.69l-0.83-6.95c-0.1-0.64-0.34-0.93-0.64-0.93c-0.25,0-0.54,0.29-0.64,0.93l-0.98,6.95v0.1
		c0,0.49,0.39,0.69,1.08,0.69h0.83C585.55,1220.47,586.04,1220.18,585.95,1219.69z"/>
	<path class="st0" d="M598.76,1230.8v-26.92c0-0.44,0.29-0.73,0.73-0.73h7.88c0.44,0,0.73,0.29,0.73,0.73v14.64
		c0,0.44,0.29,0.73,0.73,0.73h3.72c0.44,0,0.73,0.29,0.73,0.73v16.69c0,0.44-0.29,0.73-0.73,0.73h-7.05
		C601.26,1237.41,598.76,1235.11,598.76,1230.8z"/>
	<path class="st0" d="M615.77,1236.68v-16.79c0-0.44,0.29-0.73,0.73-0.73c4.41,0,5.87-0.29,5.87-1.32c0-2.3-7.05-2.01-7.05-8.08
		c0-2.69,2.35-7.05,9.69-7.05c6.9,0,9.79,2.2,9.79,8.86v0.05c0,0.44-0.29,0.73-0.73,0.73h-4.99c-0.44,0-0.73-0.29-0.73-0.73
		c0-2.25-0.25-4.21-2.79-4.21c-2.06,0-2.5,1.52-2.5,2.69c0,6.27,13.07,3.97,13.07,16.94c0,7.44-4.36,10.38-12.43,10.38h-7.2
		C616.07,1237.41,615.77,1237.12,615.77,1236.68z"/>
	<path class="st0" d="M636.58,1236.63l6.36-32.8c0.1-0.44,0.44-0.69,0.88-0.69h10.43c0.49,0,0.78,0.2,0.88,0.64l6.56,32.85v0.2
		c0,0.39-0.29,0.59-0.73,0.59h-7.59c-0.49,0-0.78-0.2-0.83-0.69l-1.22-7.24c-0.1-0.49-0.39-0.69-0.83-0.69h-4.31
		c-0.49,0-0.73,0.24-0.83,0.69l-1.62,7.24c-0.1,0.44-0.34,0.69-0.83,0.69h-5.58C636.78,1237.41,636.48,1237.17,636.58,1236.63z
		 M650.04,1219.69l-0.83-6.95c-0.1-0.64-0.34-0.93-0.64-0.93c-0.25,0-0.54,0.29-0.64,0.93l-0.98,6.95v0.1
		c0,0.49,0.39,0.69,1.08,0.69h0.83C649.65,1220.47,650.14,1220.18,650.04,1219.69z"/>
	<path class="st0" d="M367.48,1279.97v-16.79c0-0.44,0.29-0.73,0.73-0.73c4.41,0,5.87-0.29,5.87-1.32c0-2.3-7.05-2.01-7.05-8.08
		c0-2.69,2.35-7.05,9.69-7.05c6.9,0,9.79,2.2,9.79,8.86v0.05c0,0.44-0.29,0.73-0.73,0.73h-4.99c-0.44,0-0.73-0.29-0.73-0.73
		c0-2.25-0.24-4.21-2.79-4.21c-2.06,0-2.5,1.52-2.5,2.69c0,6.27,13.07,3.96,13.07,16.94c0,7.44-4.36,10.38-12.43,10.38h-7.2
		C367.78,1280.71,367.48,1280.41,367.48,1279.97z"/>
	<path class="st0" d="M403.98,1280.71h-7.29c-4.26,0-6.75-2.3-6.75-6.61v-26.92c0-0.44,0.44-0.73,1.13-0.73h12.53
		c0.69,0,1.13,0.29,1.13,0.73v3.57c0,0.44-0.44,0.73-1.13,0.73h-3.23c-0.64,0-1.08,0.29-1.08,0.73v2.06c0,0.44,0.44,0.73,1.08,0.73
		h2.15c0.64,0,1.08,0.29,1.08,0.73v3.57c0,0.44-0.44,0.73-1.08,0.73h-2.15c-0.64,0-1.08,0.2-1.08,0.24v1.52
		c0,0.44,0.44,0.73,1.08,0.73h3.62c0.64,0,1.08,0.29,1.08,0.73v16.69C405.06,1280.41,404.62,1280.71,403.98,1280.71z"/>
	<path class="st0" d="M424.25,1280.07l-6.07-32.89v-0.2c0-0.34,0.24-0.54,0.69-0.54h6.85c0.44,0,0.73,0.24,0.83,0.64l2.89,16.06
		c0.05,0.34,0.25,0.54,0.44,0.54c0.15,0,0.34-0.2,0.39-0.54l2.79-16.06c0.1-0.39,0.39-0.64,0.83-0.64h6.85
		c0.49,0,0.78,0.29,0.69,0.73l-6.8,32.89c-0.1,0.39-0.39,0.64-0.83,0.64h-8.71C424.64,1280.71,424.35,1280.46,424.25,1280.07z"/>
	<path class="st0" d="M442.94,1279.97v-32.8c0-0.44,0.29-0.73,0.73-0.73h7.69c0.44,0,0.73,0.29,0.73,0.73v32.8
		c0,0.44-0.29,0.73-0.73,0.73h-7.69C443.23,1280.71,442.94,1280.41,442.94,1279.97z"/>
	<path class="st0" d="M469.36,1280.71h-7.29c-4.26,0-6.76-2.3-6.76-6.61v-26.92c0-0.44,0.44-0.73,1.13-0.73h12.53
		c0.69,0,1.13,0.29,1.13,0.73v3.57c0,0.44-0.44,0.73-1.13,0.73h-3.23c-0.64,0-1.08,0.29-1.08,0.73v2.06c0,0.44,0.44,0.73,1.08,0.73
		h2.15c0.64,0,1.08,0.29,1.08,0.73v3.57c0,0.44-0.44,0.73-1.08,0.73h-2.15c-0.64,0-1.08,0.2-1.08,0.24v1.52
		c0,0.44,0.44,0.73,1.08,0.73h3.62c0.64,0,1.08,0.29,1.08,0.73v16.69C470.43,1280.41,469.99,1280.71,469.36,1280.71z"/>
	<path class="st0" d="M473.56,1279.97v-32.8c0-0.44,0.29-0.73,0.73-0.73h7.05c0.39,0,0.69,0.15,0.83,0.59l4.65,12.82
		c0.1,0.29,0.29,0.44,0.44,0.44c0.2,0,0.39-0.2,0.39-0.59v-12.53c0-0.44,0.29-0.73,0.73-0.73h5.14c0.44,0,0.73,0.29,0.73,0.73v32.8
		c0,0.44-0.29,0.73-0.73,0.73h-7.05c-0.39,0-0.69-0.15-0.83-0.59l-4.65-14.05c-0.1-0.29-0.29-0.44-0.44-0.44
		c-0.2,0-0.39,0.2-0.39,0.54v13.8c0,0.44-0.29,0.73-0.73,0.73h-5.14C473.85,1280.71,473.56,1280.41,473.56,1279.97z"/>
	<path class="st0" d="M511.58,1280.71h-7.29c-4.26,0-6.76-2.3-6.76-6.61v-26.92c0-0.44,0.44-0.73,1.13-0.73h12.53
		c0.69,0,1.13,0.29,1.13,0.73v3.57c0,0.44-0.44,0.73-1.13,0.73h-3.23c-0.64,0-1.08,0.29-1.08,0.73v2.06c0,0.44,0.44,0.73,1.08,0.73
		h2.15c0.64,0,1.08,0.29,1.08,0.73v3.57c0,0.44-0.44,0.73-1.08,0.73h-2.15c-0.64,0-1.08,0.2-1.08,0.24v1.52
		c0,0.44,0.44,0.73,1.08,0.73h3.62c0.64,0,1.08,0.29,1.08,0.73v16.69C512.65,1280.41,512.21,1280.71,511.58,1280.71z"/>
	<path class="st0" d="M526.11,1267.1c0-7.49,1.32-20.9,11.75-20.9c3.23,0,8.03,1.62,8.03,9.89v0.05c0,0.44-0.29,0.73-0.73,0.73h-4.7
		c-0.44,0-0.73-0.29-0.73-0.73c0-3.52-0.44-4.7-1.71-4.7c-1.81,0-3.38,2.54-3.38,6.36c0,3.28,0.98,4.7,2.79,4.7
		c0.98,0,2.06-0.39,2.06-2.3v-0.05c0-0.44,0.29-0.73,0.73-0.73h5.09c0.44,0,0.73,0.29,0.73,0.73v19.82c0,0.44-0.39,0.73-1.13,0.73
		h-5.58C531.69,1280.71,526.11,1279.68,526.11,1267.1z"/>
	<path class="st0" d="M548.08,1269.16c0-13.8,4.8-22.96,11.99-22.96c7.05,0,11.45,8.81,11.45,22.96c0,7.64-4.11,11.75-11.7,11.75
		C552.29,1280.9,548.08,1276.69,548.08,1269.16z M562.71,1257.95c0-3.77-1.17-6.61-2.64-6.61c-1.86,0-3.08,2.74-3.08,6.61
		c0,2.01,1.22,3.33,3.08,3.33C561.59,1261.27,562.71,1259.95,562.71,1257.95z"/>
	<path class="st0" d="M573.67,1279.97v-32.8c0-0.44,0.29-0.73,0.73-0.73h7.05c0.39,0,0.68,0.15,0.83,0.59l4.65,12.82
		c0.1,0.29,0.29,0.44,0.44,0.44c0.2,0,0.39-0.2,0.39-0.59v-12.53c0-0.44,0.29-0.73,0.73-0.73h5.14c0.44,0,0.73,0.29,0.73,0.73v32.8
		c0,0.44-0.29,0.73-0.73,0.73h-7.05c-0.39,0-0.69-0.15-0.83-0.59l-4.65-14.05c-0.1-0.29-0.29-0.44-0.44-0.44
		c-0.2,0-0.39,0.2-0.39,0.54v13.8c0,0.44-0.29,0.73-0.73,0.73h-5.14C573.97,1280.71,573.67,1280.41,573.67,1279.97z"/>
	<path class="st0" d="M620.56,1259.9c0,2.35,1.57,2.64,4.21,2.64c0.49,0,0.73,0.29,0.73,0.73v10.92c0,4.4-2.69,6.85-7,6.85
		c-4.26,0-6.75-2.4-6.75-6.71v-21.88h-2.79c-0.44,0-0.73-0.29-0.73-0.73v-4.55c0-0.44,0.29-0.73,0.73-0.73h15.86
		c0.44,0,0.73,0.29,0.73,0.73v4.55c0,0.44-0.29,0.73-0.73,0.73h-4.26V1259.9z"/>
	<path class="st0" d="M627.06,1269.16c0-13.8,4.8-22.96,11.99-22.96c7.05,0,11.45,8.81,11.45,22.96c0,7.64-4.11,11.75-11.7,11.75
		C631.27,1280.9,627.06,1276.69,627.06,1269.16z M641.7,1257.95c0-3.77-1.17-6.61-2.64-6.61c-1.86,0-3.08,2.74-3.08,6.61
		c0,2.01,1.22,3.33,3.08,3.33C640.57,1261.27,641.7,1259.95,641.7,1257.95z"/>
	<path class="st0" d="M652.66,1279.97v-32.8c0-0.44,0.29-0.73,0.73-0.73h7.59c10.13,0,12.63,8.91,12.63,17.48
		c0,7.73-0.98,16.79-12.73,16.79h-7.49C652.96,1280.71,652.66,1280.41,652.66,1279.97z M666.27,1256.38c0-3.33-2.25-4.99-3.48-4.99
		c-0.44,0-0.78,0.24-0.78,0.73v8.42c0,0.78,0.29,1.08,0.93,1.08C665.24,1261.57,666.27,1258.44,666.27,1256.38z"/>
	<path class="st0" d="M674.8,1269.16c0-13.8,4.8-22.96,11.99-22.96c7.05,0,11.45,8.81,11.45,22.96c0,7.64-4.11,11.75-11.7,11.75
		C679.01,1280.9,674.8,1276.69,674.8,1269.16z M689.44,1257.95c0-3.77-1.17-6.61-2.64-6.61c-1.86,0-3.08,2.74-3.08,6.61
		c0,2.01,1.22,3.33,3.08,3.33C688.31,1261.27,689.44,1259.95,689.44,1257.95z"/>
	<path class="st0" d="M702.16,1262.89l-2.74-15.66v-0.2c0-0.39,0.2-0.59,0.64-0.59h12.73c0.49,0,0.73,0.24,0.64,0.78l-2.69,15.66
		c-0.1,0.44-0.39,0.64-0.83,0.64h-6.95C702.51,1263.53,702.26,1263.33,702.16,1262.89z M701.67,1279.97v-14.15
		c0-0.44,0.29-0.73,0.73-0.73h7.93c0.44,0,0.73,0.29,0.73,0.73v14.15c0,0.44-0.29,0.73-0.73,0.73h-7.93
		C701.97,1280.71,701.67,1280.41,701.67,1279.97z"/>
</g>
</svg>
