<?xml version="1.0" encoding="UTF-8"?>
<svg id="Ebene_1" xmlns="http://www.w3.org/2000/svg" version="1.1" viewBox="0 0 475.88 98.75">
  <!-- Generator: Adobe Illustrator 29.6.0, SVG Export Plug-In . SVG Version: 2.1.1 Build 207)  -->
  <defs>
    <style>
      .st0 {
        fill: #f6dea9;
      }
    </style>
  </defs>
  <path class="st0" d="M22.08,46.2V13.11c0-.44.3-.74.74-.74h10.08c5.63,0,8.45,1.88,8.45,5.53,0,1.93-1.09,3.9-2.86,4.99-.25.15-.4.3-.4.4s.15.2.44.35c3.51,2.07,4.89,6.72,4.89,11.11,0,6.57-2.22,12.2-10.82,12.2h-9.78c-.44,0-.74-.3-.74-.74ZM31.86,21.56c1.04,0,2.91-.89,2.91-2.37,0-1.38-1.73-2.02-2.77-2.02-.44,0-.79.1-.79.35v3.65c0,.25.25.4.64.4ZM31.91,29.86c1.19,0,3.51-.84,3.51-2.57,0-1.58-2.03-2.32-3.26-2.32-.54,0-.94.15-.94.44v4.15c0,.2.25.3.69.3Z"/>
  <path class="st0" d="M59.82,46.95h-7.36c-4.3,0-6.82-2.32-6.82-6.67V13.11c0-.44.44-.74,1.14-.74h12.64c.69,0,1.14.3,1.14.74v3.61c0,.44-.44.74-1.14.74h-3.26c-.64,0-1.09.3-1.09.74v2.07c0,.44.44.74,1.09.74h2.17c.64,0,1.09.3,1.09.74v3.61c0,.44-.44.74-1.09.74h-2.17c-.64,0-1.09.2-1.09.25v1.53c0,.44.44.74,1.09.74h3.66c.64,0,1.09.3,1.09.74v16.84c0,.44-.44.74-1.09.74Z"/>
  <path class="st0" d="M63.86,46.2V13.06c0-.44.3-.74.74-.74h8.99c9.53,0,13.04,3.31,13.04,8.15s-3.51,7.21-6.17,7.9c-.4.1-.54.25-.54.35s.2.2.64.3c3.9.94,5.48,1.93,5.48,4.74v12.45c0,.44-.3.74-.74.74h-7.71c-.44,0-.74-.3-.74-.74v-12.74c0-1.53-1.28-1.93-2.37-1.93-.74,0-1.19.2-1.19.69v13.98c0,.44-.3.74-.74.74h-7.95c-.44,0-.74-.3-.74-.74ZM73.89,25.06c1.28,0,4.05-1.04,4.05-4.05,0-2.62-2.47-3.46-3.8-3.46-.49,0-.84.1-.84.3v6.96c0,.15.25.25.59.25Z"/>
  <path class="st0" d="M89,40.28V13.11c0-.44.3-.74.74-.74h7.95c.44,0,.74.3.74.74v14.77c0,.44.3.74.74.74h3.75c.44,0,.74.3.74.74v16.84c0,.44-.3.74-.74.74h-7.11c-4.3,0-6.82-2.32-6.82-6.67Z"/>
  <path class="st0" d="M106.39,46.2V13.11c0-.44.3-.74.74-.74h7.75c.44,0,.74.3.74.74v33.09c0,.44-.3.74-.74.74h-7.75c-.44,0-.74-.3-.74-.74Z"/>
  <path class="st0" d="M118.59,46.2V13.11c0-.44.3-.74.74-.74h7.11c.4,0,.69.15.84.59l4.69,12.94c.1.3.3.44.44.44.2,0,.4-.2.4-.59v-12.64c0-.44.3-.74.74-.74h5.19c.44,0,.74.3.74.74v33.09c0,.44-.3.74-.74.74h-7.11c-.4,0-.69-.15-.84-.59l-4.69-14.18c-.1-.3-.3-.44-.44-.44-.2,0-.4.2-.4.54v13.93c0,.44-.3.74-.74.74h-5.19c-.44,0-.74-.3-.74-.74Z"/>
  <path class="st0" d="M166.99,46.95h-7.36c-4.3,0-6.82-2.32-6.82-6.67V13.11c0-.44.44-.74,1.14-.74h12.65c.69,0,1.14.3,1.14.74v3.61c0,.44-.44.74-1.14.74h-3.26c-.64,0-1.09.3-1.09.74v2.07c0,.44.44.74,1.09.74h2.17c.64,0,1.09.3,1.09.74v3.61c0,.44-.45.74-1.09.74h-2.17c-.64,0-1.09.2-1.09.25v1.53c0,.44.44.74,1.09.74h3.66c.64,0,1.09.3,1.09.74v16.84c0,.44-.44.74-1.09.74Z"/>
  <path class="st0" d="M171.04,46.2V13.11c0-.44.3-.74.74-.74h7.11c.4,0,.69.15.84.59l4.69,12.94c.1.3.3.44.44.44.2,0,.4-.2.4-.59v-12.64c0-.44.3-.74.74-.74h5.19c.44,0,.74.3.74.74v33.09c0,.44-.3.74-.74.74h-7.11c-.4,0-.69-.15-.84-.59l-4.69-14.18c-.1-.3-.3-.44-.44-.44-.2,0-.4.2-.4.54v13.93c0,.44-.3.74-.74.74h-5.19c-.44,0-.74-.3-.74-.74Z"/>
  <path class="st0" d="M205.56,46.2v-16.94c0-.44.3-.74.74-.74,4.45,0,5.93-.3,5.93-1.33,0-2.32-7.11-2.02-7.11-8.15,0-2.72,2.37-7.11,9.78-7.11,6.96,0,9.88,2.22,9.88,8.94v.05c0,.44-.3.74-.74.74h-5.04c-.44,0-.74-.3-.74-.74,0-2.27-.25-4.25-2.82-4.25-2.07,0-2.52,1.53-2.52,2.72,0,6.32,13.19,4,13.19,17.09,0,7.51-4.4,10.47-12.55,10.47h-7.26c-.44,0-.74-.3-.74-.74Z"/>
  <path class="st0" d="M226.75,46.15l6.42-33.09c.1-.44.44-.69.89-.69h10.52c.49,0,.79.2.89.64l6.62,33.14v.2c0,.4-.3.59-.74.59h-7.66c-.49,0-.79-.2-.84-.69l-1.23-7.31c-.1-.49-.4-.69-.84-.69h-4.35c-.49,0-.74.25-.84.69l-1.63,7.31c-.1.44-.35.69-.84.69h-5.63c-.54,0-.84-.25-.74-.79ZM240.33,29.07l-.84-7.01c-.1-.64-.35-.94-.64-.94-.25,0-.54.3-.64.94l-.99,7.01v.1c0,.49.4.69,1.09.69h.84c.79,0,1.28-.3,1.19-.79Z"/>
  <path class="st0" d="M253.02,40.28V13.11c0-.44.3-.74.74-.74h7.95c.44,0,.74.3.74.74v14.77c0,.44.3.74.74.74h3.75c.45,0,.74.3.74.74v16.84c0,.44-.3.74-.74.74h-7.11c-4.3,0-6.82-2.32-6.82-6.67Z"/>
  <path class="st0" d="M270.7,46.2v-16.94c0-.44.3-.74.74-.74,4.45,0,5.93-.3,5.93-1.33,0-2.32-7.11-2.02-7.11-8.15,0-2.72,2.37-7.11,9.78-7.11,6.96,0,9.88,2.22,9.88,8.94v.05c0,.44-.3.74-.74.74h-5.04c-.44,0-.74-.3-.74-.74,0-2.27-.25-4.25-2.82-4.25-2.07,0-2.52,1.53-2.52,2.72,0,6.32,13.19,4,13.19,17.09,0,7.51-4.4,10.47-12.55,10.47h-7.26c-.44,0-.74-.3-.74-.74Z"/>
  <path class="st0" d="M291.89,46.15l6.42-33.09c.1-.44.44-.69.89-.69h10.52c.49,0,.79.2.89.64l6.62,33.14v.2c0,.4-.3.59-.74.59h-7.66c-.49,0-.79-.2-.84-.69l-1.23-7.31c-.1-.49-.4-.69-.84-.69h-4.35c-.49,0-.74.25-.84.69l-1.63,7.31c-.1.44-.35.69-.84.69h-5.63c-.54,0-.84-.25-.74-.79ZM305.47,29.07l-.84-7.01c-.1-.64-.35-.94-.64-.94-.25,0-.54.3-.64.94l-.99,7.01v.1c0,.49.4.69,1.09.69h.84c.79,0,1.28-.3,1.19-.79Z"/>
  <path class="st0" d="M328.49,46.2V13.11c0-.44.44-.74,1.09-.74h7.06c.64,0,1.09.3,1.09.74v10.77c0,.3.25.49.54.49.25,0,.54-.15.64-.4l4.4-10.87c.2-.49.79-.74,1.48-.74h6.08c.64,0,.94.3.74.74l-6.52,14.23c-.1.2-.15.4-.15.54,0,.2.1.35.4.35,2.72,0,5.33,1.23,5.33,4.1v13.88c0,.44-.44.74-1.09.74h-7.26c-.69,0-1.09-.3-1.09-.74v-12.74c0-1.53-1.24-1.93-2.32-1.93-.74,0-1.19.2-1.19.69v13.98c0,.44-.44.74-1.09.74h-7.06c-.64,0-1.09-.3-1.09-.74Z"/>
  <path class="st0" d="M352.99,35.29c0-13.93,4.84-23.17,12.1-23.17s11.56,8.89,11.56,23.17c0,7.71-4.15,11.85-11.8,11.85s-11.85-4.25-11.85-11.85ZM367.75,23.98c0-3.8-1.19-6.67-2.67-6.67-1.88,0-3.11,2.77-3.11,6.67,0,2.03,1.23,3.36,3.11,3.36,1.53,0,2.67-1.33,2.67-3.36Z"/>
  <path class="st0" d="M378.62,46.2V13.11c0-.44.3-.74.74-.74h9.14c.44,0,.69.25.79.64l3.31,12.69c.1.35.3.54.44.54.2,0,.35-.2.44-.54l3.46-12.69c.1-.4.35-.64.79-.64h9.19c.44,0,.74.3.74.74v33.09c0,.44-.3.74-.74.74h-6.52c-.44,0-.74-.3-.74-.74v-14.23c0-.3-.2-.49-.4-.49-.15,0-.35.15-.4.4l-3.9,14.42c-.1.4-.35.64-.79.64h-3.46c-.44,0-.69-.25-.79-.64l-3.85-14.37c-.05-.25-.25-.4-.4-.4-.2,0-.4.2-.4.49v14.18c0,.44-.3.74-.74.74h-5.19c-.44,0-.74-.3-.74-.74Z"/>
  <path class="st0" d="M410.62,46.2V13.11c0-.44.3-.74.74-.74h9.14c.44,0,.69.25.79.64l3.31,12.69c.1.35.3.54.44.54.2,0,.35-.2.44-.54l3.46-12.69c.1-.4.35-.64.79-.64h9.19c.44,0,.74.3.74.74v33.09c0,.44-.3.74-.74.74h-6.52c-.44,0-.74-.3-.74-.74v-14.23c0-.3-.2-.49-.4-.49-.15,0-.35.15-.4.4l-3.9,14.42c-.1.4-.35.64-.79.64h-3.46c-.44,0-.69-.25-.79-.64l-3.85-14.37c-.05-.25-.25-.4-.4-.4-.2,0-.4.2-.4.49v14.18c0,.44-.3.74-.74.74h-5.19c-.44,0-.74-.3-.74-.74Z"/>
  <path class="st0" d="M454.73,25.95c0,2.37,1.58,2.67,4.25,2.67.49,0,.74.3.74.74v11.01c0,4.45-2.72,6.92-7.06,6.92s-6.82-2.42-6.82-6.77v-22.08h-2.82c-.44,0-.74-.3-.74-.74v-4.59c0-.44.3-.74.74-.74h16c.44,0,.74.3.74.74v4.59c0,.44-.3.74-.74.74h-4.3v7.51Z"/>
  <path class="st0" d="M22.08,86.72v-33.09c0-.44.3-.74.74-.74h9.14c.44,0,.69.25.79.64l3.31,12.69c.1.35.3.54.44.54.2,0,.35-.2.44-.54l3.46-12.69c.1-.4.35-.64.79-.64h9.19c.44,0,.74.3.74.74v33.09c0,.45-.3.74-.74.74h-6.52c-.44,0-.74-.3-.74-.74v-14.22c0-.3-.2-.49-.4-.49-.15,0-.35.15-.4.4l-3.9,14.42c-.1.4-.35.64-.79.64h-3.46c-.44,0-.69-.25-.79-.64l-3.85-14.37c-.05-.25-.25-.39-.4-.39-.2,0-.4.2-.4.49v14.18c0,.45-.3.74-.74.74h-5.19c-.44,0-.74-.3-.74-.74Z"/>
  <path class="st0" d="M54.09,86.72v-33.09c0-.44.3-.74.74-.74h7.75c.44,0,.74.3.74.74v33.09c0,.45-.3.74-.74.74h-7.75c-.44,0-.74-.3-.74-.74Z"/>
  <path class="st0" d="M78.39,66.47c0,2.37,1.58,2.67,4.25,2.67.49,0,.74.3.74.74v11.01c0,4.45-2.72,6.92-7.06,6.92s-6.82-2.42-6.82-6.77v-22.08h-2.82c-.44,0-.74-.3-.74-.74v-4.59c0-.44.3-.74.74-.74h16c.44,0,.74.3.74.74v4.59c0,.44-.3.74-.74.74h-4.3v7.51Z"/>
  <path class="st0" d="M101.8,86.82l-6.12-33.19v-.2c0-.35.25-.54.69-.54h6.92c.44,0,.74.25.84.64l2.91,16.2c.05.35.25.54.44.54.15,0,.35-.2.4-.54l2.82-16.2c.1-.4.4-.64.84-.64h6.92c.49,0,.79.3.69.74l-6.87,33.19c-.1.4-.4.64-.84.64h-8.79c-.44,0-.74-.25-.84-.64Z"/>
  <path class="st0" d="M118.04,75.81c0-13.93,4.84-23.17,12.1-23.17s11.56,8.89,11.56,23.17c0,7.71-4.15,11.85-11.8,11.85s-11.85-4.25-11.85-11.85ZM132.81,64.49c0-3.8-1.19-6.67-2.67-6.67-1.88,0-3.11,2.77-3.11,6.67,0,2.03,1.23,3.36,3.11,3.36,1.53,0,2.67-1.33,2.67-3.36Z"/>
  <path class="st0" d="M143.68,80.79v-27.17c0-.44.3-.74.74-.74h7.95c.44,0,.74.3.74.74v14.77c0,.44.3.74.74.74h3.75c.44,0,.74.3.74.74v16.84c0,.45-.3.74-.74.74h-7.11c-4.3,0-6.82-2.32-6.82-6.67Z"/>
  <path class="st0" d="M161.06,80.79v-27.17c0-.44.3-.74.74-.74h7.95c.44,0,.74.3.74.74v14.77c0,.44.3.74.74.74h3.75c.45,0,.74.3.74.74v16.84c0,.45-.3.74-.74.74h-7.11c-4.3,0-6.82-2.32-6.82-6.67Z"/>
  <path class="st0" d="M192.62,87.46h-7.36c-4.3,0-6.82-2.32-6.82-6.67v-27.17c0-.44.45-.74,1.14-.74h12.64c.69,0,1.14.3,1.14.74v3.61c0,.44-.44.74-1.14.74h-3.26c-.64,0-1.09.3-1.09.74v2.07c0,.44.44.74,1.09.74h2.17c.64,0,1.09.3,1.09.74v3.61c0,.45-.45.74-1.09.74h-2.17c-.64,0-1.09.2-1.09.25v1.53c0,.44.44.74,1.09.74h3.66c.64,0,1.09.3,1.09.74v16.84c0,.45-.44.74-1.09.74Z"/>
  <path class="st0" d="M196.67,86.72v-33.14c0-.44.3-.74.74-.74h8.99c9.53,0,13.04,3.31,13.04,8.15s-3.51,7.21-6.17,7.9c-.4.1-.54.25-.54.35s.2.2.64.3c3.9.94,5.48,1.93,5.48,4.74v12.45c0,.45-.3.74-.74.74h-7.71c-.44,0-.74-.3-.74-.74v-12.74c0-1.53-1.28-1.93-2.37-1.93-.74,0-1.19.2-1.19.69v13.98c0,.45-.3.74-.74.74h-7.95c-.44,0-.74-.3-.74-.74ZM206.7,65.58c1.28,0,4.05-1.04,4.05-4.05,0-2.62-2.47-3.46-3.8-3.46-.49,0-.84.1-.84.3v6.96c0,.15.25.25.59.25Z"/>
  <path class="st0" d="M232.18,86.72v-33.09c0-.44.3-.74.74-.74h8.89c6.87,0,11.9,3.31,11.9,9.24,0,7.75-6.27,10.97-11.11,10.97-.74,0-1.09.3-1.09.74v12.89c0,.45-.3.74-.74.74h-7.85c-.44,0-.74-.3-.74-.74ZM241.96,66.87c1.14,0,4-1.38,4-4.69,0-2.67-2.62-4.3-3.85-4.3-.35,0-.59.15-.59.44v8.3c0,.15.2.25.44.25Z"/>
  <path class="st0" d="M253.91,75.81c0-13.93,4.84-23.17,12.1-23.17s11.56,8.89,11.56,23.17c0,7.71-4.15,11.85-11.8,11.85s-11.85-4.25-11.85-11.85ZM268.68,64.49c0-3.8-1.19-6.67-2.67-6.67-1.88,0-3.11,2.77-3.11,6.67,0,2.03,1.23,3.36,3.11,3.36,1.53,0,2.67-1.33,2.67-3.36Z"/>
  <path class="st0" d="M283,86.82l-6.17-33.14v-.2c0-.39.2-.59.64-.59h6.96c.44,0,.69.25.79.69l2.96,16.15c.05.35.25.54.44.54.15,0,.35-.2.4-.54l2.82-16.15c.1-.44.39-.69.84-.69h6.87c.44,0,.74.25.84.69l2.91,16.15c.05.35.25.54.44.54s.4-.2.44-.54l2.82-16.15c.1-.44.35-.69.79-.69h6.47c.49,0,.74.25.64.79l-6.67,33.14c-.1.45-.35.64-.79.64h-8.25c-.44,0-.69-.25-.79-.69l-2.52-13.53c-.05-.35-.25-.54-.4-.54-.2,0-.35.2-.44.54l-2.86,13.58c-.1.45-.35.64-.79.64h-7.61c-.44,0-.69-.2-.79-.64Z"/>
  <path class="st0" d="M330.81,87.46h-7.36c-4.3,0-6.82-2.32-6.82-6.67v-27.17c0-.44.45-.74,1.14-.74h12.64c.69,0,1.14.3,1.14.74v3.61c0,.44-.44.74-1.14.74h-3.26c-.64,0-1.09.3-1.09.74v2.07c0,.44.44.74,1.09.74h2.17c.64,0,1.09.3,1.09.74v3.61c0,.45-.45.74-1.09.74h-2.17c-.64,0-1.09.2-1.09.25v1.53c0,.44.44.74,1.09.74h3.66c.64,0,1.09.3,1.09.74v16.84c0,.45-.44.74-1.09.74Z"/>
  <path class="st0" d="M334.86,86.72v-33.14c0-.44.3-.74.74-.74h8.99c9.53,0,13.04,3.31,13.04,8.15s-3.51,7.21-6.17,7.9c-.4.1-.54.25-.54.35s.2.2.64.3c3.9.94,5.48,1.93,5.48,4.74v12.45c0,.45-.3.74-.74.74h-7.71c-.44,0-.74-.3-.74-.74v-12.74c0-1.53-1.28-1.93-2.37-1.93-.74,0-1.19.2-1.19.69v13.98c0,.45-.3.74-.74.74h-7.95c-.44,0-.74-.3-.74-.74ZM344.89,65.58c1.28,0,4.05-1.04,4.05-4.05,0-2.62-2.47-3.46-3.8-3.46-.49,0-.84.1-.84.3v6.96c0,.15.25.25.59.25Z"/>
  <path class="st0" d="M363.01,69.48l-2.77-15.81v-.2c0-.39.2-.59.64-.59h12.84c.49,0,.74.25.64.79l-2.72,15.81c-.1.44-.4.64-.84.64h-7.01c-.44,0-.69-.2-.79-.64ZM362.52,86.72v-14.27c0-.44.3-.74.74-.74h8c.44,0,.74.3.74.74v14.27c0,.45-.3.74-.74.74h-8c-.45,0-.74-.3-.74-.74Z"/>
</svg>