<?xml version="1.0" encoding="UTF-8"?>
<svg id="Ebene_1" xmlns="http://www.w3.org/2000/svg" version="1.1" viewBox="0 0 1266.35 2393.44">
  <!-- Generator: Adobe Illustrator 30.5.0, SVG Export Plug-In . SVG Version: 2.1.4 Build 167)  -->
  <defs>
    <style>
      .st0, .st1 {
        fill: #ffdfa8;
      }

      .st1 {
        stroke: #ffdfa8;
        stroke-linecap: square;
        stroke-linejoin: bevel;
        stroke-width: 50px;
      }

      .st2 {
        fill: #ff1200;
      }
    </style>
  </defs>
  <path class="st0" d="M935.58,2325.49c-10.63,14.47-42.45,32.27-59.6,38.1-116.54,39.61-362.41,42.14-476.76-6.51-58.87-25.05-93.44-70.28-28.15-116.05,107.67-75.47,364-77.91,483.72-28.16,39.77,16.53,119.08,60.47,80.79,112.62ZM510.76,2286.86c37.27,27.84,165.87,30.67,211.21,21.98,75.08-14.39,94.34-52.61,9.9-75.02-55.38-14.7-117.77-14.3-173.25-.27-22.58,5.71-87.73,23.54-47.85,53.32Z"/>
  <path class="st0" d="M622.43,2266.73c5.34,3.28,36.13,3.79,42.53.79,19.99-29-70-17.65-42.53-.79Z"/>
  <path class="st0" d="M622.43,2266.73c-27.47-16.87,62.51-28.21,42.53.79-6.39,3-37.19,2.49-42.53-.79Z"/>
  <g>
    <path class="st1" d="M93.71,383.58l13.14-112.43c.47-3.61,1.64-5.22,3.75-5.22h33.31c2.11,0,3.52,1.61,3.99,5.22l12.9,112.43v1.61c0,3.21-.94,4.82-3.05,4.82h-61c-2.35,0-3.52-2.01-3.05-6.43ZM104.5,247.06V114.95c0-3.61,1.41-6.02,3.52-6.02h38.01c2.11,0,3.52,2.41,3.52,6.02v132.11c0,3.61-1.41,6.02-3.52,6.02h-38.01c-2.11,0-3.52-2.41-3.52-6.02Z"/>
    <path class="st1" d="M176.05,218.95V34.64c0-3.61,1.41-6.02,3.52-6.02h37.77c2.11,0,3.52,2.41,3.52,6.02v98.38c0,20.88,0,31.32,9.15,31.32s9.15-10.44,9.15-31.32V34.64c0-3.61,1.41-6.02,3.52-6.02h37.54c2.11,0,3.52,2.41,3.52,6.02v184.31c0,42.97-6.33,92.76-53.49,92.76s-54.19-49.79-54.19-92.76Z"/>
    <path class="st1" d="M297.81,303.68V34.64c0-3.61,1.41-6.02,3.52-6.02h33.78c1.88,0,3.29,1.2,3.99,4.82l22.29,105.21c.47,2.41,1.41,3.61,2.11,3.61.94,0,1.88-1.61,1.88-4.82V34.64c0-3.61,1.41-6.02,3.52-6.02h24.63c2.11,0,3.52,2.41,3.52,6.02v269.04c0,3.61-1.41,6.02-3.52,6.02h-33.78c-1.88,0-3.28-1.21-3.99-4.82l-22.29-115.24c-.47-2.41-1.41-3.61-2.11-3.61-.94,0-1.88,1.61-1.88,4.42v113.24c0,3.61-1.41,6.02-3.52,6.02h-24.63c-2.11,0-3.52-2.41-3.52-6.02Z"/>
    <path class="st1" d="M460.38,303.68V34.64c0-3.61,2.11-6.02,5.4-6.02h63.58c3.29,0,5.4,2.41,5.4,6.02v29.31c0,3.61-2.11,6.02-5.4,6.02h-19c-3.05,0-5.16,2.41-5.16,6.02v16.87c0,3.61,2.11,6.02,5.16,6.02h13.84c3.05,0,5.16,2.41,5.16,6.02v29.31c0,3.61-2.11,6.02-5.16,6.02h-13.84c-3.05,0-5.16,2.41-5.16,6.02v157.41c0,3.61-2.11,6.02-5.4,6.02h-34.02c-3.28,0-5.4-2.41-5.4-6.02Z"/>
    <path class="st1" d="M612.87,309.7h-34.96c-20.41,0-32.38-18.87-32.38-54.21V34.64c0-3.61,2.11-6.02,5.4-6.02h60.06c3.28,0,5.4,2.41,5.4,6.02v29.31c0,3.61-2.11,6.02-5.4,6.02h-15.48c-3.05,0-5.16,2.41-5.16,6.02v16.87c0,3.61,2.11,6.02,5.16,6.02h10.32c3.05,0,5.16,2.41,5.16,6.02v29.31c0,3.61-2.11,6.02-5.16,6.02h-10.32c-3.05,0-5.16,1.61-5.16,2.01v12.45c0,3.61,2.11,6.02,5.16,6.02h17.36c3.05,0,5.16,2.41,5.16,6.02v136.93c0,3.61-2.11,6.02-5.16,6.02Z"/>
    <path class="st1" d="M633.51,303.68v-137.73c0-3.61,1.41-6.02,3.52-6.02,21.11,0,28.15-2.41,28.15-10.84,0-18.87-33.78-16.46-33.78-66.26,0-22.08,11.26-57.82,46.45-57.82,33.08,0,46.92,18.07,46.92,72.68v.4c0,3.61-1.41,6.02-3.52,6.02h-23.93c-2.11,0-3.52-2.41-3.52-6.02,0-18.47-1.17-34.53-13.37-34.53-9.85,0-11.96,12.45-11.96,22.09,0,51.4,62.64,32.53,62.64,138.94,0,61.04-20.88,85.13-59.59,85.13h-34.49c-2.11,0-3.52-2.41-3.52-6.02Z"/>
    <path class="st1" d="M791.4,139.04c0,19.27,7.51,21.68,20.18,21.68,2.35,0,3.52,2.41,3.52,6.02v89.55c0,36.14-12.9,56.22-33.55,56.22s-32.38-19.68-32.38-55.01V78h-13.37c-2.11,0-3.52-2.41-3.52-6.02v-37.34c0-3.61,1.41-6.02,3.52-6.02h76.01c2.11,0,3.52,2.41,3.52,6.02v37.34c0,3.61-1.41,6.02-3.52,6.02h-20.41v61.04Z"/>
    <path class="st1" d="M829.41,303.68V34.64c0-3.61,1.41-6.02,3.52-6.02h36.83c2.11,0,3.52,2.41,3.52,6.02v269.04c0,3.61-1.41,6.02-3.52,6.02h-36.83c-2.11,0-3.52-2.41-3.52-6.02Z"/>
    <path class="st1" d="M911.28,304.48l-29.09-269.84v-1.61c0-2.81,1.17-4.42,3.28-4.42h32.84c2.11,0,3.52,2.01,3.99,5.22l13.84,131.71c.23,2.81,1.17,4.42,2.11,4.42.7,0,1.64-1.61,1.88-4.42l13.37-131.71c.47-3.21,1.88-5.22,3.99-5.22h32.84c2.35,0,3.75,2.41,3.28,6.02l-32.61,269.84c-.47,3.21-1.88,5.22-3.99,5.22h-41.76c-2.11,0-3.52-2.01-3.99-5.22Z"/>
    <path class="st1" d="M983.31,303.27l30.5-269.04c.47-3.61,2.11-5.62,4.22-5.62h49.97c2.35,0,3.75,1.61,4.22,5.22l31.44,269.44v1.61c0,3.21-1.41,4.82-3.52,4.82h-36.36c-2.35,0-3.75-1.61-3.99-5.62l-5.87-59.43c-.47-4.02-1.88-5.62-3.99-5.62h-20.64c-2.35,0-3.52,2.01-3.99,5.62l-7.74,59.43c-.47,3.61-1.64,5.62-3.99,5.62h-26.75c-2.58,0-3.99-2.01-3.52-6.42ZM1047.82,164.34l-3.99-57.02c-.47-5.22-1.64-7.63-3.05-7.63-1.17,0-2.58,2.41-3.05,7.63l-4.69,57.02v.8c0,4.02,1.88,5.62,5.16,5.62h3.99c3.75,0,6.1-2.41,5.63-6.42Z"/>
    <path class="st1" d="M1108.12,255.49V34.64c0-3.61,1.41-6.02,3.52-6.02h37.77c2.11,0,3.52,2.41,3.52,6.02v120.06c0,3.61,1.41,6.02,3.52,6.02h17.83c2.11,0,3.52,2.41,3.52,6.02v136.93c0,3.61-1.41,6.02-3.52,6.02h-33.78c-20.41,0-32.38-18.87-32.38-54.21Z"/>
    <path class="st1" d="M247.72,657.53v-269.04c0-3.61,1.41-6.02,3.52-6.02h36.36c48.56,0,60.53,73.08,60.53,143.35,0,63.44-4.69,137.73-61,137.73h-35.89c-2.11,0-3.52-2.41-3.52-6.02ZM312.94,463.98c0-27.31-10.79-40.96-16.66-40.96-2.11,0-3.75,2.01-3.75,6.02v69.07c0,6.42,1.41,8.83,4.46,8.83,11.03-.4,15.95-26.1,15.95-42.97Z"/>
    <path class="st1" d="M426.02,663.55h-34.96c-20.41,0-32.38-18.87-32.38-54.21v-220.85c0-3.61,2.11-6.02,5.4-6.02h60.06c3.28,0,5.4,2.41,5.4,6.02v29.31c0,3.61-2.11,6.02-5.4,6.02h-15.48c-3.05,0-5.16,2.41-5.16,6.02v16.87c0,3.61,2.11,6.02,5.16,6.02h10.32c3.05,0,5.16,2.41,5.16,6.02v29.31c0,3.61-2.11,6.02-5.16,6.02h-10.32c-3.05,0-5.16,1.61-5.16,2.01v12.45c0,3.61,2.11,6.02,5.16,6.02h17.36c3.05,0,5.16,2.41,5.16,6.02v136.93c0,3.61-2.11,6.02-5.16,6.02Z"/>
    <path class="st1" d="M495.92,657.53v-137.73c0-3.61,1.41-6.02,3.52-6.02,21.11,0,28.15-2.41,28.15-10.84,0-18.87-33.78-16.46-33.78-66.26,0-22.08,11.26-57.82,46.45-57.82,33.08,0,46.92,18.07,46.92,72.68v.4c0,3.61-1.41,6.02-3.52,6.02h-23.93c-2.11,0-3.52-2.41-3.52-6.02,0-18.47-1.17-34.53-13.37-34.53-9.85,0-11.96,12.45-11.96,22.08,0,51.4,62.64,32.53,62.64,138.94,0,61.04-20.88,85.13-59.59,85.13h-34.49c-2.11,0-3.52-2.41-3.52-6.02Z"/>
    <path class="st1" d="M596.57,657.13l30.5-269.04c.47-3.61,2.11-5.62,4.22-5.62h49.97c2.35,0,3.75,1.61,4.22,5.22l31.44,269.44v1.61c0,3.21-1.41,4.82-3.52,4.82h-36.36c-2.35,0-3.75-1.61-3.99-5.62l-5.87-59.43c-.47-4.02-1.88-5.62-3.99-5.62h-20.64c-2.35,0-3.52,2.01-3.99,5.62l-7.74,59.43c-.47,3.61-1.64,5.62-3.99,5.62h-26.75c-2.58,0-3.99-2.01-3.52-6.42ZM661.08,518.19l-3.99-57.02c-.47-5.22-1.64-7.63-3.05-7.63-1.17,0-2.58,2.41-3.05,7.63l-4.69,57.02v.8c0,4.02,1.88,5.62,5.16,5.62h3.99c3.75,0,6.1-2.41,5.63-6.42Z"/>
    <path class="st1" d="M721.38,609.34v-220.85c0-3.61,1.41-6.02,3.52-6.02h37.77c2.11,0,3.52,2.41,3.52,6.02v120.06c0,3.61,1.41,6.02,3.52,6.02h17.83c2.11,0,3.52,2.41,3.52,6.02v136.93c0,3.61-1.41,6.02-3.52,6.02h-33.78c-20.41,0-32.38-18.87-32.38-54.21Z"/>
    <path class="st1" d="M805.36,657.53v-137.73c0-3.61,1.41-6.02,3.52-6.02,21.11,0,28.15-2.41,28.15-10.84,0-18.87-33.78-16.46-33.78-66.26,0-22.08,11.26-57.82,46.45-57.82,33.08,0,46.92,18.07,46.92,72.68v.4c0,3.61-1.41,6.02-3.52,6.02h-23.93c-2.11,0-3.52-2.41-3.52-6.02,0-18.47-1.17-34.53-13.37-34.53-9.85,0-11.96,12.45-11.96,22.08,0,51.4,62.64,32.53,62.64,138.94,0,61.04-20.88,85.13-59.59,85.13h-34.49c-2.11,0-3.52-2.41-3.52-6.02Z"/>
    <path class="st1" d="M906.01,657.13l30.5-269.04c.47-3.61,2.11-5.62,4.22-5.62h49.97c2.35,0,3.75,1.61,4.22,5.22l31.44,269.44v1.61c0,3.21-1.41,4.82-3.52,4.82h-36.36c-2.35,0-3.75-1.61-3.99-5.62l-5.87-59.43c-.47-4.02-1.88-5.62-3.99-5.62h-20.65c-2.35,0-3.52,2.01-3.99,5.62l-7.74,59.43c-.47,3.61-1.64,5.62-3.99,5.62h-26.75c-2.58,0-3.99-2.01-3.52-6.42ZM970.52,518.19l-3.99-57.02c-.47-5.22-1.64-7.63-3.05-7.63-1.17,0-2.58,2.41-3.05,7.63l-4.69,57.02v.8c0,4.02,1.88,5.62,5.16,5.62h3.99c3.75,0,6.1-2.41,5.63-6.42Z"/>
    <path class="st1" d="M82.09,1011.38v-269.04c0-3.61,1.41-6.02,3.52-6.02h42.23c32.61,0,56.54,26.9,56.54,75.09,0,63.04-29.79,89.14-52.79,89.14-3.52,0-5.16,2.41-5.16,6.02v104.8c0,3.61-1.41,6.02-3.52,6.02h-37.3c-2.11,0-3.52-2.41-3.52-6.02ZM128.54,849.96c5.4,0,19-11.24,19-38.15,0-21.68-12.43-34.93-18.3-34.93-1.64,0-2.81,1.2-2.81,3.61v67.46c0,1.2.94,2.01,2.11,2.01Z"/>
    <path class="st1" d="M173.82,1010.98l30.5-269.04c.47-3.61,2.11-5.62,4.22-5.62h49.97c2.35,0,3.75,1.61,4.22,5.22l31.44,269.44v1.61c0,3.21-1.41,4.82-3.52,4.82h-36.36c-2.35,0-3.75-1.61-3.99-5.62l-5.87-59.43c-.47-4.02-1.88-5.62-3.99-5.62h-20.64c-2.35,0-3.52,2.01-3.99,5.62l-7.74,59.43c-.47,3.61-1.64,5.62-3.99,5.62h-26.74c-2.58,0-3.99-2.01-3.52-6.42ZM238.34,872.04l-3.99-57.02c-.47-5.22-1.64-7.63-3.05-7.63-1.17,0-2.58,2.41-3.05,7.63l-4.69,57.02v.8c0,4.02,1.88,5.62,5.16,5.62h3.99c3.75,0,6.1-2.41,5.63-6.42Z"/>
    <path class="st1" d="M303.32,1011.38v-269.44c0-3.61,1.41-6.02,3.52-6.02h42.7c45.28,0,61.94,26.9,61.94,66.26s-16.66,58.63-29.32,64.25c-1.88.8-2.58,2.01-2.58,2.81s.94,1.61,3.05,2.41c18.53,7.63,26.04,15.66,26.04,38.55v101.19c0,3.61-1.41,6.02-3.52,6.02h-36.6c-2.11,0-3.52-2.41-3.52-6.02v-103.6c0-12.45-6.1-15.66-11.26-15.66-3.52,0-5.63,1.61-5.63,5.62v113.64c0,3.61-1.41,6.02-3.52,6.02h-37.77c-2.11,0-3.52-2.41-3.52-6.02ZM350.95,839.52c6.1,0,19.24-8.43,19.24-32.93,0-21.28-11.73-28.11-18.06-28.11-2.35,0-3.99.8-3.99,2.41v56.62c0,1.21,1.17,2.01,2.81,2.01Z"/>
    <path class="st1" d="M417.57,1010.98l30.5-269.04c.47-3.61,2.11-5.62,4.22-5.62h49.97c2.35,0,3.75,1.61,4.22,5.22l31.44,269.44v1.61c0,3.21-1.41,4.82-3.52,4.82h-36.36c-2.35,0-3.75-1.61-3.99-5.62l-5.87-59.43c-.47-4.02-1.88-5.62-3.99-5.62h-20.65c-2.35,0-3.52,2.01-3.99,5.62l-7.74,59.43c-.47,3.61-1.64,5.62-3.99,5.62h-26.75c-2.58,0-3.99-2.01-3.52-6.42ZM482.09,872.04l-3.99-57.02c-.47-5.22-1.64-7.63-3.05-7.63-1.17,0-2.58,2.41-3.05,7.63l-4.69,57.02v.8c0,4.02,1.88,5.62,5.16,5.62h3.99c3.75,0,6.1-2.41,5.63-6.42Z"/>
    <path class="st1" d="M649.13,846.74c0,19.27,7.51,21.68,20.18,21.68,2.35,0,3.52,2.41,3.52,6.02v89.55c0,36.14-12.9,56.22-33.55,56.22s-32.38-19.68-32.38-55.01v-179.49h-13.37c-2.11,0-3.52-2.41-3.52-6.02v-37.34c0-3.61,1.41-6.02,3.52-6.02h76.01c2.11,0,3.52,2.41,3.52,6.02v37.34c0,3.61-1.41,6.02-3.52,6.02h-20.41v61.04Z"/>
    <path class="st1" d="M682.44,922.64c0-113.24,22.99-188.33,57.48-188.33s54.9,72.28,54.9,188.33c0,62.64-19.71,96.37-56.07,96.37s-56.3-34.53-56.3-96.37ZM752.58,830.68c0-30.92-5.63-54.21-12.67-54.21-8.92,0-14.78,22.49-14.78,54.21,0,16.46,5.87,27.31,14.78,27.31,7.27,0,12.67-10.84,12.67-27.31Z"/>
    <path class="st1" d="M804.19,1011.38v-269.04c0-3.61,1.41-6.02,3.52-6.02h36.36c48.56,0,60.53,73.08,60.53,143.35,0,63.44-4.69,137.73-61,137.73h-35.89c-2.11,0-3.52-2.41-3.52-6.02ZM869.41,817.83c0-27.31-10.79-40.96-16.66-40.96-2.11,0-3.75,2.01-3.75,6.02v69.07c0,6.42,1.41,8.83,4.46,8.83,11.03-.4,15.95-26.1,15.95-42.97Z"/>
    <path class="st1" d="M903.43,1010.58l28.39-134.92c.23-1.21.47-2.41.47-3.61s-.23-2.41-.47-4.02l-23.7-124.88c-.23-.8-.23-1.61-.23-2.41,0-2.81.94-4.42,3.05-4.42h31.91c1.88,0,3.52,2.01,3.99,5.22l15.25,88.34c.47,1.61,1.17,2.81,2.11,2.81s1.88-1.21,2.11-2.81l16.42-88.74c.71-3.61,2.11-4.82,3.99-4.82h30.73c2.58,0,3.75,2.41,2.81,6.83l-25.34,121.67c-.24,1.2-.47,2.81-.47,4.02s.23,2.41.47,4.01l27.21,137.73c.23.8.23,1.61.23,2.41,0,2.81-.94,4.42-3.05,4.42h-36.13c-1.88,0-3.28-1.21-3.99-4.82l-13.84-71.88c-.24-2.01-1.17-2.81-2.11-2.81s-1.64.8-2.11,2.81l-14.08,71.88c-.7,3.61-2.11,4.82-3.99,4.82h-36.83c-2.58,0-3.75-2.41-2.81-6.83Z"/>
    <path class="st1" d="M1032.46,1011.38v-137.73c0-3.61,1.41-6.02,3.52-6.02,21.12,0,28.15-2.41,28.15-10.84,0-18.87-33.78-16.46-33.78-66.26,0-22.08,11.26-57.82,46.45-57.82,33.08,0,46.92,18.07,46.92,72.68v.4c0,3.61-1.41,6.02-3.52,6.02h-23.93c-2.11,0-3.52-2.41-3.52-6.02,0-18.47-1.17-34.53-13.37-34.53-9.85,0-11.96,12.45-11.96,22.08,0,51.4,62.64,32.53,62.64,138.94,0,61.04-20.88,85.13-59.59,85.13h-34.49c-2.11,0-3.52-2.41-3.52-6.02Z"/>
    <path class="st1" d="M1141.31,925.05v-46.58c0-3.61,1.41-6.02,3.52-6.02h38.01c2.11,0,3.52,2.41,3.52,6.02v46.58c0,3.61-1.41,6.02-3.52,6.02h-38.01c-2.11,0-3.52-2.41-3.52-6.02ZM1141.31,1011.38v-46.58c0-3.61,1.41-6.02,3.52-6.02h38.01c2.11,0,3.52,2.41,3.52,6.02v46.58c0,3.61-1.41,6.02-3.52,6.02h-38.01c-2.11,0-3.52-2.41-3.52-6.02Z"/>
    <path class="st1" d="M286.66,1365.23v-269.04c0-3.61,1.41-6.02,3.52-6.02h42.23c32.61,0,56.54,26.9,56.54,75.09,0,63.04-29.79,89.14-52.79,89.14-3.52,0-5.16,2.41-5.16,6.02v104.8c0,3.61-1.41,6.02-3.52,6.02h-37.3c-2.11,0-3.52-2.41-3.52-6.02ZM333.12,1203.81c5.4,0,19-11.24,19-38.15,0-21.68-12.43-34.93-18.3-34.93-1.64,0-2.82,1.2-2.82,3.61v67.46c0,1.2.94,2.01,2.11,2.01Z"/>
    <path class="st1" d="M399.27,1280.5v-184.31c0-3.61,1.41-6.02,3.52-6.02h37.77c2.11,0,3.52,2.41,3.52,6.02v98.38c0,20.88,0,31.32,9.15,31.32s9.15-10.44,9.15-31.32v-98.38c0-3.61,1.41-6.02,3.52-6.02h37.54c2.11,0,3.52,2.41,3.52,6.02v184.31c0,42.97-6.33,92.76-53.49,92.76s-54.19-49.79-54.19-92.76ZM428.6,1061.26c0-1.2.47-2.41,1.41-3.21l31.2-35.34c.7-.8,1.64-1.2,2.58-1.2s1.64.4,2.35,1.2l15.95,18.47c1.41,2.01,1.64,4.02,0,5.22l-35.89,30.12c-.7.8-1.41,1.21-2.35,1.21s-1.88-.4-2.58-1.21l-11.26-12.45c-.94-.8-1.41-2.01-1.41-2.81Z"/>
    <path class="st1" d="M521.03,1365.23v-269.04c0-3.61,1.41-6.02,3.52-6.02h47.86c26.75,0,40.12,15.26,40.12,44.97,0,15.66-5.16,31.72-13.61,40.56-1.17,1.2-1.88,2.41-1.88,3.21s.7,1.61,2.11,2.81c16.66,16.86,23.23,54.61,23.23,90.35,0,53.41-10.56,99.18-51.38,99.18h-46.45c-2.11,0-3.52-2.41-3.52-6.02ZM567.48,1164.86c4.93,0,13.84-7.23,13.84-19.27,0-11.24-8.21-16.46-13.14-16.46-2.11,0-3.75.8-3.75,2.81v29.71c0,2.01,1.17,3.21,3.05,3.21ZM567.72,1232.32c5.63,0,16.66-6.83,16.66-20.88,0-12.85-9.62-18.87-15.48-18.87-2.58,0-4.46,1.2-4.46,3.61v33.73c0,1.61,1.17,2.41,3.29,2.41Z"/>
    <path class="st1" d="M632.93,1317.04v-220.85c0-3.61,1.41-6.02,3.52-6.02h37.77c2.11,0,3.52,2.41,3.52,6.02v120.06c0,3.61,1.41,6.02,3.52,6.02h17.83c2.11,0,3.52,2.41,3.52,6.02v136.93c0,3.61-1.41,6.02-3.52,6.02h-33.78c-20.41,0-32.38-18.87-32.38-54.21Z"/>
    <path class="st1" d="M715.51,1365.23v-269.04c0-3.61,1.41-6.02,3.52-6.02h36.83c2.11,0,3.52,2.41,3.52,6.02v269.04c0,3.61-1.41,6.02-3.52,6.02h-36.83c-2.11,0-3.52-2.41-3.52-6.02Z"/>
    <path class="st1" d="M769.94,1259.62c0-61.44,6.33-171.46,56.3-171.46,15.48,0,38.47,13.25,38.47,81.11v.4c0,3.61-1.41,6.02-3.52,6.02h-22.52c-2.11,0-3.52-2.41-3.52-6.02,0-28.91-2.11-38.55-8.21-38.55-8.68,0-16.19,20.88-16.19,52.2,0,26.9,4.69,38.55,13.37,38.55,4.69,0,9.85-3.21,9.85-18.87v-.4c0-3.61,1.41-6.02,3.52-6.02h24.4c2.11,0,3.52,2.41,3.52,6.02v162.63c0,3.61-1.88,6.02-5.4,6.02h-26.74c-36.6,0-63.34-8.43-63.34-111.63Z"/>
    <path class="st1" d="M874.8,1276.49c0-113.24,22.99-188.33,57.48-188.33s54.9,72.28,54.9,188.33c0,62.64-19.71,96.37-56.07,96.37s-56.3-34.53-56.3-96.37ZM944.95,1184.53c0-30.92-5.63-54.21-12.67-54.21-8.91,0-14.78,22.49-14.78,54.21,0,16.46,5.87,27.31,14.78,27.31,7.27,0,12.67-10.84,12.67-27.31Z"/>
    <path class="st1" d="M146.73,1605.04c0-81.11,14.08-163.03,60.53-163.03,30.73,0,46.45,34.93,46.45,67.06,0,6.02-2.11,6.02-5.16,6.02h-19.71c-3.29,0-5.4,0-5.4-6.02,0-15.26-7.04-24.09-15.48-24.09-15.72,0-19.24,32.12-19.24,55.41,0,37.34,7.74,48.59,19.94,48.59,6.1,0,15.25-1.2,15.25-19.68,0-3.61-2.11-6.02-5.4-6.02h-10.79c-3.28,0-3.52-.8-3.52-6.02v-19.68c0-3.61,2.11-6.02,5.16-6.02h40.82c3.28,0,5.4,2.41,5.4,6.02v181.5c0,3.61-2.11,6.02-5.4,6.02h-11.96c-3.05,0-5.16-2.41-5.16-6.02v-2.81c0-8.03-9.15,9.64-35.19,9.64-37.07,0-51.14-36.14-51.14-120.87Z"/>
    <path class="st1" d="M269.65,1719.08v-269.44c0-3.61,1.41-6.02,3.52-6.02h42.7c45.28,0,61.94,26.9,61.94,66.26s-16.66,58.63-29.33,64.25c-1.88.8-2.58,2.01-2.58,2.81s.94,1.61,3.05,2.41c18.53,7.63,26.04,15.66,26.04,38.55v101.19c0,3.61-1.41,6.02-3.52,6.02h-36.6c-2.11,0-3.52-2.41-3.52-6.02v-103.6c0-12.45-6.1-15.66-11.26-15.66-3.52,0-5.63,1.61-5.63,5.62v113.64c0,3.61-1.41,6.02-3.52,6.02h-37.77c-2.11,0-3.52-2.41-3.52-6.02ZM317.28,1547.22c6.1,0,19.24-8.43,19.24-32.93,0-21.28-11.73-28.11-18.06-28.11-2.35,0-3.99.8-3.99,2.41v56.62c0,1.21,1.17,2.01,2.82,2.01Z"/>
    <path class="st1" d="M383.9,1718.68l30.5-269.04c.47-3.61,2.11-5.62,4.22-5.62h49.97c2.35,0,3.75,1.61,4.22,5.22l31.44,269.44v1.61c0,3.21-1.41,4.82-3.52,4.82h-36.36c-2.35,0-3.75-1.61-3.99-5.62l-5.87-59.43c-.47-4.02-1.88-5.62-3.99-5.62h-20.65c-2.35,0-3.52,2.01-3.99,5.62l-7.74,59.43c-.47,3.61-1.64,5.62-3.99,5.62h-26.75c-2.58,0-3.99-2.01-3.52-6.42ZM448.42,1579.74l-3.99-57.02c-.47-5.22-1.64-7.63-3.05-7.63-1.17,0-2.58,2.41-3.05,7.63l-4.69,57.02v.8c0,4.02,1.88,5.62,5.16,5.62h3.99c3.75,0,6.1-2.41,5.63-6.42Z"/>
    <path class="st1" d="M554.46,1554.45c0,19.27,7.51,21.68,20.18,21.68,2.35,0,3.52,2.41,3.52,6.02v89.55c0,36.14-12.9,56.22-33.55,56.22s-32.38-19.68-32.38-55.01v-179.49h-13.37c-2.11,0-3.52-2.41-3.52-6.02v-37.34c0-3.61,1.41-6.02,3.52-6.02h76.01c2.11,0,3.52,2.41,3.52,6.02v37.34c0,3.61-1.41,6.02-3.52,6.02h-20.41v61.04Z"/>
    <path class="st1" d="M592.47,1634.35v-184.31c0-3.61,1.41-6.02,3.52-6.02h37.77c2.11,0,3.52,2.41,3.52,6.02v98.38c0,20.88,0,31.32,9.15,31.32s9.15-10.44,9.15-31.32v-98.38c0-3.61,1.41-6.02,3.52-6.02h37.54c2.11,0,3.52,2.41,3.52,6.02v184.31c0,42.97-6.33,92.76-53.49,92.76s-54.19-49.79-54.19-92.76Z"/>
    <path class="st1" d="M714.22,1719.08v-269.04c0-3.61,1.41-6.02,3.52-6.02h36.83c2.11,0,3.52,2.41,3.52,6.02v269.04c0,3.61-1.41,6.02-3.52,6.02h-36.83c-2.11,0-3.52-2.41-3.52-6.02Z"/>
    <path class="st1" d="M829.65,1554.45c0,19.27,7.51,21.68,20.18,21.68,2.35,0,3.52,2.41,3.52,6.02v89.55c0,36.14-12.9,56.22-33.55,56.22s-32.38-19.68-32.38-55.01v-179.49h-13.37c-2.11,0-3.52-2.41-3.52-6.02v-37.34c0-3.61,1.41-6.02,3.52-6.02h76.01c2.11,0,3.52,2.41,3.52,6.02v37.34c0,3.61-1.41,6.02-3.52,6.02h-20.41v61.04Z"/>
    <path class="st1" d="M862.96,1630.34c0-113.24,22.99-188.33,57.48-188.33s54.9,72.28,54.9,188.33c0,62.64-19.71,96.37-56.07,96.37s-56.3-34.53-56.3-96.37ZM933.11,1538.38c0-30.92-5.63-54.21-12.67-54.21-8.91,0-14.78,22.49-14.78,54.21,0,16.46,5.87,27.31,14.78,27.31,7.27,0,12.67-10.84,12.67-27.31Z"/>
    <path class="st1" d="M1050.17,1719.08v-132.51c0-2.81,0-4.42-.7-7.23l-28.15-128.5c-.24-1.21-.24-2.01-.24-2.81,0-2.41,1.17-4.02,3.05-4.02h34.96c1.88,0,3.29,1.2,3.99,4.82l12.2,62.24c.71,2.81,1.64,4.02,2.82,4.02s2.35-1.21,2.81-4.02l12.43-62.24c.71-3.61,2.11-4.82,3.99-4.82h24.87c2.58,0,3.75,2.41,2.81,6.83l-30.5,130.1c-.47,2.41-.94,4.82-.94,7.63v130.5c0,3.61-1.41,6.02-3.52,6.02h-36.36c-2.11,0-3.52-2.41-3.52-6.02Z"/>
    <path class="st1" d="M25.09,2072.53l30.5-269.04c.47-3.61,2.11-5.62,4.22-5.62h49.97c2.35,0,3.75,1.61,4.22,5.22l31.44,269.44v1.61c0,3.21-1.41,4.82-3.52,4.82h-36.36c-2.35,0-3.75-1.61-3.99-5.62l-5.87-59.43c-.47-4.02-1.88-5.62-3.99-5.62h-20.65c-2.35,0-3.52,2.01-3.99,5.62l-7.74,59.43c-.47,3.61-1.64,5.62-3.99,5.62h-26.74c-2.58,0-3.99-2.01-3.52-6.42ZM89.61,1933.6l-3.99-57.02c-.47-5.22-1.64-7.63-3.05-7.63-1.17,0-2.58,2.41-3.05,7.63l-4.69,57.02v.8c0,4.02,1.88,5.62,5.16,5.62h3.99c3.75,0,6.1-2.41,5.63-6.42Z"/>
    <path class="st1" d="M149.9,2024.75v-220.85c0-3.61,1.41-6.02,3.52-6.02h37.77c2.11,0,3.52,2.41,3.52,6.02v120.06c0,3.61,1.41,6.02,3.52,6.02h17.83c2.11,0,3.52,2.41,3.52,6.02v136.93c0,3.61-1.41,6.02-3.52,6.02h-33.78c-20.41,0-32.38-18.87-32.38-54.21Z"/>
    <path class="st1" d="M271.89,2072.53l30.5-269.04c.47-3.61,2.11-5.62,4.22-5.62h49.97c2.35,0,3.75,1.61,4.22,5.22l31.44,269.44v1.61c0,3.21-1.41,4.82-3.52,4.82h-36.36c-2.35,0-3.75-1.61-3.99-5.62l-5.87-59.43c-.47-4.02-1.88-5.62-3.99-5.62h-20.65c-2.35,0-3.52,2.01-3.99,5.62l-7.74,59.43c-.47,3.61-1.64,5.62-3.99,5.62h-26.74c-2.58,0-3.99-2.01-3.52-6.42ZM336.41,1933.6l-3.99-57.02c-.47-5.22-1.64-7.63-3.05-7.63-1.17,0-2.58,2.41-3.05,7.63l-4.69,57.02v.8c0,4.02,1.88,5.62,5.16,5.62h3.99c3.75,0,6.1-2.41,5.63-6.42Z"/>
    <path class="st1" d="M401.39,2072.93v-269.04c0-3.61,1.41-6.02,3.52-6.02h36.83c2.11,0,3.52,2.41,3.52,6.02v269.04c0,3.61-1.41,6.02-3.52,6.02h-36.83c-2.11,0-3.52-2.41-3.52-6.02Z"/>
    <path class="st1" d="M459.34,2072.93v-269.44c0-3.61,1.41-6.02,3.52-6.02h42.7c45.28,0,61.94,26.9,61.94,66.26s-16.66,58.63-29.33,64.25c-1.88.8-2.58,2.01-2.58,2.81s.94,1.61,3.05,2.41c18.53,7.63,26.04,15.66,26.04,38.55v101.19c0,3.61-1.41,6.02-3.52,6.02h-36.6c-2.11,0-3.52-2.41-3.52-6.02v-103.6c0-12.45-6.1-15.66-11.26-15.66-3.52,0-5.63,1.61-5.63,5.62v113.64c0,3.61-1.41,6.02-3.52,6.02h-37.77c-2.11,0-3.52-2.41-3.52-6.02ZM506.96,1901.07c6.1,0,19.24-8.43,19.24-32.93,0-21.28-11.73-28.11-18.06-28.11-2.35,0-3.99.8-3.99,2.41v56.62c0,1.21,1.17,2.01,2.81,2.01Z"/>
    <path class="st1" d="M646.08,2078.96h-34.96c-20.41,0-32.38-18.87-32.38-54.21v-220.85c0-3.61,2.11-6.02,5.4-6.02h60.06c3.28,0,5.4,2.41,5.4,6.02v29.31c0,3.61-2.11,6.02-5.4,6.02h-15.48c-3.05,0-5.16,2.41-5.16,6.02v16.87c0,3.61,2.11,6.02,5.16,6.02h10.32c3.05,0,5.16,2.41,5.16,6.02v29.31c0,3.61-2.11,6.02-5.16,6.02h-10.32c-3.05,0-5.16,1.61-5.16,2.01v12.45c0,3.61,2.11,6.02,5.16,6.02h17.36c3.05,0,5.16,2.41,5.16,6.02v136.93c0,3.61-2.11,6.02-5.16,6.02Z"/>
    <path class="st1" d="M714.58,2024.75v-220.85c0-3.61,1.41-6.02,3.52-6.02h37.77c2.11,0,3.52,2.41,3.52,6.02v120.06c0,3.61,1.41,6.02,3.52,6.02h17.83c2.11,0,3.52,2.41,3.52,6.02v136.93c0,3.61-1.41,6.02-3.52,6.02h-33.78c-20.41,0-32.38-18.87-32.38-54.21Z"/>
    <path class="st1" d="M797.15,2072.93v-269.04c0-3.61,1.41-6.02,3.52-6.02h36.83c2.11,0,3.52,2.41,3.52,6.02v269.04c0,3.61-1.41,6.02-3.52,6.02h-36.83c-2.11,0-3.52-2.41-3.52-6.02Z"/>
    <path class="st1" d="M855.1,2072.93v-269.04c0-3.61,1.41-6.02,3.52-6.02h47.86c26.74,0,40.12,15.26,40.12,44.97,0,15.66-5.16,31.72-13.61,40.56-1.17,1.2-1.88,2.41-1.88,3.21s.7,1.61,2.11,2.81c16.66,16.86,23.23,54.61,23.23,90.35,0,53.41-10.56,99.18-51.38,99.18h-46.45c-2.11,0-3.52-2.41-3.52-6.02ZM901.55,1872.56c4.93,0,13.84-7.23,13.84-19.27,0-11.24-8.21-16.46-13.14-16.46-2.11,0-3.75.8-3.75,2.81v29.71c0,2.01,1.17,3.21,3.05,3.21ZM901.79,1940.02c5.63,0,16.66-6.83,16.66-20.88,0-12.85-9.62-18.87-15.48-18.87-2.58,0-4.46,1.2-4.46,3.61v33.73c0,1.61,1.17,2.41,3.28,2.41Z"/>
    <path class="st1" d="M967,2072.93v-269.44c0-3.61,1.41-6.02,3.52-6.02h42.7c45.28,0,61.94,26.9,61.94,66.26s-16.66,58.63-29.33,64.25c-1.88.8-2.58,2.01-2.58,2.81s.94,1.61,3.05,2.41c18.53,7.63,26.04,15.66,26.04,38.55v101.19c0,3.61-1.41,6.02-3.52,6.02h-36.6c-2.11,0-3.52-2.41-3.52-6.02v-103.6c0-12.45-6.1-15.66-11.26-15.66-3.52,0-5.63,1.61-5.63,5.62v113.64c0,3.61-1.41,6.02-3.52,6.02h-37.77c-2.11,0-3.52-2.41-3.52-6.02ZM1014.63,1901.07c6.1,0,19.24-8.43,19.24-32.93,0-21.28-11.73-28.11-18.06-28.11-2.35,0-3.99.8-3.99,2.41v56.62c0,1.21,1.17,2.01,2.81,2.01Z"/>
    <path class="st1" d="M1153.74,2078.96h-34.96c-20.41,0-32.38-18.87-32.38-54.21v-220.85c0-3.61,2.11-6.02,5.4-6.02h60.06c3.29,0,5.4,2.41,5.4,6.02v29.31c0,3.61-2.11,6.02-5.4,6.02h-15.48c-3.05,0-5.16,2.41-5.16,6.02v16.87c0,3.61,2.11,6.02,5.16,6.02h10.32c3.05,0,5.16,2.41,5.16,6.02v29.31c0,3.61-2.11,6.02-5.16,6.02h-10.32c-3.05,0-5.16,1.61-5.16,2.01v12.45c0,3.61,2.11,6.02,5.16,6.02h17.36c3.05,0,5.16,2.41,5.16,6.02v136.93c0,3.61-2.11,6.02-5.16,6.02Z"/>
    <path class="st1" d="M1187.29,1932.79l-13.14-128.5v-1.61c0-3.21.94-4.82,3.05-4.82h61c2.35,0,3.52,2.01,3.05,6.42l-12.9,128.5c-.47,3.61-1.88,5.22-3.99,5.22h-33.31c-2.11,0-3.29-1.61-3.75-5.22ZM1184.94,2072.93v-116.05c0-3.61,1.41-6.02,3.52-6.02h38.01c2.11,0,3.52,2.41,3.52,6.02v116.05c0,3.61-1.41,6.02-3.52,6.02h-38.01c-2.11,0-3.52-2.41-3.52-6.02Z"/>
  </g>
  <g>
    <path class="st2" d="M93.71,383.58l13.14-112.43c.47-3.61,1.64-5.22,3.75-5.22h33.31c2.11,0,3.52,1.61,3.99,5.22l12.9,112.43v1.61c0,3.21-.94,4.82-3.05,4.82h-61c-2.35,0-3.52-2.01-3.05-6.43ZM104.5,247.06V114.95c0-3.61,1.41-6.02,3.52-6.02h38.01c2.11,0,3.52,2.41,3.52,6.02v132.11c0,3.61-1.41,6.02-3.52,6.02h-38.01c-2.11,0-3.52-2.41-3.52-6.02Z"/>
    <path class="st2" d="M176.05,218.95V34.64c0-3.61,1.41-6.02,3.52-6.02h37.77c2.11,0,3.52,2.41,3.52,6.02v98.38c0,20.88,0,31.32,9.15,31.32s9.15-10.44,9.15-31.32V34.64c0-3.61,1.41-6.02,3.52-6.02h37.54c2.11,0,3.52,2.41,3.52,6.02v184.31c0,42.97-6.33,92.76-53.49,92.76s-54.19-49.79-54.19-92.76Z"/>
    <path class="st2" d="M297.81,303.68V34.64c0-3.61,1.41-6.02,3.52-6.02h33.78c1.88,0,3.28,1.2,3.99,4.82l22.29,105.21c.47,2.41,1.41,3.61,2.11,3.61.94,0,1.88-1.61,1.88-4.82V34.64c0-3.61,1.41-6.02,3.52-6.02h24.63c2.11,0,3.52,2.41,3.52,6.02v269.04c0,3.61-1.41,6.02-3.52,6.02h-33.78c-1.88,0-3.29-1.21-3.99-4.82l-22.29-115.24c-.47-2.41-1.41-3.61-2.11-3.61-.94,0-1.88,1.61-1.88,4.42v113.24c0,3.61-1.41,6.02-3.52,6.02h-24.63c-2.11,0-3.52-2.41-3.52-6.02Z"/>
    <path class="st2" d="M460.38,303.68V34.64c0-3.61,2.11-6.02,5.4-6.02h63.58c3.28,0,5.4,2.41,5.4,6.02v29.31c0,3.61-2.11,6.02-5.4,6.02h-19c-3.05,0-5.16,2.41-5.16,6.02v16.87c0,3.61,2.11,6.02,5.16,6.02h13.84c3.05,0,5.16,2.41,5.16,6.02v29.31c0,3.61-2.11,6.02-5.16,6.02h-13.84c-3.05,0-5.16,2.41-5.16,6.02v157.41c0,3.61-2.11,6.02-5.4,6.02h-34.02c-3.29,0-5.4-2.41-5.4-6.02Z"/>
    <path class="st2" d="M612.87,309.7h-34.96c-20.41,0-32.38-18.87-32.38-54.21V34.64c0-3.61,2.11-6.02,5.4-6.02h60.06c3.28,0,5.4,2.41,5.4,6.02v29.31c0,3.61-2.11,6.02-5.4,6.02h-15.48c-3.05,0-5.16,2.41-5.16,6.02v16.87c0,3.61,2.11,6.02,5.16,6.02h10.32c3.05,0,5.16,2.41,5.16,6.02v29.31c0,3.61-2.11,6.02-5.16,6.02h-10.32c-3.05,0-5.16,1.61-5.16,2.01v12.45c0,3.61,2.11,6.02,5.16,6.02h17.36c3.05,0,5.16,2.41,5.16,6.02v136.93c0,3.61-2.11,6.02-5.16,6.02Z"/>
    <path class="st2" d="M633.51,303.68v-137.73c0-3.61,1.41-6.02,3.52-6.02,21.11,0,28.15-2.41,28.15-10.84,0-18.87-33.78-16.46-33.78-66.26,0-22.08,11.26-57.82,46.45-57.82,33.08,0,46.92,18.07,46.92,72.68v.4c0,3.61-1.41,6.02-3.52,6.02h-23.93c-2.11,0-3.52-2.41-3.52-6.02,0-18.47-1.17-34.53-13.37-34.53-9.85,0-11.96,12.45-11.96,22.09,0,51.4,62.64,32.53,62.64,138.94,0,61.04-20.88,85.13-59.59,85.13h-34.49c-2.11,0-3.52-2.41-3.52-6.02Z"/>
    <path class="st2" d="M791.4,139.04c0,19.27,7.51,21.68,20.18,21.68,2.35,0,3.52,2.41,3.52,6.02v89.55c0,36.14-12.9,56.22-33.55,56.22s-32.38-19.68-32.38-55.01V78h-13.37c-2.11,0-3.52-2.41-3.52-6.02v-37.34c0-3.61,1.41-6.02,3.52-6.02h76.01c2.11,0,3.52,2.41,3.52,6.02v37.34c0,3.61-1.41,6.02-3.52,6.02h-20.41v61.04Z"/>
    <path class="st2" d="M829.41,303.68V34.64c0-3.61,1.41-6.02,3.52-6.02h36.83c2.11,0,3.52,2.41,3.52,6.02v269.04c0,3.61-1.41,6.02-3.52,6.02h-36.83c-2.11,0-3.52-2.41-3.52-6.02Z"/>
    <path class="st2" d="M911.28,304.48l-29.09-269.84v-1.61c0-2.81,1.17-4.42,3.28-4.42h32.84c2.11,0,3.52,2.01,3.99,5.22l13.84,131.71c.23,2.81,1.17,4.42,2.11,4.42.7,0,1.64-1.61,1.88-4.42l13.37-131.71c.47-3.21,1.88-5.22,3.99-5.22h32.84c2.35,0,3.75,2.41,3.28,6.02l-32.61,269.84c-.47,3.21-1.88,5.22-3.99,5.22h-41.76c-2.11,0-3.52-2.01-3.99-5.22Z"/>
    <path class="st2" d="M983.3,303.27l30.5-269.04c.47-3.61,2.11-5.62,4.22-5.62h49.97c2.35,0,3.75,1.61,4.22,5.22l31.44,269.44v1.61c0,3.21-1.41,4.82-3.52,4.82h-36.36c-2.35,0-3.75-1.61-3.99-5.62l-5.87-59.43c-.47-4.02-1.88-5.62-3.99-5.62h-20.65c-2.35,0-3.52,2.01-3.99,5.62l-7.74,59.43c-.47,3.61-1.64,5.62-3.99,5.62h-26.74c-2.58,0-3.99-2.01-3.52-6.42ZM1047.82,164.34l-3.99-57.02c-.47-5.22-1.64-7.63-3.05-7.63-1.17,0-2.58,2.41-3.05,7.63l-4.69,57.02v.8c0,4.02,1.88,5.62,5.16,5.62h3.99c3.75,0,6.1-2.41,5.63-6.42Z"/>
    <path class="st2" d="M1108.11,255.49V34.64c0-3.61,1.41-6.02,3.52-6.02h37.77c2.11,0,3.52,2.41,3.52,6.02v120.06c0,3.61,1.41,6.02,3.52,6.02h17.83c2.11,0,3.52,2.41,3.52,6.02v136.93c0,3.61-1.41,6.02-3.52,6.02h-33.78c-20.41,0-32.38-18.87-32.38-54.21Z"/>
    <path class="st2" d="M247.72,657.53v-269.04c0-3.61,1.41-6.02,3.52-6.02h36.36c48.56,0,60.53,73.08,60.53,143.35,0,63.44-4.69,137.73-61,137.73h-35.89c-2.11,0-3.52-2.41-3.52-6.02ZM312.94,463.98c0-27.31-10.79-40.96-16.66-40.96-2.11,0-3.75,2.01-3.75,6.02v69.07c0,6.42,1.41,8.83,4.46,8.83,11.03-.4,15.95-26.1,15.95-42.97Z"/>
    <path class="st2" d="M426.02,663.55h-34.96c-20.41,0-32.38-18.87-32.38-54.21v-220.85c0-3.61,2.11-6.02,5.4-6.02h60.06c3.28,0,5.4,2.41,5.4,6.02v29.31c0,3.61-2.11,6.02-5.4,6.02h-15.48c-3.05,0-5.16,2.41-5.16,6.02v16.87c0,3.61,2.11,6.02,5.16,6.02h10.32c3.05,0,5.16,2.41,5.16,6.02v29.31c0,3.61-2.11,6.02-5.16,6.02h-10.32c-3.05,0-5.16,1.61-5.16,2.01v12.45c0,3.61,2.11,6.02,5.16,6.02h17.36c3.05,0,5.16,2.41,5.16,6.02v136.93c0,3.61-2.11,6.02-5.16,6.02Z"/>
    <path class="st2" d="M495.92,657.53v-137.73c0-3.61,1.41-6.02,3.52-6.02,21.11,0,28.15-2.41,28.15-10.84,0-18.87-33.78-16.46-33.78-66.26,0-22.08,11.26-57.82,46.45-57.82,33.08,0,46.92,18.07,46.92,72.68v.4c0,3.61-1.41,6.02-3.52,6.02h-23.93c-2.11,0-3.52-2.41-3.52-6.02,0-18.47-1.17-34.53-13.37-34.53-9.85,0-11.96,12.45-11.96,22.08,0,51.4,62.64,32.53,62.64,138.94,0,61.04-20.88,85.13-59.59,85.13h-34.49c-2.11,0-3.52-2.41-3.52-6.02Z"/>
    <path class="st2" d="M596.57,657.13l30.5-269.04c.47-3.61,2.11-5.62,4.22-5.62h49.97c2.35,0,3.75,1.61,4.22,5.22l31.44,269.44v1.61c0,3.21-1.41,4.82-3.52,4.82h-36.36c-2.35,0-3.75-1.61-3.99-5.62l-5.87-59.43c-.47-4.02-1.88-5.62-3.99-5.62h-20.65c-2.35,0-3.52,2.01-3.99,5.62l-7.74,59.43c-.47,3.61-1.64,5.62-3.99,5.62h-26.74c-2.58,0-3.99-2.01-3.52-6.42ZM661.08,518.19l-3.99-57.02c-.47-5.22-1.64-7.63-3.05-7.63-1.17,0-2.58,2.41-3.05,7.63l-4.69,57.02v.8c0,4.02,1.88,5.62,5.16,5.62h3.99c3.75,0,6.1-2.41,5.63-6.42Z"/>
    <path class="st2" d="M721.38,609.34v-220.85c0-3.61,1.41-6.02,3.52-6.02h37.77c2.11,0,3.52,2.41,3.52,6.02v120.06c0,3.61,1.41,6.02,3.52,6.02h17.83c2.11,0,3.52,2.41,3.52,6.02v136.93c0,3.61-1.41,6.02-3.52,6.02h-33.78c-20.41,0-32.38-18.87-32.38-54.21Z"/>
    <path class="st2" d="M805.36,657.53v-137.73c0-3.61,1.41-6.02,3.52-6.02,21.11,0,28.15-2.41,28.15-10.84,0-18.87-33.78-16.46-33.78-66.26,0-22.08,11.26-57.82,46.45-57.82,33.08,0,46.92,18.07,46.92,72.68v.4c0,3.61-1.41,6.02-3.52,6.02h-23.93c-2.11,0-3.52-2.41-3.52-6.02,0-18.47-1.17-34.53-13.37-34.53-9.85,0-11.96,12.45-11.96,22.08,0,51.4,62.64,32.53,62.64,138.94,0,61.04-20.88,85.13-59.59,85.13h-34.49c-2.11,0-3.52-2.41-3.52-6.02Z"/>
    <path class="st2" d="M906.01,657.13l30.5-269.04c.47-3.61,2.11-5.62,4.22-5.62h49.97c2.35,0,3.75,1.61,4.22,5.22l31.44,269.44v1.61c0,3.21-1.41,4.82-3.52,4.82h-36.36c-2.35,0-3.75-1.61-3.99-5.62l-5.87-59.43c-.47-4.02-1.88-5.62-3.99-5.62h-20.64c-2.35,0-3.52,2.01-3.99,5.62l-7.74,59.43c-.47,3.61-1.64,5.62-3.99,5.62h-26.75c-2.58,0-3.99-2.01-3.52-6.42ZM970.52,518.19l-3.99-57.02c-.47-5.22-1.64-7.63-3.05-7.63-1.17,0-2.58,2.41-3.05,7.63l-4.69,57.02v.8c0,4.02,1.88,5.62,5.16,5.62h3.99c3.75,0,6.1-2.41,5.63-6.42Z"/>
    <path class="st2" d="M82.09,1011.38v-269.04c0-3.61,1.41-6.02,3.52-6.02h42.23c32.61,0,56.54,26.9,56.54,75.09,0,63.04-29.79,89.14-52.79,89.14-3.52,0-5.16,2.41-5.16,6.02v104.8c0,3.61-1.41,6.02-3.52,6.02h-37.3c-2.11,0-3.52-2.41-3.52-6.02ZM128.54,849.96c5.4,0,19-11.24,19-38.15,0-21.68-12.43-34.93-18.3-34.93-1.64,0-2.81,1.2-2.81,3.61v67.46c0,1.2.94,2.01,2.11,2.01Z"/>
    <path class="st2" d="M173.82,1010.98l30.5-269.04c.47-3.61,2.11-5.62,4.22-5.62h49.97c2.35,0,3.75,1.61,4.22,5.22l31.44,269.44v1.61c0,3.21-1.41,4.82-3.52,4.82h-36.36c-2.35,0-3.75-1.61-3.99-5.62l-5.87-59.43c-.47-4.02-1.88-5.62-3.99-5.62h-20.64c-2.35,0-3.52,2.01-3.99,5.62l-7.74,59.43c-.47,3.61-1.64,5.62-3.99,5.62h-26.75c-2.58,0-3.99-2.01-3.52-6.42ZM238.34,872.04l-3.99-57.02c-.47-5.22-1.64-7.63-3.05-7.63-1.17,0-2.58,2.41-3.05,7.63l-4.69,57.02v.8c0,4.02,1.88,5.62,5.16,5.62h3.99c3.75,0,6.1-2.41,5.63-6.42Z"/>
    <path class="st2" d="M303.32,1011.38v-269.44c0-3.61,1.41-6.02,3.52-6.02h42.7c45.28,0,61.94,26.9,61.94,66.26s-16.66,58.63-29.33,64.25c-1.88.8-2.58,2.01-2.58,2.81s.94,1.61,3.05,2.41c18.53,7.63,26.04,15.66,26.04,38.55v101.19c0,3.61-1.41,6.02-3.52,6.02h-36.6c-2.11,0-3.52-2.41-3.52-6.02v-103.6c0-12.45-6.1-15.66-11.26-15.66-3.52,0-5.63,1.61-5.63,5.62v113.64c0,3.61-1.41,6.02-3.52,6.02h-37.77c-2.11,0-3.52-2.41-3.52-6.02ZM350.95,839.52c6.1,0,19.24-8.43,19.24-32.93,0-21.28-11.73-28.11-18.06-28.11-2.35,0-3.99.8-3.99,2.41v56.62c0,1.21,1.17,2.01,2.82,2.01Z"/>
    <path class="st2" d="M417.57,1010.98l30.5-269.04c.47-3.61,2.11-5.62,4.22-5.62h49.97c2.35,0,3.75,1.61,4.22,5.22l31.44,269.44v1.61c0,3.21-1.41,4.82-3.52,4.82h-36.36c-2.35,0-3.75-1.61-3.99-5.62l-5.87-59.43c-.47-4.02-1.88-5.62-3.99-5.62h-20.64c-2.35,0-3.52,2.01-3.99,5.62l-7.74,59.43c-.47,3.61-1.64,5.62-3.99,5.62h-26.75c-2.58,0-3.99-2.01-3.52-6.42ZM482.09,872.04l-3.99-57.02c-.47-5.22-1.64-7.63-3.05-7.63-1.17,0-2.58,2.41-3.05,7.63l-4.69,57.02v.8c0,4.02,1.88,5.62,5.16,5.62h3.99c3.75,0,6.1-2.41,5.63-6.42Z"/>
    <path class="st2" d="M649.12,846.74c0,19.27,7.51,21.68,20.18,21.68,2.35,0,3.52,2.41,3.52,6.02v89.55c0,36.14-12.9,56.22-33.55,56.22s-32.38-19.68-32.38-55.01v-179.49h-13.37c-2.11,0-3.52-2.41-3.52-6.02v-37.34c0-3.61,1.41-6.02,3.52-6.02h76.01c2.11,0,3.52,2.41,3.52,6.02v37.34c0,3.61-1.41,6.02-3.52,6.02h-20.41v61.04Z"/>
    <path class="st2" d="M682.44,922.64c0-113.24,22.99-188.33,57.48-188.33s54.9,72.28,54.9,188.33c0,62.64-19.71,96.37-56.07,96.37s-56.3-34.53-56.3-96.37ZM752.58,830.68c0-30.92-5.63-54.21-12.67-54.21-8.92,0-14.78,22.49-14.78,54.21,0,16.46,5.87,27.31,14.78,27.31,7.27,0,12.67-10.84,12.67-27.31Z"/>
    <path class="st2" d="M804.19,1011.38v-269.04c0-3.61,1.41-6.02,3.52-6.02h36.36c48.56,0,60.53,73.08,60.53,143.35,0,63.44-4.69,137.73-61,137.73h-35.89c-2.11,0-3.52-2.41-3.52-6.02ZM869.41,817.83c0-27.31-10.79-40.96-16.66-40.96-2.11,0-3.75,2.01-3.75,6.02v69.07c0,6.42,1.41,8.83,4.46,8.83,11.03-.4,15.95-26.1,15.95-42.97Z"/>
    <path class="st2" d="M903.43,1010.58l28.39-134.92c.24-1.21.47-2.41.47-3.61s-.23-2.41-.47-4.02l-23.69-124.88c-.23-.8-.23-1.61-.23-2.41,0-2.81.94-4.42,3.05-4.42h31.91c1.88,0,3.52,2.01,3.99,5.22l15.25,88.34c.47,1.61,1.17,2.81,2.11,2.81s1.88-1.21,2.11-2.81l16.42-88.74c.7-3.61,2.11-4.82,3.99-4.82h30.73c2.58,0,3.75,2.41,2.82,6.83l-25.34,121.67c-.24,1.2-.47,2.81-.47,4.02s.23,2.41.47,4.01l27.21,137.73c.23.8.23,1.61.23,2.41,0,2.81-.94,4.42-3.05,4.42h-36.13c-1.88,0-3.28-1.21-3.99-4.82l-13.84-71.88c-.23-2.01-1.17-2.81-2.11-2.81s-1.64.8-2.11,2.81l-14.08,71.88c-.7,3.61-2.11,4.82-3.99,4.82h-36.83c-2.58,0-3.75-2.41-2.82-6.83Z"/>
    <path class="st2" d="M1032.46,1011.38v-137.73c0-3.61,1.41-6.02,3.52-6.02,21.11,0,28.15-2.41,28.15-10.84,0-18.87-33.78-16.46-33.78-66.26,0-22.08,11.26-57.82,46.45-57.82,33.08,0,46.92,18.07,46.92,72.68v.4c0,3.61-1.41,6.02-3.52,6.02h-23.93c-2.11,0-3.52-2.41-3.52-6.02,0-18.47-1.17-34.53-13.37-34.53-9.85,0-11.96,12.45-11.96,22.08,0,51.4,62.64,32.53,62.64,138.94,0,61.04-20.88,85.13-59.59,85.13h-34.49c-2.11,0-3.52-2.41-3.52-6.02Z"/>
    <path class="st2" d="M1141.31,925.05v-46.58c0-3.61,1.41-6.02,3.52-6.02h38.01c2.11,0,3.52,2.41,3.52,6.02v46.58c0,3.61-1.41,6.02-3.52,6.02h-38.01c-2.11,0-3.52-2.41-3.52-6.02ZM1141.31,1011.38v-46.58c0-3.61,1.41-6.02,3.52-6.02h38.01c2.11,0,3.52,2.41,3.52,6.02v46.58c0,3.61-1.41,6.02-3.52,6.02h-38.01c-2.11,0-3.52-2.41-3.52-6.02Z"/>
    <path class="st2" d="M286.66,1365.23v-269.04c0-3.61,1.41-6.02,3.52-6.02h42.23c32.61,0,56.54,26.9,56.54,75.09,0,63.04-29.79,89.14-52.79,89.14-3.52,0-5.16,2.41-5.16,6.02v104.8c0,3.61-1.41,6.02-3.52,6.02h-37.3c-2.11,0-3.52-2.41-3.52-6.02ZM333.12,1203.81c5.4,0,19-11.24,19-38.15,0-21.68-12.43-34.93-18.3-34.93-1.64,0-2.82,1.2-2.82,3.61v67.46c0,1.2.94,2.01,2.11,2.01Z"/>
    <path class="st2" d="M399.27,1280.5v-184.31c0-3.61,1.41-6.02,3.52-6.02h37.77c2.11,0,3.52,2.41,3.52,6.02v98.38c0,20.88,0,31.32,9.15,31.32s9.15-10.44,9.15-31.32v-98.38c0-3.61,1.41-6.02,3.52-6.02h37.54c2.11,0,3.52,2.41,3.52,6.02v184.31c0,42.97-6.33,92.76-53.49,92.76s-54.19-49.79-54.19-92.76ZM428.6,1061.26c0-1.2.47-2.41,1.41-3.21l31.2-35.34c.7-.8,1.64-1.2,2.58-1.2s1.64.4,2.35,1.2l15.95,18.47c1.41,2.01,1.64,4.02,0,5.22l-35.89,30.12c-.7.8-1.41,1.21-2.35,1.21s-1.88-.4-2.58-1.21l-11.26-12.45c-.94-.8-1.41-2.01-1.41-2.81Z"/>
    <path class="st2" d="M521.03,1365.23v-269.04c0-3.61,1.41-6.02,3.52-6.02h47.86c26.75,0,40.12,15.26,40.12,44.97,0,15.66-5.16,31.72-13.61,40.56-1.17,1.2-1.88,2.41-1.88,3.21s.7,1.61,2.11,2.81c16.66,16.86,23.23,54.61,23.23,90.35,0,53.41-10.56,99.18-51.38,99.18h-46.45c-2.11,0-3.52-2.41-3.52-6.02ZM567.48,1164.86c4.93,0,13.84-7.23,13.84-19.27,0-11.24-8.21-16.46-13.14-16.46-2.11,0-3.75.8-3.75,2.81v29.71c0,2.01,1.17,3.21,3.05,3.21ZM567.72,1232.32c5.63,0,16.66-6.83,16.66-20.88,0-12.85-9.62-18.87-15.48-18.87-2.58,0-4.46,1.2-4.46,3.61v33.73c0,1.61,1.17,2.41,3.28,2.41Z"/>
    <path class="st2" d="M632.93,1317.04v-220.85c0-3.61,1.41-6.02,3.52-6.02h37.77c2.11,0,3.52,2.41,3.52,6.02v120.06c0,3.61,1.41,6.02,3.52,6.02h17.83c2.11,0,3.52,2.41,3.52,6.02v136.93c0,3.61-1.41,6.02-3.52,6.02h-33.78c-20.41,0-32.38-18.87-32.38-54.21Z"/>
    <path class="st2" d="M715.51,1365.23v-269.04c0-3.61,1.41-6.02,3.52-6.02h36.83c2.11,0,3.52,2.41,3.52,6.02v269.04c0,3.61-1.41,6.02-3.52,6.02h-36.83c-2.11,0-3.52-2.41-3.52-6.02Z"/>
    <path class="st2" d="M769.94,1259.62c0-61.44,6.33-171.46,56.3-171.46,15.48,0,38.47,13.25,38.47,81.11v.4c0,3.61-1.41,6.02-3.52,6.02h-22.52c-2.11,0-3.52-2.41-3.52-6.02,0-28.91-2.11-38.55-8.21-38.55-8.68,0-16.19,20.88-16.19,52.2,0,26.9,4.69,38.55,13.37,38.55,4.69,0,9.85-3.21,9.85-18.87v-.4c0-3.61,1.41-6.02,3.52-6.02h24.4c2.11,0,3.52,2.41,3.52,6.02v162.63c0,3.61-1.88,6.02-5.4,6.02h-26.75c-36.6,0-63.34-8.43-63.34-111.63Z"/>
    <path class="st2" d="M874.8,1276.49c0-113.24,22.99-188.33,57.48-188.33s54.9,72.28,54.9,188.33c0,62.64-19.71,96.37-56.07,96.37s-56.3-34.53-56.3-96.37ZM944.95,1184.53c0-30.92-5.63-54.21-12.67-54.21-8.92,0-14.78,22.49-14.78,54.21,0,16.46,5.87,27.31,14.78,27.31,7.27,0,12.67-10.84,12.67-27.31Z"/>
    <path class="st2" d="M146.72,1605.04c0-81.11,14.08-163.03,60.53-163.03,30.73,0,46.45,34.93,46.45,67.06,0,6.02-2.11,6.02-5.16,6.02h-19.71c-3.28,0-5.4,0-5.4-6.02,0-15.26-7.04-24.09-15.48-24.09-15.72,0-19.24,32.12-19.24,55.41,0,37.34,7.74,48.59,19.94,48.59,6.1,0,15.25-1.2,15.25-19.68,0-3.61-2.11-6.02-5.4-6.02h-10.79c-3.28,0-3.52-.8-3.52-6.02v-19.68c0-3.61,2.11-6.02,5.16-6.02h40.82c3.28,0,5.4,2.41,5.4,6.02v181.5c0,3.61-2.11,6.02-5.4,6.02h-11.96c-3.05,0-5.16-2.41-5.16-6.02v-2.81c0-8.03-9.15,9.64-35.19,9.64-37.07,0-51.14-36.14-51.14-120.87Z"/>
    <path class="st2" d="M269.65,1719.08v-269.44c0-3.61,1.41-6.02,3.52-6.02h42.7c45.28,0,61.94,26.9,61.94,66.26s-16.66,58.63-29.33,64.25c-1.88.8-2.58,2.01-2.58,2.81s.94,1.61,3.05,2.41c18.53,7.63,26.04,15.66,26.04,38.55v101.19c0,3.61-1.41,6.02-3.52,6.02h-36.6c-2.11,0-3.52-2.41-3.52-6.02v-103.6c0-12.45-6.1-15.66-11.26-15.66-3.52,0-5.63,1.61-5.63,5.62v113.64c0,3.61-1.41,6.02-3.52,6.02h-37.77c-2.11,0-3.52-2.41-3.52-6.02ZM317.28,1547.22c6.1,0,19.24-8.43,19.24-32.93,0-21.28-11.73-28.11-18.06-28.11-2.35,0-3.99.8-3.99,2.41v56.62c0,1.21,1.17,2.01,2.81,2.01Z"/>
    <path class="st2" d="M383.9,1718.68l30.5-269.04c.47-3.61,2.11-5.62,4.22-5.62h49.97c2.35,0,3.75,1.61,4.22,5.22l31.44,269.44v1.61c0,3.21-1.41,4.82-3.52,4.82h-36.36c-2.35,0-3.75-1.61-3.99-5.62l-5.87-59.43c-.47-4.02-1.88-5.62-3.99-5.62h-20.64c-2.35,0-3.52,2.01-3.99,5.62l-7.74,59.43c-.47,3.61-1.64,5.62-3.99,5.62h-26.75c-2.58,0-3.99-2.01-3.52-6.42ZM448.42,1579.74l-3.99-57.02c-.47-5.22-1.64-7.63-3.05-7.63-1.17,0-2.58,2.41-3.05,7.63l-4.69,57.02v.8c0,4.02,1.88,5.62,5.16,5.62h3.99c3.75,0,6.1-2.41,5.63-6.42Z"/>
    <path class="st2" d="M554.46,1554.45c0,19.27,7.51,21.68,20.18,21.68,2.35,0,3.52,2.41,3.52,6.02v89.55c0,36.14-12.9,56.22-33.55,56.22s-32.38-19.68-32.38-55.01v-179.49h-13.37c-2.11,0-3.52-2.41-3.52-6.02v-37.34c0-3.61,1.41-6.02,3.52-6.02h76.01c2.11,0,3.52,2.41,3.52,6.02v37.34c0,3.61-1.41,6.02-3.52,6.02h-20.41v61.04Z"/>
    <path class="st2" d="M592.47,1634.35v-184.31c0-3.61,1.41-6.02,3.52-6.02h37.77c2.11,0,3.52,2.41,3.52,6.02v98.38c0,20.88,0,31.32,9.15,31.32s9.15-10.44,9.15-31.32v-98.38c0-3.61,1.41-6.02,3.52-6.02h37.54c2.11,0,3.52,2.41,3.52,6.02v184.31c0,42.97-6.33,92.76-53.49,92.76s-54.19-49.79-54.19-92.76Z"/>
    <path class="st2" d="M714.22,1719.08v-269.04c0-3.61,1.41-6.02,3.52-6.02h36.83c2.11,0,3.52,2.41,3.52,6.02v269.04c0,3.61-1.41,6.02-3.52,6.02h-36.83c-2.11,0-3.52-2.41-3.52-6.02Z"/>
    <path class="st2" d="M829.65,1554.45c0,19.27,7.51,21.68,20.18,21.68,2.35,0,3.52,2.41,3.52,6.02v89.55c0,36.14-12.9,56.22-33.55,56.22s-32.38-19.68-32.38-55.01v-179.49h-13.37c-2.11,0-3.52-2.41-3.52-6.02v-37.34c0-3.61,1.41-6.02,3.52-6.02h76.01c2.11,0,3.52,2.41,3.52,6.02v37.34c0,3.61-1.41,6.02-3.52,6.02h-20.41v61.04Z"/>
    <path class="st2" d="M862.96,1630.34c0-113.24,22.99-188.33,57.48-188.33s54.9,72.28,54.9,188.33c0,62.64-19.71,96.37-56.07,96.37s-56.3-34.53-56.3-96.37ZM933.11,1538.38c0-30.92-5.63-54.21-12.67-54.21-8.92,0-14.78,22.49-14.78,54.21,0,16.46,5.87,27.31,14.78,27.31,7.27,0,12.67-10.84,12.67-27.31Z"/>
    <path class="st2" d="M1050.17,1719.08v-132.51c0-2.81,0-4.42-.7-7.23l-28.15-128.5c-.24-1.21-.24-2.01-.24-2.81,0-2.41,1.17-4.02,3.05-4.02h34.96c1.88,0,3.29,1.2,3.99,4.82l12.2,62.24c.7,2.81,1.64,4.02,2.82,4.02s2.35-1.21,2.82-4.02l12.43-62.24c.7-3.61,2.11-4.82,3.99-4.82h24.87c2.58,0,3.75,2.41,2.82,6.83l-30.5,130.1c-.47,2.41-.94,4.82-.94,7.63v130.5c0,3.61-1.41,6.02-3.52,6.02h-36.36c-2.11,0-3.52-2.41-3.52-6.02Z"/>
    <path class="st2" d="M25.09,2072.53l30.5-269.04c.47-3.61,2.11-5.62,4.22-5.62h49.97c2.35,0,3.75,1.61,4.22,5.22l31.44,269.44v1.61c0,3.21-1.41,4.82-3.52,4.82h-36.36c-2.35,0-3.75-1.61-3.99-5.62l-5.87-59.43c-.47-4.02-1.88-5.62-3.99-5.62h-20.64c-2.35,0-3.52,2.01-3.99,5.62l-7.74,59.43c-.47,3.61-1.64,5.62-3.99,5.62h-26.75c-2.58,0-3.99-2.01-3.52-6.42ZM89.61,1933.6l-3.99-57.02c-.47-5.22-1.64-7.63-3.05-7.63-1.17,0-2.58,2.41-3.05,7.63l-4.69,57.02v.8c0,4.02,1.88,5.62,5.16,5.62h3.99c3.75,0,6.1-2.41,5.63-6.42Z"/>
    <path class="st2" d="M149.9,2024.75v-220.85c0-3.61,1.41-6.02,3.52-6.02h37.77c2.11,0,3.52,2.41,3.52,6.02v120.06c0,3.61,1.41,6.02,3.52,6.02h17.83c2.11,0,3.52,2.41,3.52,6.02v136.93c0,3.61-1.41,6.02-3.52,6.02h-33.78c-20.41,0-32.38-18.87-32.38-54.21Z"/>
    <path class="st2" d="M271.89,2072.53l30.5-269.04c.47-3.61,2.11-5.62,4.22-5.62h49.97c2.35,0,3.75,1.61,4.22,5.22l31.44,269.44v1.61c0,3.21-1.41,4.82-3.52,4.82h-36.36c-2.35,0-3.75-1.61-3.99-5.62l-5.87-59.43c-.47-4.02-1.88-5.62-3.99-5.62h-20.65c-2.35,0-3.52,2.01-3.99,5.62l-7.74,59.43c-.47,3.61-1.64,5.62-3.99,5.62h-26.74c-2.58,0-3.99-2.01-3.52-6.42ZM336.41,1933.6l-3.99-57.02c-.47-5.22-1.64-7.63-3.05-7.63-1.17,0-2.58,2.41-3.05,7.63l-4.69,57.02v.8c0,4.02,1.88,5.62,5.16,5.62h3.99c3.75,0,6.1-2.41,5.63-6.42Z"/>
    <path class="st2" d="M401.39,2072.93v-269.04c0-3.61,1.41-6.02,3.52-6.02h36.83c2.11,0,3.52,2.41,3.52,6.02v269.04c0,3.61-1.41,6.02-3.52,6.02h-36.83c-2.11,0-3.52-2.41-3.52-6.02Z"/>
    <path class="st2" d="M459.34,2072.93v-269.44c0-3.61,1.41-6.02,3.52-6.02h42.7c45.28,0,61.94,26.9,61.94,66.26s-16.66,58.63-29.33,64.25c-1.88.8-2.58,2.01-2.58,2.81s.94,1.61,3.05,2.41c18.53,7.63,26.04,15.66,26.04,38.55v101.19c0,3.61-1.41,6.02-3.52,6.02h-36.6c-2.11,0-3.52-2.41-3.52-6.02v-103.6c0-12.45-6.1-15.66-11.26-15.66-3.52,0-5.63,1.61-5.63,5.62v113.64c0,3.61-1.41,6.02-3.52,6.02h-37.77c-2.11,0-3.52-2.41-3.52-6.02ZM506.96,1901.07c6.1,0,19.24-8.43,19.24-32.93,0-21.28-11.73-28.11-18.06-28.11-2.35,0-3.99.8-3.99,2.41v56.62c0,1.21,1.17,2.01,2.81,2.01Z"/>
    <path class="st2" d="M646.08,2078.96h-34.96c-20.41,0-32.38-18.87-32.38-54.21v-220.85c0-3.61,2.11-6.02,5.4-6.02h60.06c3.28,0,5.4,2.41,5.4,6.02v29.31c0,3.61-2.11,6.02-5.4,6.02h-15.48c-3.05,0-5.16,2.41-5.16,6.02v16.87c0,3.61,2.11,6.02,5.16,6.02h10.32c3.05,0,5.16,2.41,5.16,6.02v29.31c0,3.61-2.11,6.02-5.16,6.02h-10.32c-3.05,0-5.16,1.61-5.16,2.01v12.45c0,3.61,2.11,6.02,5.16,6.02h17.36c3.05,0,5.16,2.41,5.16,6.02v136.93c0,3.61-2.11,6.02-5.16,6.02Z"/>
    <path class="st2" d="M714.58,2024.75v-220.85c0-3.61,1.41-6.02,3.52-6.02h37.77c2.11,0,3.52,2.41,3.52,6.02v120.06c0,3.61,1.41,6.02,3.52,6.02h17.83c2.11,0,3.52,2.41,3.52,6.02v136.93c0,3.61-1.41,6.02-3.52,6.02h-33.78c-20.41,0-32.38-18.87-32.38-54.21Z"/>
    <path class="st2" d="M797.15,2072.93v-269.04c0-3.61,1.41-6.02,3.52-6.02h36.83c2.11,0,3.52,2.41,3.52,6.02v269.04c0,3.61-1.41,6.02-3.52,6.02h-36.83c-2.11,0-3.52-2.41-3.52-6.02Z"/>
    <path class="st2" d="M855.1,2072.93v-269.04c0-3.61,1.41-6.02,3.52-6.02h47.86c26.75,0,40.12,15.26,40.12,44.97,0,15.66-5.16,31.72-13.61,40.56-1.17,1.2-1.88,2.41-1.88,3.21s.7,1.61,2.11,2.81c16.66,16.86,23.23,54.61,23.23,90.35,0,53.41-10.56,99.18-51.38,99.18h-46.45c-2.11,0-3.52-2.41-3.52-6.02ZM901.55,1872.56c4.93,0,13.84-7.23,13.84-19.27,0-11.24-8.21-16.46-13.14-16.46-2.11,0-3.75.8-3.75,2.81v29.71c0,2.01,1.17,3.21,3.05,3.21ZM901.79,1940.02c5.63,0,16.66-6.83,16.66-20.88,0-12.85-9.62-18.87-15.48-18.87-2.58,0-4.46,1.2-4.46,3.61v33.73c0,1.61,1.17,2.41,3.28,2.41Z"/>
    <path class="st2" d="M967,2072.93v-269.44c0-3.61,1.41-6.02,3.52-6.02h42.7c45.28,0,61.94,26.9,61.94,66.26s-16.66,58.63-29.33,64.25c-1.88.8-2.58,2.01-2.58,2.81s.94,1.61,3.05,2.41c18.53,7.63,26.04,15.66,26.04,38.55v101.19c0,3.61-1.41,6.02-3.52,6.02h-36.6c-2.11,0-3.52-2.41-3.52-6.02v-103.6c0-12.45-6.1-15.66-11.26-15.66-3.52,0-5.63,1.61-5.63,5.62v113.64c0,3.61-1.41,6.02-3.52,6.02h-37.77c-2.11,0-3.52-2.41-3.52-6.02ZM1014.63,1901.07c6.1,0,19.24-8.43,19.24-32.93,0-21.28-11.73-28.11-18.06-28.11-2.35,0-3.99.8-3.99,2.41v56.62c0,1.21,1.17,2.01,2.81,2.01Z"/>
    <path class="st2" d="M1153.74,2078.96h-34.96c-20.41,0-32.38-18.87-32.38-54.21v-220.85c0-3.61,2.11-6.02,5.4-6.02h60.06c3.29,0,5.4,2.41,5.4,6.02v29.31c0,3.61-2.11,6.02-5.4,6.02h-15.48c-3.05,0-5.16,2.41-5.16,6.02v16.87c0,3.61,2.11,6.02,5.16,6.02h10.32c3.05,0,5.16,2.41,5.16,6.02v29.31c0,3.61-2.11,6.02-5.16,6.02h-10.32c-3.05,0-5.16,1.61-5.16,2.01v12.45c0,3.61,2.11,6.02,5.16,6.02h17.36c3.05,0,5.16,2.41,5.16,6.02v136.93c0,3.61-2.11,6.02-5.16,6.02Z"/>
    <path class="st2" d="M1187.29,1932.79l-13.14-128.5v-1.61c0-3.21.94-4.82,3.05-4.82h61c2.35,0,3.52,2.01,3.05,6.42l-12.9,128.5c-.47,3.61-1.88,5.22-3.99,5.22h-33.31c-2.11,0-3.28-1.61-3.75-5.22ZM1184.94,2072.93v-116.05c0-3.61,1.41-6.02,3.52-6.02h38.01c2.11,0,3.52,2.41,3.52,6.02v116.05c0,3.61-1.41,6.02-3.52,6.02h-38.01c-2.11,0-3.52-2.41-3.52-6.02Z"/>
  </g>
</svg>