<?xml version="1.0" encoding="UTF-8"?>
<svg id="Ebene_1" xmlns="http://www.w3.org/2000/svg" version="1.1" viewBox="0 0 1211.26 2118.18">
  <!-- Generator: Adobe Illustrator 30.5.0, SVG Export Plug-In . SVG Version: 2.1.4 Build 167)  -->
  <defs>
    <style>
      .st0, .st1 {
        fill: #ffdfa8;
      }

      .st1 {
        stroke: #ffdfa8;
        stroke-linecap: square;
        stroke-linejoin: bevel;
        stroke-width: 50px;
      }

      .st2 {
        fill: #ff1200;
      }
    </style>
  </defs>
  <path class="st0" d="M861.67,2058.76c-9.29,12.65-37.12,28.22-52.11,33.31-101.9,34.63-316.89,36.85-416.87-5.69-51.48-21.9-81.7-61.45-24.61-101.47,94.15-65.99,318.28-68.12,422.96-24.62,34.77,14.45,104.12,52.87,70.64,98.47h0ZM490.22,2024.98c32.59,24.34,145.03,26.82,184.68,19.22,65.65-12.58,82.49-46,8.66-65.6-48.42-12.85-102.98-12.5-151.49-.24-19.74,4.99-76.71,20.58-41.84,46.62h0Z"/>
  <path class="st0" d="M587.86,2007.38c4.67,2.87,31.59,3.31,37.19.69,17.48-25.36-61.21-15.43-37.19-.69h0Z"/>
  <path class="st0" d="M587.86,2007.38c-24.02-14.75,54.66-24.67,37.19.69-5.59,2.62-32.52,2.18-37.19-.69h0Z"/>
  <g>
    <path class="st1" d="M557.73,270.78h-30.57c-17.85,0-28.31-16.5-28.31-47.4V30.27c0-3.16,1.85-5.27,4.72-5.27h52.51c2.87,0,4.72,2.11,4.72,5.27v25.63c0,3.16-1.85,5.27-4.72,5.27h-13.54c-2.67,0-4.51,2.11-4.51,5.27v14.75c0,3.16,1.85,5.27,4.51,5.27h9.03c2.67,0,4.51,2.11,4.51,5.27v25.63c0,3.16-1.85,5.27-4.51,5.27h-9.03c-2.67,0-4.51,1.4-4.51,1.76v10.88c0,3.16,1.85,5.27,4.51,5.27h15.18c2.67,0,4.51,2.11,4.51,5.27v119.73c0,3.16-1.85,5.27-4.51,5.27Z"/>
    <path class="st1" d="M574.55,265.51V30.27c0-3.16,1.23-5.27,3.08-5.27h32.21c1.85,0,3.08,2.11,3.08,5.27v235.24c0,3.16-1.23,5.27-3.08,5.27h-32.21c-1.85,0-3.08-2.11-3.08-5.27Z"/>
    <path class="st1" d="M625.22,265.51V30.27c0-3.16,1.23-5.27,3.08-5.27h29.54c1.64,0,2.87,1.05,3.49,4.21l19.49,91.99c.41,2.11,1.23,3.16,1.85,3.16.82,0,1.64-1.4,1.64-4.21V30.27c0-3.16,1.23-5.27,3.08-5.27h21.54c1.85,0,3.08,2.11,3.08,5.27v235.24c0,3.16-1.23,5.27-3.08,5.27h-29.54c-1.64,0-2.87-1.05-3.49-4.21l-19.49-100.77c-.41-2.11-1.23-3.16-1.85-3.16-.82,0-1.64,1.4-1.64,3.86v99.01c0,3.16-1.23,5.27-3.08,5.27h-21.54c-1.85,0-3.08-2.11-3.08-5.27Z"/>
    <path class="st1" d="M26.85,574.91v-120.43c0-3.16,1.23-5.27,3.08-5.27,18.46,0,24.62-2.11,24.62-9.48,0-16.5-29.54-14.4-29.54-57.93,0-19.31,9.85-50.56,40.62-50.56,28.92,0,41.03,15.8,41.03,63.55v.35c0,3.16-1.23,5.27-3.08,5.27h-20.92c-1.85,0-3.08-2.11-3.08-5.27,0-16.15-1.03-30.2-11.69-30.2-8.62,0-10.46,10.88-10.46,19.31,0,44.94,54.77,28.44,54.77,121.48,0,53.37-18.26,74.44-52.1,74.44h-30.15c-1.85,0-3.08-2.11-3.08-5.27Z"/>
    <path class="st1" d="M114.85,574.56l26.67-235.24c.41-3.16,1.85-4.92,3.69-4.92h43.69c2.05,0,3.28,1.4,3.69,4.56l27.49,235.6v1.4c0,2.81-1.23,4.21-3.08,4.21h-31.8c-2.05,0-3.28-1.4-3.49-4.92l-5.13-51.96c-.41-3.51-1.64-4.92-3.49-4.92h-18.05c-2.05,0-3.08,1.76-3.49,4.92l-6.77,51.96c-.41,3.16-1.44,4.92-3.49,4.92h-23.39c-2.26,0-3.49-1.76-3.08-5.62ZM171.26,453.08l-3.49-49.86c-.41-4.56-1.44-6.67-2.67-6.67-1.03,0-2.26,2.11-2.67,6.67l-4.1,49.86v.7c0,3.51,1.64,4.92,4.51,4.92h3.49c3.28,0,5.33-2.11,4.92-5.62Z"/>
    <path class="st1" d="M223.98,532.78v-193.11c0-3.16,1.23-5.27,3.08-5.27h33.03c1.85,0,3.08,2.11,3.08,5.27v104.98c0,3.16,1.23,5.27,3.08,5.27h15.59c1.85,0,3.08,2.11,3.08,5.27v119.73c0,3.16-1.23,5.27-3.08,5.27h-29.54c-17.85,0-28.31-16.5-28.31-47.4Z"/>
    <path class="st1" d="M297.42,574.91v-120.43c0-3.16,1.23-5.27,3.08-5.27,18.46,0,24.62-2.11,24.62-9.48,0-16.5-29.54-14.4-29.54-57.93,0-19.31,9.85-50.56,40.62-50.56,28.92,0,41.03,15.8,41.03,63.55v.35c0,3.16-1.23,5.27-3.08,5.27h-20.92c-1.85,0-3.08-2.11-3.08-5.27,0-16.15-1.03-30.2-11.69-30.2-8.62,0-10.46,10.88-10.46,19.31,0,44.94,54.77,28.44,54.77,121.48,0,53.37-18.26,74.44-52.1,74.44h-30.15c-1.85,0-3.08-2.11-3.08-5.27Z"/>
    <path class="st1" d="M385.42,574.56l26.67-235.24c.41-3.16,1.85-4.92,3.69-4.92h43.69c2.05,0,3.28,1.4,3.69,4.56l27.49,235.6v1.4c0,2.81-1.23,4.21-3.08,4.21h-31.8c-2.05,0-3.28-1.4-3.49-4.92l-5.13-51.96c-.41-3.51-1.64-4.92-3.49-4.92h-18.05c-2.05,0-3.08,1.76-3.49,4.92l-6.77,51.96c-.41,3.16-1.44,4.92-3.49,4.92h-23.39c-2.26,0-3.49-1.76-3.08-5.62ZM441.83,453.08l-3.49-49.86c-.41-4.56-1.44-6.67-2.67-6.67-1.03,0-2.26,2.11-2.67,6.67l-4.1,49.86v.7c0,3.51,1.64,4.92,4.51,4.92h3.49c3.28,0,5.33-2.11,4.92-5.62Z"/>
    <path class="st1" d="M493.32,485.73v-38.62c0-3.16,1.23-5.27,3.08-5.27h48.41c1.85,0,3.08,2.11,3.08,5.27v38.62c0,3.16-1.23,5.27-3.08,5.27h-48.41c-1.85,0-3.08-2.11-3.08-5.27Z"/>
    <path class="st1" d="M558.96,574.91v-235.24c0-3.16,1.85-5.27,4.72-5.27h55.59c2.87,0,4.72,2.11,4.72,5.27v25.63c0,3.16-1.85,5.27-4.72,5.27h-16.62c-2.67,0-4.51,2.11-4.51,5.27v14.75c0,3.16,1.85,5.27,4.51,5.27h12.1c2.67,0,4.51,2.11,4.51,5.27v25.63c0,3.16-1.85,5.27-4.51,5.27h-12.1c-2.67,0-4.51,2.11-4.51,5.27v137.64c0,3.16-1.85,5.27-4.72,5.27h-29.74c-2.87,0-4.72-2.11-4.72-5.27Z"/>
    <path class="st1" d="M692.3,580.18h-30.57c-17.85,0-28.31-16.5-28.31-47.4v-193.11c0-3.16,1.85-5.27,4.72-5.27h52.51c2.87,0,4.72,2.11,4.72,5.27v25.63c0,3.16-1.85,5.27-4.72,5.27h-13.54c-2.67,0-4.51,2.11-4.51,5.27v14.75c0,3.16,1.85,5.27,4.51,5.27h9.03c2.67,0,4.51,2.11,4.51,5.27v25.63c0,3.16-1.85,5.27-4.51,5.27h-9.03c-2.67,0-4.51,1.4-4.51,1.76v10.88c0,3.16,1.85,5.27,4.51,5.27h15.18c2.67,0,4.51,2.11,4.51,5.27v119.73c0,3.16-1.85,5.27-4.51,5.27Z"/>
    <path class="st1" d="M710.35,574.91v-120.43c0-3.16,1.23-5.27,3.08-5.27,18.46,0,24.62-2.11,24.62-9.48,0-16.5-29.54-14.4-29.54-57.93,0-19.31,9.85-50.56,40.62-50.56,28.92,0,41.03,15.8,41.03,63.55v.35c0,3.16-1.23,5.27-3.08,5.27h-20.92c-1.85,0-3.08-2.11-3.08-5.27,0-16.15-1.03-30.2-11.69-30.2-8.62,0-10.46,10.88-10.46,19.31,0,44.94,54.77,28.44,54.77,121.48,0,53.37-18.26,74.44-52.1,74.44h-30.15c-1.85,0-3.08-2.11-3.08-5.27Z"/>
    <path class="st1" d="M848.4,430.96c0,16.85,6.56,18.96,17.64,18.96,2.05,0,3.08,2.11,3.08,5.27v78.3c0,31.6-11.28,49.16-29.33,49.16s-28.31-17.2-28.31-48.1v-156.95h-11.69c-1.85,0-3.08-2.11-3.08-5.27v-32.65c0-3.16,1.23-5.27,3.08-5.27h66.46c1.85,0,3.08,2.11,3.08,5.27v32.65c0,3.16-1.23,5.27-3.08,5.27h-17.85v53.37Z"/>
    <path class="st1" d="M881.63,574.91v-235.24c0-3.16,1.23-5.27,3.08-5.27h32.21c1.85,0,3.08,2.11,3.08,5.27v235.24c0,3.16-1.23,5.27-3.08,5.27h-32.21c-1.85,0-3.08-2.11-3.08-5.27Z"/>
    <path class="st1" d="M953.22,575.62l-25.44-235.95v-1.4c0-2.46,1.03-3.86,2.87-3.86h28.72c1.85,0,3.08,1.76,3.49,4.56l12.1,115.16c.2,2.46,1.03,3.86,1.85,3.86.62,0,1.44-1.4,1.64-3.86l11.69-115.16c.41-2.81,1.64-4.56,3.49-4.56h28.72c2.05,0,3.28,2.11,2.87,5.27l-28.51,235.95c-.41,2.81-1.64,4.56-3.49,4.56h-36.51c-1.85,0-3.08-1.76-3.49-4.56Z"/>
    <path class="st1" d="M1016.2,574.56l26.67-235.24c.41-3.16,1.85-4.92,3.69-4.92h43.69c2.05,0,3.28,1.4,3.69,4.56l27.49,235.6v1.4c0,2.81-1.23,4.21-3.08,4.21h-31.8c-2.05,0-3.28-1.4-3.49-4.92l-5.13-51.96c-.41-3.51-1.64-4.92-3.49-4.92h-18.05c-2.05,0-3.08,1.76-3.49,4.92l-6.77,51.96c-.41,3.16-1.44,4.92-3.49,4.92h-23.39c-2.26,0-3.49-1.76-3.08-5.62ZM1072.61,453.08l-3.49-49.86c-.41-4.56-1.44-6.67-2.67-6.67-1.03,0-2.26,2.11-2.67,6.67l-4.1,49.86v.7c0,3.51,1.64,4.92,4.51,4.92h3.49c3.28,0,5.33-2.11,4.92-5.62Z"/>
    <path class="st1" d="M1125.33,532.78v-193.11c0-3.16,1.23-5.27,3.08-5.27h33.03c1.85,0,3.08,2.11,3.08,5.27v104.98c0,3.16,1.23,5.27,3.08,5.27h15.59c1.85,0,3.08,2.11,3.08,5.27v119.73c0,3.16-1.23,5.27-3.08,5.27h-29.54c-17.85,0-28.31-16.5-28.31-47.4Z"/>
    <path class="st1" d="M260.6,884.32v-235.24c0-3.16,1.85-5.27,4.72-5.27h55.59c2.87,0,4.72,2.11,4.72,5.27v25.63c0,3.16-1.85,5.27-4.72,5.27h-16.62c-2.67,0-4.51,2.11-4.51,5.27v14.75c0,3.16,1.85,5.27,4.51,5.27h12.1c2.67,0,4.51,2.11,4.51,5.27v25.63c0,3.16-1.85,5.27-4.51,5.27h-12.1c-2.67,0-4.51,2.11-4.51,5.27v137.64c0,3.16-1.85,5.27-4.72,5.27h-29.74c-2.87,0-4.72-2.11-4.72-5.27Z"/>
    <path class="st1" d="M335.06,810.23v-161.16c0-3.16,1.23-5.27,3.08-5.27h33.03c1.85,0,3.08,2.11,3.08,5.27v86.02c0,18.26,0,27.39,8,27.39s8-9.13,8-27.39v-86.02c0-3.16,1.23-5.27,3.08-5.27h32.82c1.85,0,3.08,2.11,3.08,5.27v161.16c0,37.57-5.54,81.11-46.77,81.11s-47.39-43.54-47.39-81.11ZM354.96,620.63c0-7.37,5.33-12.99,11.69-12.99s11.69,5.62,11.69,12.99-5.13,13.34-11.69,13.34-11.69-5.62-11.69-13.34ZM385.73,620.63c0-7.37,5.13-12.99,11.9-12.99,6.15,0,11.49,5.62,11.49,12.99s-5.33,13.34-11.49,13.34c-6.77,0-11.9-5.62-11.9-13.34Z"/>
    <path class="st1" d="M441.52,884.32v-235.6c0-3.16,1.23-5.27,3.08-5.27h37.33c39.59,0,54.16,23.52,54.16,57.93s-14.56,51.26-25.64,56.18c-1.64.7-2.26,1.75-2.26,2.46s.82,1.4,2.67,2.11c16.21,6.67,22.77,13.69,22.77,33.71v88.48c0,3.16-1.23,5.27-3.08,5.27h-32c-1.85,0-3.08-2.11-3.08-5.27v-90.59c0-10.88-5.33-13.69-9.85-13.69-3.08,0-4.92,1.4-4.92,4.92v99.36c0,3.16-1.23,5.27-3.08,5.27h-33.03c-1.85,0-3.08-2.11-3.08-5.27ZM483.17,734.04c5.33,0,16.82-7.37,16.82-28.79,0-18.61-10.26-24.58-15.8-24.58-2.05,0-3.49.7-3.49,2.11v49.51c0,1.05,1.03,1.76,2.46,1.76Z"/>
    <path class="st1" d="M580.4,883.97l26.67-235.24c.41-3.16,1.85-4.92,3.69-4.92h43.69c2.05,0,3.28,1.4,3.69,4.56l27.49,235.6v1.4c0,2.81-1.23,4.21-3.08,4.21h-31.8c-2.05,0-3.28-1.4-3.49-4.92l-5.13-51.96c-.41-3.51-1.64-4.92-3.49-4.92h-18.05c-2.05,0-3.08,1.76-3.49,4.92l-6.77,51.96c-.41,3.16-1.44,4.92-3.49,4.92h-23.39c-2.26,0-3.49-1.76-3.08-5.62ZM636.81,762.48l-3.49-49.86c-.41-4.56-1.44-6.67-2.67-6.67-1.03,0-2.26,2.11-2.67,6.67l-4.1,49.86v.7c0,3.51,1.64,4.92,4.51,4.92h3.49c3.28,0,5.33-2.11,4.92-5.62Z"/>
    <path class="st1" d="M689.53,842.18v-193.11c0-3.16,1.23-5.27,3.08-5.27h33.03c1.85,0,3.08,2.11,3.08,5.27v104.98c0,3.16,1.23,5.27,3.08,5.27h15.59c1.85,0,3.08,2.11,3.08,5.27v119.73c0,3.16-1.23,5.27-3.08,5.27h-29.54c-17.85,0-28.31-16.5-28.31-47.4Z"/>
    <path class="st1" d="M761.73,842.18v-193.11c0-3.16,1.23-5.27,3.08-5.27h33.03c1.85,0,3.08,2.11,3.08,5.27v104.98c0,3.16,1.23,5.27,3.08,5.27h15.59c1.85,0,3.08,2.11,3.08,5.27v119.73c0,3.16-1.23,5.27-3.08,5.27h-29.54c-17.85,0-28.31-16.5-28.31-47.4Z"/>
    <path class="st1" d="M892.81,889.58h-30.57c-17.85,0-28.31-16.5-28.31-47.4v-193.11c0-3.16,1.85-5.27,4.72-5.27h52.51c2.87,0,4.72,2.11,4.72,5.27v25.63c0,3.16-1.85,5.27-4.72,5.27h-13.54c-2.67,0-4.51,2.11-4.51,5.27v14.75c0,3.16,1.85,5.27,4.51,5.27h9.03c2.67,0,4.51,2.11,4.51,5.27v25.63c0,3.16-1.85,5.27-4.51,5.27h-9.03c-2.67,0-4.51,1.4-4.51,1.76v10.88c0,3.16,1.85,5.27,4.51,5.27h15.18c2.67,0,4.51,2.11,4.51,5.27v119.73c0,3.16-1.85,5.27-4.51,5.27Z"/>
    <path class="st1" d="M910.24,808.83v-40.73c0-3.16,1.23-5.27,3.08-5.27h33.23c1.85,0,3.08,2.11,3.08,5.27v40.73c0,3.16-1.23,5.27-3.08,5.27h-33.23c-1.85,0-3.08-2.11-3.08-5.27ZM910.24,884.32v-40.73c0-3.16,1.23-5.27,3.08-5.27h33.23c1.85,0,3.08,2.11,3.08,5.27v40.73c0,3.16-1.23,5.27-3.08,5.27h-33.23c-1.85,0-3.08-2.11-3.08-5.27Z"/>
    <path class="st1" d="M191.78,1116.13c0-99.01,20.1-164.67,50.26-164.67s48,63.2,48,164.67c0,54.77-17.23,84.27-49.03,84.27s-49.23-30.2-49.23-84.27ZM214.75,933.9c0-7.37,5.33-12.99,11.69-12.99s11.69,5.62,11.69,12.99-5.13,13.34-11.69,13.34-11.69-5.62-11.69-13.34ZM253.11,1035.72c0-27.04-4.92-47.4-11.08-47.4-7.8,0-12.92,19.66-12.92,47.4,0,14.39,5.13,23.88,12.92,23.88,6.36,0,11.08-9.48,11.08-23.88ZM245.52,933.9c0-7.37,5.13-12.99,11.9-12.99,6.15,0,11.49,5.62,11.49,12.99s-5.33,13.34-11.49,13.34c-6.77,0-11.9-5.62-11.9-13.34Z"/>
    <path class="st1" d="M298.24,1193.72v-235.24c0-3.16,1.85-5.27,4.72-5.27h55.59c2.87,0,4.72,2.11,4.72,5.27v25.63c0,3.16-1.85,5.27-4.72,5.27h-16.62c-2.67,0-4.51,2.11-4.51,5.27v14.75c0,3.16,1.85,5.27,4.51,5.27h12.1c2.67,0,4.51,2.11,4.51,5.27v25.63c0,3.16-1.85,5.27-4.51,5.27h-12.1c-2.67,0-4.51,2.11-4.51,5.27v137.64c0,3.16-1.85,5.27-4.72,5.27h-29.74c-2.87,0-4.72-2.11-4.72-5.27Z"/>
    <path class="st1" d="M372.7,1193.72v-235.24c0-3.16,1.85-5.27,4.72-5.27h55.59c2.87,0,4.72,2.11,4.72,5.27v25.63c0,3.16-1.85,5.27-4.72,5.27h-16.62c-2.67,0-4.51,2.11-4.51,5.27v14.75c0,3.16,1.85,5.27,4.51,5.27h12.1c2.67,0,4.51,2.11,4.51,5.27v25.63c0,3.16-1.85,5.27-4.51,5.27h-12.1c-2.67,0-4.51,2.11-4.51,5.27v137.64c0,3.16-1.85,5.27-4.72,5.27h-29.74c-2.87,0-4.72-2.11-4.72-5.27Z"/>
    <path class="st1" d="M506.04,1198.99h-30.57c-17.85,0-28.31-16.5-28.31-47.4v-193.11c0-3.16,1.85-5.27,4.72-5.27h52.51c2.87,0,4.72,2.11,4.72,5.27v25.63c0,3.16-1.85,5.27-4.72,5.27h-13.54c-2.67,0-4.51,2.11-4.51,5.27v14.75c0,3.16,1.85,5.27,4.51,5.27h9.03c2.67,0,4.51,2.11,4.51,5.27v25.63c0,3.16-1.85,5.27-4.51,5.27h-9.03c-2.67,0-4.51,1.4-4.51,1.76v10.88c0,3.16,1.85,5.27,4.51,5.27h15.18c2.67,0,4.51,2.11,4.51,5.27v119.73c0,3.16-1.85,5.27-4.51,5.27Z"/>
    <path class="st1" d="M522.86,1193.72v-235.24c0-3.16,1.23-5.27,3.08-5.27h29.54c1.64,0,2.87,1.05,3.49,4.21l19.49,91.99c.41,2.11,1.23,3.16,1.85,3.16.82,0,1.64-1.4,1.64-4.21v-89.88c0-3.16,1.23-5.27,3.08-5.27h21.54c1.85,0,3.08,2.11,3.08,5.27v235.24c0,3.16-1.23,5.27-3.08,5.27h-29.54c-1.64,0-2.87-1.05-3.49-4.21l-19.49-100.77c-.41-2.11-1.23-3.16-1.85-3.16-.82,0-1.64,1.4-1.64,3.86v99.01c0,3.16-1.23,5.27-3.08,5.27h-21.54c-1.85,0-3.08-2.11-3.08-5.27Z"/>
    <path class="st1" d="M672.19,1049.77c0,16.85,6.56,18.96,17.64,18.96,2.05,0,3.08,2.11,3.08,5.27v78.3c0,31.6-11.28,49.16-29.33,49.16s-28.31-17.2-28.31-48.1v-156.95h-11.69c-1.85,0-3.08-2.11-3.08-5.27v-32.65c0-3.16,1.23-5.27,3.08-5.27h66.46c1.85,0,3.08,2.11,3.08,5.27v32.65c0,3.16-1.23,5.27-3.08,5.27h-17.85v53.37Z"/>
    <path class="st1" d="M705.42,1151.59v-193.11c0-3.16,1.23-5.27,3.08-5.27h33.03c1.85,0,3.08,2.11,3.08,5.27v104.98c0,3.16,1.23,5.27,3.08,5.27h15.59c1.85,0,3.08,2.11,3.08,5.27v119.73c0,3.16-1.23,5.27-3.08,5.27h-29.54c-17.85,0-28.31-16.5-28.31-47.4Z"/>
    <path class="st1" d="M777.63,1193.72v-235.24c0-3.16,1.23-5.27,3.08-5.27h32.21c1.85,0,3.08,2.11,3.08,5.27v235.24c0,3.16-1.23,5.27-3.08,5.27h-32.21c-1.85,0-3.08-2.11-3.08-5.27Z"/>
    <path class="st1" d="M825.22,1101.38c0-53.72,5.54-149.92,49.23-149.92,13.54,0,33.64,11.59,33.64,70.92v.35c0,3.16-1.23,5.27-3.08,5.27h-19.69c-1.85,0-3.08-2.11-3.08-5.27,0-25.28-1.85-33.71-7.18-33.71-7.59,0-14.15,18.26-14.15,45.64,0,23.52,4.1,33.71,11.69,33.71,4.1,0,8.62-2.81,8.62-16.5v-.35c0-3.16,1.23-5.27,3.08-5.27h21.33c1.85,0,3.08,2.11,3.08,5.27v142.2c0,3.16-1.64,5.27-4.72,5.27h-23.39c-32,0-55.39-7.37-55.39-97.61Z"/>
    <path class="st1" d="M921.01,1193.72v-235.24c0-3.16,1.85-5.27,4.72-5.27h29.54c2.67,0,4.92,2.11,4.92,5.27v50.56c0,3.16,1.44,5.27,4.31,5.27h6.77c2.67,0,4.51-2.11,4.51-5.27v-50.56c0-3.16,1.85-5.27,4.72-5.27h29.54c2.67,0,4.51,2.11,4.92,5.27v235.24c0,3.16-1.85,5.27-4.72,5.27h-29.74c-2.87,0-4.72-2.11-4.72-5.27v-137.64c0-3.16-1.85-5.27-4.51-5.27h-6.77c-2.87,0-4.31,2.11-4.31,5.27v137.64c0,3.16-1.85,5.27-4.72,5.27h-29.13c-2.87,0-5.33-2.11-5.33-5.27Z"/>
    <path class="st1" d="M257.01,1429.04v-161.16c0-3.16,1.23-5.27,3.08-5.27h33.03c1.85,0,3.08,2.11,3.08,5.27v86.02c0,18.26,0,27.39,8,27.39s8-9.13,8-27.39v-86.02c0-3.16,1.23-5.27,3.08-5.27h32.82c1.85,0,3.08,2.11,3.08,5.27v161.16c0,37.57-5.54,81.11-46.77,81.11s-47.39-43.54-47.39-81.11Z"/>
    <path class="st1" d="M363.47,1503.13v-235.24c0-3.16,1.23-5.27,3.08-5.27h37.95c1.85,0,2.87,1.76,3.28,4.56l13.74,90.24c.41,2.46,1.23,3.86,1.85,3.86.82,0,1.44-1.4,1.85-3.86l14.36-90.24c.41-2.81,1.44-4.56,3.28-4.56h38.16c1.85,0,3.08,2.11,3.08,5.27v235.24c0,3.16-1.23,5.27-3.08,5.27h-27.08c-1.85,0-3.08-2.11-3.08-5.27v-101.12c0-2.11-.82-3.51-1.64-3.51-.62,0-1.44,1.05-1.64,2.81l-16.21,102.52c-.41,2.81-1.44,4.56-3.28,4.56h-14.36c-1.85,0-2.87-1.76-3.28-4.56l-16-102.17c-.21-1.76-1.03-2.81-1.64-2.81-.82,0-1.64,1.4-1.64,3.51v100.77c0,3.16-1.23,5.27-3.08,5.27h-21.54c-1.85,0-3.08-2.11-3.08-5.27Z"/>
    <path class="st1" d="M497.63,1503.13v-120.43c0-3.16,1.23-5.27,3.08-5.27,18.46,0,24.62-2.11,24.62-9.48,0-16.5-29.54-14.4-29.54-57.93,0-19.31,9.85-50.56,40.62-50.56,28.92,0,41.03,15.8,41.03,63.55v.35c0,3.16-1.23,5.27-3.08,5.27h-20.92c-1.85,0-3.08-2.11-3.08-5.27,0-16.15-1.03-30.2-11.69-30.2-8.62,0-10.46,10.88-10.46,19.31,0,44.94,54.77,28.44,54.77,121.48,0,53.37-18.26,74.44-52.1,74.44h-30.15c-1.85,0-3.08-2.11-3.08-5.27Z"/>
    <path class="st1" d="M588.09,1425.53c0-99.01,20.1-164.67,50.26-164.67s48,63.2,48,164.67c0,54.77-17.23,84.27-49.03,84.27s-49.23-30.2-49.23-84.27ZM649.42,1345.13c0-27.04-4.92-47.4-11.08-47.4-7.8,0-12.92,19.66-12.92,47.4,0,14.39,5.13,23.88,12.92,23.88,6.36,0,11.08-9.48,11.08-23.88Z"/>
    <path class="st1" d="M694.55,1503.13v-235.24c0-3.16,1.23-5.27,3.08-5.27h29.54c1.64,0,2.87,1.05,3.49,4.21l19.49,91.99c.41,2.11,1.23,3.16,1.85,3.16.82,0,1.64-1.4,1.64-4.21v-89.88c0-3.16,1.23-5.27,3.08-5.27h21.54c1.85,0,3.08,2.11,3.08,5.27v235.24c0,3.16-1.23,5.27-3.08,5.27h-29.54c-1.64,0-2.87-1.05-3.49-4.21l-19.49-100.77c-.41-2.11-1.23-3.16-1.85-3.16-.82,0-1.64,1.4-1.64,3.86v99.01c0,3.16-1.23,5.27-3.08,5.27h-21.54c-1.85,0-3.08-2.11-3.08-5.27Z"/>
    <path class="st1" d="M794.86,1503.13v-120.43c0-3.16,1.23-5.27,3.08-5.27,18.46,0,24.62-2.11,24.62-9.48,0-16.5-29.54-14.4-29.54-57.93,0-19.31,9.85-50.56,40.62-50.56,28.92,0,41.03,15.8,41.03,63.55v.35c0,3.16-1.23,5.27-3.08,5.27h-20.92c-1.85,0-3.08-2.11-3.08-5.27,0-16.15-1.03-30.2-11.69-30.2-8.62,0-10.46,10.88-10.46,19.31,0,44.94,54.77,28.44,54.77,121.48,0,53.37-18.26,74.44-52.1,74.44h-30.15c-1.85,0-3.08-2.11-3.08-5.27Z"/>
    <path class="st1" d="M932.91,1359.17c0,16.85,6.56,18.96,17.64,18.96,2.05,0,3.08,2.11,3.08,5.27v78.3c0,31.6-11.28,49.16-29.33,49.16s-28.31-17.2-28.31-48.1v-156.95h-11.69c-1.85,0-3.08-2.11-3.08-5.27v-32.65c0-3.16,1.23-5.27,3.08-5.27h66.46c1.85,0,3.08,2.11,3.08,5.27v32.65c0,3.16-1.23,5.27-3.08,5.27h-17.85v53.37Z"/>
    <path class="st1" d="M40.91,1738.44v-161.16c0-3.16,1.23-5.27,3.08-5.27h33.03c1.85,0,3.08,2.11,3.08,5.27v86.02c0,18.26,0,27.39,8,27.39s8-9.13,8-27.39v-86.02c0-3.16,1.23-5.27,3.08-5.27h32.82c1.85,0,3.08,2.11,3.08,5.27v161.16c0,37.57-5.54,81.11-46.77,81.11s-47.39-43.54-47.39-81.11Z"/>
    <path class="st1" d="M147.37,1812.53v-235.24c0-3.16,1.23-5.27,3.08-5.27h29.54c1.64,0,2.87,1.05,3.49,4.21l19.49,91.99c.41,2.11,1.23,3.16,1.85,3.16.82,0,1.64-1.4,1.64-4.21v-89.88c0-3.16,1.23-5.27,3.08-5.27h21.54c1.85,0,3.08,2.11,3.08,5.27v235.24c0,3.16-1.23,5.27-3.08,5.27h-29.54c-1.64,0-2.87-1.05-3.49-4.21l-19.49-100.77c-.41-2.11-1.23-3.16-1.85-3.16-.82,0-1.64,1.4-1.64,3.86v99.01c0,3.16-1.23,5.27-3.08,5.27h-21.54c-1.85,0-3.08-2.11-3.08-5.27Z"/>
    <path class="st1" d="M246.45,1812.53v-235.24c0-3.16,1.23-5.27,3.08-5.27h31.8c42.46,0,52.92,63.9,52.92,125.35,0,55.47-4.1,120.43-53.34,120.43h-31.39c-1.85,0-3.08-2.11-3.08-5.27ZM303.47,1643.29c0-23.88-9.44-35.81-14.56-35.81-1.85,0-3.28,1.76-3.28,5.27v60.39c0,5.62,1.23,7.72,3.9,7.72,9.64-.35,13.95-22.82,13.95-37.57Z"/>
    <path class="st1" d="M386.55,1812.53v-235.24c0-3.16,1.23-5.27,3.08-5.27h31.8c42.46,0,52.92,63.9,52.92,125.35,0,55.47-4.1,120.43-53.34,120.43h-31.39c-1.85,0-3.08-2.11-3.08-5.27ZM443.58,1643.29c0-23.88-9.44-35.81-14.56-35.81-1.85,0-3.28,1.76-3.28,5.27v60.39c0,5.62,1.23,7.72,3.9,7.72,9.64-.35,13.95-22.82,13.95-37.57Z"/>
    <path class="st1" d="M483.57,1812.53v-235.6c0-3.16,1.23-5.27,3.08-5.27h37.33c39.59,0,54.16,23.52,54.16,57.93s-14.56,51.26-25.64,56.18c-1.64.7-2.26,1.75-2.26,2.46s.82,1.4,2.67,2.11c16.21,6.67,22.77,13.69,22.77,33.71v88.48c0,3.16-1.23,5.27-3.08,5.27h-32c-1.85,0-3.08-2.11-3.08-5.27v-90.59c0-10.88-5.33-13.69-9.85-13.69-3.08,0-4.92,1.4-4.92,4.92v99.36c0,3.16-1.23,5.27-3.08,5.27h-33.03c-1.85,0-3.08-2.11-3.08-5.27ZM525.22,1662.25c5.33,0,16.82-7.37,16.82-28.79,0-18.61-10.26-24.58-15.8-24.58-2.05,0-3.49.7-3.49,2.11v49.51c0,1.05,1.03,1.76,2.46,1.76Z"/>
    <path class="st1" d="M583.47,1812.18l26.67-235.24c.41-3.16,1.85-4.92,3.69-4.92h43.69c2.05,0,3.28,1.4,3.69,4.56l27.49,235.6v1.4c0,2.81-1.23,4.21-3.08,4.21h-31.8c-2.05,0-3.28-1.4-3.49-4.92l-5.13-51.96c-.41-3.51-1.64-4.92-3.49-4.92h-18.05c-2.05,0-3.08,1.76-3.49,4.92l-6.77,51.96c-.41,3.16-1.44,4.92-3.49,4.92h-23.39c-2.26,0-3.49-1.76-3.08-5.62ZM639.88,1690.69l-3.49-49.86c-.41-4.56-1.44-6.67-2.67-6.67-1.03,0-2.26,2.11-2.67,6.67l-4.1,49.86v.7c0,3.51,1.64,4.92,4.51,4.92h3.49c3.28,0,5.33-2.11,4.92-5.62Z"/>
    <path class="st1" d="M693.42,1738.44v-161.16c0-3.16,1.23-5.27,3.08-5.27h33.03c1.85,0,3.08,2.11,3.08,5.27v86.02c0,18.26,0,27.39,8,27.39s8-9.13,8-27.39v-86.02c0-3.16,1.23-5.27,3.08-5.27h32.82c1.85,0,3.08,2.11,3.08,5.27v161.16c0,37.57-5.54,81.11-46.77,81.11s-47.39-43.54-47.39-81.11Z"/>
    <path class="st1" d="M798.66,1780.58v-64.6c0-3.16,1.03-5.27,3.08-5.27,10.87-.35,19.08-1.05,19.08-15.8v-59.69c0-48.8,18.26-63.2,49.85-63.2h3.49c19.9,0,38.36,15.1,38.36,46.35,0,11.59-3.69,23.17-12.51,30.55-1.23.7-1.85,1.4-1.85,2.11s.62,1.4,1.85,2.11c13.74,7.72,28.51,31.25,28.51,75.14,0,38.27-16,89.53-59.69,89.53-2.05,0-3.08-2.46-3.08-5.62v-120.78c0-3.16,1.64-4.92,4.31-5.62,6.77-1.4,8.41-4.92,8.41-12.29,0-4.92-1.23-8.43-10.26-9.13-2.05,0-3.28-2.11-3.28-5.27v-14.75c0-3.51,1.23-4.92,3.28-4.92,12.51,0,15.39-8.78,15.39-21.07,0-9.83-6.15-17.56-12.51-17.56-10.87,0-15.39,7.72-15.39,33.36v147.11c0,25.28-9.64,37.57-27.49,37.57s-29.54-12.29-29.54-38.27Z"/>
    <path class="st1" d="M996.4,1817.8h-30.57c-17.85,0-28.31-16.5-28.31-47.4v-193.11c0-3.16,1.85-5.27,4.72-5.27h52.51c2.87,0,4.72,2.11,4.72,5.27v25.63c0,3.16-1.85,5.27-4.72,5.27h-13.54c-2.67,0-4.51,2.11-4.51,5.27v14.75c0,3.16,1.85,5.27,4.51,5.27h9.03c2.67,0,4.51,2.11,4.51,5.27v25.63c0,3.16-1.85,5.27-4.51,5.27h-9.03c-2.67,0-4.51,1.4-4.51,1.76v10.88c0,3.16,1.85,5.27,4.51,5.27h15.18c2.67,0,4.51,2.11,4.51,5.27v119.73c0,3.16-1.85,5.27-4.51,5.27Z"/>
    <path class="st1" d="M1013.22,1812.53v-235.24c0-3.16,1.23-5.27,3.08-5.27h29.54c1.64,0,2.87,1.05,3.49,4.21l19.49,91.99c.41,2.11,1.23,3.16,1.85,3.16.82,0,1.64-1.4,1.64-4.21v-89.88c0-3.16,1.23-5.27,3.08-5.27h21.54c1.85,0,3.08,2.11,3.08,5.27v235.24c0,3.16-1.23,5.27-3.08,5.27h-29.54c-1.64,0-2.87-1.05-3.49-4.21l-19.49-100.77c-.41-2.11-1.23-3.16-1.85-3.16-.82,0-1.64,1.4-1.64,3.86v99.01c0,3.16-1.23,5.27-3.08,5.27h-21.54c-1.85,0-3.08-2.11-3.08-5.27Z"/>
    <path class="st1" d="M1124.81,1689.99l-11.49-112.36v-1.4c0-2.81.82-4.21,2.67-4.21h53.34c2.05,0,3.08,1.76,2.67,5.62l-11.28,112.36c-.41,3.16-1.64,4.56-3.49,4.56h-29.13c-1.85,0-2.87-1.4-3.28-4.56ZM1122.76,1812.53v-101.47c0-3.16,1.23-5.27,3.08-5.27h33.23c1.85,0,3.08,2.11,3.08,5.27v101.47c0,3.16-1.23,5.27-3.08,5.27h-33.23c-1.85,0-3.08-2.11-3.08-5.27Z"/>
  </g>
  <g>
    <path class="st2" d="M557.73,270.78h-30.57c-17.85,0-28.31-16.5-28.31-47.4V30.27c0-3.16,1.85-5.27,4.72-5.27h52.51c2.87,0,4.72,2.11,4.72,5.27v25.63c0,3.16-1.85,5.27-4.72,5.27h-13.54c-2.67,0-4.51,2.11-4.51,5.27v14.75c0,3.16,1.85,5.27,4.51,5.27h9.03c2.67,0,4.51,2.11,4.51,5.27v25.63c0,3.16-1.85,5.27-4.51,5.27h-9.03c-2.67,0-4.51,1.4-4.51,1.76v10.88c0,3.16,1.85,5.27,4.51,5.27h15.18c2.67,0,4.51,2.11,4.51,5.27v119.73c0,3.16-1.85,5.27-4.51,5.27Z"/>
    <path class="st2" d="M574.55,265.51V30.27c0-3.16,1.23-5.27,3.08-5.27h32.21c1.85,0,3.08,2.11,3.08,5.27v235.24c0,3.16-1.23,5.27-3.08,5.27h-32.21c-1.85,0-3.08-2.11-3.08-5.27Z"/>
    <path class="st2" d="M625.22,265.51V30.27c0-3.16,1.23-5.27,3.08-5.27h29.54c1.64,0,2.87,1.05,3.49,4.21l19.49,91.99c.41,2.11,1.23,3.16,1.85,3.16.82,0,1.64-1.4,1.64-4.21V30.27c0-3.16,1.23-5.27,3.08-5.27h21.54c1.85,0,3.08,2.11,3.08,5.27v235.24c0,3.16-1.23,5.27-3.08,5.27h-29.54c-1.64,0-2.87-1.05-3.49-4.21l-19.49-100.77c-.41-2.11-1.23-3.16-1.85-3.16-.82,0-1.64,1.4-1.64,3.86v99.01c0,3.16-1.23,5.27-3.08,5.27h-21.54c-1.85,0-3.08-2.11-3.08-5.27Z"/>
    <path class="st2" d="M26.85,574.91v-120.43c0-3.16,1.23-5.27,3.08-5.27,18.46,0,24.62-2.11,24.62-9.48,0-16.5-29.54-14.4-29.54-57.93,0-19.31,9.85-50.56,40.62-50.56,28.92,0,41.03,15.8,41.03,63.55v.35c0,3.16-1.23,5.27-3.08,5.27h-20.92c-1.85,0-3.08-2.11-3.08-5.27,0-16.15-1.03-30.2-11.69-30.2-8.62,0-10.46,10.88-10.46,19.31,0,44.94,54.77,28.44,54.77,121.48,0,53.37-18.26,74.44-52.1,74.44h-30.15c-1.85,0-3.08-2.11-3.08-5.27Z"/>
    <path class="st2" d="M114.85,574.56l26.67-235.24c.41-3.16,1.85-4.92,3.69-4.92h43.69c2.05,0,3.28,1.4,3.69,4.56l27.49,235.6v1.4c0,2.81-1.23,4.21-3.08,4.21h-31.8c-2.05,0-3.28-1.4-3.49-4.92l-5.13-51.96c-.41-3.51-1.64-4.92-3.49-4.92h-18.05c-2.05,0-3.08,1.76-3.49,4.92l-6.77,51.96c-.41,3.16-1.44,4.92-3.49,4.92h-23.39c-2.26,0-3.49-1.76-3.08-5.62ZM171.26,453.08l-3.49-49.86c-.41-4.56-1.44-6.67-2.67-6.67-1.03,0-2.26,2.11-2.67,6.67l-4.1,49.86v.7c0,3.51,1.64,4.92,4.51,4.92h3.49c3.28,0,5.33-2.11,4.92-5.62Z"/>
    <path class="st2" d="M223.98,532.78v-193.11c0-3.16,1.23-5.27,3.08-5.27h33.03c1.85,0,3.08,2.11,3.08,5.27v104.98c0,3.16,1.23,5.27,3.08,5.27h15.59c1.85,0,3.08,2.11,3.08,5.27v119.73c0,3.16-1.23,5.27-3.08,5.27h-29.54c-17.85,0-28.31-16.5-28.31-47.4Z"/>
    <path class="st2" d="M297.42,574.91v-120.43c0-3.16,1.23-5.27,3.08-5.27,18.46,0,24.62-2.11,24.62-9.48,0-16.5-29.54-14.4-29.54-57.93,0-19.31,9.85-50.56,40.62-50.56,28.92,0,41.03,15.8,41.03,63.55v.35c0,3.16-1.23,5.27-3.08,5.27h-20.92c-1.85,0-3.08-2.11-3.08-5.27,0-16.15-1.03-30.2-11.69-30.2-8.62,0-10.46,10.88-10.46,19.31,0,44.94,54.77,28.44,54.77,121.48,0,53.37-18.26,74.44-52.1,74.44h-30.15c-1.85,0-3.08-2.11-3.08-5.27Z"/>
    <path class="st2" d="M385.42,574.56l26.67-235.24c.41-3.16,1.85-4.92,3.69-4.92h43.69c2.05,0,3.28,1.4,3.69,4.56l27.49,235.6v1.4c0,2.81-1.23,4.21-3.08,4.21h-31.8c-2.05,0-3.28-1.4-3.49-4.92l-5.13-51.96c-.41-3.51-1.64-4.92-3.49-4.92h-18.05c-2.05,0-3.08,1.76-3.49,4.92l-6.77,51.96c-.41,3.16-1.44,4.92-3.49,4.92h-23.39c-2.26,0-3.49-1.76-3.08-5.62ZM441.83,453.08l-3.49-49.86c-.41-4.56-1.44-6.67-2.67-6.67-1.03,0-2.26,2.11-2.67,6.67l-4.1,49.86v.7c0,3.51,1.64,4.92,4.51,4.92h3.49c3.28,0,5.33-2.11,4.92-5.62Z"/>
    <path class="st2" d="M493.32,485.73v-38.62c0-3.16,1.23-5.27,3.08-5.27h48.41c1.85,0,3.08,2.11,3.08,5.27v38.62c0,3.16-1.23,5.27-3.08,5.27h-48.41c-1.85,0-3.08-2.11-3.08-5.27Z"/>
    <path class="st2" d="M558.96,574.91v-235.24c0-3.16,1.85-5.27,4.72-5.27h55.59c2.87,0,4.72,2.11,4.72,5.27v25.63c0,3.16-1.85,5.27-4.72,5.27h-16.62c-2.67,0-4.51,2.11-4.51,5.27v14.75c0,3.16,1.85,5.27,4.51,5.27h12.1c2.67,0,4.51,2.11,4.51,5.27v25.63c0,3.16-1.85,5.27-4.51,5.27h-12.1c-2.67,0-4.51,2.11-4.51,5.27v137.64c0,3.16-1.85,5.27-4.72,5.27h-29.74c-2.87,0-4.72-2.11-4.72-5.27Z"/>
    <path class="st2" d="M692.3,580.18h-30.57c-17.85,0-28.31-16.5-28.31-47.4v-193.11c0-3.16,1.85-5.27,4.72-5.27h52.51c2.87,0,4.72,2.11,4.72,5.27v25.63c0,3.16-1.85,5.27-4.72,5.27h-13.54c-2.67,0-4.51,2.11-4.51,5.27v14.75c0,3.16,1.85,5.27,4.51,5.27h9.03c2.67,0,4.51,2.11,4.51,5.27v25.63c0,3.16-1.85,5.27-4.51,5.27h-9.03c-2.67,0-4.51,1.4-4.51,1.76v10.88c0,3.16,1.85,5.27,4.51,5.27h15.18c2.67,0,4.51,2.11,4.51,5.27v119.73c0,3.16-1.85,5.27-4.51,5.27Z"/>
    <path class="st2" d="M710.35,574.91v-120.43c0-3.16,1.23-5.27,3.08-5.27,18.46,0,24.62-2.11,24.62-9.48,0-16.5-29.54-14.4-29.54-57.93,0-19.31,9.85-50.56,40.62-50.56,28.92,0,41.03,15.8,41.03,63.55v.35c0,3.16-1.23,5.27-3.08,5.27h-20.92c-1.85,0-3.08-2.11-3.08-5.27,0-16.15-1.03-30.2-11.69-30.2-8.62,0-10.46,10.88-10.46,19.31,0,44.94,54.77,28.44,54.77,121.48,0,53.37-18.26,74.44-52.1,74.44h-30.15c-1.85,0-3.08-2.11-3.08-5.27Z"/>
    <path class="st2" d="M848.4,430.96c0,16.85,6.56,18.96,17.64,18.96,2.05,0,3.08,2.11,3.08,5.27v78.3c0,31.6-11.28,49.16-29.33,49.16s-28.31-17.2-28.31-48.1v-156.95h-11.69c-1.85,0-3.08-2.11-3.08-5.27v-32.65c0-3.16,1.23-5.27,3.08-5.27h66.46c1.85,0,3.08,2.11,3.08,5.27v32.65c0,3.16-1.23,5.27-3.08,5.27h-17.85v53.37Z"/>
    <path class="st2" d="M881.63,574.91v-235.24c0-3.16,1.23-5.27,3.08-5.27h32.21c1.85,0,3.08,2.11,3.08,5.27v235.24c0,3.16-1.23,5.27-3.08,5.27h-32.21c-1.85,0-3.08-2.11-3.08-5.27Z"/>
    <path class="st2" d="M953.22,575.62l-25.44-235.95v-1.4c0-2.46,1.03-3.86,2.87-3.86h28.72c1.85,0,3.08,1.76,3.49,4.56l12.1,115.16c.2,2.46,1.03,3.86,1.85,3.86.62,0,1.44-1.4,1.64-3.86l11.69-115.16c.41-2.81,1.64-4.56,3.49-4.56h28.72c2.05,0,3.28,2.11,2.87,5.27l-28.51,235.95c-.41,2.81-1.64,4.56-3.49,4.56h-36.51c-1.85,0-3.08-1.76-3.49-4.56Z"/>
    <path class="st2" d="M1016.2,574.56l26.67-235.24c.41-3.16,1.85-4.92,3.69-4.92h43.69c2.05,0,3.28,1.4,3.69,4.56l27.49,235.6v1.4c0,2.81-1.23,4.21-3.08,4.21h-31.8c-2.05,0-3.28-1.4-3.49-4.92l-5.13-51.96c-.41-3.51-1.64-4.92-3.49-4.92h-18.05c-2.05,0-3.08,1.76-3.49,4.92l-6.77,51.96c-.41,3.16-1.44,4.92-3.49,4.92h-23.39c-2.26,0-3.49-1.76-3.08-5.62ZM1072.61,453.08l-3.49-49.86c-.41-4.56-1.44-6.67-2.67-6.67-1.03,0-2.26,2.11-2.67,6.67l-4.1,49.86v.7c0,3.51,1.64,4.92,4.51,4.92h3.49c3.28,0,5.33-2.11,4.92-5.62Z"/>
    <path class="st2" d="M1125.33,532.78v-193.11c0-3.16,1.23-5.27,3.08-5.27h33.03c1.85,0,3.08,2.11,3.08,5.27v104.98c0,3.16,1.23,5.27,3.08,5.27h15.59c1.85,0,3.08,2.11,3.08,5.27v119.73c0,3.16-1.23,5.27-3.08,5.27h-29.54c-17.85,0-28.31-16.5-28.31-47.4Z"/>
    <path class="st2" d="M260.6,884.32v-235.24c0-3.16,1.85-5.27,4.72-5.27h55.59c2.87,0,4.72,2.11,4.72,5.27v25.63c0,3.16-1.85,5.27-4.72,5.27h-16.62c-2.67,0-4.51,2.11-4.51,5.27v14.75c0,3.16,1.85,5.27,4.51,5.27h12.1c2.67,0,4.51,2.11,4.51,5.27v25.63c0,3.16-1.85,5.27-4.51,5.27h-12.1c-2.67,0-4.51,2.11-4.51,5.27v137.64c0,3.16-1.85,5.27-4.72,5.27h-29.74c-2.87,0-4.72-2.11-4.72-5.27Z"/>
    <path class="st2" d="M335.06,810.23v-161.16c0-3.16,1.23-5.27,3.08-5.27h33.03c1.85,0,3.08,2.11,3.08,5.27v86.02c0,18.26,0,27.39,8,27.39s8-9.13,8-27.39v-86.02c0-3.16,1.23-5.27,3.08-5.27h32.82c1.85,0,3.08,2.11,3.08,5.27v161.16c0,37.57-5.54,81.11-46.77,81.11s-47.39-43.54-47.39-81.11ZM354.96,620.63c0-7.37,5.33-12.99,11.69-12.99s11.69,5.62,11.69,12.99-5.13,13.34-11.69,13.34-11.69-5.62-11.69-13.34ZM385.73,620.63c0-7.37,5.13-12.99,11.9-12.99,6.15,0,11.49,5.62,11.49,12.99s-5.33,13.34-11.49,13.34c-6.77,0-11.9-5.62-11.9-13.34Z"/>
    <path class="st2" d="M441.52,884.32v-235.6c0-3.16,1.23-5.27,3.08-5.27h37.33c39.59,0,54.16,23.52,54.16,57.93s-14.56,51.26-25.64,56.18c-1.64.7-2.26,1.75-2.26,2.46s.82,1.4,2.67,2.11c16.21,6.67,22.77,13.69,22.77,33.71v88.48c0,3.16-1.23,5.27-3.08,5.27h-32c-1.85,0-3.08-2.11-3.08-5.27v-90.59c0-10.88-5.33-13.69-9.85-13.69-3.08,0-4.92,1.4-4.92,4.92v99.36c0,3.16-1.23,5.27-3.08,5.27h-33.03c-1.85,0-3.08-2.11-3.08-5.27ZM483.17,734.04c5.33,0,16.82-7.37,16.82-28.79,0-18.61-10.26-24.58-15.8-24.58-2.05,0-3.49.7-3.49,2.11v49.51c0,1.05,1.03,1.76,2.46,1.76Z"/>
    <path class="st2" d="M580.4,883.97l26.67-235.24c.41-3.16,1.85-4.92,3.69-4.92h43.69c2.05,0,3.28,1.4,3.69,4.56l27.49,235.6v1.4c0,2.81-1.23,4.21-3.08,4.21h-31.8c-2.05,0-3.28-1.4-3.49-4.92l-5.13-51.96c-.41-3.51-1.64-4.92-3.49-4.92h-18.05c-2.05,0-3.08,1.76-3.49,4.92l-6.77,51.96c-.41,3.16-1.44,4.92-3.49,4.92h-23.39c-2.26,0-3.49-1.76-3.08-5.62ZM636.81,762.48l-3.49-49.86c-.41-4.56-1.44-6.67-2.67-6.67-1.03,0-2.26,2.11-2.67,6.67l-4.1,49.86v.7c0,3.51,1.64,4.92,4.51,4.92h3.49c3.28,0,5.33-2.11,4.92-5.62Z"/>
    <path class="st2" d="M689.53,842.18v-193.11c0-3.16,1.23-5.27,3.08-5.27h33.03c1.85,0,3.08,2.11,3.08,5.27v104.98c0,3.16,1.23,5.27,3.08,5.27h15.59c1.85,0,3.08,2.11,3.08,5.27v119.73c0,3.16-1.23,5.27-3.08,5.27h-29.54c-17.85,0-28.31-16.5-28.31-47.4Z"/>
    <path class="st2" d="M761.73,842.18v-193.11c0-3.16,1.23-5.27,3.08-5.27h33.03c1.85,0,3.08,2.11,3.08,5.27v104.98c0,3.16,1.23,5.27,3.08,5.27h15.59c1.85,0,3.08,2.11,3.08,5.27v119.73c0,3.16-1.23,5.27-3.08,5.27h-29.54c-17.85,0-28.31-16.5-28.31-47.4Z"/>
    <path class="st2" d="M892.81,889.58h-30.57c-17.85,0-28.31-16.5-28.31-47.4v-193.11c0-3.16,1.85-5.27,4.72-5.27h52.51c2.87,0,4.72,2.11,4.72,5.27v25.63c0,3.16-1.85,5.27-4.72,5.27h-13.54c-2.67,0-4.51,2.11-4.51,5.27v14.75c0,3.16,1.85,5.27,4.51,5.27h9.03c2.67,0,4.51,2.11,4.51,5.27v25.63c0,3.16-1.85,5.27-4.51,5.27h-9.03c-2.67,0-4.51,1.4-4.51,1.76v10.88c0,3.16,1.85,5.27,4.51,5.27h15.18c2.67,0,4.51,2.11,4.51,5.27v119.73c0,3.16-1.85,5.27-4.51,5.27Z"/>
    <path class="st2" d="M910.24,808.83v-40.73c0-3.16,1.23-5.27,3.08-5.27h33.23c1.85,0,3.08,2.11,3.08,5.27v40.73c0,3.16-1.23,5.27-3.08,5.27h-33.23c-1.85,0-3.08-2.11-3.08-5.27ZM910.24,884.32v-40.73c0-3.16,1.23-5.27,3.08-5.27h33.23c1.85,0,3.08,2.11,3.08,5.27v40.73c0,3.16-1.23,5.27-3.08,5.27h-33.23c-1.85,0-3.08-2.11-3.08-5.27Z"/>
    <path class="st2" d="M191.78,1116.13c0-99.01,20.1-164.67,50.26-164.67s48,63.2,48,164.67c0,54.77-17.23,84.27-49.03,84.27s-49.23-30.2-49.23-84.27ZM214.75,933.9c0-7.37,5.33-12.99,11.69-12.99s11.69,5.62,11.69,12.99-5.13,13.34-11.69,13.34-11.69-5.62-11.69-13.34ZM253.11,1035.72c0-27.04-4.92-47.4-11.08-47.4-7.8,0-12.92,19.66-12.92,47.4,0,14.39,5.13,23.88,12.92,23.88,6.36,0,11.08-9.48,11.08-23.88ZM245.52,933.9c0-7.37,5.13-12.99,11.9-12.99,6.15,0,11.49,5.62,11.49,12.99s-5.33,13.34-11.49,13.34c-6.77,0-11.9-5.62-11.9-13.34Z"/>
    <path class="st2" d="M298.24,1193.72v-235.24c0-3.16,1.85-5.27,4.72-5.27h55.59c2.87,0,4.72,2.11,4.72,5.27v25.63c0,3.16-1.85,5.27-4.72,5.27h-16.62c-2.67,0-4.51,2.11-4.51,5.27v14.75c0,3.16,1.85,5.27,4.51,5.27h12.1c2.67,0,4.51,2.11,4.51,5.27v25.63c0,3.16-1.85,5.27-4.51,5.27h-12.1c-2.67,0-4.51,2.11-4.51,5.27v137.64c0,3.16-1.85,5.27-4.72,5.27h-29.74c-2.87,0-4.72-2.11-4.72-5.27Z"/>
    <path class="st2" d="M372.7,1193.72v-235.24c0-3.16,1.85-5.27,4.72-5.27h55.59c2.87,0,4.72,2.11,4.72,5.27v25.63c0,3.16-1.85,5.27-4.72,5.27h-16.62c-2.67,0-4.51,2.11-4.51,5.27v14.75c0,3.16,1.85,5.27,4.51,5.27h12.1c2.67,0,4.51,2.11,4.51,5.27v25.63c0,3.16-1.85,5.27-4.51,5.27h-12.1c-2.67,0-4.51,2.11-4.51,5.27v137.64c0,3.16-1.85,5.27-4.72,5.27h-29.74c-2.87,0-4.72-2.11-4.72-5.27Z"/>
    <path class="st2" d="M506.04,1198.99h-30.57c-17.85,0-28.31-16.5-28.31-47.4v-193.11c0-3.16,1.85-5.27,4.72-5.27h52.51c2.87,0,4.72,2.11,4.72,5.27v25.63c0,3.16-1.85,5.27-4.72,5.27h-13.54c-2.67,0-4.51,2.11-4.51,5.27v14.75c0,3.16,1.85,5.27,4.51,5.27h9.03c2.67,0,4.51,2.11,4.51,5.27v25.63c0,3.16-1.85,5.27-4.51,5.27h-9.03c-2.67,0-4.51,1.4-4.51,1.76v10.88c0,3.16,1.85,5.27,4.51,5.27h15.18c2.67,0,4.51,2.11,4.51,5.27v119.73c0,3.16-1.85,5.27-4.51,5.27Z"/>
    <path class="st2" d="M522.86,1193.72v-235.24c0-3.16,1.23-5.27,3.08-5.27h29.54c1.64,0,2.87,1.05,3.49,4.21l19.49,91.99c.41,2.11,1.23,3.16,1.85,3.16.82,0,1.64-1.4,1.64-4.21v-89.88c0-3.16,1.23-5.27,3.08-5.27h21.54c1.85,0,3.08,2.11,3.08,5.27v235.24c0,3.16-1.23,5.27-3.08,5.27h-29.54c-1.64,0-2.87-1.05-3.49-4.21l-19.49-100.77c-.41-2.11-1.23-3.16-1.85-3.16-.82,0-1.64,1.4-1.64,3.86v99.01c0,3.16-1.23,5.27-3.08,5.27h-21.54c-1.85,0-3.08-2.11-3.08-5.27Z"/>
    <path class="st2" d="M672.19,1049.77c0,16.85,6.56,18.96,17.64,18.96,2.05,0,3.08,2.11,3.08,5.27v78.3c0,31.6-11.28,49.16-29.33,49.16s-28.31-17.2-28.31-48.1v-156.95h-11.69c-1.85,0-3.08-2.11-3.08-5.27v-32.65c0-3.16,1.23-5.27,3.08-5.27h66.46c1.85,0,3.08,2.11,3.08,5.27v32.65c0,3.16-1.23,5.27-3.08,5.27h-17.85v53.37Z"/>
    <path class="st2" d="M705.42,1151.59v-193.11c0-3.16,1.23-5.27,3.08-5.27h33.03c1.85,0,3.08,2.11,3.08,5.27v104.98c0,3.16,1.23,5.27,3.08,5.27h15.59c1.85,0,3.08,2.11,3.08,5.27v119.73c0,3.16-1.23,5.27-3.08,5.27h-29.54c-17.85,0-28.31-16.5-28.31-47.4Z"/>
    <path class="st2" d="M777.63,1193.72v-235.24c0-3.16,1.23-5.27,3.08-5.27h32.21c1.85,0,3.08,2.11,3.08,5.27v235.24c0,3.16-1.23,5.27-3.08,5.27h-32.21c-1.85,0-3.08-2.11-3.08-5.27Z"/>
    <path class="st2" d="M825.22,1101.38c0-53.72,5.54-149.92,49.23-149.92,13.54,0,33.64,11.59,33.64,70.92v.35c0,3.16-1.23,5.27-3.08,5.27h-19.69c-1.85,0-3.08-2.11-3.08-5.27,0-25.28-1.85-33.71-7.18-33.71-7.59,0-14.15,18.26-14.15,45.64,0,23.52,4.1,33.71,11.69,33.71,4.1,0,8.62-2.81,8.62-16.5v-.35c0-3.16,1.23-5.27,3.08-5.27h21.33c1.85,0,3.08,2.11,3.08,5.27v142.2c0,3.16-1.64,5.27-4.72,5.27h-23.39c-32,0-55.39-7.37-55.39-97.61Z"/>
    <path class="st2" d="M921.01,1193.72v-235.24c0-3.16,1.85-5.27,4.72-5.27h29.54c2.67,0,4.92,2.11,4.92,5.27v50.56c0,3.16,1.44,5.27,4.31,5.27h6.77c2.67,0,4.51-2.11,4.51-5.27v-50.56c0-3.16,1.85-5.27,4.72-5.27h29.54c2.67,0,4.51,2.11,4.92,5.27v235.24c0,3.16-1.85,5.27-4.72,5.27h-29.74c-2.87,0-4.72-2.11-4.72-5.27v-137.64c0-3.16-1.85-5.27-4.51-5.27h-6.77c-2.87,0-4.31,2.11-4.31,5.27v137.64c0,3.16-1.85,5.27-4.72,5.27h-29.13c-2.87,0-5.33-2.11-5.33-5.27Z"/>
    <path class="st2" d="M257.01,1429.04v-161.16c0-3.16,1.23-5.27,3.08-5.27h33.03c1.85,0,3.08,2.11,3.08,5.27v86.02c0,18.26,0,27.39,8,27.39s8-9.13,8-27.39v-86.02c0-3.16,1.23-5.27,3.08-5.27h32.82c1.85,0,3.08,2.11,3.08,5.27v161.16c0,37.57-5.54,81.11-46.77,81.11s-47.39-43.54-47.39-81.11Z"/>
    <path class="st2" d="M363.47,1503.13v-235.24c0-3.16,1.23-5.27,3.08-5.27h37.95c1.85,0,2.87,1.76,3.28,4.56l13.74,90.24c.41,2.46,1.23,3.86,1.85,3.86.82,0,1.44-1.4,1.85-3.86l14.36-90.24c.41-2.81,1.44-4.56,3.28-4.56h38.16c1.85,0,3.08,2.11,3.08,5.27v235.24c0,3.16-1.23,5.27-3.08,5.27h-27.08c-1.85,0-3.08-2.11-3.08-5.27v-101.12c0-2.11-.82-3.51-1.64-3.51-.62,0-1.44,1.05-1.64,2.81l-16.21,102.52c-.41,2.81-1.44,4.56-3.28,4.56h-14.36c-1.85,0-2.87-1.76-3.28-4.56l-16-102.17c-.21-1.76-1.03-2.81-1.64-2.81-.82,0-1.64,1.4-1.64,3.51v100.77c0,3.16-1.23,5.27-3.08,5.27h-21.54c-1.85,0-3.08-2.11-3.08-5.27Z"/>
    <path class="st2" d="M497.63,1503.13v-120.43c0-3.16,1.23-5.27,3.08-5.27,18.46,0,24.62-2.11,24.62-9.48,0-16.5-29.54-14.4-29.54-57.93,0-19.31,9.85-50.56,40.62-50.56,28.92,0,41.03,15.8,41.03,63.55v.35c0,3.16-1.23,5.27-3.08,5.27h-20.92c-1.85,0-3.08-2.11-3.08-5.27,0-16.15-1.03-30.2-11.69-30.2-8.62,0-10.46,10.88-10.46,19.31,0,44.94,54.77,28.44,54.77,121.48,0,53.37-18.26,74.44-52.1,74.44h-30.15c-1.85,0-3.08-2.11-3.08-5.27Z"/>
    <path class="st2" d="M588.09,1425.53c0-99.01,20.1-164.67,50.26-164.67s48,63.2,48,164.67c0,54.77-17.23,84.27-49.03,84.27s-49.23-30.2-49.23-84.27ZM649.42,1345.13c0-27.04-4.92-47.4-11.08-47.4-7.8,0-12.92,19.66-12.92,47.4,0,14.39,5.13,23.88,12.92,23.88,6.36,0,11.08-9.48,11.08-23.88Z"/>
    <path class="st2" d="M694.55,1503.13v-235.24c0-3.16,1.23-5.27,3.08-5.27h29.54c1.64,0,2.87,1.05,3.49,4.21l19.49,91.99c.41,2.11,1.23,3.16,1.85,3.16.82,0,1.64-1.4,1.64-4.21v-89.88c0-3.16,1.23-5.27,3.08-5.27h21.54c1.85,0,3.08,2.11,3.08,5.27v235.24c0,3.16-1.23,5.27-3.08,5.27h-29.54c-1.64,0-2.87-1.05-3.49-4.21l-19.49-100.77c-.41-2.11-1.23-3.16-1.85-3.16-.82,0-1.64,1.4-1.64,3.86v99.01c0,3.16-1.23,5.27-3.08,5.27h-21.54c-1.85,0-3.08-2.11-3.08-5.27Z"/>
    <path class="st2" d="M794.86,1503.13v-120.43c0-3.16,1.23-5.27,3.08-5.27,18.46,0,24.62-2.11,24.62-9.48,0-16.5-29.54-14.4-29.54-57.93,0-19.31,9.85-50.56,40.62-50.56,28.92,0,41.03,15.8,41.03,63.55v.35c0,3.16-1.23,5.27-3.08,5.27h-20.92c-1.85,0-3.08-2.11-3.08-5.27,0-16.15-1.03-30.2-11.69-30.2-8.62,0-10.46,10.88-10.46,19.31,0,44.94,54.77,28.44,54.77,121.48,0,53.37-18.26,74.44-52.1,74.44h-30.15c-1.85,0-3.08-2.11-3.08-5.27Z"/>
    <path class="st2" d="M932.91,1359.17c0,16.85,6.56,18.96,17.64,18.96,2.05,0,3.08,2.11,3.08,5.27v78.3c0,31.6-11.28,49.16-29.33,49.16s-28.31-17.2-28.31-48.1v-156.95h-11.69c-1.85,0-3.08-2.11-3.08-5.27v-32.65c0-3.16,1.23-5.27,3.08-5.27h66.46c1.85,0,3.08,2.11,3.08,5.27v32.65c0,3.16-1.23,5.27-3.08,5.27h-17.85v53.37Z"/>
    <path class="st2" d="M40.91,1738.44v-161.16c0-3.16,1.23-5.27,3.08-5.27h33.03c1.85,0,3.08,2.11,3.08,5.27v86.02c0,18.26,0,27.39,8,27.39s8-9.13,8-27.39v-86.02c0-3.16,1.23-5.27,3.08-5.27h32.82c1.85,0,3.08,2.11,3.08,5.27v161.16c0,37.57-5.54,81.11-46.77,81.11s-47.39-43.54-47.39-81.11Z"/>
    <path class="st2" d="M147.37,1812.53v-235.24c0-3.16,1.23-5.27,3.08-5.27h29.54c1.64,0,2.87,1.05,3.49,4.21l19.49,91.99c.41,2.11,1.23,3.16,1.85,3.16.82,0,1.64-1.4,1.64-4.21v-89.88c0-3.16,1.23-5.27,3.08-5.27h21.54c1.85,0,3.08,2.11,3.08,5.27v235.24c0,3.16-1.23,5.27-3.08,5.27h-29.54c-1.64,0-2.87-1.05-3.49-4.21l-19.49-100.77c-.41-2.11-1.23-3.16-1.85-3.16-.82,0-1.64,1.4-1.64,3.86v99.01c0,3.16-1.23,5.27-3.08,5.27h-21.54c-1.85,0-3.08-2.11-3.08-5.27Z"/>
    <path class="st2" d="M246.45,1812.53v-235.24c0-3.16,1.23-5.27,3.08-5.27h31.8c42.46,0,52.92,63.9,52.92,125.35,0,55.47-4.1,120.43-53.34,120.43h-31.39c-1.85,0-3.08-2.11-3.08-5.27ZM303.47,1643.29c0-23.88-9.44-35.81-14.56-35.81-1.85,0-3.28,1.76-3.28,5.27v60.39c0,5.62,1.23,7.72,3.9,7.72,9.64-.35,13.95-22.82,13.95-37.57Z"/>
    <path class="st2" d="M386.55,1812.53v-235.24c0-3.16,1.23-5.27,3.08-5.27h31.8c42.46,0,52.92,63.9,52.92,125.35,0,55.47-4.1,120.43-53.34,120.43h-31.39c-1.85,0-3.08-2.11-3.08-5.27ZM443.58,1643.29c0-23.88-9.44-35.81-14.56-35.81-1.85,0-3.28,1.76-3.28,5.27v60.39c0,5.62,1.23,7.72,3.9,7.72,9.64-.35,13.95-22.82,13.95-37.57Z"/>
    <path class="st2" d="M483.57,1812.53v-235.6c0-3.16,1.23-5.27,3.08-5.27h37.33c39.59,0,54.16,23.52,54.16,57.93s-14.56,51.26-25.64,56.18c-1.64.7-2.26,1.75-2.26,2.46s.82,1.4,2.67,2.11c16.21,6.67,22.77,13.69,22.77,33.71v88.48c0,3.16-1.23,5.27-3.08,5.27h-32c-1.85,0-3.08-2.11-3.08-5.27v-90.59c0-10.88-5.33-13.69-9.85-13.69-3.08,0-4.92,1.4-4.92,4.92v99.36c0,3.16-1.23,5.27-3.08,5.27h-33.03c-1.85,0-3.08-2.11-3.08-5.27ZM525.22,1662.25c5.33,0,16.82-7.37,16.82-28.79,0-18.61-10.26-24.58-15.8-24.58-2.05,0-3.49.7-3.49,2.11v49.51c0,1.05,1.03,1.76,2.46,1.76Z"/>
    <path class="st2" d="M583.47,1812.18l26.67-235.24c.41-3.16,1.85-4.92,3.69-4.92h43.69c2.05,0,3.28,1.4,3.69,4.56l27.49,235.6v1.4c0,2.81-1.23,4.21-3.08,4.21h-31.8c-2.05,0-3.28-1.4-3.49-4.92l-5.13-51.96c-.41-3.51-1.64-4.92-3.49-4.92h-18.05c-2.05,0-3.08,1.76-3.49,4.92l-6.77,51.96c-.41,3.16-1.44,4.92-3.49,4.92h-23.39c-2.26,0-3.49-1.76-3.08-5.62ZM639.88,1690.69l-3.49-49.86c-.41-4.56-1.44-6.67-2.67-6.67-1.03,0-2.26,2.11-2.67,6.67l-4.1,49.86v.7c0,3.51,1.64,4.92,4.51,4.92h3.49c3.28,0,5.33-2.11,4.92-5.62Z"/>
    <path class="st2" d="M693.42,1738.44v-161.16c0-3.16,1.23-5.27,3.08-5.27h33.03c1.85,0,3.08,2.11,3.08,5.27v86.02c0,18.26,0,27.39,8,27.39s8-9.13,8-27.39v-86.02c0-3.16,1.23-5.27,3.08-5.27h32.82c1.85,0,3.08,2.11,3.08,5.27v161.16c0,37.57-5.54,81.11-46.77,81.11s-47.39-43.54-47.39-81.11Z"/>
    <path class="st2" d="M798.66,1780.58v-64.6c0-3.16,1.03-5.27,3.08-5.27,10.87-.35,19.08-1.05,19.08-15.8v-59.69c0-48.8,18.26-63.2,49.85-63.2h3.49c19.9,0,38.36,15.1,38.36,46.35,0,11.59-3.69,23.17-12.51,30.55-1.23.7-1.85,1.4-1.85,2.11s.62,1.4,1.85,2.11c13.74,7.72,28.51,31.25,28.51,75.14,0,38.27-16,89.53-59.69,89.53-2.05,0-3.08-2.46-3.08-5.62v-120.78c0-3.16,1.64-4.92,4.31-5.62,6.77-1.4,8.41-4.92,8.41-12.29,0-4.92-1.23-8.43-10.26-9.13-2.05,0-3.28-2.11-3.28-5.27v-14.75c0-3.51,1.23-4.92,3.28-4.92,12.51,0,15.39-8.78,15.39-21.07,0-9.83-6.15-17.56-12.51-17.56-10.87,0-15.39,7.72-15.39,33.36v147.11c0,25.28-9.64,37.57-27.49,37.57s-29.54-12.29-29.54-38.27Z"/>
    <path class="st2" d="M996.4,1817.8h-30.57c-17.85,0-28.31-16.5-28.31-47.4v-193.11c0-3.16,1.85-5.27,4.72-5.27h52.51c2.87,0,4.72,2.11,4.72,5.27v25.63c0,3.16-1.85,5.27-4.72,5.27h-13.54c-2.67,0-4.51,2.11-4.51,5.27v14.75c0,3.16,1.85,5.27,4.51,5.27h9.03c2.67,0,4.51,2.11,4.51,5.27v25.63c0,3.16-1.85,5.27-4.51,5.27h-9.03c-2.67,0-4.51,1.4-4.51,1.76v10.88c0,3.16,1.85,5.27,4.51,5.27h15.18c2.67,0,4.51,2.11,4.51,5.27v119.73c0,3.16-1.85,5.27-4.51,5.27Z"/>
    <path class="st2" d="M1013.22,1812.53v-235.24c0-3.16,1.23-5.27,3.08-5.27h29.54c1.64,0,2.87,1.05,3.49,4.21l19.49,91.99c.41,2.11,1.23,3.16,1.85,3.16.82,0,1.64-1.4,1.64-4.21v-89.88c0-3.16,1.23-5.27,3.08-5.27h21.54c1.85,0,3.08,2.11,3.08,5.27v235.24c0,3.16-1.23,5.27-3.08,5.27h-29.54c-1.64,0-2.87-1.05-3.49-4.21l-19.49-100.77c-.41-2.11-1.23-3.16-1.85-3.16-.82,0-1.64,1.4-1.64,3.86v99.01c0,3.16-1.23,5.27-3.08,5.27h-21.54c-1.85,0-3.08-2.11-3.08-5.27Z"/>
    <path class="st2" d="M1124.81,1689.99l-11.49-112.36v-1.4c0-2.81.82-4.21,2.67-4.21h53.34c2.05,0,3.08,1.76,2.67,5.62l-11.28,112.36c-.41,3.16-1.64,4.56-3.49,4.56h-29.13c-1.85,0-2.87-1.4-3.28-4.56ZM1122.76,1812.53v-101.47c0-3.16,1.23-5.27,3.08-5.27h33.23c1.85,0,3.08,2.11,3.08,5.27v101.47c0,3.16-1.23,5.27-3.08,5.27h-33.23c-1.85,0-3.08-2.11-3.08-5.27Z"/>
  </g>
</svg>