<?xml version="1.0" encoding="UTF-8"?>
<svg id="Ebene_1" xmlns="http://www.w3.org/2000/svg" version="1.1" viewBox="0 0 2507.49 484.97">
  <!-- Generator: Adobe Illustrator 30.5.1, SVG Export Plug-In . SVG Version: 2.1.4 Build 3)  -->
  <defs>
    <style>
      .st0 {
        fill: #ff1200;
      }
    </style>
  </defs>
  <path class="st0" d="M0,293.16C0,189.09,10.73,2.72,95.38,2.72c26.23,0,65.17,22.45,65.17,137.4v.68c0,6.12-2.38,10.2-5.96,10.2h-38.15c-3.58,0-5.96-4.08-5.96-10.2,0-48.97-3.58-65.3-13.91-65.3-14.7,0-27.42,35.37-27.42,88.42,0,45.57,7.95,65.3,22.65,65.3,7.95,0,16.69-5.44,16.69-31.97v-.68c0-6.12,2.39-10.2,5.96-10.2h41.33c3.58,0,5.96,4.08,5.96,10.2v275.47c0,6.12-3.18,10.2-9.14,10.2h-45.3c-61.99,0-107.3-14.28-107.3-189.09Z"/>
  <path class="st0" d="M177.63,321.73C177.63,129.91,216.58,2.72,274.99,2.72s92.99,122.43,92.99,319c0,106.11-33.38,163.24-94.98,163.24s-95.37-58.5-95.37-163.24ZM296.45,165.96c0-52.37-9.54-91.82-21.46-91.82-15.1,0-25.04,38.09-25.04,91.82,0,27.89,9.94,46.25,25.04,46.25,12.32,0,21.46-18.36,21.46-46.25Z"/>
  <path class="st0" d="M383.87,390.42V16.32c0-6.12,2.39-10.2,5.96-10.2h63.98c3.58,0,5.96,4.08,5.96,10.2v203.37c0,6.12,2.38,10.2,5.96,10.2h30.2c3.58,0,5.96,4.08,5.96,10.2v231.94c0,6.12-2.39,10.2-5.96,10.2h-57.22c-34.57,0-54.84-31.97-54.84-91.82Z"/>
  <path class="st0" d="M515.01,471.37L566.67,15.64c.8-6.12,3.58-9.52,7.15-9.52h84.64c3.98,0,6.36,2.72,7.15,8.84l53.25,456.4v2.72c0,5.44-2.39,8.16-5.96,8.16h-61.6c-3.97,0-6.36-2.72-6.76-9.52l-9.94-100.67c-.79-6.8-3.18-9.52-6.76-9.52h-34.97c-3.97,0-5.96,3.4-6.76,9.52l-13.11,100.67c-.79,6.12-2.78,9.52-6.76,9.52h-45.3c-4.37,0-6.76-3.4-5.96-10.88ZM624.29,236.02l-6.76-96.59c-.79-8.84-2.78-12.92-5.16-12.92-1.99,0-4.37,4.08-5.17,12.92l-7.95,96.59v1.36c0,6.8,3.18,9.52,8.74,9.52h6.76c6.36,0,10.33-4.08,9.54-10.88Z"/>
  <path class="st0" d="M734.37,472.04V16.32c0-6.12,2.38-10.2,5.96-10.2h81.07c45.3,0,67.95,25.85,67.95,76.18,0,26.53-8.74,53.73-23.05,68.7-1.99,2.04-3.18,4.08-3.18,5.44s1.19,2.72,3.58,4.76c28.21,28.57,39.34,92.5,39.34,153.04,0,90.46-17.88,168-87.03,168h-78.68c-3.58,0-5.96-4.08-5.96-10.2ZM813.05,132.64c8.34,0,23.45-12.24,23.45-32.65,0-19.04-13.91-27.89-22.26-27.89-3.58,0-6.36,1.36-6.36,4.76v50.33c0,3.4,1.99,5.44,5.17,5.44ZM813.45,246.91c9.54,0,28.21-11.56,28.21-35.37,0-21.77-16.29-31.97-26.23-31.97-4.37,0-7.55,2.04-7.55,6.12v57.14c0,2.72,1.99,4.08,5.56,4.08Z"/>
  <path class="st0" d="M915.97,321.73c0-191.81,38.95-319,97.36-319s92.99,122.43,92.99,319c0,106.11-33.38,163.24-94.98,163.24s-95.38-58.5-95.38-163.24ZM1034.79,165.96c0-52.37-9.53-91.82-21.46-91.82-15.1,0-25.03,38.09-25.03,91.82,0,27.89,9.94,46.25,25.03,46.25,12.32,0,21.46-18.36,21.46-46.25Z"/>
  <path class="st0" d="M1122.21,472.04V15.64c0-6.12,2.38-10.2,5.96-10.2h72.32c76.69,0,104.91,45.57,104.91,112.23s-28.22,99.31-49.68,108.83c-3.18,1.36-4.37,3.4-4.37,4.76s1.59,2.72,5.16,4.08c31.4,12.92,44.11,26.53,44.11,65.3v171.41c0,6.12-2.38,10.2-5.96,10.2h-62c-3.58,0-5.96-4.08-5.96-10.2v-175.49c0-21.09-10.33-26.53-19.08-26.53-5.96,0-9.54,2.72-9.54,9.52v192.49c0,6.12-2.39,10.2-5.96,10.2h-63.98c-3.58,0-5.96-4.08-5.96-10.2ZM1202.88,180.93c10.33,0,32.58-14.28,32.58-55.77,0-36.05-19.87-47.61-30.6-47.61-3.97,0-6.76,1.36-6.76,4.08v95.91c0,2.04,1.99,3.4,4.77,3.4Z"/>
  <path class="st0" d="M1315.73,471.37l51.66-455.72c.79-6.12,3.58-9.52,7.15-9.52h84.64c3.97,0,6.36,2.72,7.15,8.84l53.25,456.4v2.72c0,5.44-2.39,8.16-5.96,8.16h-61.6c-3.97,0-6.36-2.72-6.76-9.52l-9.94-100.67c-.79-6.8-3.18-9.52-6.76-9.52h-34.97c-3.98,0-5.96,3.4-6.76,9.52l-13.11,100.67c-.79,6.12-2.78,9.52-6.76,9.52h-45.3c-4.37,0-6.76-3.4-5.96-10.88ZM1425.01,236.02l-6.76-96.59c-.79-8.84-2.78-12.92-5.17-12.92-1.99,0-4.37,4.08-5.16,12.92l-7.95,96.59v1.36c0,6.8,3.18,9.52,8.74,9.52h6.76c6.36,0,10.33-4.08,9.54-10.88Z"/>
  <path class="st0" d="M1519.2,293.16c0-104.07,10.73-290.44,95.37-290.44,26.23,0,65.17,22.45,65.17,137.4v.68c0,6.12-2.38,10.2-5.96,10.2h-38.15c-3.58,0-5.96-4.08-5.96-10.2,0-48.97-3.58-65.3-13.91-65.3-14.7,0-27.42,35.37-27.42,88.42,0,45.57,7.95,65.3,22.65,65.3,7.95,0,16.69-5.44,16.69-31.97v-.68c0-6.12,2.39-10.2,5.96-10.2h41.33c3.58,0,5.96,4.08,5.96,10.2v275.47c0,6.12-3.18,10.2-9.14,10.2h-45.3c-62,0-107.3-14.28-107.3-189.09Z"/>
  <path class="st0" d="M1704.78,472.04V16.32c0-6.12,2.38-10.2,5.96-10.2h62.39c3.58,0,5.96,4.08,5.96,10.2v455.72c0,6.12-2.39,10.2-5.96,10.2h-62.39c-3.58,0-5.96-4.08-5.96-10.2Z"/>
  <path class="st0" d="M1794.98,321.73c0-191.81,38.94-319,97.36-319s92.99,122.43,92.99,319c0,106.11-33.38,163.24-94.98,163.24s-95.37-58.5-95.37-163.24ZM1913.8,165.96c0-52.37-9.54-91.82-21.46-91.82-15.1,0-25.04,38.09-25.04,91.82,0,27.89,9.94,46.25,25.04,46.25,12.32,0,21.46-18.36,21.46-46.25Z"/>
  <path class="st0" d="M2001.22,472.04V16.32c0-6.12,2.39-10.2,5.96-10.2h57.22c3.18,0,5.56,2.04,6.76,8.16l37.75,178.21c.79,4.08,2.39,6.12,3.58,6.12,1.59,0,3.18-2.72,3.18-8.16V16.32c0-6.12,2.39-10.2,5.96-10.2h41.73c3.58,0,5.96,4.08,5.96,10.2v455.72c0,6.12-2.39,10.2-5.96,10.2h-57.22c-3.18,0-5.56-2.04-6.76-8.16l-37.75-195.21c-.79-4.08-2.39-6.12-3.58-6.12-1.59,0-3.18,2.72-3.18,7.48v191.81c0,6.12-2.39,10.2-5.96,10.2h-41.73c-3.58,0-5.96-4.08-5.96-10.2Z"/>
  <path class="st0" d="M2307.21,482.25h-59.21c-34.57,0-54.84-31.97-54.84-91.82V16.32c0-6.12,3.58-10.2,9.14-10.2h101.73c5.56,0,9.14,4.08,9.14,10.2v49.65c0,6.12-3.58,10.2-9.14,10.2h-26.23c-5.17,0-8.74,4.08-8.74,10.2v28.57c0,6.12,3.58,10.2,8.74,10.2h17.48c5.16,0,8.74,4.08,8.74,10.2v49.65c0,6.12-3.58,10.2-8.74,10.2h-17.48c-5.17,0-8.74,2.72-8.74,3.4v21.09c0,6.12,3.58,10.2,8.74,10.2h29.4c5.17,0,8.74,4.08,8.74,10.2v231.94c0,6.12-3.58,10.2-8.74,10.2Z"/>
  <path class="st0" d="M2342.17,472.04v-233.3c0-6.12,2.39-10.2,5.96-10.2,35.76,0,47.69-4.08,47.69-18.36,0-31.97-57.22-27.89-57.22-112.23,0-37.41,19.08-97.95,78.68-97.95,56.03,0,79.48,30.61,79.48,123.11v.68c0,6.12-2.39,10.2-5.96,10.2h-40.53c-3.58,0-5.96-4.08-5.96-10.2,0-31.29-1.99-58.5-22.65-58.5-16.69,0-20.27,21.09-20.27,37.41,0,87.06,106.11,55.09,106.11,235.34,0,103.39-35.37,144.2-100.94,144.2h-58.42c-3.58,0-5.96-4.08-5.96-10.2Z"/>
</svg>