<?xml version="1.0" encoding="utf-8"?>
<!-- Generator: Adobe Illustrator 27.8.0, SVG Export Plug-In . SVG Version: 6.00 Build 0)  -->
<svg version="1.1" id="Ebene_1" xmlns="http://www.w3.org/2000/svg" xmlns:xlink="http://www.w3.org/1999/xlink" x="0px" y="0px"
	 viewBox="360 1160 410 125" style="enable-background:new 0 0 1125 2436;" xml:space="preserve">
<style type="text/css">
	.st0{fill:#F6DEA9;}
</style>
<g>
	<path class="st0" d="M387.66,1217.33c0-5.27,5.77-6.5,5.77-10.38v-0.06c0-0.5,0.33-0.83,0.83-0.83h8.99c0.5,0,0.83,0.33,0.83,0.83
		v0.11c0,5.27-7.94,6.22-7.94,10.66c0,1.33,0.67,2.5,2.66,2.5s2.94-1.11,2.94-3.66c0-0.5,0.33-0.83,0.83-0.83h5.88
		c0.5,0,0.83,0.33,0.83,0.83v0.06c0,5.88-4.22,8.49-10.38,8.49C393.49,1225.04,387.66,1222.27,387.66,1217.33z M393.43,1203.45
		v-16.6c0-0.5,0.33-0.83,0.83-0.83h8.99c0.5,0,0.83,0.33,0.83,0.83v16.6c0,0.5-0.33,0.83-0.83,0.83h-8.99
		C393.77,1204.28,393.43,1203.95,393.43,1203.45z"/>
	<path class="st0" d="M409.16,1200.33c0-7.49,1.32-20.9,11.75-20.9c3.23,0,8.03,1.62,8.03,9.89v0.05c0,0.44-0.29,0.73-0.73,0.73
		h-4.7c-0.44,0-0.73-0.29-0.73-0.73c0-3.52-0.44-4.7-1.71-4.7c-1.81,0-3.38,2.55-3.38,6.36c0,3.28,0.98,4.7,2.79,4.7
		c0.98,0,2.06-0.39,2.06-2.3v-0.05c0-0.44,0.29-0.73,0.73-0.73h5.09c0.44,0,0.73,0.29,0.73,0.73v19.82c0,0.44-0.39,0.73-1.13,0.73
		h-5.58C414.74,1213.94,409.16,1212.91,409.16,1200.33z"/>
	<path class="st0" d="M431.12,1202.39c0-13.8,4.8-22.96,11.99-22.96c7.05,0,11.45,8.81,11.45,22.96c0,7.64-4.11,11.75-11.7,11.75
		C435.33,1214.13,431.12,1209.92,431.12,1202.39z M445.76,1191.18c0-3.77-1.17-6.61-2.64-6.61c-1.86,0-3.08,2.74-3.08,6.61
		c0,2.01,1.22,3.33,3.08,3.33C444.63,1194.51,445.76,1193.18,445.76,1191.18z"/>
	<path class="st0" d="M456.72,1213.2v-32.8c0-0.44,0.29-0.73,0.73-0.73h9.06c0.44,0,0.69,0.24,0.78,0.64l3.28,12.58
		c0.1,0.34,0.29,0.54,0.44,0.54c0.2,0,0.34-0.2,0.44-0.54l3.43-12.58c0.1-0.39,0.34-0.64,0.78-0.64h9.1c0.44,0,0.73,0.29,0.73,0.73
		v32.8c0,0.44-0.29,0.73-0.73,0.73h-6.46c-0.44,0-0.73-0.29-0.73-0.73v-14.1c0-0.29-0.2-0.49-0.39-0.49c-0.15,0-0.34,0.15-0.39,0.39
		l-3.87,14.29c-0.1,0.39-0.34,0.64-0.78,0.64h-3.43c-0.44,0-0.69-0.24-0.78-0.64l-3.82-14.25c-0.05-0.24-0.24-0.39-0.39-0.39
		c-0.2,0-0.39,0.2-0.39,0.49v14.05c0,0.44-0.29,0.73-0.73,0.73h-5.14C457.01,1213.94,456.72,1213.64,456.72,1213.2z"/>
	<path class="st0" d="M487.68,1202.39c0-13.8,4.8-22.96,11.99-22.96c7.05,0,11.45,8.81,11.45,22.96c0,7.64-4.11,11.75-11.7,11.75
		C491.89,1214.13,487.68,1209.92,487.68,1202.39z M502.31,1191.18c0-3.77-1.17-6.61-2.64-6.61c-1.86,0-3.08,2.74-3.08,6.61
		c0,2.01,1.22,3.33,3.08,3.33C501.19,1194.51,502.31,1193.18,502.31,1191.18z"/>
	<path class="st0" d="M524.63,1213.2v-16.79c0-0.44,0.29-0.73,0.73-0.73c4.41,0,5.87-0.29,5.87-1.32c0-2.3-7.05-2.01-7.05-8.08
		c0-2.69,2.35-7.05,9.69-7.05c6.9,0,9.79,2.2,9.79,8.86v0.05c0,0.44-0.29,0.73-0.73,0.73h-4.99c-0.44,0-0.73-0.29-0.73-0.73
		c0-2.25-0.24-4.21-2.79-4.21c-2.06,0-2.5,1.52-2.5,2.69c0,6.27,13.07,3.97,13.07,16.94c0,7.44-4.36,10.38-12.43,10.38h-7.2
		C524.93,1213.94,524.63,1213.64,524.63,1213.2z"/>
	<path class="st0" d="M561.13,1213.94h-7.29c-4.26,0-6.75-2.3-6.75-6.61v-26.92c0-0.44,0.44-0.73,1.13-0.73h12.53
		c0.69,0,1.13,0.29,1.13,0.73v3.57c0,0.44-0.44,0.73-1.13,0.73h-3.23c-0.64,0-1.08,0.29-1.08,0.73v2.06c0,0.44,0.44,0.73,1.08,0.73
		h2.15c0.64,0,1.08,0.29,1.08,0.73v3.57c0,0.44-0.44,0.73-1.08,0.73h-2.15c-0.64,0-1.08,0.2-1.08,0.25v1.52
		c0,0.44,0.44,0.73,1.08,0.73h3.62c0.64,0,1.08,0.29,1.08,0.73v16.69C562.21,1213.64,561.77,1213.94,561.13,1213.94z"/>
	<path class="st0" d="M576.4,1213.2v-32.8c0-0.44,0.44-0.73,1.13-0.73h13.27c0.69,0,1.13,0.29,1.13,0.73v3.57
		c0,0.44-0.44,0.73-1.13,0.73h-3.96c-0.64,0-1.08,0.29-1.08,0.73v2.06c0,0.44,0.44,0.73,1.08,0.73h2.89c0.64,0,1.08,0.29,1.08,0.73
		v3.57c0,0.44-0.44,0.73-1.08,0.73h-2.89c-0.64,0-1.08,0.29-1.08,0.73v19.19c0,0.44-0.44,0.73-1.13,0.73h-7.1
		C576.84,1213.94,576.4,1213.64,576.4,1213.2z"/>
	<path class="st0" d="M593.59,1213.2v-32.8c0-0.44,0.29-0.73,0.73-0.73h7.69c0.44,0,0.73,0.29,0.73,0.73v32.8
		c0,0.44-0.29,0.73-0.73,0.73h-7.69C593.89,1213.94,593.59,1213.64,593.59,1213.2z"/>
	<path class="st0" d="M605.97,1213.2v-32.8c0-0.44,0.29-0.73,0.73-0.73h7.05c0.39,0,0.69,0.15,0.83,0.59l4.65,12.83
		c0.1,0.29,0.29,0.44,0.44,0.44c0.2,0,0.39-0.2,0.39-0.59v-12.53c0-0.44,0.29-0.73,0.73-0.73h5.14c0.44,0,0.73,0.29,0.73,0.73v32.8
		c0,0.44-0.29,0.73-0.73,0.73h-7.05c-0.39,0-0.69-0.15-0.83-0.59l-4.65-14.05c-0.1-0.29-0.29-0.44-0.44-0.44
		c-0.2,0-0.39,0.2-0.39,0.54v13.8c0,0.44-0.29,0.73-0.73,0.73h-5.14C606.26,1213.94,605.97,1213.64,605.97,1213.2z"/>
	<path class="st0" d="M628.22,1213.16l6.36-32.8c0.1-0.44,0.44-0.68,0.88-0.68h10.43c0.49,0,0.78,0.2,0.88,0.64l6.56,32.85v0.2
		c0,0.39-0.29,0.59-0.73,0.59h-7.59c-0.49,0-0.78-0.2-0.83-0.69l-1.22-7.24c-0.1-0.49-0.39-0.69-0.83-0.69h-4.31
		c-0.49,0-0.73,0.25-0.83,0.69l-1.62,7.24c-0.1,0.44-0.34,0.69-0.83,0.69h-5.58C628.41,1213.94,628.12,1213.69,628.22,1213.16z
		 M641.68,1196.22l-0.83-6.95c-0.1-0.64-0.34-0.93-0.64-0.93c-0.24,0-0.54,0.29-0.64,0.93l-0.98,6.95v0.1
		c0,0.49,0.39,0.69,1.08,0.69h0.83C641.29,1197,641.78,1196.71,641.68,1196.22z"/>
	<path class="st0" d="M654.86,1213.2v-32.8c0-0.44,0.29-0.73,0.73-0.73h7.05c0.39,0,0.69,0.15,0.83,0.59l4.65,12.83
		c0.1,0.29,0.29,0.44,0.44,0.44c0.2,0,0.39-0.2,0.39-0.59v-12.53c0-0.44,0.29-0.73,0.73-0.73h5.14c0.44,0,0.73,0.29,0.73,0.73v32.8
		c0,0.44-0.29,0.73-0.73,0.73h-7.05c-0.39,0-0.69-0.15-0.83-0.59l-4.65-14.05c-0.1-0.29-0.29-0.44-0.44-0.44
		c-0.2,0-0.39,0.2-0.39,0.54v13.8c0,0.44-0.29,0.73-0.73,0.73h-5.14C655.16,1213.94,654.86,1213.64,654.86,1213.2z"/>
	<path class="st0" d="M677.99,1200.33c0-7.49,1.32-20.9,11.75-20.9c3.23,0,8.03,1.62,8.03,9.89v0.05c0,0.44-0.29,0.73-0.73,0.73
		h-4.7c-0.44,0-0.73-0.29-0.73-0.73c0-3.52-0.44-4.7-1.71-4.7c-1.81,0-3.38,2.55-3.38,6.36c0,3.28,0.98,4.7,2.79,4.7
		c0.98,0,2.06-0.39,2.06-2.3v-0.05c0-0.44,0.29-0.73,0.73-0.73h5.09c0.44,0,0.73,0.29,0.73,0.73v19.82c0,0.44-0.39,0.73-1.13,0.73
		h-5.58C683.57,1213.94,677.99,1212.91,677.99,1200.33z"/>
	<path class="st0" d="M701.1,1213.2v-32.8c0-0.44,0.29-0.73,0.73-0.73h7.69c0.44,0,0.73,0.29,0.73,0.73v32.8
		c0,0.44-0.29,0.73-0.73,0.73h-7.69C701.39,1213.94,701.1,1213.64,701.1,1213.2z"/>
	<path class="st0" d="M711.74,1213.16l6.36-32.8c0.1-0.44,0.44-0.68,0.88-0.68h10.43c0.49,0,0.78,0.2,0.88,0.64l6.56,32.85v0.2
		c0,0.39-0.29,0.59-0.73,0.59h-7.59c-0.49,0-0.78-0.2-0.83-0.69l-1.22-7.24c-0.1-0.49-0.39-0.69-0.83-0.69h-4.31
		c-0.49,0-0.73,0.25-0.83,0.69l-1.62,7.24c-0.1,0.44-0.34,0.69-0.83,0.69h-5.58C711.93,1213.94,711.64,1213.69,711.74,1213.16z
		 M725.2,1196.22l-0.83-6.95c-0.1-0.64-0.34-0.93-0.64-0.93c-0.24,0-0.54,0.29-0.64,0.93l-0.98,6.95v0.1c0,0.49,0.39,0.69,1.08,0.69
		h0.83C724.81,1197,725.3,1196.71,725.2,1196.22z"/>
	<path class="st0" d="M410.88,1256.5v-32.8c0-0.44,0.29-0.73,0.73-0.73h9.99c5.58,0,8.37,1.86,8.37,5.48c0,1.91-1.08,3.87-2.84,4.94
		c-0.25,0.15-0.39,0.29-0.39,0.39s0.15,0.2,0.44,0.34c3.48,2.06,4.85,6.66,4.85,11.01c0,6.51-2.2,12.09-10.72,12.09h-9.69
		C411.17,1257.24,410.88,1256.94,410.88,1256.5z M420.57,1232.08c1.03,0,2.89-0.88,2.89-2.35c0-1.37-1.71-2.01-2.74-2.01
		c-0.44,0-0.78,0.1-0.78,0.34v3.62C419.93,1231.93,420.18,1232.08,420.57,1232.08z M420.62,1240.3c1.17,0,3.48-0.83,3.48-2.54
		c0-1.57-2.01-2.3-3.23-2.3c-0.54,0-0.93,0.15-0.93,0.44v4.11C419.93,1240.2,420.18,1240.3,420.62,1240.3z"/>
	<path class="st0" d="M448.16,1257.24h-7.29c-4.26,0-6.75-2.3-6.75-6.61v-26.92c0-0.44,0.44-0.73,1.13-0.73h12.53
		c0.69,0,1.13,0.29,1.13,0.73v3.57c0,0.44-0.44,0.73-1.13,0.73h-3.23c-0.64,0-1.08,0.29-1.08,0.73v2.06c0,0.44,0.44,0.73,1.08,0.73
		h2.15c0.64,0,1.08,0.29,1.08,0.73v3.57c0,0.44-0.44,0.73-1.08,0.73h-2.15c-0.64,0-1.08,0.2-1.08,0.25v1.52
		c0,0.44,0.44,0.73,1.08,0.73h3.62c0.64,0,1.08,0.29,1.08,0.73v16.69C449.24,1256.94,448.8,1257.24,448.16,1257.24z"/>
	<path class="st0" d="M452.36,1256.5v-32.85c0-0.44,0.29-0.73,0.73-0.73H462c9.45,0,12.92,3.28,12.92,8.08
		c0,4.6-3.48,7.15-6.12,7.83c-0.39,0.1-0.54,0.24-0.54,0.34c0,0.1,0.2,0.2,0.64,0.29c3.87,0.93,5.43,1.91,5.43,4.7v12.34
		c0,0.44-0.29,0.73-0.73,0.73h-7.64c-0.44,0-0.73-0.29-0.73-0.73v-12.63c0-1.52-1.27-1.91-2.35-1.91c-0.73,0-1.17,0.2-1.17,0.68
		v13.85c0,0.44-0.29,0.73-0.73,0.73h-7.88C452.65,1257.24,452.36,1256.94,452.36,1256.5z M462.3,1235.55c1.27,0,4.01-1.03,4.01-4.01
		c0-2.59-2.45-3.43-3.77-3.43c-0.49,0-0.83,0.1-0.83,0.29v6.9C461.71,1235.45,461.95,1235.55,462.3,1235.55z"/>
	<path class="st0" d="M477.41,1250.63v-26.92c0-0.44,0.29-0.73,0.73-0.73h7.88c0.44,0,0.73,0.29,0.73,0.73v14.64
		c0,0.44,0.29,0.73,0.73,0.73h3.72c0.44,0,0.73,0.29,0.73,0.73v16.69c0,0.44-0.29,0.73-0.73,0.73h-7.05
		C479.91,1257.24,477.41,1254.94,477.41,1250.63z"/>
	<path class="st0" d="M494.65,1256.5v-32.8c0-0.44,0.29-0.73,0.73-0.73h7.69c0.44,0,0.73,0.29,0.73,0.73v32.8
		c0,0.44-0.29,0.73-0.73,0.73h-7.69C494.94,1257.24,494.65,1256.94,494.65,1256.5z"/>
	<path class="st0" d="M507.03,1256.5v-32.8c0-0.44,0.29-0.73,0.73-0.73h7.05c0.39,0,0.69,0.15,0.83,0.59l4.65,12.82
		c0.1,0.29,0.29,0.44,0.44,0.44c0.2,0,0.39-0.2,0.39-0.59v-12.53c0-0.44,0.29-0.73,0.73-0.73H527c0.44,0,0.73,0.29,0.73,0.73v32.8
		c0,0.44-0.29,0.73-0.73,0.73h-7.05c-0.39,0-0.69-0.15-0.83-0.59l-4.65-14.05c-0.1-0.29-0.29-0.44-0.44-0.44
		c-0.2,0-0.39,0.2-0.39,0.54v13.8c0,0.44-0.29,0.73-0.73,0.73h-5.14C507.32,1257.24,507.03,1256.94,507.03,1256.5z"/>
	<path class="st0" d="M555.97,1257.24h-7.29c-4.26,0-6.75-2.3-6.75-6.61v-26.92c0-0.44,0.44-0.73,1.13-0.73h12.53
		c0.69,0,1.13,0.29,1.13,0.73v3.57c0,0.44-0.44,0.73-1.13,0.73h-3.23c-0.64,0-1.08,0.29-1.08,0.73v2.06c0,0.44,0.44,0.73,1.08,0.73
		h2.15c0.64,0,1.08,0.29,1.08,0.73v3.57c0,0.44-0.44,0.73-1.08,0.73h-2.15c-0.64,0-1.08,0.2-1.08,0.25v1.52
		c0,0.44,0.44,0.73,1.08,0.73h3.62c0.64,0,1.08,0.29,1.08,0.73v16.69C557.05,1256.94,556.61,1257.24,555.97,1257.24z"/>
	<path class="st0" d="M560.17,1256.5v-32.8c0-0.44,0.29-0.73,0.73-0.73h7.05c0.39,0,0.69,0.15,0.83,0.59l4.65,12.82
		c0.1,0.29,0.29,0.44,0.44,0.44c0.2,0,0.39-0.2,0.39-0.59v-12.53c0-0.44,0.29-0.73,0.73-0.73h5.14c0.44,0,0.73,0.29,0.73,0.73v32.8
		c0,0.44-0.29,0.73-0.73,0.73h-7.05c-0.39,0-0.69-0.15-0.83-0.59l-4.65-14.05c-0.1-0.29-0.29-0.44-0.44-0.44
		c-0.2,0-0.39,0.2-0.39,0.54v13.8c0,0.44-0.29,0.73-0.73,0.73h-5.14C560.47,1257.24,560.17,1256.94,560.17,1256.5z"/>
	<path class="st0" d="M595.37,1256.5v-16.79c0-0.44,0.29-0.73,0.73-0.73c4.41,0,5.87-0.29,5.87-1.32c0-2.3-7.05-2.01-7.05-8.08
		c0-2.69,2.35-7.05,9.69-7.05c6.9,0,9.79,2.2,9.79,8.86v0.05c0,0.44-0.29,0.73-0.73,0.73h-4.99c-0.44,0-0.73-0.29-0.73-0.73
		c0-2.25-0.24-4.21-2.79-4.21c-2.06,0-2.5,1.52-2.5,2.69c0,6.27,13.07,3.96,13.07,16.94c0,7.44-4.36,10.38-12.43,10.38h-7.2
		C595.66,1257.24,595.37,1256.94,595.37,1256.5z"/>
	<path class="st0" d="M616.17,1256.45l6.36-32.8c0.1-0.44,0.44-0.69,0.88-0.69h10.43c0.49,0,0.78,0.2,0.88,0.64l6.56,32.85v0.2
		c0,0.39-0.29,0.59-0.73,0.59h-7.59c-0.49,0-0.78-0.2-0.83-0.69l-1.22-7.25c-0.1-0.49-0.39-0.68-0.83-0.68h-4.31
		c-0.49,0-0.73,0.24-0.83,0.68l-1.62,7.25c-0.1,0.44-0.34,0.69-0.83,0.69h-5.58C616.37,1257.24,616.07,1256.99,616.17,1256.45z
		 M629.63,1239.52l-0.83-6.95c-0.1-0.64-0.34-0.93-0.64-0.93c-0.24,0-0.54,0.29-0.64,0.93l-0.98,6.95v0.1
		c0,0.49,0.39,0.68,1.08,0.68h0.83C629.24,1240.3,629.73,1240.01,629.63,1239.52z"/>
	<path class="st0" d="M642.45,1250.63v-26.92c0-0.44,0.29-0.73,0.73-0.73h7.88c0.44,0,0.73,0.29,0.73,0.73v14.64
		c0,0.44,0.29,0.73,0.73,0.73h3.72c0.44,0,0.73,0.29,0.73,0.73v16.69c0,0.44-0.29,0.73-0.73,0.73h-7.05
		C644.95,1257.24,642.45,1254.94,642.45,1250.63z"/>
	<path class="st0" d="M659.46,1256.5v-16.79c0-0.44,0.29-0.73,0.73-0.73c4.41,0,5.87-0.29,5.87-1.32c0-2.3-7.05-2.01-7.05-8.08
		c0-2.69,2.35-7.05,9.69-7.05c6.9,0,9.79,2.2,9.79,8.86v0.05c0,0.44-0.29,0.73-0.73,0.73h-4.99c-0.44,0-0.73-0.29-0.73-0.73
		c0-2.25-0.24-4.21-2.79-4.21c-2.06,0-2.5,1.52-2.5,2.69c0,6.27,13.07,3.96,13.07,16.94c0,7.44-4.36,10.38-12.43,10.38h-7.2
		C659.75,1257.24,659.46,1256.94,659.46,1256.5z"/>
	<path class="st0" d="M680.27,1256.45l6.36-32.8c0.1-0.44,0.44-0.69,0.88-0.69h10.43c0.49,0,0.78,0.2,0.88,0.64l6.56,32.85v0.2
		c0,0.39-0.29,0.59-0.73,0.59h-7.59c-0.49,0-0.78-0.2-0.83-0.69l-1.22-7.25c-0.1-0.49-0.39-0.68-0.83-0.68h-4.31
		c-0.49,0-0.73,0.24-0.83,0.68l-1.62,7.25c-0.1,0.44-0.34,0.69-0.83,0.69H681C680.46,1257.24,680.17,1256.99,680.27,1256.45z
		 M693.73,1239.52l-0.83-6.95c-0.1-0.64-0.34-0.93-0.64-0.93c-0.24,0-0.54,0.29-0.64,0.93l-0.98,6.95v0.1
		c0,0.49,0.39,0.68,1.08,0.68h0.83C693.34,1240.3,693.83,1240.01,693.73,1239.52z"/>
	<path class="st0" d="M709.45,1239.32v-0.1c0-4.65,6.95-5.48,6.95-9.45c0-1.17-0.59-2.01-2.35-2.01s-2.55,0.78-2.55,3.04
		c0,0.44-0.29,0.73-0.73,0.73h-5.24c-0.44,0-0.73-0.29-0.73-0.73v-0.05c0-5.19,3.77-7.93,9.2-7.93c4.75,0,9.89,2.45,9.89,6.8
		c0,4.65-5.04,6.22-5.04,9.64v0.05c0,0.44-0.29,0.73-0.73,0.73h-7.93C709.74,1240.06,709.45,1239.76,709.45,1239.32z M709.45,1256.5
		v-14.15c0-0.44,0.29-0.73,0.73-0.73h7.93c0.44,0,0.73,0.29,0.73,0.73v14.15c0,0.44-0.29,0.73-0.73,0.73h-7.93
		C709.74,1257.24,709.45,1256.94,709.45,1256.5z"/>
</g>
</svg>
