<?xml version="1.0" encoding="UTF-8"?>
<svg id="Ebene_1" xmlns="http://www.w3.org/2000/svg" version="1.1" viewBox="0 0 808 178">
  <!-- Generator: Adobe Illustrator 29.5.1, SVG Export Plug-In . SVG Version: 2.1.0 Build 141)  -->
  <defs>
    <style>
      .st0 {
        fill: #DB1906;
      }
    </style>
  </defs>
  <path class="st0" d="M250.88,162.64c-.37,2.19-1.8,2.59-3.72,2.77-4.58.42-18.25.64-22.48-.05-1.22-.2-2.55-.91-2.77-2.23l-.03-143.65c-.29-3.08,2.18-3.53,4.75-3.74,6.88-.57,22.35-.78,29.01,0,1.32.16,2.11.5,3.01,1.48l21.92,58.41c.69.5,2.23,1,2.43-.15l.61-57.73c1.08-1.58,2.68-1.86,4.47-2.02,4.84-.45,15.75-.52,20.52,0,3.46.38,3.56,1.66,3.76,4.73v141.19c.1,2.14-1.04,3.67-3.26,3.73-9.8-.85-21.43,1.11-31,0-1.01-.12-1.73-.29-2.5-.99l-21.2-62.63-1.84-2.18c-.51-.15-1.68,1.07-1.68,1.21v61.84h0Z"/>
  <path class="st0" d="M778.88,153.24c-17.07,16.9-54.84,17.18-73.24,2.38-15.29-12.3-16.8-33.09-16.05-51.35,1.19-29.15,11.22-82.87,46.37-88.88,37.69-6.44,51.28,42.29,54.53,70.51,2.45,21.26,4.9,51.01-11.61,67.34ZM740.96,37.3c-10.52,1.47-13.2,22.88-12.37,31.07,1.43,14.07,20.74,17.64,24.34,2.36,1.77-7.53-.54-23.5-5.36-29.79-1.61-2.1-3.8-4.04-6.61-3.64h0Z"/>
  <path class="st0" d="M161.83,14.91c35.06-1.37,47,44.72,50.01,71.98,3.5,31.71,4.53,69.87-34.32,77.83-33.69,6.9-64.36-7-66.57-43.96-1.95-32.46,7.67-104.16,50.89-105.85h0ZM162.33,37.31c-10.76.8-13.2,23.49-12.38,31.56.91,8.95,11.53,15.25,19.35,9.85,7.07-4.87,5.72-17.34,4.47-24.65-.93-5.4-4.38-17.29-11.44-16.76Z"/>
  <path class="st0" d="M435.65,15.89c13.3-2.06,31.07,1.27,44.84-.13,1.7.15,3.36.74,4.13,2.36l28.45,141.17c.19,1.76.95,3.45-.13,5.06-.73.97-1.85.95-2.95,1.05-8.09.74-24.42.72-32.53,0-2.58-.23-3.49-.82-4.1-3.39l-5.58-32.33c-.17-.71-.57-1-1.17-1.33-2.35-1.27-15.87-1.19-19.11-.87s-4.61.81-5.61,3.88c-3.11,9.54-3.6,22-6.97,31.44-.76,2.12-1.78,2.42-3.89,2.61-8.08.72-17.6-.37-25.75-.28-1.23-.8-1.82-1.91-1.47-3.4l28.42-144.23c.72-1.07,2.19-1.4,3.4-1.59l.02-.02ZM457.61,54.32c-.49-.43-1.2-.75-1.83-.43-.56.45-1.07.98-1.44,1.59-1.57,2.65-3.48,19.18-4.01,23.43-.32,2.56-1.95,10.45-.04,11.88,1.72,1.29,12.06,1.89,12.37-2.07l-3.46-30.26c-.21-1.17-.71-3.36-1.59-4.14h0Z"/>
  <path class="st0" d="M70.85,38.85c-2.45-1.96-5.73-1.02-8.19.26-10.97,5.71-13.81,36.02-5.17,44.25,3.37,3.2,10.86,3.76,14.01-.01,2.71-3.24.94-9.53,3.96-10.51,7.42.12,15.98-.91,23.29-.24,3.72.34,3.44,1.86,3.75,5.24v83.82c-.13,2.12-1.37,3.25-3.39,3.61-39.09-.4-77.09,7.73-83.02-42.09-3.26-27.4.18-75.86,20.72-96.39,16.16-16.16,47.55-17.25,59.25,4.6,3.64,6.8,6.45,19.95,5.43,27.54-.31,2.32-2.16,2.5-4.28,2.71-4.38.43-14.16.49-18.48,0-1.94-.22-3.29-.57-3.91-2.58-1.56-5.02,1.2-16.07-3.98-20.22h0Z"/>
  <path class="st0" d="M599.05,60.53c-.61.61-3.14,1.05-4.11,1.14-4.53.38-13.03.41-17.53,0-6.9-.63-4.33-6.09-4.73-11.24-.56-7.07-2.84-16.08-11.94-11.43-10.73,5.49-13.24,34.24-6.25,43.05,4.52,5.69,14.59,5.66,16.67-2.23.72-2.72-.26-5.8,2.38-7.1,7.56.28,15.94-.73,23.4-.13.84.07,2.27.08,2.77.85l.21,90.44c-1.19,1.03-2.45,1.37-3.98,1.52-9.5.91-25.24.47-35.02,0-25.31-1.24-40.3-9.56-45.55-35.33-5.48-26.88-1.57-76.4,15.63-98.81,18.1-23.59,57.5-23.06,66.42,8.44.96,3.39,3.79,18.68,1.63,20.83Z"/>
  <path class="st0" d="M325.59,42.19c-1.16-.32-1.67-2.13-1.78-3.21-.66-6.58.54-14.26.04-20.97.36-1.9,2.59-2.13,4.22-2.28,21.24-1.96,45.45,1.53,67,0,2.54.3,3.93.58,4.22,3.26.46,4.25.58,16.37.03,20.48-.11.81-1.14,2.72-1.78,2.72h-19.74v36.16c0,.52,1.69,3.7,2.23,4.26,2.11,2.23,7.05,3.16,10.03,3.46,5.16.52,8.82-2.05,9.26,4.73.89,13.79.86,34.11,0,47.92-1.21,19.33-14.27,29.18-33.27,28.18-17.24-.9-26.74-11.75-27.2-28.71V42.19c-3.48-.62-10.22.84-13.25,0h-.01Z"/>
  <path class="st0" d="M659.13,42.19v34.66c0,.76,1.09,3.59,1.58,4.41,2.04,3.33,6.56,4.4,10.22,4.76,2.36.23,8.76-.83,9.58,1.91l.11,53.78c-2.76,35.12-59.98,32.39-59.98-.02V42.19h-13.24c-1.45,0-2.12-2.56-2.25-3.74-.42-3.95-.55-15.68.03-19.42.46-2.93,2.76-3.11,5.2-3.29,21.24-1.63,44.54,1.28,66,0,2.3.07,4.31.81,4.7,3.29.6,3.86.43,15.33.05,19.44-.12,1.24-.73,3.72-2.27,3.72h-19.74.01Z"/>
</svg>