<?xml version="1.0" encoding="UTF-8"?>
<svg id="Ebene_1" xmlns="http://www.w3.org/2000/svg" version="1.1" viewBox="0 0 852.07 285.9">
  <!-- Generator: Adobe Illustrator 30.5.0, SVG Export Plug-In . SVG Version: 2.1.4 Build 167)  -->
  <defs>
    <style>
      .st0 {
        fill: #ff1200;
      }
    </style>
  </defs>
  <path class="st0" d="M0,171.46C0,110.02,6.33,0,56.31,0c15.48,0,38.47,13.25,38.47,81.11v.4c0,3.61-1.41,6.02-3.52,6.02h-22.52c-2.11,0-3.52-2.41-3.52-6.02,0-28.91-2.11-38.55-8.21-38.55-8.68,0-16.19,20.88-16.19,52.2,0,26.9,4.69,38.55,13.37,38.55,4.69,0,9.85-3.21,9.85-18.87v-.4c0-3.61,1.41-6.02,3.52-6.02h24.4c2.11,0,3.52,2.41,3.52,6.02v162.63c0,3.61-1.88,6.02-5.4,6.02h-26.74c-36.6,0-63.34-8.43-63.34-111.63Z"/>
  <path class="st0" d="M104.87,188.33C104.87,75.09,127.86,0,162.34,0s54.9,72.28,54.9,188.33c0,62.64-19.71,96.37-56.07,96.37s-56.3-34.53-56.3-96.37ZM175.01,96.37c0-30.92-5.63-54.21-12.67-54.21-8.92,0-14.78,22.49-14.78,54.21,0,16.46,5.87,27.31,14.78,27.31,7.27,0,12.67-10.84,12.67-27.31Z"/>
  <path class="st0" d="M226.62,277.07V8.03c0-3.61,1.41-6.02,3.52-6.02h33.78c1.88,0,3.28,1.2,3.99,4.82l22.29,105.21c.47,2.41,1.41,3.61,2.11,3.61.94,0,1.88-1.61,1.88-4.82V8.03c0-3.61,1.41-6.02,3.52-6.02h24.63c2.11,0,3.52,2.41,3.52,6.02v269.04c0,3.61-1.41,6.02-3.52,6.02h-33.78c-1.88,0-3.29-1.21-3.99-4.82l-22.29-115.25c-.47-2.41-1.41-3.61-2.11-3.61-.94,0-1.88,1.61-1.88,4.42v113.24c0,3.61-1.41,6.02-3.52,6.02h-24.63c-2.11,0-3.52-2.41-3.52-6.02Z"/>
  <path class="st0" d="M397.41,112.43c0,19.27,7.51,21.68,20.18,21.68,2.35,0,3.52,2.41,3.52,6.02v89.55c0,36.14-12.9,56.22-33.55,56.22s-32.38-19.68-32.38-55.01V51.4h-13.37c-2.11,0-3.52-2.41-3.52-6.02V8.03c0-3.61,1.41-6.02,3.52-6.02h76.01c2.11,0,3.52,2.41,3.52,6.02v37.34c0,3.61-1.41,6.02-3.52,6.02h-20.41v61.04Z"/>
  <path class="st0" d="M426.27,276.67L456.77,7.63c.47-3.61,2.11-5.62,4.22-5.62h49.97c2.35,0,3.75,1.61,4.22,5.22l31.44,269.44v1.61c0,3.21-1.41,4.82-3.52,4.82h-36.36c-2.35,0-3.75-1.61-3.99-5.62l-5.87-59.43c-.47-4.02-1.88-5.62-3.99-5.62h-20.65c-2.35,0-3.52,2.01-3.99,5.62l-7.74,59.43c-.47,3.61-1.64,5.62-3.99,5.62h-26.75c-2.58,0-3.99-2.01-3.52-6.42ZM490.78,137.73l-3.99-57.02c-.47-5.22-1.64-7.63-3.05-7.63-1.17,0-2.58,2.41-3.05,7.63l-4.69,57.02v.8c0,4.02,1.88,5.62,5.16,5.62h3.99c3.75,0,6.1-2.41,5.63-6.42Z"/>
  <path class="st0" d="M546.38,171.46c0-61.44,6.33-171.46,56.3-171.46,15.48,0,38.47,13.25,38.47,81.11v.4c0,3.61-1.41,6.02-3.52,6.02h-22.52c-2.11,0-3.52-2.41-3.52-6.02,0-28.91-2.11-38.55-8.21-38.55-8.68,0-16.19,20.88-16.19,52.2,0,26.9,4.69,38.55,13.37,38.55,4.69,0,9.85-3.21,9.85-18.87v-.4c0-3.61,1.41-6.02,3.52-6.02h24.4c2.11,0,3.52,2.41,3.52,6.02v162.63c0,3.61-1.88,6.02-5.4,6.02h-26.75c-36.6,0-63.34-8.43-63.34-111.63Z"/>
  <path class="st0" d="M706.38,112.43c0,19.27,7.51,21.68,20.18,21.68,2.35,0,3.52,2.41,3.52,6.02v89.55c0,36.14-12.9,56.22-33.55,56.22s-32.38-19.68-32.38-55.01V51.4h-13.37c-2.11,0-3.52-2.41-3.52-6.02V8.03c0-3.61,1.41-6.02,3.52-6.02h76.01c2.11,0,3.52,2.41,3.52,6.02v37.34c0,3.61-1.41,6.02-3.52,6.02h-20.41v61.04Z"/>
  <path class="st0" d="M739.7,188.33c0-113.24,22.99-188.33,57.48-188.33s54.9,72.28,54.9,188.33c0,62.64-19.71,96.37-56.07,96.37s-56.31-34.53-56.31-96.37ZM809.84,96.37c0-30.92-5.63-54.21-12.67-54.21-8.92,0-14.78,22.49-14.78,54.21,0,16.46,5.87,27.31,14.78,27.31,7.27,0,12.67-10.84,12.67-27.31Z"/>
</svg>