<?xml version="1.0" encoding="UTF-8"?>
<svg id="Ebene_1" xmlns="http://www.w3.org/2000/svg" version="1.1" viewBox="0 0 1755.27 590.85">
  <!-- Generator: Adobe Illustrator 30.5.0, SVG Export Plug-In . SVG Version: 2.1.4 Build 167)  -->
  <defs>
    <style>
      .st0 {
        fill: #b725e8;
      }

      .st1 {
        fill: #ff1200;
      }
    </style>
  </defs>
  <g>
    <path class="st0" d="M0,582.02v-269.04c0-3.61,1.41-6.02,3.52-6.02h33.78c1.88,0,3.28,1.2,3.99,4.82l22.29,105.21c.47,2.41,1.41,3.61,2.11,3.61.94,0,1.88-1.61,1.88-4.82v-102.8c0-3.61,1.41-6.02,3.52-6.02h24.63c2.11,0,3.52,2.41,3.52,6.02v269.04c0,3.61-1.41,6.02-3.52,6.02h-33.78c-1.88,0-3.28-1.21-3.99-4.82l-22.29-115.25c-.47-2.41-1.41-3.61-2.11-3.61-.94,0-1.88,1.61-1.88,4.42v113.24c0,3.61-1.41,6.02-3.52,6.02H3.52c-2.11,0-3.52-2.41-3.52-6.02Z"/>
    <path class="st0" d="M180.64,588.04h-34.96c-20.41,0-32.38-18.87-32.38-54.21v-220.85c0-3.61,2.11-6.02,5.4-6.02h60.06c3.28,0,5.4,2.41,5.4,6.02v29.31c0,3.61-2.11,6.02-5.4,6.02h-15.48c-3.05,0-5.16,2.41-5.16,6.02v16.87c0,3.61,2.11,6.02,5.16,6.02h10.32c3.05,0,5.16,2.41,5.16,6.02v29.31c0,3.61-2.11,6.02-5.16,6.02h-10.32c-3.05,0-5.16,1.61-5.16,2.01v12.45c0,3.61,2.11,6.02,5.16,6.02h17.36c3.05,0,5.16,2.41,5.16,6.02v136.93c0,3.61-2.11,6.02-5.16,6.02Z"/>
    <path class="st0" d="M199.88,497.29v-184.31c0-3.61,1.41-6.02,3.52-6.02h37.77c2.11,0,3.52,2.41,3.52,6.02v98.38c0,20.88,0,31.32,9.15,31.32s9.15-10.44,9.15-31.32v-98.38c0-3.61,1.41-6.02,3.52-6.02h37.54c2.11,0,3.52,2.41,3.52,6.02v184.31c0,42.97-6.33,92.76-53.49,92.76s-54.19-49.79-54.19-92.76Z"/>
    <path class="st0" d="M321.63,533.83v-220.85c0-3.61,1.41-6.02,3.52-6.02h37.77c2.11,0,3.52,2.41,3.52,6.02v120.06c0,3.61,1.41,6.02,3.52,6.02h17.83c2.11,0,3.52,2.41,3.52,6.02v136.93c0,3.61-1.41,6.02-3.52,6.02h-33.78c-20.41,0-32.38-18.87-32.38-54.21Z"/>
    <path class="st0" d="M404.21,582.02v-269.04c0-3.61,1.41-6.02,3.52-6.02h36.83c2.11,0,3.52,2.41,3.52,6.02v269.04c0,3.61-1.41,6.02-3.52,6.02h-36.83c-2.11,0-3.52-2.41-3.52-6.02Z"/>
    <path class="st0" d="M458.64,476.41c0-61.44,6.33-171.46,56.31-171.46,15.48,0,38.47,13.25,38.47,81.11v.4c0,3.61-1.41,6.02-3.52,6.02h-22.52c-2.11,0-3.52-2.41-3.52-6.02,0-28.91-2.11-38.55-8.21-38.55-8.68,0-16.19,20.88-16.19,52.2,0,26.9,4.69,38.55,13.37,38.55,4.69,0,9.85-3.21,9.85-18.87v-.4c0-3.61,1.41-6.02,3.52-6.02h24.4c2.11,0,3.52,2.41,3.52,6.02v162.63c0,3.61-1.88,6.02-5.4,6.02h-26.74c-36.6,0-63.34-8.43-63.34-111.63Z"/>
    <path class="st0" d="M568.2,582.02v-269.04c0-3.61,2.11-6.02,5.4-6.02h33.78c3.05,0,5.63,2.41,5.63,6.02v57.82c0,3.61,1.64,6.02,4.93,6.02h7.74c3.05,0,5.16-2.41,5.16-6.02v-57.82c0-3.61,2.11-6.02,5.4-6.02h33.78c3.05,0,5.16,2.41,5.63,6.02v269.04c0,3.61-2.11,6.02-5.4,6.02h-34.02c-3.28,0-5.4-2.41-5.4-6.02v-157.41c0-3.61-2.11-6.02-5.16-6.02h-7.74c-3.28,0-4.93,2.41-4.93,6.02v157.41c0,3.61-2.11,6.02-5.4,6.02h-33.31c-3.28,0-6.1-2.41-6.1-6.02Z"/>
    <path class="st0" d="M738.98,582.02v-269.04c0-3.61,1.41-6.02,3.52-6.02h47.86c26.75,0,40.12,15.26,40.12,44.97,0,15.66-5.16,31.72-13.61,40.56-1.17,1.2-1.88,2.41-1.88,3.21s.7,1.61,2.11,2.81c16.66,16.86,23.23,54.61,23.23,90.35,0,53.41-10.56,99.18-51.38,99.18h-46.45c-2.11,0-3.52-2.41-3.52-6.02ZM785.43,381.65c4.93,0,13.84-7.23,13.84-19.27,0-11.24-8.21-16.46-13.14-16.46-2.11,0-3.75.8-3.75,2.81v29.71c0,2.01,1.17,3.21,3.05,3.21ZM785.67,449.11c5.63,0,16.66-6.83,16.66-20.88,0-12.85-9.62-18.87-15.48-18.87-2.58,0-4.46,1.2-4.46,3.61v33.73c0,1.61,1.17,2.41,3.28,2.41Z"/>
    <path class="st0" d="M850.89,582.02v-269.04c0-3.61,1.41-6.02,3.52-6.02h36.83c2.11,0,3.52,2.41,3.52,6.02v269.04c0,3.61-1.41,6.02-3.52,6.02h-36.83c-2.11,0-3.52-2.41-3.52-6.02Z"/>
    <path class="st0" d="M976.16,588.04h-34.96c-20.41,0-32.38-18.87-32.38-54.21v-220.85c0-3.61,2.11-6.02,5.4-6.02h60.06c3.29,0,5.4,2.41,5.4,6.02v29.31c0,3.61-2.11,6.02-5.4,6.02h-15.48c-3.05,0-5.16,2.41-5.16,6.02v16.87c0,3.61,2.11,6.02,5.16,6.02h10.32c3.05,0,5.16,2.41,5.16,6.02v29.31c0,3.61-2.11,6.02-5.16,6.02h-10.32c-3.05,0-5.16,1.61-5.16,2.01v12.45c0,3.61,2.11,6.02,5.16,6.02h17.36c3.05,0,5.16,2.41,5.16,6.02v136.93c0,3.61-2.11,6.02-5.16,6.02Z"/>
    <path class="st0" d="M995.4,582.02v-269.44c0-3.61,1.41-6.02,3.52-6.02h42.7c45.28,0,61.94,26.9,61.94,66.26s-16.66,58.63-29.33,64.25c-1.88.8-2.58,2.01-2.58,2.81s.94,1.61,3.05,2.41c18.53,7.63,26.04,15.66,26.04,38.55v101.19c0,3.61-1.41,6.02-3.52,6.02h-36.6c-2.11,0-3.52-2.41-3.52-6.02v-103.6c0-12.45-6.1-15.66-11.26-15.66-3.52,0-5.63,1.61-5.63,5.62v113.64c0,3.61-1.41,6.02-3.52,6.02h-37.77c-2.11,0-3.52-2.41-3.52-6.02ZM1043.02,410.16c6.1,0,19.24-8.43,19.24-32.93,0-21.28-11.73-28.11-18.06-28.11-2.35,0-3.99.8-3.99,2.41v56.62c0,1.21,1.17,2.01,2.82,2.01Z"/>
    <path class="st0" d="M1111.99,467.98c0-81.11,14.08-163.03,60.53-163.03,30.73,0,46.45,34.93,46.45,67.06,0,6.02-2.11,6.02-5.16,6.02h-19.71c-3.28,0-5.4,0-5.4-6.02,0-15.26-7.04-24.09-15.48-24.09-15.72,0-19.24,32.12-19.24,55.41,0,37.34,7.74,48.59,19.94,48.59,6.1,0,15.25-1.2,15.25-19.68,0-3.61-2.11-6.02-5.4-6.02h-10.79c-3.28,0-3.52-.8-3.52-6.02v-19.68c0-3.61,2.11-6.02,5.16-6.02h40.82c3.28,0,5.4,2.41,5.4,6.02v181.5c0,3.61-2.11,6.02-5.4,6.02h-11.96c-3.05,0-5.16-2.41-5.16-6.02v-2.81c0-8.03-9.15,9.64-35.19,9.64-37.07,0-51.14-36.14-51.14-120.87Z"/>
    <path class="st0" d="M1229.76,581.62l30.5-269.04c.47-3.61,2.11-5.62,4.22-5.62h49.97c2.35,0,3.75,1.61,4.22,5.22l31.44,269.44v1.61c0,3.21-1.41,4.82-3.52,4.82h-36.36c-2.35,0-3.75-1.61-3.99-5.62l-5.87-59.43c-.47-4.02-1.88-5.62-3.99-5.62h-20.64c-2.35,0-3.52,2.01-3.99,5.62l-7.74,59.43c-.47,3.61-1.64,5.62-3.99,5.62h-26.75c-2.58,0-3.99-2.01-3.52-6.42ZM1294.28,442.68l-3.99-57.02c-.47-5.22-1.64-7.63-3.05-7.63-1.17,0-2.58,2.41-3.05,7.63l-4.69,57.02v.8c0,4.02,1.88,5.62,5.16,5.62h3.99c3.75,0,6.1-2.41,5.63-6.42Z"/>
    <path class="st0" d="M1359.26,582.02v-269.44c0-3.61,1.41-6.02,3.52-6.02h42.7c45.28,0,61.94,26.9,61.94,66.26s-16.66,58.63-29.33,64.25c-1.88.8-2.58,2.01-2.58,2.81s.94,1.61,3.05,2.41c18.53,7.63,26.04,15.66,26.04,38.55v101.19c0,3.61-1.41,6.02-3.52,6.02h-36.6c-2.11,0-3.52-2.41-3.52-6.02v-103.6c0-12.45-6.1-15.66-11.26-15.66-3.52,0-5.63,1.61-5.63,5.62v113.64c0,3.61-1.41,6.02-3.52,6.02h-37.77c-2.11,0-3.52-2.41-3.52-6.02ZM1406.89,410.16c6.1,0,19.24-8.43,19.24-32.93,0-21.28-11.73-28.11-18.06-28.11-2.35,0-3.99.8-3.99,2.41v56.62c0,1.21,1.17,2.01,2.82,2.01Z"/>
    <path class="st0" d="M1531.46,417.38c0,19.27,7.51,21.68,20.18,21.68,2.35,0,3.52,2.41,3.52,6.02v89.55c0,36.14-12.9,56.22-33.55,56.22s-32.38-19.68-32.38-55.01v-179.49h-13.37c-2.11,0-3.52-2.41-3.52-6.02v-37.34c0-3.61,1.41-6.02,3.52-6.02h76.01c2.11,0,3.52,2.41,3.52,6.02v37.34c0,3.61-1.41,6.02-3.52,6.02h-20.41v61.04Z"/>
    <path class="st0" d="M1636.79,588.04h-34.96c-20.41,0-32.38-18.87-32.38-54.21v-220.85c0-3.61,2.11-6.02,5.4-6.02h60.06c3.29,0,5.4,2.41,5.4,6.02v29.31c0,3.61-2.11,6.02-5.4,6.02h-15.48c-3.05,0-5.16,2.41-5.16,6.02v16.87c0,3.61,2.11,6.02,5.16,6.02h10.32c3.05,0,5.16,2.41,5.16,6.02v29.31c0,3.61-2.11,6.02-5.16,6.02h-10.32c-3.05,0-5.16,1.61-5.16,2.01v12.45c0,3.61,2.11,6.02,5.16,6.02h17.36c3.05,0,5.16,2.41,5.16,6.02v136.93c0,3.61-2.11,6.02-5.16,6.02Z"/>
    <path class="st0" d="M1656.03,582.02v-269.04c0-3.61,1.41-6.02,3.52-6.02h33.78c1.88,0,3.29,1.2,3.99,4.82l22.29,105.21c.47,2.41,1.41,3.61,2.11,3.61.94,0,1.88-1.61,1.88-4.82v-102.8c0-3.61,1.41-6.02,3.52-6.02h24.63c2.11,0,3.52,2.41,3.52,6.02v269.04c0,3.61-1.41,6.02-3.52,6.02h-33.78c-1.88,0-3.28-1.21-3.99-4.82l-22.29-115.25c-.47-2.41-1.41-3.61-2.11-3.61-.94,0-1.88,1.61-1.88,4.42v113.24c0,3.61-1.41,6.02-3.52,6.02h-24.63c-2.11,0-3.52-2.41-3.52-6.02Z"/>
  </g>
  <g>
    <path class="st1" d="M92.66,189.93C92.66,114.84,103.92,1.61,149.91,1.61s54.9,113.24,54.9,188.33c0,42.97-8.68,95.17-55.84,95.17s-56.31-52.2-56.31-95.17ZM162.57,97.98c0-20.88-3.05-54.21-12.67-54.21-11.5,0-14.78,33.33-14.78,54.21,0,12.85,3.99,27.31,14.78,27.31,9.15,0,12.67-14.46,12.67-27.31Z"/>
    <path class="st1" d="M218.64,278.68v-137.73c0-3.61,1.41-6.02,3.52-6.02h29.79c11.5,0,21.58-1.2,21.58-15.26,0-5.62-4.93-10.84-14.08-10.84h-7.51c-2.11,0-3.52-2.41-3.52-6.02v-16.06c0-3.61,1.41-6.02,3.52-6.02h1.88c12.9,0,19.71-14.05,19.71-26.5,0-9.64-4.22-18.07-12.67-18.07s-13.37,8.03-13.37,26.5c0,3.61-1.41,6.02-3.52,6.02h-23.93c-2.11,0-3.52-2.41-3.52-6.02v-.4c0-42.56,21.82-61.04,43.87-61.04s46.22,19.68,46.22,55.41c0,13.25-4.22,26.5-14.55,34.94-1.41.8-2.11,1.61-2.11,2.41s.7,1.61,2.11,2.41c15.95,8.83,32.84,35.74,32.84,85.93,0,42.97-21.11,102.4-68.27,102.4h-34.49c-2.11,0-3.52-2.41-3.52-6.02Z"/>
    <path class="st1" d="M334.77,176.68v-44.17c0-3.61,1.41-6.02,3.52-6.02h55.37c2.11,0,3.52,2.41,3.52,6.02v44.17c0,3.61-1.41,6.02-3.52,6.02h-55.37c-2.11,0-3.52-2.41-3.52-6.02Z"/>
    <path class="st1" d="M407.49,189.93c0-75.09,11.26-188.33,57.24-188.33s54.9,113.24,54.9,188.33c0,42.97-8.68,95.17-55.84,95.17s-56.31-52.2-56.31-95.17ZM477.41,97.98c0-20.88-3.05-54.21-12.67-54.21-11.5,0-14.78,33.33-14.78,54.21,0,12.85,3.99,27.31,14.78,27.31,9.15,0,12.67-14.46,12.67-27.31Z"/>
    <path class="st1" d="M531.36,278.68v-137.73c0-3.61,1.41-6.02,3.52-6.02,26.28,0,34.25-4.42,34.49-20.08,0-10.44-6.8-20.08-32.84-20.08h-1.64c-2.11,0-3.52-2.41-3.52-6.02V9.64c0-3.61,1.41-6.02,3.52-6.02h82.35c2.11,0,3.52,2.41,3.52,6.02v33.33c0,3.61-1.41,6.02-3.52,6.02h-41.29c-2.11,0-3.52,2.41-3.52,6.02v14.05c0,3.61,1.17,5.62,3.52,6.02,41.29,2.01,61.7,45.78,61.7,107.21,0,42.97-21.11,102.4-68.27,102.4h-34.49c-2.11,0-3.52-2.41-3.52-6.02Z"/>
    <path class="st1" d="M698.87,232.9v-118.86c0-3.61,1.41-6.02,3.52-6.02h11.26c2.11,0,3.52,2.41,3.52,6.02,0,16.06.7,27.71,9.15,27.71,8.92,0,9.15-12.05,9.15-32.93V9.64c0-3.61,1.41-6.02,3.52-6.02h36.6c2.11,0,3.52,2.41,3.52,6.02v214.03c0,40.96-14.31,63.85-40.12,63.85s-40.12-21.28-40.12-54.61Z"/>
    <path class="st1" d="M793.17,193.95V9.64c0-3.61,1.41-6.02,3.52-6.02h37.77c2.11,0,3.52,2.41,3.52,6.02v98.38c0,20.88,0,31.32,9.15,31.32s9.15-10.44,9.15-31.32V9.64c0-3.61,1.41-6.02,3.52-6.02h37.54c2.11,0,3.52,2.41,3.52,6.02v184.31c0,42.97-6.33,92.76-53.49,92.76s-54.19-49.79-54.19-92.76Z"/>
    <path class="st1" d="M914.93,230.49V9.64c0-3.61,1.41-6.02,3.52-6.02h37.77c2.11,0,3.52,2.41,3.52,6.02v120.06c0,3.61,1.41,6.02,3.52,6.02h17.83c2.11,0,3.52,2.41,3.52,6.02v136.93c0,3.61-1.41,6.02-3.52,6.02h-33.78c-20.41,0-32.38-18.87-32.38-54.21Z"/>
    <path class="st1" d="M997.51,278.68V9.64c0-3.61,1.41-6.02,3.52-6.02h36.83c2.11,0,3.52,2.41,3.52,6.02v269.04c0,3.61-1.41,6.02-3.52,6.02h-36.83c-2.11,0-3.52-2.41-3.52-6.02Z"/>
    <path class="st1" d="M1050.76,189.93c0-113.24,22.99-188.33,57.48-188.33s54.9,72.28,54.9,188.33c0,62.64-19.71,96.37-56.07,96.37s-56.31-34.53-56.31-96.37ZM1120.91,97.98c0-30.92-5.63-54.21-12.67-54.21-8.92,0-14.78,22.49-14.78,54.21,0,16.46,5.87,27.31,14.78,27.31,7.27,0,12.67-10.84,12.67-27.31Z"/>
    <path class="st1" d="M1221.55,278.68v-79.11c0-100.39,59.12-89.55,59.12-142.95,0-7.63-1.88-18.07-11.96-18.07-11.96,0-13.37,16.06-13.37,34.53,0,3.61-1.41,6.02-3.52,6.02h-23.93c-2.11,0-3.52-2.41-3.52-6.02v-.4c0-53.81,13.61-72.68,46.69-72.68,35.19,0,43.4,28.51,43.4,53.81,0,12.45-3.99,30.12-16.66,45.38-9.38,11.24-14.08,19.27-14.08,24.9,0,7.63,8.92,10.84,28.15,10.84,2.11,0,3.52,2.41,3.52,6.02v137.73c0,3.61-1.41,6.02-3.52,6.02h-86.8c-2.11,0-3.52-2.41-3.52-6.02Z"/>
    <path class="st1" d="M1326.89,189.93c0-75.09,11.26-188.33,57.24-188.33s54.9,113.24,54.9,188.33c0,42.97-8.68,95.17-55.84,95.17s-56.3-52.2-56.3-95.17ZM1396.8,97.98c0-20.88-3.05-54.21-12.67-54.21-11.5,0-14.78,33.33-14.78,54.21,0,12.85,3.99,27.31,14.78,27.31,9.15,0,12.67-14.46,12.67-27.31Z"/>
    <path class="st1" d="M1448.41,278.68v-79.11c0-100.39,59.12-89.55,59.12-142.95,0-7.63-1.88-18.07-11.96-18.07-11.96,0-13.37,16.06-13.37,34.53,0,3.61-1.41,6.02-3.52,6.02h-23.93c-2.11,0-3.52-2.41-3.52-6.02v-.4c0-53.81,13.61-72.68,46.69-72.68,35.19,0,43.4,28.51,43.4,53.81,0,12.45-3.99,30.12-16.66,45.38-9.38,11.24-14.08,19.27-14.08,24.9,0,7.63,8.92,10.84,28.15,10.84,2.11,0,3.52,2.41,3.52,6.02v137.73c0,3.61-1.41,6.02-3.52,6.02h-86.8c-2.11,0-3.52-2.41-3.52-6.02Z"/>
    <path class="st1" d="M1553.98,161.82c0-111.63,13.14-160.62,54.19-160.62,33.08,0,45.75,14.86,46.92,69.47v.4c0,3.61-1.41,6.02-3.52,6.02h-23.93c-2.11,0-3.52-2.41-3.52-6.02,0-18.47-1.41-31.32-13.37-31.32-10.32,0-14.78,12.05-16.19,20.08-2.81,18.07-2.11,25.3-2.11,30.12,0,0,7.74-4.82,15.72-4.82,40.12,0,54.19,34.13,54.19,100.39s-17.13,101.59-54.19,101.59-54.19-56.62-54.19-125.28ZM1620.84,130.91c0-10.04-2.35-21.28-12.67-21.28s-12.67,11.24-12.67,21.28c0,12.85,4.69,18.47,12.67,18.47,6.1,0,12.67-5.62,12.67-18.47Z"/>
  </g>
</svg>