<?xml version="1.0" encoding="utf-8"?>
<!-- Generator: Adobe Illustrator 27.8.0, SVG Export Plug-In . SVG Version: 6.00 Build 0)  -->
<svg version="1.1" id="Ebene_1" xmlns="http://www.w3.org/2000/svg" xmlns:xlink="http://www.w3.org/1999/xlink" x="0px" y="0px"
	 viewBox="400 1050 330 100" style="enable-background:new 0 0 1125 2436;" xml:space="preserve">
<style type="text/css">
	.st0{fill:#F6DEA9;}
	.st1{fill:#B725E8;}
</style>
<path class="st0" d="M676.22,1116.25c-4.23,5.67-16.83,12.57-23.61,14.81c-46.05,15.21-142.92,15.39-187.8-4.17
	c-23.11-10.06-36.58-28-10.7-45.81c42.67-29.37,143.66-29.47,190.66-9.47C660.38,1078.26,691.48,1095.83,676.22,1116.25z
	 M508.99,1099.61c14.59,11.09,65.24,12.64,83.13,9.37c29.63-5.42,37.34-20.41,4.15-29.52c-21.77-5.98-46.35-6.03-68.25-0.69
	C519.1,1080.94,493.38,1087.75,508.99,1099.61z"/>
<path class="st1" d="M553.05,1092.06c2.09,1.31,14.22,1.61,16.75,0.45C577.77,1081.15,542.28,1085.32,553.05,1092.06z"/>
<path class="st0" d="M553.05,1092.06c-10.77-6.74,24.72-10.9,16.75,0.45C567.27,1093.67,555.14,1093.37,553.05,1092.06z"/>
</svg>
