<?xml version="1.0" encoding="UTF-8"?>
<svg id="Ebene_1" xmlns="http://www.w3.org/2000/svg" version="1.1" viewBox="0 0 2733.28 558.7">
  <!-- Generator: Adobe Illustrator 30.5.1, SVG Export Plug-In . SVG Version: 2.1.4 Build 3)  -->
  <defs>
    <style>
      .st0 {
        fill: #ff1200;
      }
    </style>
  </defs>
  <path class="st0" d="M0,543.73V15.76C0,8.67,4.14,3.94,10.59,3.94h124.77c6.44,0,10.59,4.73,10.59,11.82v57.52c0,7.09-4.15,11.82-10.59,11.82h-37.29c-5.98,0-10.13,4.73-10.13,11.82v33.1c0,7.09,4.14,11.82,10.13,11.82h27.16c5.99,0,10.13,4.73,10.13,11.82v57.52c0,7.09-4.14,11.82-10.13,11.82h-27.16c-5.98,0-10.13,4.73-10.13,11.82v308.9c0,7.09-4.15,11.82-10.59,11.82H10.59c-6.45,0-10.59-4.73-10.59-11.82Z"/>
  <path class="st0" d="M167.12,543.73V15.76c0-7.09,2.76-11.82,6.91-11.82h72.28c4.14,0,6.9,4.73,6.9,11.82v527.97c0,7.09-2.76,11.82-6.9,11.82h-72.28c-4.14,0-6.91-4.73-6.91-11.82Z"/>
  <path class="st0" d="M280.83,543.73V15.76c0-7.09,2.76-11.82,6.91-11.82h66.3c3.68,0,6.44,2.36,7.83,9.46l43.74,206.46c.92,4.73,2.76,7.09,4.14,7.09,1.84,0,3.68-3.15,3.68-9.46V15.76c0-7.09,2.76-11.82,6.91-11.82h48.34c4.14,0,6.91,4.73,6.91,11.82v527.97c0,7.09-2.76,11.82-6.91,11.82h-66.3c-3.68,0-6.44-2.36-7.83-9.46l-43.74-226.16c-.92-4.73-2.76-7.09-4.14-7.09-1.84,0-3.68,3.15-3.68,8.67v222.22c0,7.09-2.76,11.82-6.91,11.82h-48.34c-4.14,0-6.91-4.73-6.91-11.82Z"/>
  <path class="st0" d="M493.06,542.94L552.91,14.97c.92-7.09,4.14-11.03,8.29-11.03h98.06c4.61,0,7.37,3.15,8.29,10.24l61.69,528.75v3.15c0,6.3-2.76,9.46-6.91,9.46h-71.36c-4.6,0-7.37-3.15-7.83-11.03l-11.51-116.62c-.92-7.88-3.68-11.03-7.83-11.03h-40.51c-4.6,0-6.91,3.94-7.83,11.03l-15.19,116.62c-.92,7.09-3.22,11.03-7.83,11.03h-52.48c-5.07,0-7.83-3.94-6.91-12.61ZM619.67,270.29l-7.83-111.9c-.92-10.24-3.22-14.97-5.98-14.97-2.3,0-5.07,4.73-5.99,14.97l-9.21,111.9v1.58c0,7.88,3.68,11.03,10.13,11.03h7.83c7.37,0,11.97-4.73,11.05-12.61Z"/>
  <path class="st0" d="M747.19,543.73V15.76c0-7.09,2.76-11.82,6.91-11.82h66.3c3.68,0,6.44,2.36,7.82,9.46l43.74,206.46c.92,4.73,2.76,7.09,4.14,7.09,1.84,0,3.68-3.15,3.68-9.46V15.76c0-7.09,2.76-11.82,6.9-11.82h48.34c4.14,0,6.9,4.73,6.9,11.82v527.97c0,7.09-2.76,11.82-6.9,11.82h-66.3c-3.68,0-6.44-2.36-7.83-9.46l-43.74-226.16c-.92-4.73-2.76-7.09-4.14-7.09-1.84,0-3.68,3.15-3.68,8.67v222.22c0,7.09-2.76,11.82-6.91,11.82h-48.34c-4.14,0-6.91-4.73-6.91-11.82Z"/>
  <path class="st0" d="M962.65,336.48c0-120.57,12.43-336.48,110.49-336.48,30.38,0,75.5,26,75.5,159.18v.79c0,7.09-2.76,11.82-6.9,11.82h-44.2c-4.14,0-6.9-4.73-6.9-11.82,0-56.74-4.14-75.65-16.12-75.65-17.03,0-31.77,40.98-31.77,102.44,0,52.8,9.21,75.65,26.24,75.65,9.21,0,19.34-6.3,19.34-37.04v-.79c0-7.09,2.76-11.82,6.9-11.82h47.88c4.15,0,6.91,4.73,6.91,11.82v319.14c0,7.09-3.68,11.82-10.59,11.82h-52.49c-71.82,0-124.3-16.55-124.3-219.07Z"/>
  <path class="st0" d="M1177.65,543.73V15.76c0-7.09,2.76-11.82,6.91-11.82h72.28c4.14,0,6.91,4.73,6.91,11.82v527.97c0,7.09-2.76,11.82-6.91,11.82h-72.28c-4.15,0-6.91-4.73-6.91-11.82Z"/>
  <path class="st0" d="M1281.23,542.94L1341.08,14.97c.92-7.09,4.14-11.03,8.29-11.03h98.06c4.61,0,7.37,3.15,8.29,10.24l61.69,528.75v3.15c0,6.3-2.76,9.46-6.9,9.46h-71.36c-4.6,0-7.36-3.15-7.83-11.03l-11.51-116.62c-.92-7.88-3.68-11.03-7.83-11.03h-40.51c-4.61,0-6.91,3.94-7.83,11.03l-15.19,116.62c-.92,7.09-3.22,11.03-7.83,11.03h-52.49c-5.06,0-7.83-3.94-6.9-12.61ZM1407.84,270.29l-7.83-111.9c-.92-10.24-3.22-14.97-5.98-14.97-2.3,0-5.06,4.73-5.98,14.97l-9.21,111.9v1.58c0,7.88,3.68,11.03,10.13,11.03h7.83c7.36,0,11.97-4.73,11.05-12.61Z"/>
  <path class="st0" d="M1535.36,543.73V15.76c0-7.09,2.76-11.82,6.91-11.82h71.36c95.3,0,118.78,143.42,118.78,281.32,0,124.51-9.21,270.29-119.7,270.29h-70.44c-4.15,0-6.91-4.73-6.91-11.82ZM1663.35,163.91c0-53.59-21.18-80.38-32.69-80.38-4.15,0-7.37,3.94-7.37,11.82v135.54c0,12.61,2.76,17.34,8.75,17.34,21.64-.79,31.31-51.22,31.31-84.32Z"/>
  <path class="st0" d="M1743.91,369.58c0-222.22,45.12-369.58,112.8-369.58s107.73,141.84,107.73,369.58c0,122.93-38.67,189.12-110.03,189.12s-110.5-67.77-110.5-189.12ZM1881.57,189.12c0-60.68-11.05-106.38-24.86-106.38-17.5,0-29.01,44.13-29.01,106.38,0,32.31,11.51,53.58,29.01,53.58,14.27,0,24.86-21.28,24.86-53.58Z"/>
  <path class="st0" d="M2079.53,543.73V15.76c0-7.09,2.76-11.82,6.91-11.82h82.87c63.99,0,110.95,52.8,110.95,147.36,0,123.72-58.47,174.94-103.59,174.94-6.9,0-10.13,4.73-10.13,11.82v205.67c0,7.09-2.76,11.82-6.9,11.82h-73.2c-4.15,0-6.91-4.73-6.91-11.82ZM2170.68,226.95c10.59,0,37.29-22.06,37.29-74.86,0-42.55-24.4-68.56-35.91-68.56-3.22,0-5.53,2.36-5.53,7.09v132.39c0,2.36,1.84,3.94,4.14,3.94Z"/>
  <path class="st0" d="M2282.1,369.58c0-222.22,45.12-369.58,112.8-369.58s107.73,141.84,107.73,369.58c0,122.93-38.67,189.12-110.03,189.12s-110.5-67.77-110.5-189.12ZM2419.76,189.12c0-60.68-11.05-106.38-24.86-106.38-17.5,0-29.01,44.13-29.01,106.38,0,32.31,11.51,53.58,29.01,53.58,14.27,0,24.86-21.28,24.86-53.58Z"/>
  <path class="st0" d="M2521.04,543.73V14.97c0-7.09,2.76-11.82,6.91-11.82h83.79c88.85,0,121.54,52.8,121.54,130.02s-32.69,115.05-57.55,126.08c-3.68,1.58-5.07,3.94-5.07,5.52s1.84,3.15,5.98,4.73c36.37,14.97,51.1,30.73,51.1,75.65v198.58c0,7.09-2.76,11.82-6.9,11.82h-71.82c-4.14,0-6.9-4.73-6.9-11.82v-203.31c0-24.43-11.97-30.73-22.1-30.73-6.9,0-11.05,3.15-11.05,11.03v223.01c0,7.09-2.76,11.82-6.91,11.82h-74.12c-4.15,0-6.91-4.73-6.91-11.82ZM2614.5,206.46c11.97,0,37.75-16.55,37.75-64.62,0-41.76-23.02-55.16-35.45-55.16-4.61,0-7.83,1.58-7.83,4.73v111.11c0,2.36,2.3,3.94,5.53,3.94Z"/>
</svg>