<?xml version="1.0" encoding="UTF-8"?>
<svg id="Ebene_1" xmlns="http://www.w3.org/2000/svg" version="1.1" viewBox="0 0 2777.81 576.56">
  <!-- Generator: Adobe Illustrator 30.5.1, SVG Export Plug-In . SVG Version: 2.1.4 Build 3)  -->
  <defs>
    <style>
      .st0 {
        fill: #ff1200;
      }
    </style>
  </defs>
  <path class="st0" d="M0,355.75C0,209.99,25.3,62.78,108.77,62.78c55.23,0,83.47,62.78,83.47,120.51,0,10.82-3.79,10.82-9.27,10.82h-35.41c-5.9,0-9.7,0-9.7-10.82,0-27.42-12.65-43.3-27.82-43.3-28.25,0-34.57,57.73-34.57,99.58,0,67.11,13.91,87.31,35.84,87.31,10.96,0,27.4-2.16,27.4-35.36,0-6.49-3.8-10.82-9.7-10.82h-19.4c-5.9,0-6.32-1.44-6.32-10.82v-35.36c0-6.49,3.79-10.82,9.27-10.82h73.36c5.9,0,9.7,4.33,9.7,10.82v326.16c0,6.49-3.79,10.82-9.7,10.82h-21.5c-5.48,0-9.27-4.33-9.27-10.82v-5.05c0-14.43-16.44,17.32-63.24,17.32C25.3,572.95,0,508.01,0,355.75Z"/>
  <path class="st0" d="M341.91,571.51h-62.82c-36.68,0-58.18-33.92-58.18-97.42V77.21c0-6.49,3.79-10.82,9.7-10.82h107.93c5.9,0,9.7,4.33,9.7,10.82v52.68c0,6.49-3.79,10.82-9.7,10.82h-27.82c-5.48,0-9.28,4.33-9.28,10.82v30.31c0,6.49,3.79,10.82,9.28,10.82h18.55c5.48,0,9.27,4.33,9.27,10.82v52.68c0,6.49-3.79,10.82-9.27,10.82h-18.55c-5.48,0-9.28,2.89-9.28,3.61v22.37c0,6.49,3.79,10.82,9.28,10.82h31.2c5.48,0,9.27,4.33,9.27,10.82v246.07c0,6.49-3.79,10.82-9.27,10.82Z"/>
  <path class="st0" d="M376.47,560.69V77.21c0-6.49,3.79-10.82,9.7-10.82h114.25c5.9,0,9.7,4.33,9.7,10.82v52.68c0,6.49-3.8,10.82-9.7,10.82h-34.15c-5.48,0-9.27,4.33-9.27,10.82v30.31c0,6.49,3.79,10.82,9.27,10.82h24.87c5.48,0,9.28,4.33,9.28,10.82v52.68c0,6.49-3.79,10.82-9.28,10.82h-24.87c-5.48,0-9.27,4.33-9.27,10.82v282.87c0,6.49-3.8,10.82-9.7,10.82h-61.13c-5.9,0-9.7-4.33-9.7-10.82Z"/>
  <path class="st0" d="M506.74,401.21c0-203.49,41.32-338.43,103.29-338.43s98.65,129.89,98.65,338.43c0,112.57-35.41,173.19-100.76,173.19s-101.18-62.06-101.18-173.19ZM553.96,26.7c0-15.15,10.96-26.7,24.03-26.7s24.03,11.55,24.03,26.7-10.54,27.42-24.03,27.42-24.03-11.55-24.03-27.42ZM632.8,235.96c0-55.56-10.12-97.42-22.77-97.42-16.02,0-26.56,40.41-26.56,97.42,0,29.59,10.54,49.07,26.56,49.07,13.07,0,22.77-19.48,22.77-49.07ZM617.2,26.7c0-15.15,10.54-26.7,24.45-26.7,12.65,0,23.61,11.55,23.61,26.7s-10.96,27.42-23.61,27.42c-13.91,0-24.45-11.55-24.45-27.42Z"/>
  <path class="st0" d="M725.54,560.69V76.49c0-6.49,2.53-10.82,6.32-10.82h76.73c81.37,0,111.3,48.35,111.3,119.06s-29.93,105.35-52.7,115.46c-3.37,1.44-4.64,3.61-4.64,5.05s1.69,2.89,5.48,4.33c33.31,13.71,46.8,28.14,46.8,69.27v181.84c0,6.49-2.53,10.82-6.32,10.82h-65.77c-3.79,0-6.32-4.33-6.32-10.82v-186.17c0-22.37-10.96-28.14-20.24-28.14-6.32,0-10.12,2.89-10.12,10.1v204.21c0,6.49-2.53,10.82-6.32,10.82h-67.88c-3.79,0-6.32-4.33-6.32-10.82ZM811.13,251.84c10.96,0,34.57-15.15,34.57-59.17,0-38.25-21.08-50.51-32.46-50.51-4.22,0-7.17,1.44-7.17,4.33v101.75c0,2.16,2.11,3.61,5.06,3.61Z"/>
  <path class="st0" d="M940.13,560.69V77.21c0-6.49,2.53-10.82,6.32-10.82h65.35c87.27,0,108.77,131.33,108.77,257.61,0,114.01-8.43,247.51-109.61,247.51h-64.5c-3.8,0-6.32-4.33-6.32-10.82ZM1057.33,212.87c0-49.07-19.39-73.6-29.93-73.6-3.8,0-6.75,3.61-6.75,10.82v124.12c0,11.55,2.53,15.88,8.01,15.88,19.81-.72,28.67-46.9,28.67-77.21Z"/>
  <path class="st0" d="M1260.53,571.51h-62.82c-36.68,0-58.18-33.92-58.18-97.42V77.21c0-6.49,3.79-10.82,9.7-10.82h107.93c5.9,0,9.7,4.33,9.7,10.82v52.68c0,6.49-3.79,10.82-9.7,10.82h-27.82c-5.48,0-9.27,4.33-9.27,10.82v30.31c0,6.49,3.79,10.82,9.27,10.82h18.55c5.48,0,9.27,4.33,9.27,10.82v52.68c0,6.49-3.79,10.82-9.27,10.82h-18.55c-5.48,0-9.27,2.89-9.27,3.61v22.37c0,6.49,3.79,10.82,9.27,10.82h31.2c5.48,0,9.27,4.33,9.27,10.82v246.07c0,6.49-3.79,10.82-9.27,10.82Z"/>
  <path class="st0" d="M1295.1,560.69V76.49c0-6.49,2.53-10.82,6.32-10.82h76.73c81.37,0,111.3,48.35,111.3,119.06s-29.93,105.35-52.7,115.46c-3.37,1.44-4.64,3.61-4.64,5.05s1.69,2.89,5.48,4.33c33.31,13.71,46.8,28.14,46.8,69.27v181.84c0,6.49-2.53,10.82-6.32,10.82h-65.77c-3.79,0-6.32-4.33-6.32-10.82v-186.17c0-22.37-10.96-28.14-20.24-28.14-6.32,0-10.12,2.89-10.12,10.1v204.21c0,6.49-2.53,10.82-6.32,10.82h-67.88c-3.8,0-6.32-4.33-6.32-10.82ZM1380.68,251.84c10.96,0,34.57-15.15,34.57-59.17,0-38.25-21.08-50.51-32.46-50.51-4.22,0-7.17,1.44-7.17,4.33v101.75c0,2.16,2.11,3.61,5.06,3.61Z"/>
  <path class="st0" d="M1604.54,264.83c0,34.64,13.49,38.97,36.26,38.97,4.22,0,6.32,4.33,6.32,10.82v160.92c0,64.94-23.19,101.02-60.29,101.02s-58.18-35.36-58.18-98.86V155.15h-24.03c-3.79,0-6.32-4.33-6.32-10.82v-67.11c0-6.49,2.53-10.82,6.32-10.82h136.6c3.79,0,6.32,4.33,6.32,10.82v67.11c0,6.49-2.53,10.82-6.32,10.82h-36.68v109.68Z"/>
  <path class="st0" d="M1761.37,560.69V77.21c0-6.49,2.53-10.82,6.32-10.82h65.35c87.27,0,108.77,131.33,108.77,257.61,0,114.01-8.43,247.51-109.61,247.51h-64.5c-3.8,0-6.32-4.33-6.32-10.82ZM1878.57,212.87c0-49.07-19.39-73.6-29.93-73.6-3.8,0-6.75,3.61-6.75,10.82v124.12c0,11.55,2.53,15.88,8.01,15.88,19.81-.72,28.67-46.9,28.67-77.21Z"/>
  <path class="st0" d="M1960.78,408.43V77.21c0-6.49,2.53-10.82,6.32-10.82h67.88c3.79,0,6.32,4.33,6.32,10.82v176.79c0,37.52,0,56.28,16.44,56.28s16.44-18.76,16.44-56.28V77.21c0-6.49,2.53-10.82,6.32-10.82h67.45c3.79,0,6.32,4.33,6.32,10.82v331.22c0,77.21-11.38,166.69-96.12,166.69s-97.39-89.48-97.39-166.69Z"/>
  <path class="st0" d="M2179.58,560.69V76.49c0-6.49,2.53-10.82,6.32-10.82h76.73c81.37,0,111.3,48.35,111.3,119.06s-29.93,105.35-52.7,115.46c-3.37,1.44-4.64,3.61-4.64,5.05s1.69,2.89,5.48,4.33c33.31,13.71,46.8,28.14,46.8,69.27v181.84c0,6.49-2.53,10.82-6.32,10.82h-65.77c-3.79,0-6.32-4.33-6.32-10.82v-186.17c0-22.37-10.96-28.14-20.24-28.14-6.32,0-10.12,2.89-10.12,10.1v204.21c0,6.49-2.53,10.82-6.32,10.82h-67.88c-3.8,0-6.32-4.33-6.32-10.82ZM2265.17,251.84c10.96,0,34.57-15.15,34.57-59.17,0-38.25-21.08-50.51-32.46-50.51-4.22,0-7.17,1.44-7.17,4.33v101.75c0,2.16,2.11,3.61,5.06,3.61Z"/>
  <path class="st0" d="M2387.84,370.9c0-110.41,11.38-308.13,101.18-308.13,27.82,0,69.14,23.81,69.14,145.76v.72c0,6.49-2.53,10.82-6.32,10.82h-40.47c-3.79,0-6.32-4.33-6.32-10.82,0-51.96-3.79-69.27-14.76-69.27-15.6,0-29.09,37.52-29.09,93.81,0,48.35,8.43,69.27,24.03,69.27,8.43,0,17.71-5.77,17.71-33.91v-.72c0-6.49,2.53-10.82,6.32-10.82h43.85c3.8,0,6.32,4.33,6.32,10.82v292.25c0,6.49-3.37,10.82-9.7,10.82h-48.06c-65.77,0-113.83-15.15-113.83-200.61Z"/>
  <path class="st0" d="M2584.72,560.69V77.21c0-6.49,3.79-10.82,9.7-10.82h60.71c5.48,0,10.12,4.33,10.12,10.82v103.91c0,6.49,2.95,10.82,8.85,10.82h13.91c5.48,0,9.28-4.33,9.28-10.82v-103.91c0-6.49,3.79-10.82,9.7-10.82h60.71c5.48,0,9.27,4.33,10.12,10.82v483.47c0,6.49-3.79,10.82-9.7,10.82h-61.13c-5.9,0-9.7-4.33-9.7-10.82v-282.87c0-6.49-3.79-10.82-9.28-10.82h-13.91c-5.9,0-8.85,4.33-8.85,10.82v282.87c0,6.49-3.79,10.82-9.7,10.82h-59.87c-5.9,0-10.96-4.33-10.96-10.82Z"/>
</svg>