<?xml version="1.0" encoding="UTF-8"?>
<svg id="Ebene_1" xmlns="http://www.w3.org/2000/svg" version="1.1" viewBox="0 0 2788.95 513.27">
  <!-- Generator: Adobe Illustrator 30.5.1, SVG Export Plug-In . SVG Version: 2.1.4 Build 3)  -->
  <defs>
    <style>
      .st0 {
        fill: #ff1200;
      }
    </style>
  </defs>
  <path class="st0" d="M0,497.41V14.42C0,7.93,3.79,3.6,9.27,3.6h60.23c5.48,0,9.27,4.33,9.27,10.81v157.15c0,4.33,2.11,7.21,4.63,7.21,2.11,0,4.63-2.16,5.48-5.77L126.35,14.42c1.68-7.21,6.74-10.81,12.64-10.81h51.8c5.48,0,8,4.33,6.32,10.81l-55.6,207.61c-.84,2.88-1.26,5.77-1.26,7.93,0,2.88.84,5.05,3.37,5.05,23.16,0,45.49,18.02,45.49,59.83v202.57c0,6.49-3.79,10.81-9.27,10.81h-61.91c-5.9,0-9.27-4.33-9.27-10.81v-185.99c0-22.35-10.53-28.11-19.79-28.11-6.32,0-10.11,2.88-10.11,10.09v204.01c0,6.49-3.79,10.81-9.27,10.81H9.27c-5.48,0-9.27-4.33-9.27-10.81Z"/>
  <path class="st0" d="M208.9,338.1C208.9,134.81,250.18,0,312.09,0s98.55,129.76,98.55,338.1c0,112.46-35.38,173.01-100.66,173.01s-101.08-62-101.08-173.01ZM334.83,173.01c0-55.51-10.11-97.32-22.74-97.32-16,0-26.53,40.37-26.53,97.32,0,29.56,10.53,49.02,26.53,49.02,13.06,0,22.74-19.46,22.74-49.02Z"/>
  <path class="st0" d="M427.48,410.9V14.42c0-6.49,2.53-10.81,6.32-10.81h67.81c3.79,0,6.32,4.33,6.32,10.81v215.54c0,6.49,2.53,10.81,6.32,10.81h32.01c3.79,0,6.32,4.33,6.32,10.81v245.82c0,6.49-2.53,10.81-6.32,10.81h-60.65c-36.64,0-58.12-33.88-58.12-97.32Z"/>
  <path class="st0" d="M575.73,410.9V14.42c0-6.49,2.53-10.81,6.32-10.81h67.81c3.79,0,6.32,4.33,6.32,10.81v215.54c0,6.49,2.52,10.81,6.32,10.81h32.01c3.79,0,6.32,4.33,6.32,10.81v245.82c0,6.49-2.53,10.81-6.32,10.81h-60.65c-36.64,0-58.12-33.88-58.12-97.32Z"/>
  <path class="st0" d="M714.71,496.69L769.46,13.7c.85-6.49,3.79-10.09,7.58-10.09h89.71c4.21,0,6.74,2.88,7.58,9.37l56.43,483.71v2.88c0,5.77-2.52,8.65-6.31,8.65h-65.28c-4.21,0-6.74-2.88-7.16-10.09l-10.53-106.69c-.84-7.21-3.37-10.09-7.16-10.09h-37.06c-4.21,0-6.32,3.6-7.16,10.09l-13.9,106.69c-.84,6.49-2.95,10.09-7.16,10.09h-48.01c-4.63,0-7.16-3.6-6.32-11.53ZM830.53,247.26l-7.16-102.37c-.84-9.37-2.95-13.7-5.47-13.7-2.11,0-4.63,4.33-5.48,13.7l-8.42,102.37v1.44c0,7.21,3.37,10.09,9.27,10.09h7.16c6.74,0,10.95-4.33,10.11-11.53Z"/>
  <path class="st0" d="M947.2,497.41V14.42c0-6.49,2.53-10.81,6.32-10.81h85.92c48.01,0,72.02,27.39,72.02,80.74,0,28.11-9.27,56.95-24.43,72.81-2.1,2.16-3.37,4.33-3.37,5.77s1.27,2.88,3.79,5.05c29.91,30.28,41.7,98.04,41.7,162.2,0,95.88-18.95,178.06-92.24,178.06h-83.39c-3.79,0-6.32-4.33-6.32-10.81ZM1030.59,137.69c8.85,0,24.85-12.98,24.85-34.6,0-20.18-14.74-29.56-23.58-29.56-3.79,0-6.74,1.44-6.74,5.05v53.35c0,3.6,2.11,5.77,5.47,5.77ZM1031.01,258.8c10.11,0,29.9-12.25,29.9-37.49,0-23.07-17.27-33.88-27.8-33.88-4.63,0-8,2.16-8,6.49v60.55c0,2.88,2.11,4.33,5.9,4.33Z"/>
  <path class="st0" d="M1139.67,338.1c0-203.29,41.27-338.1,103.19-338.1s98.55,129.76,98.55,338.1c0,112.46-35.38,173.01-100.66,173.01s-101.08-62-101.08-173.01ZM1265.6,173.01c0-55.51-10.11-97.32-22.74-97.32-16.01,0-26.54,40.37-26.54,97.32,0,29.56,10.53,49.02,26.54,49.02,13.05,0,22.74-19.46,22.74-49.02Z"/>
  <path class="st0" d="M1358.25,497.41V13.7c0-6.49,2.53-10.81,6.32-10.81h76.65c81.29,0,111.19,48.3,111.19,118.95s-29.9,105.25-52.64,115.34c-3.37,1.44-4.64,3.6-4.64,5.05s1.69,2.88,5.48,4.33c33.27,13.7,46.75,28.11,46.75,69.2v181.66c0,6.49-2.53,10.81-6.32,10.81h-65.7c-3.79,0-6.32-4.33-6.32-10.81v-185.99c0-22.35-10.95-28.11-20.22-28.11-6.31,0-10.11,2.88-10.11,10.09v204.01c0,6.49-2.53,10.81-6.32,10.81h-67.81c-3.79,0-6.32-4.33-6.32-10.81ZM1443.75,188.87c10.95,0,34.54-15.14,34.54-59.11,0-38.21-21.06-50.46-32.43-50.46-4.21,0-7.16,1.44-7.16,4.33v101.64c0,2.16,2.1,3.6,5.05,3.6Z"/>
  <path class="st0" d="M1563.35,496.69l54.75-482.99c.85-6.49,3.79-10.09,7.58-10.09h89.71c4.21,0,6.74,2.88,7.58,9.37l56.43,483.71v2.88c0,5.77-2.52,8.65-6.31,8.65h-65.28c-4.21,0-6.74-2.88-7.16-10.09l-10.53-106.69c-.84-7.21-3.37-10.09-7.16-10.09h-37.06c-4.21,0-6.32,3.6-7.16,10.09l-13.9,106.69c-.84,6.49-2.95,10.09-7.16,10.09h-48.01c-4.63,0-7.16-3.6-6.32-11.53ZM1679.18,247.26l-7.16-102.37c-.84-9.37-2.95-13.7-5.47-13.7-2.11,0-4.63,4.33-5.48,13.7l-8.42,102.37v1.44c0,7.21,3.37,10.09,9.27,10.09h7.16c6.74,0,10.95-4.33,10.11-11.53Z"/>
  <path class="st0" d="M1869.55,201.85c0,34.6,13.48,38.93,36.22,38.93,4.21,0,6.32,4.33,6.32,10.81v160.76c0,64.88-23.17,100.92-60.23,100.92s-58.12-35.32-58.12-98.76V92.27h-24.01c-3.79,0-6.32-4.33-6.32-10.81V14.42c0-6.49,2.53-10.81,6.32-10.81h136.46c3.79,0,6.32,4.33,6.32,10.81v67.04c0,6.49-2.53,10.81-6.32,10.81h-36.64v109.57Z"/>
  <path class="st0" d="M1937.78,497.41V14.42c0-6.49,2.52-10.81,6.32-10.81h66.12c3.79,0,6.32,4.33,6.32,10.81v482.99c0,6.49-2.53,10.81-6.32,10.81h-66.12c-3.79,0-6.32-4.33-6.32-10.81Z"/>
  <path class="st0" d="M2033.38,338.1c0-203.29,41.28-338.1,103.19-338.1s98.56,129.76,98.56,338.1c0,112.46-35.38,173.01-100.66,173.01s-101.08-62-101.08-173.01ZM2159.31,173.01c0-55.51-10.11-97.32-22.74-97.32-16,0-26.53,40.37-26.53,97.32,0,29.56,10.53,49.02,26.53,49.02,13.06,0,22.74-19.46,22.74-49.02Z"/>
  <path class="st0" d="M2251.96,497.41V14.42c0-6.49,2.52-10.81,6.32-10.81h60.65c3.37,0,5.9,2.16,7.16,8.65l40.01,188.87c.84,4.33,2.52,6.49,3.79,6.49,1.68,0,3.37-2.88,3.37-8.65V14.42c0-6.49,2.52-10.81,6.31-10.81h44.23c3.79,0,6.31,4.33,6.31,10.81v482.99c0,6.49-2.52,10.81-6.31,10.81h-60.65c-3.37,0-5.9-2.16-7.16-8.65l-40.01-206.89c-.85-4.33-2.53-6.49-3.79-6.49-1.69,0-3.37,2.88-3.37,7.93v203.29c0,6.49-2.53,10.81-6.32,10.81h-44.22c-3.79,0-6.32-4.33-6.32-10.81Z"/>
  <path class="st0" d="M2576.26,508.22h-62.76c-36.64,0-58.12-33.88-58.12-97.32V14.42c0-6.49,3.79-10.81,9.69-10.81h107.82c5.9,0,9.69,4.33,9.69,10.81v52.62c0,6.49-3.79,10.81-9.69,10.81h-27.8c-5.47,0-9.26,4.33-9.26,10.81v30.28c0,6.49,3.79,10.81,9.26,10.81h18.53c5.48,0,9.27,4.33,9.27,10.81v52.62c0,6.49-3.79,10.81-9.27,10.81h-18.53c-5.47,0-9.26,2.88-9.26,3.6v22.35c0,6.49,3.79,10.81,9.26,10.81h31.17c5.47,0,9.26,4.33,9.26,10.81v245.82c0,6.49-3.79,10.81-9.26,10.81Z"/>
  <path class="st0" d="M2610.79,497.41V14.42c0-6.49,2.52-10.81,6.32-10.81h60.65c3.37,0,5.9,2.16,7.16,8.65l40.01,188.87c.84,4.33,2.52,6.49,3.79,6.49,1.68,0,3.37-2.88,3.37-8.65V14.42c0-6.49,2.52-10.81,6.31-10.81h44.23c3.79,0,6.31,4.33,6.31,10.81v482.99c0,6.49-2.52,10.81-6.31,10.81h-60.65c-3.37,0-5.9-2.16-7.16-8.65l-40.01-206.89c-.85-4.33-2.53-6.49-3.79-6.49-1.69,0-3.37,2.88-3.37,7.93v203.29c0,6.49-2.53,10.81-6.32,10.81h-44.22c-3.79,0-6.32-4.33-6.32-10.81Z"/>
</svg>