<?xml version="1.0" encoding="UTF-8"?>
<svg id="Ebene_1" xmlns="http://www.w3.org/2000/svg" version="1.1" viewBox="0 0 475.88 98.75">
  <!-- Generator: Adobe Illustrator 29.6.0, SVG Export Plug-In . SVG Version: 2.1.1 Build 207)  -->
  <defs>
    <style>
      .st0 {
        fill: #db1906;
      }
    </style>
  </defs>
  <path class="st0" d="M68.87,83.67V14.21c0-.93.93-1.56,2.28-1.56h14.82c1.35,0,2.28.62,2.28,1.56v22.6c0,.62.52,1.04,1.14,1.04.52,0,1.14-.31,1.35-.83l9.23-22.81c.41-1.04,1.66-1.56,3.11-1.56h12.75c1.35,0,1.97.62,1.55,1.56l-13.68,29.86c-.21.41-.31.83-.31,1.14,0,.42.21.73.83.73,5.7,0,11.2,2.59,11.2,8.6v29.13c0,.93-.93,1.55-2.28,1.55h-15.24c-1.45,0-2.28-.62-2.28-1.55v-26.75c0-3.21-2.59-4.04-4.87-4.04-1.56,0-2.49.42-2.49,1.45v29.34c0,.93-.93,1.55-2.28,1.55h-14.82c-1.35,0-2.28-.62-2.28-1.55Z"/>
  <path class="st0" d="M120.29,60.75c0-29.23,10.16-48.62,25.4-48.62s24.26,18.66,24.26,48.62c0,16.17-8.71,24.88-24.78,24.88s-24.88-8.92-24.88-24.88ZM151.29,37.01c0-7.98-2.49-14-5.6-14-3.94,0-6.53,5.81-6.53,14,0,4.25,2.59,7.05,6.53,7.05,3.21,0,5.6-2.8,5.6-7.05Z"/>
  <path class="st0" d="M174.1,83.67V14.21c0-.93.62-1.56,1.55-1.56h14.93c.83,0,1.45.31,1.76,1.24l9.85,27.16c.21.62.62.93.93.93.42,0,.83-.42.83-1.24V14.21c0-.93.62-1.56,1.55-1.56h10.88c.93,0,1.56.62,1.56,1.56v69.46c0,.93-.62,1.55-1.56,1.55h-14.93c-.83,0-1.45-.31-1.76-1.24l-9.85-29.75c-.21-.62-.62-.93-.93-.93-.42,0-.83.41-.83,1.14v29.23c0,.93-.62,1.55-1.56,1.55h-10.88c-.93,0-1.55-.62-1.55-1.55Z"/>
  <path class="st0" d="M249.57,41.16c0,4.98,3.32,5.6,8.92,5.6,1.04,0,1.56.62,1.56,1.56v23.12c0,9.33-5.7,14.51-14.83,14.51s-14.31-5.08-14.31-14.2V25.4h-5.91c-.93,0-1.55-.62-1.55-1.56v-9.64c0-.93.62-1.56,1.55-1.56h33.59c.93,0,1.55.62,1.55,1.56v9.64c0,.93-.62,1.56-1.55,1.56h-9.02v15.76Z"/>
  <path class="st0" d="M262.32,83.56l13.48-69.46c.21-.93.93-1.45,1.87-1.45h22.08c1.04,0,1.66.41,1.87,1.35l13.89,69.56v.41c0,.83-.62,1.24-1.55,1.24h-16.07c-1.04,0-1.66-.42-1.76-1.45l-2.59-15.34c-.21-1.04-.83-1.45-1.76-1.45h-9.12c-1.04,0-1.55.52-1.76,1.45l-3.42,15.34c-.21.93-.73,1.45-1.76,1.45h-11.82c-1.14,0-1.76-.52-1.56-1.66ZM290.83,47.69l-1.76-14.72c-.21-1.35-.73-1.97-1.35-1.97-.52,0-1.14.62-1.35,1.97l-2.07,14.72v.21c0,1.04.83,1.45,2.28,1.45h1.76c1.66,0,2.7-.62,2.49-1.66Z"/>
  <path class="st0" d="M319.44,83.67V14.21c0-.93.93-1.56,2.28-1.56h14.82c1.35,0,2.28.62,2.28,1.56v22.6c0,.62.52,1.04,1.14,1.04.52,0,1.14-.31,1.35-.83l9.23-22.81c.42-1.04,1.66-1.56,3.11-1.56h12.75c1.35,0,1.97.62,1.56,1.56l-13.68,29.86c-.21.41-.31.83-.31,1.14,0,.42.21.73.83.73,5.7,0,11.2,2.59,11.2,8.6v29.13c0,.93-.93,1.55-2.28,1.55h-15.24c-1.45,0-2.28-.62-2.28-1.55v-26.75c0-3.21-2.59-4.04-4.87-4.04-1.56,0-2.49.42-2.49,1.45v29.34c0,.93-.93,1.55-2.28,1.55h-14.82c-1.35,0-2.28-.62-2.28-1.55Z"/>
  <path class="st0" d="M398.33,41.16c0,4.98,3.32,5.6,8.92,5.6,1.04,0,1.56.62,1.56,1.56v23.12c0,9.33-5.7,14.51-14.83,14.51s-14.31-5.08-14.31-14.2V25.4h-5.91c-.93,0-1.55-.62-1.55-1.56v-9.64c0-.93.62-1.56,1.55-1.56h33.59c.93,0,1.55.62,1.55,1.56v9.64c0,.93-.62,1.56-1.55,1.56h-9.02v15.76Z"/>
</svg>