<?xml version="1.0" encoding="UTF-8"?>
<svg id="Ebene_1" xmlns="http://www.w3.org/2000/svg" version="1.1" viewBox="0 0 1497.92 588.04">
  <!-- Generator: Adobe Illustrator 30.5.0, SVG Export Plug-In . SVG Version: 2.1.4 Build 167)  -->
  <defs>
    <style>
      .st0 {
        fill: #b725e8;
      }

      .st1 {
        fill: #ff1200;
      }
    </style>
  </defs>
  <g>
    <path class="st0" d="M0,582.02v-269.04c0-3.61,1.41-6.02,3.52-6.02h47.86c26.74,0,40.12,15.26,40.12,44.97,0,15.66-5.16,31.72-13.61,40.56-1.17,1.2-1.88,2.41-1.88,3.21s.7,1.61,2.11,2.81c16.66,16.86,23.23,54.61,23.23,90.35,0,53.41-10.56,99.18-51.38,99.18H3.52c-2.11,0-3.52-2.41-3.52-6.02ZM46.45,381.65c4.93,0,13.84-7.23,13.84-19.27,0-11.24-8.21-16.46-13.14-16.46-2.11,0-3.75.8-3.75,2.81v29.71c0,2.01,1.17,3.21,3.05,3.21ZM46.69,449.11c5.63,0,16.66-6.83,16.66-20.88,0-12.85-9.62-18.87-15.48-18.87-2.58,0-4.46,1.2-4.46,3.61v33.73c0,1.61,1.17,2.41,3.28,2.41Z"/>
    <path class="st0" d="M179.23,588.04h-34.96c-20.41,0-32.38-18.87-32.38-54.21v-220.85c0-3.61,2.11-6.02,5.4-6.02h60.06c3.28,0,5.4,2.41,5.4,6.02v29.31c0,3.61-2.11,6.02-5.4,6.02h-15.48c-3.05,0-5.16,2.41-5.16,6.02v16.87c0,3.61,2.11,6.02,5.16,6.02h10.32c3.05,0,5.16,2.41,5.16,6.02v29.31c0,3.61-2.11,6.02-5.16,6.02h-10.32c-3.05,0-5.16,1.61-5.16,2.01v12.45c0,3.61,2.11,6.02,5.16,6.02h17.36c3.05,0,5.16,2.41,5.16,6.02v136.93c0,3.61-2.11,6.02-5.16,6.02Z"/>
    <path class="st0" d="M198.47,582.02v-269.44c0-3.61,1.41-6.02,3.52-6.02h42.7c45.28,0,61.94,26.9,61.94,66.26s-16.66,58.63-29.33,64.25c-1.88.8-2.58,2.01-2.58,2.81s.94,1.61,3.05,2.41c18.53,7.63,26.04,15.66,26.04,38.55v101.19c0,3.61-1.41,6.02-3.52,6.02h-36.6c-2.11,0-3.52-2.41-3.52-6.02v-103.6c0-12.45-6.1-15.66-11.26-15.66-3.52,0-5.63,1.61-5.63,5.62v113.64c0,3.61-1.41,6.02-3.52,6.02h-37.77c-2.11,0-3.52-2.41-3.52-6.02ZM246.09,410.16c6.1,0,19.24-8.43,19.24-32.93,0-21.28-11.73-28.11-18.06-28.11-2.35,0-3.99.8-3.99,2.41v56.62c0,1.21,1.17,2.01,2.81,2.01Z"/>
    <path class="st0" d="M317.88,533.83v-220.85c0-3.61,1.41-6.02,3.52-6.02h37.77c2.11,0,3.52,2.41,3.52,6.02v120.06c0,3.61,1.41,6.02,3.52,6.02h17.83c2.11,0,3.52,2.41,3.52,6.02v136.93c0,3.61-1.41,6.02-3.52,6.02h-33.78c-20.41,0-32.38-18.87-32.38-54.21Z"/>
    <path class="st0" d="M400.46,582.02v-269.04c0-3.61,1.41-6.02,3.52-6.02h36.83c2.11,0,3.52,2.41,3.52,6.02v269.04c0,3.61-1.41,6.02-3.52,6.02h-36.83c-2.11,0-3.52-2.41-3.52-6.02Z"/>
    <path class="st0" d="M458.4,582.02v-269.04c0-3.61,1.41-6.02,3.52-6.02h33.78c1.88,0,3.28,1.2,3.99,4.82l22.29,105.21c.47,2.41,1.41,3.61,2.11,3.61.94,0,1.88-1.61,1.88-4.82v-102.8c0-3.61,1.41-6.02,3.52-6.02h24.63c2.11,0,3.52,2.41,3.52,6.02v269.04c0,3.61-1.41,6.02-3.52,6.02h-33.78c-1.88,0-3.28-1.21-3.99-4.82l-22.29-115.25c-.47-2.41-1.41-3.61-2.11-3.61-.94,0-1.88,1.61-1.88,4.42v113.24c0,3.61-1.41,6.02-3.52,6.02h-24.63c-2.11,0-3.52-2.41-3.52-6.02Z"/>
    <path class="st0" d="M688.31,588.04h-34.96c-20.41,0-32.38-18.87-32.38-54.21v-220.85c0-3.61,2.11-6.02,5.4-6.02h60.06c3.28,0,5.4,2.41,5.4,6.02v29.31c0,3.61-2.11,6.02-5.4,6.02h-15.48c-3.05,0-5.16,2.41-5.16,6.02v16.87c0,3.61,2.11,6.02,5.16,6.02h10.32c3.05,0,5.16,2.41,5.16,6.02v29.31c0,3.61-2.11,6.02-5.16,6.02h-10.32c-3.05,0-5.16,1.61-5.16,2.01v12.45c0,3.61,2.11,6.02,5.16,6.02h17.36c3.05,0,5.16,2.41,5.16,6.02v136.93c0,3.61-2.11,6.02-5.16,6.02Z"/>
    <path class="st0" d="M707.54,582.02v-269.04c0-3.61,1.41-6.02,3.52-6.02h33.78c1.88,0,3.28,1.2,3.99,4.82l22.29,105.21c.47,2.41,1.41,3.61,2.11,3.61.94,0,1.88-1.61,1.88-4.82v-102.8c0-3.61,1.41-6.02,3.52-6.02h24.63c2.11,0,3.52,2.41,3.52,6.02v269.04c0,3.61-1.41,6.02-3.52,6.02h-33.78c-1.88,0-3.28-1.21-3.99-4.82l-22.29-115.25c-.47-2.41-1.41-3.61-2.11-3.61-.94,0-1.88,1.61-1.88,4.42v113.24c0,3.61-1.41,6.02-3.52,6.02h-24.63c-2.11,0-3.52-2.41-3.52-6.02Z"/>
    <path class="st0" d="M871.52,582.02v-137.73c0-3.61,1.41-6.02,3.52-6.02,21.12,0,28.15-2.41,28.15-10.84,0-18.87-33.78-16.46-33.78-66.26,0-22.08,11.26-57.82,46.45-57.82,33.08,0,46.92,18.07,46.92,72.68v.4c0,3.61-1.41,6.02-3.52,6.02h-23.93c-2.11,0-3.52-2.41-3.52-6.02,0-18.47-1.17-34.53-13.37-34.53-9.85,0-11.96,12.45-11.96,22.08,0,51.4,62.64,32.53,62.64,138.94,0,61.04-20.88,85.13-59.59,85.13h-34.49c-2.11,0-3.52-2.41-3.52-6.02Z"/>
    <path class="st0" d="M972.17,581.62l30.5-269.04c.47-3.61,2.11-5.62,4.22-5.62h49.97c2.35,0,3.75,1.61,4.22,5.22l31.44,269.44v1.61c0,3.21-1.41,4.82-3.52,4.82h-36.36c-2.35,0-3.75-1.61-3.99-5.62l-5.87-59.43c-.47-4.02-1.88-5.62-3.99-5.62h-20.64c-2.35,0-3.52,2.01-3.99,5.62l-7.74,59.43c-.47,3.61-1.64,5.62-3.99,5.62h-26.75c-2.58,0-3.99-2.01-3.52-6.42ZM1036.68,442.68l-3.99-57.02c-.47-5.22-1.64-7.63-3.05-7.63-1.17,0-2.58,2.41-3.05,7.63l-4.69,57.02v.8c0,4.02,1.88,5.62,5.16,5.62h3.99c3.75,0,6.1-2.41,5.63-6.42Z"/>
    <path class="st0" d="M1096.98,533.83v-220.85c0-3.61,1.41-6.02,3.52-6.02h37.77c2.11,0,3.52,2.41,3.52,6.02v120.06c0,3.61,1.41,6.02,3.52,6.02h17.83c2.11,0,3.52,2.41,3.52,6.02v136.93c0,3.61-1.41,6.02-3.52,6.02h-33.78c-20.41,0-32.38-18.87-32.38-54.21Z"/>
    <path class="st0" d="M1180.96,582.02v-137.73c0-3.61,1.41-6.02,3.52-6.02,21.11,0,28.15-2.41,28.15-10.84,0-18.87-33.78-16.46-33.78-66.26,0-22.08,11.26-57.82,46.45-57.82,33.08,0,46.92,18.07,46.92,72.68v.4c0,3.61-1.41,6.02-3.52,6.02h-23.93c-2.11,0-3.52-2.41-3.52-6.02,0-18.47-1.17-34.53-13.37-34.53-9.85,0-11.96,12.45-11.96,22.08,0,51.4,62.64,32.53,62.64,138.94,0,61.04-20.88,85.13-59.59,85.13h-34.49c-2.11,0-3.52-2.41-3.52-6.02Z"/>
    <path class="st0" d="M1281.61,581.62l30.5-269.04c.47-3.61,2.11-5.62,4.22-5.62h49.97c2.35,0,3.75,1.61,4.22,5.22l31.44,269.44v1.61c0,3.21-1.41,4.82-3.52,4.82h-36.36c-2.35,0-3.75-1.61-3.99-5.62l-5.87-59.43c-.47-4.02-1.88-5.62-3.99-5.62h-20.64c-2.35,0-3.52,2.01-3.99,5.62l-7.74,59.43c-.47,3.61-1.64,5.62-3.99,5.62h-26.75c-2.58,0-3.99-2.01-3.52-6.42ZM1346.13,442.68l-3.99-57.02c-.47-5.22-1.64-7.63-3.05-7.63-1.17,0-2.58,2.41-3.05,7.63l-4.69,57.02v.8c0,4.02,1.88,5.62,5.16,5.62h3.99c3.75,0,6.1-2.41,5.63-6.42Z"/>
    <path class="st0" d="M1428.71,441.07v-.8c0-38.15,33.31-44.97,33.31-77.5,0-9.64-2.82-16.46-11.26-16.46s-12.2,6.42-12.2,24.9c0,3.61-1.41,6.02-3.52,6.02h-25.1c-2.11,0-3.52-2.41-3.52-6.02v-.4c0-42.56,18.06-65.05,44.11-65.05,22.76,0,47.39,20.08,47.39,55.82,0,38.15-24.16,51-24.16,79.11v.4c0,3.61-1.41,6.02-3.52,6.02h-38.01c-2.11,0-3.52-2.41-3.52-6.02ZM1428.71,582.02v-116.05c0-3.61,1.41-6.02,3.52-6.02h38.01c2.11,0,3.52,2.41,3.52,6.02v116.05c0,3.61-1.41,6.02-3.52,6.02h-38.01c-2.11,0-3.52-2.41-3.52-6.02Z"/>
  </g>
  <g>
    <path class="st1" d="M576.62,289.52c0,18.47-14.08,42.16-33.08,42.16-22.29,0-36.13-23.69-38.24-46.98-33.78-10.44-40.59-55.01-40.59-92.76,0-75.09,10.32-188.33,56.31-188.33s56.07,113.24,56.07,188.33c0,37.75-6.57,83.12-40.82,93.16,1.88,6.42,5.4,10.84,9.85,10.84,12.9,0,16.42-18.07,23.23-18.07,4.22,0,7.27,4.82,7.27,11.64ZM506.94,97.98c0,16.46,5.87,27.31,14.78,27.31,7.27,0,12.67-10.84,12.67-27.31,0-30.92-5.63-54.21-12.67-54.21-8.92,0-14.78,22.49-14.78,54.21Z"/>
    <path class="st1" d="M587.64,193.95V9.64c0-3.61,1.41-6.02,3.52-6.02h37.77c2.11,0,3.52,2.41,3.52,6.02v98.38c0,20.88,0,31.32,9.15,31.32s9.15-10.44,9.15-31.32V9.64c0-3.61,1.41-6.02,3.52-6.02h37.54c2.11,0,3.52,2.41,3.52,6.02v184.31c0,42.97-6.33,92.76-53.49,92.76s-54.19-49.79-54.19-92.76Z"/>
    <path class="st1" d="M776.73,284.7h-34.96c-20.41,0-32.38-18.87-32.38-54.21V9.64c0-3.61,2.11-6.02,5.4-6.02h60.06c3.28,0,5.4,2.41,5.4,6.02v29.31c0,3.61-2.11,6.02-5.4,6.02h-15.48c-3.05,0-5.16,2.41-5.16,6.02v16.87c0,3.61,2.11,6.02,5.16,6.02h10.32c3.05,0,5.16,2.41,5.16,6.02v29.31c0,3.61-2.11,6.02-5.16,6.02h-10.32c-3.05,0-5.16,1.61-5.16,2.01v12.45c0,3.61,2.11,6.02,5.16,6.02h17.36c3.05,0,5.16,2.41,5.16,6.02v136.93c0,3.61-2.11,6.02-5.16,6.02Z"/>
    <path class="st1" d="M912.56,284.7h-34.96c-20.41,0-32.38-18.87-32.38-54.21V9.64c0-3.61,2.11-6.02,5.4-6.02h60.06c3.28,0,5.4,2.41,5.4,6.02v29.31c0,3.61-2.11,6.02-5.4,6.02h-15.48c-3.05,0-5.16,2.41-5.16,6.02v16.87c0,3.61,2.11,6.02,5.16,6.02h10.32c3.05,0,5.16,2.41,5.16,6.02v29.31c0,3.61-2.11,6.02-5.16,6.02h-10.32c-3.05,0-5.16,1.61-5.16,2.01v12.45c0,3.61,2.11,6.02,5.16,6.02h17.36c3.05,0,5.16,2.41,5.16,6.02v136.93c0,3.61-2.11,6.02-5.16,6.02Z"/>
    <path class="st1" d="M933.21,278.68v-137.73c0-3.61,1.41-6.02,3.52-6.02,21.11,0,28.15-2.41,28.15-10.84,0-18.87-33.78-16.46-33.78-66.26,0-22.08,11.26-57.82,46.45-57.82,33.08,0,46.92,18.07,46.92,72.68v.4c0,3.61-1.41,6.02-3.52,6.02h-23.93c-2.11,0-3.52-2.41-3.52-6.02,0-18.47-1.17-34.53-13.37-34.53-9.85,0-11.96,12.45-11.96,22.09,0,51.4,62.64,32.53,62.64,138.94,0,61.04-20.88,85.13-59.59,85.13h-34.49c-2.11,0-3.52-2.41-3.52-6.02Z"/>
  </g>
  <path class="st1" d="M438.36,169.88v.8c0,38.15-33.31,44.97-33.31,77.5,0,9.64,2.81,16.46,11.26,16.46s12.2-6.42,12.2-24.9c0-3.61,1.41-6.02,3.52-6.02h25.1c2.11,0,3.52,2.41,3.52,6.02v.4c0,42.56-18.06,65.05-44.11,65.05-22.76,0-47.39-20.08-47.39-55.81,0-38.15,24.16-51,24.16-79.11v-.4c0-3.61,1.41-6.02,3.52-6.02h38.01c2.11,0,3.52,2.41,3.52,6.02ZM438.36,28.94v116.05c0,3.61-1.41,6.02-3.52,6.02h-38.01c-2.11,0-3.52-2.41-3.52-6.02V28.94c0-3.61,1.41-6.02,3.52-6.02h38.01c2.11,0,3.52,2.41,3.52,6.02Z"/>
</svg>