<?xml version="1.0" encoding="utf-8"?>
<!-- Generator: Adobe Illustrator 27.8.0, SVG Export Plug-In . SVG Version: 6.00 Build 0)  -->
<svg version="1.1" id="Ebene_1" xmlns="http://www.w3.org/2000/svg" xmlns:xlink="http://www.w3.org/1999/xlink" x="0px" y="0px"
	 viewBox="400 1170 330 100" style="enable-background:new 0 0 1125 2436;" xml:space="preserve">
<style type="text/css">
	.st0{fill:#DB1906;}
</style>
<g>
	<path class="st0" d="M410.25,1221.24c0-5.27,5.77-6.49,5.77-10.38v-0.06c0-0.5,0.33-0.83,0.83-0.83h8.99c0.5,0,0.83,0.33,0.83,0.83
		v0.11c0,5.27-7.94,6.22-7.94,10.66c0,1.33,0.67,2.5,2.66,2.5s2.94-1.11,2.94-3.66c0-0.5,0.33-0.83,0.83-0.83h5.88
		c0.5,0,0.83,0.33,0.83,0.83v0.06c0,5.88-4.22,8.49-10.38,8.49C416.08,1228.96,410.25,1226.18,410.25,1221.24z M416.03,1207.36
		v-16.6c0-0.5,0.33-0.83,0.83-0.83h8.99c0.5,0,0.83,0.33,0.83,0.83v16.6c0,0.5-0.33,0.83-0.83,0.83h-8.99
		C416.36,1208.2,416.03,1207.86,416.03,1207.36z"/>
	<path class="st0" d="M458.26,1218.52c0,2.55-3.33,5.83-7.83,5.83c-5.27,0-8.55-3.27-9.05-6.49c-7.99-1.44-9.6-7.6-9.6-12.82
		c0-10.38,2.44-26.03,13.32-26.03c10.82,0,13.27,15.65,13.27,26.03c0,5.22-1.55,11.49-9.66,12.88c0.44,0.89,1.28,1.5,2.33,1.5
		c3.05,0,3.89-2.5,5.5-2.5C457.54,1216.91,458.26,1217.58,458.26,1218.52z M441.78,1192.04c0,2.28,1.39,3.77,3.5,3.77
		c1.72,0,3-1.5,3-3.77c0-4.27-1.33-7.49-3-7.49C443.16,1184.55,441.78,1187.66,441.78,1192.04z"/>
	<path class="st0" d="M460.79,1205.31v-25.48c0-0.5,0.33-0.83,0.83-0.83h8.94c0.5,0,0.83,0.33,0.83,0.83v13.6
		c0,2.89,0,4.33,2.17,4.33s2.17-1.44,2.17-4.33v-13.6c0-0.5,0.33-0.83,0.83-0.83h8.88c0.5,0,0.83,0.33,0.83,0.83v25.48
		c0,5.94-1.5,12.82-12.66,12.82C462.46,1218.13,460.79,1211.25,460.79,1205.31z"/>
	<path class="st0" d="M505.79,1217.85h-8.27c-4.83,0-7.66-2.61-7.66-7.49v-30.53c0-0.5,0.5-0.83,1.28-0.83h14.21
		c0.78,0,1.28,0.33,1.28,0.83v4.05c0,0.5-0.5,0.83-1.28,0.83h-3.66c-0.72,0-1.22,0.33-1.22,0.83v2.33c0,0.5,0.5,0.83,1.22,0.83h2.44
		c0.72,0,1.22,0.33,1.22,0.83v4.05c0,0.5-0.5,0.83-1.22,0.83h-2.44c-0.72,0-1.22,0.22-1.22,0.28v1.72c0,0.5,0.5,0.83,1.22,0.83h4.11
		c0.72,0,1.22,0.33,1.22,0.83v18.93C507.01,1217.52,506.51,1217.85,505.79,1217.85z M493.02,1175c0-0.17,0.11-0.33,0.33-0.44
		l7.38-4.89c0.17-0.11,0.39-0.17,0.61-0.17s0.39,0.06,0.56,0.17l3.77,2.55c0.33,0.28,0.39,0.56,0,0.72l-8.49,4.16
		c-0.17,0.11-0.33,0.17-0.55,0.17c-0.22,0-0.44-0.06-0.61-0.17l-2.66-1.72C493.14,1175.28,493.02,1175.11,493.02,1175z"/>
	<path class="st0" d="M539.05,1217.85h-8.27c-4.83,0-7.66-2.61-7.66-7.49v-30.53c0-0.5,0.5-0.83,1.28-0.83h14.21
		c0.78,0,1.28,0.33,1.28,0.83v4.05c0,0.5-0.5,0.83-1.28,0.83h-3.66c-0.72,0-1.22,0.33-1.22,0.83v2.33c0,0.5,0.5,0.83,1.22,0.83h2.44
		c0.72,0,1.22,0.33,1.22,0.83v4.05c0,0.5-0.5,0.83-1.22,0.83h-2.44c-0.72,0-1.22,0.22-1.22,0.28v1.72c0,0.5,0.5,0.83,1.22,0.83h4.11
		c0.72,0,1.22,0.33,1.22,0.83v18.93C540.27,1217.52,539.77,1217.85,539.05,1217.85z"/>
	<path class="st0" d="M543.65,1217.02v-19.04c0-0.5,0.33-0.83,0.83-0.83c5,0,6.66-0.33,6.66-1.5c0-2.61-7.99-2.28-7.99-9.16
		c0-3.05,2.66-7.99,10.99-7.99c7.83,0,11.1,2.5,11.1,10.05v0.06c0,0.5-0.33,0.83-0.83,0.83h-5.66c-0.5,0-0.83-0.33-0.83-0.83
		c0-2.55-0.28-4.77-3.16-4.77c-2.33,0-2.83,1.72-2.83,3.05c0,7.11,14.82,4.5,14.82,19.21c0,8.44-4.94,11.77-14.1,11.77h-8.16
		C543.99,1217.85,543.65,1217.52,543.65,1217.02z"/>
	<path class="st0" d="M582.02,1217.02v-37.19c0-0.5,0.33-0.83,0.83-0.83h11.32c6.33,0,9.49,2.11,9.49,6.22
		c0,2.17-1.22,4.39-3.22,5.61c-0.28,0.17-0.44,0.33-0.44,0.44c0,0.11,0.17,0.22,0.5,0.39c3.94,2.33,5.5,7.55,5.5,12.49
		c0,7.38-2.5,13.71-12.16,13.71h-10.99C582.35,1217.85,582.02,1217.52,582.02,1217.02z M593.01,1189.32c1.17,0,3.27-1,3.27-2.66
		c0-1.55-1.94-2.28-3.11-2.28c-0.5,0-0.89,0.11-0.89,0.39v4.11C592.29,1189.16,592.56,1189.32,593.01,1189.32z M593.06,1198.65
		c1.33,0,3.94-0.94,3.94-2.89c0-1.78-2.28-2.61-3.66-2.61c-0.61,0-1.05,0.17-1.05,0.5v4.66
		C592.29,1198.54,592.56,1198.65,593.06,1198.65z"/>
	<path class="st0" d="M624.24,1217.85h-8.27c-4.83,0-7.66-2.61-7.66-7.49v-30.53c0-0.5,0.5-0.83,1.28-0.83h14.21
		c0.78,0,1.28,0.33,1.28,0.83v4.05c0,0.5-0.5,0.83-1.28,0.83h-3.66c-0.72,0-1.22,0.33-1.22,0.83v2.33c0,0.5,0.5,0.83,1.22,0.83h2.44
		c0.72,0,1.22,0.33,1.22,0.83v4.05c0,0.5-0.5,0.83-1.22,0.83h-2.44c-0.72,0-1.22,0.22-1.22,0.28v1.72c0,0.5,0.5,0.83,1.22,0.83h4.11
		c0.72,0,1.22,0.33,1.22,0.83v18.93C625.46,1217.52,624.96,1217.85,624.24,1217.85z"/>
	<path class="st0" d="M628.94,1217.02v-37.25c0-0.5,0.33-0.83,0.83-0.83h10.1c10.71,0,14.66,3.72,14.66,9.16
		c0,5.22-3.94,8.1-6.94,8.88c-0.44,0.11-0.61,0.28-0.61,0.39c0,0.11,0.22,0.22,0.72,0.33c4.39,1.06,6.16,2.17,6.16,5.33v13.99
		c0,0.5-0.33,0.83-0.83,0.83h-8.66c-0.5,0-0.83-0.33-0.83-0.83v-14.32c0-1.72-1.44-2.16-2.66-2.16c-0.83,0-1.33,0.22-1.33,0.78
		v15.71c0,0.5-0.33,0.83-0.83,0.83h-8.94C629.28,1217.85,628.94,1217.52,628.94,1217.02z M640.21,1193.26
		c1.44,0,4.55-1.17,4.55-4.55c0-2.94-2.78-3.89-4.27-3.89c-0.56,0-0.94,0.11-0.94,0.33v7.83
		C639.55,1193.15,639.82,1193.26,640.21,1193.26z"/>
	<path class="st0" d="M657.3,1210.36v-30.53c0-0.5,0.33-0.83,0.83-0.83h8.94c0.5,0,0.83,0.33,0.83,0.83v16.6
		c0,0.5,0.33,0.83,0.83,0.83h4.22c0.5,0,0.83,0.33,0.83,0.83v18.93c0,0.5-0.33,0.83-0.83,0.83h-7.99
		C660.13,1217.85,657.3,1215.25,657.3,1210.36z"/>
	<path class="st0" d="M676.79,1217.02v-37.19c0-0.5,0.33-0.83,0.83-0.83h8.72c0.5,0,0.83,0.33,0.83,0.83v37.19
		c0,0.5-0.33,0.83-0.83,0.83h-8.72C677.12,1217.85,676.79,1217.52,676.79,1217.02z"/>
	<path class="st0" d="M690.78,1217.02v-37.19c0-0.5,0.33-0.83,0.83-0.83h7.99c0.44,0,0.78,0.17,0.94,0.67l5.27,14.54
		c0.11,0.33,0.33,0.5,0.5,0.5c0.22,0,0.44-0.22,0.44-0.67v-14.21c0-0.5,0.33-0.83,0.83-0.83h5.83c0.5,0,0.83,0.33,0.83,0.83v37.19
		c0,0.5-0.33,0.83-0.83,0.83h-7.99c-0.44,0-0.78-0.17-0.94-0.67l-5.27-15.93c-0.11-0.33-0.33-0.5-0.5-0.5
		c-0.22,0-0.44,0.22-0.44,0.61v15.65c0,0.5-0.33,0.83-0.83,0.83h-5.83C691.11,1217.85,690.78,1217.52,690.78,1217.02z"/>
	<path class="st0" d="M487.84,1266.97h-8.27c-4.83,0-7.66-2.61-7.66-7.49v-30.53c0-0.5,0.5-0.83,1.28-0.83h14.21
		c0.78,0,1.28,0.33,1.28,0.83v4.05c0,0.5-0.5,0.83-1.28,0.83h-3.66c-0.72,0-1.22,0.33-1.22,0.83v2.33c0,0.5,0.5,0.83,1.22,0.83h2.44
		c0.72,0,1.22,0.33,1.22,0.83v4.05c0,0.5-0.5,0.83-1.22,0.83h-2.44c-0.72,0-1.22,0.22-1.22,0.28v1.72c0,0.5,0.5,0.83,1.22,0.83h4.11
		c0.72,0,1.22,0.33,1.22,0.83v18.93C489.06,1266.63,488.56,1266.97,487.84,1266.97z"/>
	<path class="st0" d="M492.55,1266.13v-37.19c0-0.5,0.33-0.83,0.83-0.83h7.99c0.44,0,0.78,0.17,0.94,0.67l5.27,14.54
		c0.11,0.33,0.33,0.5,0.5,0.5c0.22,0,0.44-0.22,0.44-0.67v-14.21c0-0.5,0.33-0.83,0.83-0.83h5.83c0.5,0,0.83,0.33,0.83,0.83v37.19
		c0,0.5-0.33,0.83-0.83,0.83h-7.99c-0.44,0-0.78-0.17-0.94-0.67l-5.27-15.93c-0.11-0.33-0.33-0.5-0.5-0.5
		c-0.22,0-0.44,0.22-0.44,0.61v15.65c0,0.5-0.33,0.83-0.83,0.83h-5.83C492.88,1266.97,492.55,1266.63,492.55,1266.13z"/>
	<path class="st0" d="M532.46,1266.13v-19.04c0-0.5,0.33-0.83,0.83-0.83c5,0,6.66-0.33,6.66-1.5c0-2.61-7.99-2.28-7.99-9.16
		c0-3.05,2.66-7.99,10.99-7.99c7.83,0,11.1,2.5,11.1,10.05v0.06c0,0.5-0.33,0.83-0.83,0.83h-5.66c-0.5,0-0.83-0.33-0.83-0.83
		c0-2.55-0.28-4.77-3.16-4.77c-2.33,0-2.83,1.72-2.83,3.05c0,7.11,14.82,4.5,14.82,19.21c0,8.44-4.94,11.77-14.1,11.77h-8.16
		C532.8,1266.97,532.46,1266.63,532.46,1266.13z"/>
	<path class="st0" d="M555.99,1266.08l7.22-37.19c0.11-0.5,0.5-0.78,1-0.78h11.82c0.56,0,0.89,0.22,1,0.72l7.44,37.25v0.22
		c0,0.44-0.33,0.67-0.83,0.67h-8.6c-0.56,0-0.89-0.22-0.94-0.78l-1.39-8.22c-0.11-0.56-0.44-0.78-0.94-0.78h-4.89
		c-0.56,0-0.83,0.28-0.94,0.78l-1.83,8.22c-0.11,0.5-0.39,0.78-0.94,0.78h-6.33C556.21,1266.97,555.88,1266.69,555.99,1266.08z
		 M571.26,1246.87l-0.94-7.88c-0.11-0.72-0.39-1.06-0.72-1.06c-0.28,0-0.61,0.33-0.72,1.06l-1.11,7.88v0.11
		c0,0.56,0.44,0.78,1.22,0.78h0.94C570.81,1247.76,571.37,1247.43,571.26,1246.87z"/>
	<path class="st0" d="M585.73,1259.47v-30.53c0-0.5,0.33-0.83,0.83-0.83h8.94c0.5,0,0.83,0.33,0.83,0.83v16.6
		c0,0.5,0.33,0.83,0.83,0.83h4.22c0.5,0,0.83,0.33,0.83,0.83v18.93c0,0.5-0.33,0.83-0.83,0.83h-7.99
		C588.56,1266.97,585.73,1264.36,585.73,1259.47z"/>
	<path class="st0" d="M604.95,1266.13v-19.04c0-0.5,0.33-0.83,0.83-0.83c5,0,6.66-0.33,6.66-1.5c0-2.61-7.99-2.28-7.99-9.16
		c0-3.05,2.66-7.99,10.99-7.99c7.83,0,11.1,2.5,11.1,10.05v0.06c0,0.5-0.33,0.83-0.83,0.83h-5.66c-0.5,0-0.83-0.33-0.83-0.83
		c0-2.55-0.28-4.77-3.16-4.77c-2.33,0-2.83,1.72-2.83,3.05c0,7.11,14.82,4.5,14.82,19.21c0,8.44-4.94,11.77-14.1,11.77h-8.16
		C605.28,1266.97,604.95,1266.63,604.95,1266.13z"/>
	<path class="st0" d="M628.48,1266.08l7.22-37.19c0.11-0.5,0.5-0.78,1-0.78h11.82c0.56,0,0.89,0.22,1,0.72l7.44,37.25v0.22
		c0,0.44-0.33,0.67-0.83,0.67h-8.6c-0.56,0-0.89-0.22-0.94-0.78l-1.39-8.22c-0.11-0.56-0.44-0.78-0.94-0.78h-4.89
		c-0.56,0-0.83,0.28-0.94,0.78l-1.83,8.22c-0.11,0.5-0.39,0.78-0.94,0.78h-6.33C628.7,1266.97,628.37,1266.69,628.48,1266.08z
		 M643.74,1246.87l-0.94-7.88c-0.11-0.72-0.39-1.06-0.72-1.06c-0.28,0-0.61,0.33-0.72,1.06l-1.11,7.88v0.11
		c0,0.56,0.44,0.78,1.22,0.78h0.94C643.3,1247.76,643.85,1247.43,643.74,1246.87z"/>
	<path class="st0" d="M661.49,1246.65v-0.11c0-5.27,7.88-6.22,7.88-10.71c0-1.33-0.67-2.28-2.66-2.28c-2,0-2.89,0.89-2.89,3.44
		c0,0.5-0.33,0.83-0.83,0.83h-5.94c-0.5,0-0.83-0.33-0.83-0.83v-0.06c0-5.88,4.27-8.99,10.44-8.99c5.38,0,11.21,2.78,11.21,7.72
		c0,5.27-5.72,7.05-5.72,10.94v0.06c0,0.5-0.33,0.83-0.83,0.83h-8.99C661.82,1247.48,661.49,1247.15,661.49,1246.65z
		 M661.49,1266.13v-16.04c0-0.5,0.33-0.83,0.83-0.83h8.99c0.5,0,0.83,0.33,0.83,0.83v16.04c0,0.5-0.33,0.83-0.83,0.83h-8.99
		C661.82,1266.97,661.49,1266.63,661.49,1266.13z"/>
</g>
</svg>
