<?xml version="1.0" encoding="UTF-8"?>
<svg id="Ebene_1" xmlns="http://www.w3.org/2000/svg" version="1.1" viewBox="0 0 377.1 121.42">
  <!-- Generator: Adobe Illustrator 29.6.1, SVG Export Plug-In . SVG Version: 2.1.1 Build 9)  -->
  <defs>
    <style>
      .st0 {
        fill: #ff1200;
      }
    </style>
  </defs>
  <path class="st0" d="M32.61,48.74c0,6.68,3.08,7.52,8.28,7.52.96,0,1.44.84,1.44,2.09v31.04c0,12.53-5.3,19.49-13.77,19.49s-13.29-6.82-13.29-19.07V27.58h-5.49c-.87,0-1.44-.84-1.44-2.09v-12.95c0-1.25.58-2.09,1.44-2.09h31.2c.87,0,1.44.84,1.44,2.09v12.95c0,1.25-.58,2.09-1.44,2.09h-8.38v21.16Z"/>
  <path class="st0" d="M48.21,105.82V12.55c0-1.25.58-2.09,1.44-2.09h15.12c.87,0,1.44.84,1.44,2.09v93.27c0,1.25-.58,2.09-1.44,2.09h-15.12c-.87,0-1.44-.83-1.44-2.09Z"/>
  <path class="st0" d="M72,105.82V12.55c0-1.25.58-2.09,1.44-2.09h17.81c.87,0,1.35.7,1.54,1.81l6.45,35.78c.19.97.58,1.53.87,1.53.39,0,.67-.56.87-1.53l6.74-35.78c.19-1.11.67-1.81,1.54-1.81h17.91c.87,0,1.44.84,1.44,2.09v93.27c0,1.25-.58,2.09-1.44,2.09h-12.71c-.87,0-1.44-.83-1.44-2.09v-40.09c0-.84-.39-1.39-.77-1.39-.29,0-.67.42-.77,1.11l-7.61,40.65c-.19,1.11-.67,1.81-1.54,1.81h-6.74c-.87,0-1.35-.7-1.54-1.81l-7.51-40.51c-.1-.7-.48-1.11-.77-1.11-.39,0-.77.56-.77,1.39v39.95c0,1.25-.58,2.09-1.44,2.09h-10.11c-.87,0-1.44-.83-1.44-2.09Z"/>
  <path class="st0" d="M162.04,107.91h-14.35c-8.38,0-13.29-6.54-13.29-18.79V12.55c0-1.25.87-2.09,2.21-2.09h24.65c1.35,0,2.21.84,2.21,2.09v10.16c0,1.25-.87,2.09-2.21,2.09h-6.36c-1.25,0-2.12.84-2.12,2.09v5.85c0,1.25.87,2.09,2.12,2.09h4.24c1.25,0,2.12.83,2.12,2.09v10.16c0,1.25-.87,2.09-2.12,2.09h-4.24c-1.25,0-2.12.56-2.12.7v4.32c0,1.25.87,2.09,2.12,2.09h7.13c1.25,0,2.12.84,2.12,2.09v47.47c0,1.25-.87,2.09-2.12,2.09Z"/>
  <path class="st0" d="M190.64,48.74c0,6.68,3.08,7.52,8.28,7.52.96,0,1.44.84,1.44,2.09v31.04c0,12.53-5.3,19.49-13.77,19.49s-13.29-6.82-13.29-19.07V27.58h-5.49c-.87,0-1.44-.84-1.44-2.09v-12.95c0-1.25.58-2.09,1.44-2.09h31.2c.87,0,1.44.84,1.44,2.09v12.95c0,1.25-.58,2.09-1.44,2.09h-8.38v21.16Z"/>
  <path class="st0" d="M202.49,105.68l12.52-93.27c.19-1.25.87-1.95,1.73-1.95h20.51c.96,0,1.54.56,1.73,1.81l12.9,93.41v.56c0,1.11-.58,1.67-1.44,1.67h-14.93c-.96,0-1.54-.56-1.64-1.95l-2.41-20.6c-.19-1.39-.77-1.95-1.64-1.95h-8.47c-.96,0-1.44.7-1.64,1.95l-3.18,20.6c-.19,1.25-.67,1.95-1.64,1.95h-10.98c-1.06,0-1.64-.7-1.44-2.23ZM228.97,57.51l-1.64-19.77c-.19-1.81-.67-2.65-1.25-2.65-.48,0-1.06.84-1.25,2.65l-1.93,19.77v.28c0,1.39.77,1.95,2.12,1.95h1.64c1.54,0,2.5-.84,2.31-2.23Z"/>
  <path class="st0" d="M255.65,105.82V12.55c0-1.25.58-2.09,1.44-2.09h19.64c10.98,0,16.47,5.29,16.47,15.59,0,5.43-2.12,11-5.59,14.06-.48.42-.77.84-.77,1.11s.29.56.87.97c6.84,5.85,9.53,18.93,9.53,31.32,0,18.51-4.33,34.38-21.09,34.38h-19.07c-.87,0-1.44-.83-1.44-2.09ZM274.71,36.35c2.02,0,5.68-2.51,5.68-6.68,0-3.9-3.37-5.71-5.39-5.71-.87,0-1.54.28-1.54.97v10.3c0,.7.48,1.11,1.25,1.11ZM274.81,59.74c2.31,0,6.84-2.37,6.84-7.24,0-4.45-3.95-6.54-6.36-6.54-1.06,0-1.83.42-1.83,1.25v11.69c0,.56.48.84,1.35.84Z"/>
  <path class="st0" d="M301.58,89.11V12.55c0-1.25.58-2.09,1.44-2.09h15.5c.87,0,1.44.84,1.44,2.09v41.62c0,1.25.58,2.09,1.44,2.09h7.32c.87,0,1.44.84,1.44,2.09v47.47c0,1.25-.58,2.09-1.44,2.09h-13.87c-8.38,0-13.29-6.54-13.29-18.79Z"/>
  <path class="st0" d="M363.12,107.91h-14.35c-8.38,0-13.29-6.54-13.29-18.79V12.55c0-1.25.87-2.09,2.21-2.09h24.65c1.35,0,2.21.84,2.21,2.09v10.16c0,1.25-.87,2.09-2.21,2.09h-6.36c-1.25,0-2.12.84-2.12,2.09v5.85c0,1.25.87,2.09,2.12,2.09h4.24c1.25,0,2.12.83,2.12,2.09v10.16c0,1.25-.87,2.09-2.12,2.09h-4.24c-1.25,0-2.12.56-2.12.7v4.32c0,1.25.87,2.09,2.12,2.09h7.13c1.25,0,2.12.84,2.12,2.09v47.47c0,1.25-.87,2.09-2.12,2.09Z"/>
</svg>