<?xml version="1.0" encoding="UTF-8"?>
<svg id="Ebene_1" xmlns="http://www.w3.org/2000/svg" version="1.1" viewBox="0 0 1597.49 611.85">
  <!-- Generator: Adobe Illustrator 30.5.0, SVG Export Plug-In . SVG Version: 2.1.4 Build 167)  -->
  <defs>
    <style>
      .st0 {
        fill: #ffdfa8;
      }
    </style>
  </defs>
  <g>
    <path class="st0" d="M0,518.29v-184.31c0-3.61,1.41-6.02,3.52-6.02h37.77c2.11,0,3.52,2.41,3.52,6.02v98.38c0,20.88,0,31.32,9.15,31.32s9.15-10.44,9.15-31.32v-98.38c0-3.61,1.41-6.02,3.52-6.02h37.54c2.11,0,3.52,2.41,3.52,6.02v184.31c0,42.97-6.33,92.76-53.49,92.76S0,561.26,0,518.29Z"/>
    <path class="st0" d="M121.76,603.02v-269.04c0-3.61,1.41-6.02,3.52-6.02h33.78c1.88,0,3.28,1.2,3.99,4.82l22.29,105.21c.47,2.41,1.41,3.61,2.11,3.61.94,0,1.88-1.61,1.88-4.82v-102.8c0-3.61,1.41-6.02,3.52-6.02h24.63c2.11,0,3.52,2.41,3.52,6.02v269.04c0,3.61-1.41,6.02-3.52,6.02h-33.78c-1.88,0-3.28-1.21-3.99-4.82l-22.29-115.25c-.47-2.41-1.41-3.61-2.11-3.61-.94,0-1.88,1.61-1.88,4.42v113.24c0,3.61-1.41,6.02-3.52,6.02h-24.63c-2.11,0-3.52-2.41-3.52-6.02Z"/>
    <path class="st0" d="M292.55,438.38c0,19.27,7.51,21.68,20.18,21.68,2.35,0,3.52,2.41,3.52,6.02v89.55c0,36.14-12.9,56.22-33.55,56.22s-32.38-19.68-32.38-55.01v-179.49h-13.37c-2.11,0-3.52-2.41-3.52-6.02v-37.34c0-3.61,1.41-6.02,3.52-6.02h76.01c2.11,0,3.52,2.41,3.52,6.02v37.34c0,3.61-1.41,6.02-3.52,6.02h-20.41v61.04Z"/>
    <path class="st0" d="M397.88,609.04h-34.96c-20.41,0-32.38-18.87-32.38-54.21v-220.85c0-3.61,2.11-6.02,5.4-6.02h60.06c3.28,0,5.4,2.41,5.4,6.02v29.31c0,3.61-2.11,6.02-5.4,6.02h-15.48c-3.05,0-5.16,2.41-5.16,6.02v16.87c0,3.61,2.11,6.02,5.16,6.02h10.32c3.05,0,5.16,2.41,5.16,6.02v29.31c0,3.61-2.11,6.02-5.16,6.02h-10.32c-3.05,0-5.16,1.61-5.16,2.01v12.45c0,3.61,2.11,6.02,5.16,6.02h17.36c3.05,0,5.16,2.41,5.16,6.02v136.93c0,3.61-2.11,6.02-5.16,6.02Z"/>
    <path class="st0" d="M417.12,603.02v-269.44c0-3.61,1.41-6.02,3.52-6.02h42.7c45.28,0,61.94,26.9,61.94,66.26s-16.66,58.63-29.33,64.25c-1.88.8-2.58,2.01-2.58,2.81s.94,1.61,3.05,2.41c18.53,7.63,26.04,15.66,26.04,38.55v101.19c0,3.61-1.41,6.02-3.52,6.02h-36.6c-2.11,0-3.52-2.41-3.52-6.02v-103.6c0-12.45-6.1-15.66-11.26-15.66-3.52,0-5.63,1.61-5.63,5.62v113.64c0,3.61-1.41,6.02-3.52,6.02h-37.77c-2.11,0-3.52-2.41-3.52-6.02ZM464.74,431.16c6.1,0,19.24-8.43,19.24-32.93,0-21.28-11.73-28.11-18.06-28.11-2.35,0-3.99.8-3.99,2.41v56.62c0,1.21,1.17,2.01,2.81,2.01Z"/>
    <path class="st0" d="M537.93,603.02v-137.73c0-3.61,1.41-6.02,3.52-6.02,21.11,0,28.15-2.41,28.15-10.84,0-18.87-33.78-16.46-33.78-66.26,0-22.08,11.26-57.82,46.45-57.82,33.08,0,46.92,18.07,46.92,72.68v.4c0,3.61-1.41,6.02-3.52,6.02h-23.93c-2.11,0-3.52-2.41-3.52-6.02,0-18.47-1.17-34.53-13.37-34.53-9.85,0-11.96,12.45-11.96,22.08,0,51.4,62.64,32.53,62.64,138.94,0,61.04-20.88,85.13-59.59,85.13h-34.49c-2.11,0-3.52-2.41-3.52-6.02Z"/>
    <path class="st0" d="M695.82,438.38c0,19.27,7.51,21.68,20.18,21.68,2.35,0,3.52,2.41,3.52,6.02v89.55c0,36.14-12.9,56.22-33.55,56.22s-32.38-19.68-32.38-55.01v-179.49h-13.37c-2.11,0-3.52-2.41-3.52-6.02v-37.34c0-3.61,1.41-6.02,3.52-6.02h76.01c2.11,0,3.52,2.41,3.52,6.02v37.34c0,3.61-1.41,6.02-3.52,6.02h-20.41v61.04Z"/>
    <path class="st0" d="M733.83,518.29v-184.31c0-3.61,1.41-6.02,3.52-6.02h37.77c2.11,0,3.52,2.41,3.52,6.02v98.38c0,20.88,0,31.32,9.15,31.32s9.15-10.44,9.15-31.32v-98.38c0-3.61,1.41-6.02,3.52-6.02h37.54c2.11,0,3.52,2.41,3.52,6.02v184.31c0,42.97-6.33,92.76-53.49,92.76s-54.19-49.79-54.19-92.76ZM756.58,301.46c0-8.43,6.1-14.86,13.37-14.86s13.37,6.42,13.37,14.86-5.87,15.26-13.37,15.26-13.37-6.43-13.37-15.26ZM791.77,301.46c0-8.43,5.87-14.86,13.61-14.86,7.04,0,13.14,6.42,13.14,14.86s-6.1,15.26-13.14,15.26c-7.74,0-13.61-6.43-13.61-15.26Z"/>
    <path class="st0" d="M913.06,438.38c0,19.27,7.51,21.68,20.18,21.68,2.35,0,3.52,2.41,3.52,6.02v89.55c0,36.14-12.9,56.22-33.55,56.22s-32.38-19.68-32.38-55.01v-179.49h-13.37c-2.11,0-3.52-2.41-3.52-6.02v-37.34c0-3.61,1.41-6.02,3.52-6.02h76.01c2.11,0,3.52,2.41,3.52,6.02v37.34c0,3.61-1.41,6.02-3.52,6.02h-20.41v61.04Z"/>
    <path class="st0" d="M951.07,516.29v-48.19c0-2.81.23-5.22,1.41-7.63l36.36-80.31c.47-1.2.7-2.01.7-2.81,0-2.41-1.64-4.02-4.69-4.02h-29.79c-2.11,0-3.52-2.41-3.52-6.02v-33.33c0-3.61,1.41-6.02,3.52-6.02h76.01c2.11,0,3.52,2.41,3.52,6.02v29.71c0,2.81-.47,5.22-1.41,7.63l-37.3,81.11c-.47,1.2-.7,2.41-.7,3.21,0,2.41,1.64,4.02,4.46,4.02h30.97c2.11,0,3.52,2.41,3.52,6.02v137.33c0,3.61-1.41,6.02-3.52,6.02h-25.34c-47.16,0-54.19-49.79-54.19-92.76Z"/>
    <path class="st0" d="M1115.99,609.04h-34.96c-20.41,0-32.38-18.87-32.38-54.21v-220.85c0-3.61,2.11-6.02,5.4-6.02h60.06c3.28,0,5.4,2.41,5.4,6.02v29.31c0,3.61-2.11,6.02-5.4,6.02h-15.48c-3.05,0-5.16,2.41-5.16,6.02v16.87c0,3.61,2.11,6.02,5.16,6.02h10.32c3.05,0,5.16,2.41,5.16,6.02v29.31c0,3.61-2.11,6.02-5.16,6.02h-10.32c-3.05,0-5.16,1.61-5.16,2.01v12.45c0,3.61,2.11,6.02,5.16,6.02h17.36c3.05,0,5.16,2.41,5.16,6.02v136.93c0,3.61-2.11,6.02-5.16,6.02Z"/>
    <path class="st0" d="M1184.49,518.29v-184.31c0-3.61,1.41-6.02,3.52-6.02h37.77c2.11,0,3.52,2.41,3.52,6.02v98.38c0,20.88,0,31.32,9.15,31.32s9.15-10.44,9.15-31.32v-98.38c0-3.61,1.41-6.02,3.52-6.02h37.54c2.11,0,3.52,2.41,3.52,6.02v184.31c0,42.97-6.33,92.76-53.49,92.76s-54.19-49.79-54.19-92.76Z"/>
    <path class="st0" d="M1306.25,603.02v-269.04c0-3.61,1.41-6.02,3.52-6.02h33.78c1.88,0,3.28,1.2,3.99,4.82l22.29,105.21c.47,2.41,1.41,3.61,2.11,3.61.94,0,1.88-1.61,1.88-4.82v-102.8c0-3.61,1.41-6.02,3.52-6.02h24.63c2.11,0,3.52,2.41,3.52,6.02v269.04c0,3.61-1.41,6.02-3.52,6.02h-33.78c-1.88,0-3.28-1.21-3.99-4.82l-22.29-115.25c-.47-2.41-1.41-3.61-2.11-3.61-.94,0-1.88,1.61-1.88,4.42v113.24c0,3.61-1.41,6.02-3.52,6.02h-24.63c-2.11,0-3.52-2.41-3.52-6.02Z"/>
    <path class="st0" d="M1420.96,603.02v-137.73c0-3.61,1.41-6.02,3.52-6.02,21.11,0,28.15-2.41,28.15-10.84,0-18.87-33.78-16.46-33.78-66.26,0-22.08,11.26-57.82,46.45-57.82,33.08,0,46.92,18.07,46.92,72.68v.4c0,3.61-1.41,6.02-3.52,6.02h-23.93c-2.11,0-3.52-2.41-3.52-6.02,0-18.47-1.17-34.53-13.37-34.53-9.85,0-11.96,12.45-11.96,22.08,0,51.4,62.64,32.53,62.64,138.94,0,61.04-20.88,85.13-59.59,85.13h-34.49c-2.11,0-3.52-2.41-3.52-6.02Z"/>
    <path class="st0" d="M1543.43,462.88l-13.14-128.5v-1.61c0-3.21.94-4.82,3.05-4.82h61c2.35,0,3.52,2.01,3.05,6.42l-12.9,128.5c-.47,3.61-1.88,5.22-3.99,5.22h-33.31c-2.11,0-3.28-1.61-3.75-5.22ZM1541.08,603.02v-116.05c0-3.61,1.41-6.02,3.52-6.02h38.01c2.11,0,3.52,2.41,3.52,6.02v116.05c0,3.61-1.41,6.02-3.52,6.02h-38.01c-2.11,0-3.52-2.41-3.52-6.02Z"/>
  </g>
  <g>
    <path class="st0" d="M166.14,193.95V9.64c0-3.61,1.41-6.02,3.52-6.02h37.77c2.11,0,3.52,2.41,3.52,6.02v98.38c0,20.88,0,31.32,9.15,31.32s9.15-10.44,9.15-31.32V9.64c0-3.61,1.41-6.02,3.52-6.02h37.54c2.11,0,3.52,2.41,3.52,6.02v184.31c0,42.97-6.33,92.76-53.49,92.76s-54.19-49.79-54.19-92.76Z"/>
    <path class="st0" d="M287.9,278.68V9.64c0-3.61,1.41-6.02,3.52-6.02h33.78c1.88,0,3.28,1.2,3.99,4.82l22.29,105.21c.47,2.41,1.41,3.61,2.11,3.61.94,0,1.88-1.61,1.88-4.82V9.64c0-3.61,1.41-6.02,3.52-6.02h24.63c2.11,0,3.52,2.41,3.52,6.02v269.04c0,3.61-1.41,6.02-3.52,6.02h-33.78c-1.88,0-3.28-1.21-3.99-4.82l-22.29-115.25c-.47-2.41-1.41-3.61-2.11-3.61-.94,0-1.88,1.61-1.88,4.42v113.24c0,3.61-1.41,6.02-3.52,6.02h-24.63c-2.11,0-3.52-2.41-3.52-6.02Z"/>
    <path class="st0" d="M402.62,278.68v-137.73c0-3.61,1.41-6.02,3.52-6.02,21.11,0,28.15-2.41,28.15-10.84,0-18.87-33.78-16.46-33.78-66.26,0-22.08,11.26-57.82,46.45-57.82,33.08,0,46.92,18.07,46.92,72.68v.4c0,3.61-1.41,6.02-3.52,6.02h-23.93c-2.11,0-3.52-2.41-3.52-6.02,0-18.47-1.17-34.53-13.37-34.53-9.85,0-11.96,12.45-11.96,22.09,0,51.4,62.64,32.53,62.64,138.94,0,61.04-20.88,85.13-59.59,85.13h-34.49c-2.11,0-3.52-2.41-3.52-6.02Z"/>
    <path class="st0" d="M578.1,284.7h-34.96c-20.41,0-32.38-18.87-32.38-54.21V9.64c0-3.61,2.11-6.02,5.4-6.02h60.06c3.28,0,5.4,2.41,5.4,6.02v29.31c0,3.61-2.11,6.02-5.4,6.02h-15.48c-3.05,0-5.16,2.41-5.16,6.02v16.87c0,3.61,2.11,6.02,5.16,6.02h10.32c3.05,0,5.16,2.41,5.16,6.02v29.31c0,3.61-2.11,6.02-5.16,6.02h-10.32c-3.05,0-5.16,1.61-5.16,2.01v12.45c0,3.61,2.11,6.02,5.16,6.02h17.36c3.05,0,5.16,2.41,5.16,6.02v136.93c0,3.61-2.11,6.02-5.16,6.02Z"/>
    <path class="st0" d="M597.33,278.68V9.24c0-3.61,1.41-6.02,3.52-6.02h42.7c45.28,0,61.94,26.9,61.94,66.26s-16.66,58.63-29.33,64.25c-1.88.8-2.58,2.01-2.58,2.81s.94,1.61,3.05,2.41c18.53,7.63,26.04,15.66,26.04,38.55v101.19c0,3.61-1.41,6.02-3.52,6.02h-36.6c-2.11,0-3.52-2.41-3.52-6.02v-103.6c0-12.45-6.1-15.66-11.26-15.66-3.52,0-5.63,1.61-5.63,5.62v113.64c0,3.61-1.41,6.02-3.52,6.02h-37.77c-2.11,0-3.52-2.41-3.52-6.02ZM644.96,106.81c6.1,0,19.24-8.43,19.24-32.93,0-21.28-11.73-28.11-18.06-28.11-2.35,0-3.99.8-3.99,2.41v56.62c0,1.2,1.17,2.01,2.82,2.01Z"/>
    <path class="st0" d="M766.01,278.68V9.64c0-3.61,1.41-6.02,3.52-6.02h43.4c2.11,0,3.28,2.01,3.75,5.22l15.72,103.2c.47,2.81,1.41,4.42,2.11,4.42.94,0,1.64-1.61,2.11-4.42l16.42-103.2c.47-3.21,1.64-5.22,3.75-5.22h43.64c2.11,0,3.52,2.41,3.52,6.02v269.04c0,3.61-1.41,6.02-3.52,6.02h-30.97c-2.11,0-3.52-2.41-3.52-6.02v-115.65c0-2.41-.94-4.02-1.88-4.02-.7,0-1.64,1.2-1.88,3.21l-18.53,117.25c-.47,3.21-1.64,5.22-3.75,5.22h-16.42c-2.11,0-3.29-2.01-3.75-5.22l-18.3-116.85c-.24-2.01-1.17-3.21-1.88-3.21-.94,0-1.88,1.61-1.88,4.02v115.24c0,3.61-1.41,6.02-3.52,6.02h-24.63c-2.11,0-3.52-2.41-3.52-6.02Z"/>
    <path class="st0" d="M985.36,284.7h-34.96c-20.41,0-32.38-18.87-32.38-54.21V9.64c0-3.61,2.11-6.02,5.4-6.02h60.06c3.28,0,5.4,2.41,5.4,6.02v29.31c0,3.61-2.11,6.02-5.4,6.02h-15.48c-3.05,0-5.16,2.41-5.16,6.02v16.87c0,3.61,2.11,6.02,5.16,6.02h10.32c3.05,0,5.16,2.41,5.16,6.02v29.31c0,3.61-2.11,6.02-5.16,6.02h-10.32c-3.05,0-5.16,1.61-5.16,2.01v12.45c0,3.61,2.11,6.02,5.16,6.02h17.36c3.05,0,5.16,2.41,5.16,6.02v136.93c0,3.61-2.11,6.02-5.16,6.02Z"/>
    <path class="st0" d="M1004.59,278.68V9.24c0-3.61,1.41-6.02,3.52-6.02h42.7c45.28,0,61.94,26.9,61.94,66.26s-16.66,58.63-29.33,64.25c-1.88.8-2.58,2.01-2.58,2.81s.94,1.61,3.05,2.41c18.53,7.63,26.04,15.66,26.04,38.55v101.19c0,3.61-1.41,6.02-3.52,6.02h-36.6c-2.11,0-3.52-2.41-3.52-6.02v-103.6c0-12.45-6.1-15.66-11.26-15.66-3.52,0-5.63,1.61-5.63,5.62v113.64c0,3.61-1.41,6.02-3.52,6.02h-37.77c-2.11,0-3.52-2.41-3.52-6.02ZM1052.22,106.81c6.1,0,19.24-8.43,19.24-32.93,0-21.28-11.73-28.11-18.06-28.11-2.35,0-3.99.8-3.99,2.41v56.62c0,1.2,1.17,2.01,2.82,2.01Z"/>
    <path class="st0" d="M1120.48,173.07c0-61.44,6.33-171.46,56.3-171.46,15.48,0,38.47,13.25,38.47,81.11v.4c0,3.61-1.41,6.02-3.52,6.02h-22.52c-2.11,0-3.52-2.41-3.52-6.02,0-28.91-2.11-38.55-8.21-38.55-8.68,0-16.19,20.88-16.19,52.2,0,26.9,4.69,38.55,13.37,38.55,4.69,0,9.85-3.21,9.85-18.87v-.4c0-3.61,1.41-6.02,3.52-6.02h24.4c2.11,0,3.52,2.41,3.52,6.02v162.63c0,3.61-1.88,6.02-5.4,6.02h-26.75c-36.6,0-63.34-8.43-63.34-111.63Z"/>
    <path class="st0" d="M1230.04,278.68V9.64c0-3.61,2.11-6.02,5.4-6.02h33.78c3.05,0,5.63,2.41,5.63,6.02v57.82c0,3.61,1.64,6.02,4.93,6.02h7.74c3.05,0,5.16-2.41,5.16-6.02V9.64c0-3.61,2.11-6.02,5.4-6.02h33.78c3.05,0,5.16,2.41,5.63,6.02v269.04c0,3.61-2.11,6.02-5.4,6.02h-34.02c-3.28,0-5.4-2.41-5.4-6.02V121.27c0-3.61-2.11-6.02-5.16-6.02h-7.74c-3.29,0-4.93,2.41-4.93,6.02v157.41c0,3.61-2.11,6.02-5.4,6.02h-33.31c-3.28,0-6.1-2.41-6.1-6.02Z"/>
    <path class="st0" d="M1350.16,278.68v-46.58c0-3.61,1.41-6.02,3.52-6.02h38.01c2.11,0,3.52,2.41,3.52,6.02v46.58c0,3.61-1.41,6.02-3.52,6.02h-38.01c-2.11,0-3.52-2.41-3.52-6.02Z"/>
  </g>
</svg>