<?xml version="1.0" encoding="UTF-8"?>
<svg id="Ebene_1" xmlns="http://www.w3.org/2000/svg" version="1.1" viewBox="0 0 350.66 79.33">
  <!-- Generator: Adobe Illustrator 29.6.0, SVG Export Plug-In . SVG Version: 2.1.1 Build 207)  -->
  <defs>
    <style>
      .st0 {
        fill: #f6dea9;
      }
    </style>
  </defs>
  <path class="st0" d="M6.49,37.7V13.09c0-.33.22-.55.55-.55h7.49c4.19,0,6.28,1.4,6.28,4.11,0,1.43-.81,2.9-2.13,3.71-.18.11-.29.22-.29.29s.11.15.33.26c2.61,1.54,3.64,5,3.64,8.27,0,4.89-1.65,9.07-8.05,9.07h-7.27c-.33,0-.55-.22-.55-.55ZM13.77,19.37c.77,0,2.17-.66,2.17-1.76,0-1.03-1.29-1.51-2.06-1.51-.33,0-.59.07-.59.26v2.72c0,.18.18.29.48.29ZM13.8,25.54c.88,0,2.61-.62,2.61-1.91,0-1.18-1.51-1.73-2.42-1.73-.4,0-.7.11-.7.33v3.09c0,.15.18.22.51.22Z"/>
  <path class="st0" d="M34.56,38.25h-5.47c-3.2,0-5.07-1.73-5.07-4.96V13.09c0-.33.33-.55.85-.55h9.4c.51,0,.85.22.85.55v2.68c0,.33-.33.55-.85.55h-2.42c-.48,0-.81.22-.81.55v1.54c0,.33.33.55.81.55h1.62c.48,0,.81.22.81.55v2.68c0,.33-.33.55-.81.55h-1.62c-.48,0-.81.15-.81.18v1.14c0,.33.33.55.81.55h2.72c.48,0,.81.22.81.55v12.53c0,.33-.33.55-.81.55Z"/>
  <path class="st0" d="M37.8,37.7v-12.6c0-.33.22-.55.55-.55,3.31,0,4.41-.22,4.41-.99,0-1.73-5.29-1.51-5.29-6.06,0-2.02,1.76-5.29,7.27-5.29,5.18,0,7.35,1.65,7.35,6.65v.04c0,.33-.22.55-.55.55h-3.75c-.33,0-.55-.22-.55-.55,0-1.69-.18-3.16-2.09-3.16-1.54,0-1.87,1.14-1.87,2.02,0,4.7,9.81,2.98,9.81,12.71,0,5.58-3.27,7.79-9.33,7.79h-5.4c-.33,0-.55-.22-.55-.55Z"/>
  <path class="st0" d="M62.53,22.64c0,1.76,1.18,1.98,3.16,1.98.37,0,.55.22.55.55v8.19c0,3.31-2.02,5.14-5.25,5.14s-5.07-1.8-5.07-5.03v-16.42h-2.09c-.33,0-.55-.22-.55-.55v-3.42c0-.33.22-.55.55-.55h11.9c.33,0,.55.22.55.55v3.42c0,.33-.22.55-.55.55h-3.2v5.58Z"/>
  <path class="st0" d="M79.03,38.25h-5.47c-3.2,0-5.07-1.73-5.07-4.96V13.09c0-.33.33-.55.85-.55h9.4c.51,0,.85.22.85.55v2.68c0,.33-.33.55-.85.55h-2.42c-.48,0-.81.22-.81.55v1.54c0,.33.33.55.81.55h1.62c.48,0,.81.22.81.55v2.68c0,.33-.33.55-.81.55h-1.62c-.48,0-.81.15-.81.18v1.14c0,.33.33.55.81.55h2.72c.48,0,.81.22.81.55v12.53c0,.33-.33.55-.81.55Z"/>
  <path class="st0" d="M82.04,33.29V13.09c0-.33.22-.55.55-.55h5.92c.33,0,.55.22.55.55v10.98c0,.33.22.55.55.55h2.79c.33,0,.55.22.55.55v12.53c0,.33-.22.55-.55.55h-5.29c-3.2,0-5.07-1.73-5.07-4.96Z"/>
  <path class="st0" d="M94.98,33.29V13.09c0-.33.22-.55.55-.55h5.92c.33,0,.55.22.55.55v10.98c0,.33.22.55.55.55h2.79c.33,0,.55.22.55.55v12.53c0,.33-.22.55-.55.55h-5.29c-3.2,0-5.07-1.73-5.07-4.96Z"/>
  <path class="st0" d="M115.63,37.7V13.09c0-.33.22-.55.55-.55h5.69c7.61,0,9.48,6.69,9.48,13.12,0,5.8-.74,12.6-9.55,12.6h-5.62c-.33,0-.55-.22-.55-.55ZM125.84,19.99c0-2.5-1.69-3.75-2.61-3.75-.33,0-.59.18-.59.55v6.32c0,.59.22.81.7.81,1.73-.04,2.5-2.39,2.5-3.93Z"/>
  <path class="st0" d="M143.55,38.25h-5.47c-3.2,0-5.07-1.73-5.07-4.96V13.09c0-.33.33-.55.85-.55h9.4c.51,0,.85.22.85.55v2.68c0,.33-.33.55-.85.55h-2.42c-.48,0-.81.22-.81.55v1.54c0,.33.33.55.81.55h1.62c.48,0,.81.22.81.55v2.68c0,.33-.33.55-.81.55h-1.62c-.48,0-.81.15-.81.18v1.14c0,.33.33.55.81.55h2.72c.48,0,.81.22.81.55v12.53c0,.33-.33.55-.81.55Z"/>
  <path class="st0" d="M146.57,37.7V13.09c0-.33.22-.55.55-.55h5.77c.33,0,.55.22.55.55v24.61c0,.33-.22.55-.55.55h-5.77c-.33,0-.55-.22-.55-.55Z"/>
  <path class="st0" d="M155.64,37.7V13.09c0-.33.22-.55.55-.55h5.29c.29,0,.51.11.62.44l3.49,9.63c.07.22.22.33.33.33.15,0,.29-.15.29-.44v-9.4c0-.33.22-.55.55-.55h3.86c.33,0,.55.22.55.55v24.61c0,.33-.22.55-.55.55h-5.29c-.29,0-.51-.11-.63-.44l-3.49-10.54c-.07-.22-.22-.33-.33-.33-.15,0-.29.15-.29.4v10.36c0,.33-.22.55-.55.55h-3.86c-.33,0-.55-.22-.55-.55Z"/>
  <path class="st0" d="M190.11,22.64c0,1.76,1.18,1.98,3.16,1.98.37,0,.55.22.55.55v8.19c0,3.31-2.02,5.14-5.25,5.14s-5.07-1.8-5.07-5.03v-16.42h-2.09c-.33,0-.55-.22-.55-.55v-3.42c0-.33.22-.55.55-.55h11.9c.33,0,.55.22.55.55v3.42c0,.33-.22.55-.55.55h-3.2v5.58Z"/>
  <path class="st0" d="M195.84,28.37v-4.04c0-.33.22-.55.55-.55h8.67c.33,0,.55.22.55.55v4.04c0,.33-.22.55-.55.55h-8.67c-.33,0-.55-.22-.55-.55Z"/>
  <path class="st0" d="M207.82,37.7v-12.6c0-.33.22-.55.55-.55,3.31,0,4.41-.22,4.41-.99,0-1.73-5.29-1.51-5.29-6.06,0-2.02,1.76-5.29,7.27-5.29,5.18,0,7.35,1.65,7.35,6.65v.04c0,.33-.22.55-.55.55h-3.75c-.33,0-.55-.22-.55-.55,0-1.69-.18-3.16-2.09-3.16-1.54,0-1.87,1.14-1.87,2.02,0,4.7,9.81,2.98,9.81,12.71,0,5.58-3.27,7.79-9.33,7.79h-5.4c-.33,0-.55-.22-.55-.55Z"/>
  <path class="st0" d="M224.76,37.7V13.09c0-.33.33-.55.85-.55h5.29c.48,0,.88.22.88.55v5.29c0,.33.26.55.77.55h1.21c.48,0,.81-.22.81-.55v-5.29c0-.33.33-.55.85-.55h5.29c.48,0,.81.22.88.55v24.61c0,.33-.33.55-.85.55h-5.33c-.51,0-.85-.22-.85-.55v-14.4c0-.33-.33-.55-.81-.55h-1.21c-.51,0-.77.22-.77.55v14.4c0,.33-.33.55-.85.55h-5.22c-.51,0-.96-.22-.96-.55Z"/>
  <path class="st0" d="M243.79,37.7V13.09c0-.33.22-.55.55-.55h5.77c.33,0,.55.22.55.55v24.61c0,.33-.22.55-.55.55h-5.77c-.33,0-.55-.22-.55-.55Z"/>
  <path class="st0" d="M252.87,37.7V13.05c0-.33.22-.55.55-.55h6.69c7.09,0,9.7,2.46,9.7,6.06s-2.61,5.36-4.59,5.88c-.29.07-.4.18-.4.26s.15.15.48.22c2.9.7,4.08,1.43,4.08,3.53v9.26c0,.33-.22.55-.55.55h-5.73c-.33,0-.55-.22-.55-.55v-9.48c0-1.14-.95-1.43-1.76-1.43-.55,0-.88.15-.88.51v10.4c0,.33-.22.55-.55.55h-5.92c-.33,0-.55-.22-.55-.55ZM260.33,21.98c.95,0,3.01-.77,3.01-3.01,0-1.95-1.84-2.57-2.83-2.57-.37,0-.62.07-.62.22v5.18c0,.11.18.18.44.18Z"/>
  <path class="st0" d="M279.84,22.64c0,1.76,1.18,1.98,3.16,1.98.37,0,.55.22.55.55v8.19c0,3.31-2.02,5.14-5.25,5.14s-5.07-1.8-5.07-5.03v-16.42h-2.09c-.33,0-.55-.22-.55-.55v-3.42c0-.33.22-.55.55-.55h11.9c.33,0,.55.22.55.55v3.42c0,.33-.22.55-.55.55h-3.2v5.58Z"/>
  <path class="st0" d="M293.51,29.95V13.09c0-.33.22-.55.55-.55h5.92c.33,0,.55.22.55.55v9c0,1.91,0,2.87,1.43,2.87s1.43-.95,1.43-2.87v-9c0-.33.22-.55.55-.55h5.88c.33,0,.55.22.55.55v16.86c0,3.93-.99,8.49-8.38,8.49s-8.49-4.56-8.49-8.49Z"/>
  <path class="st0" d="M312.58,37.7V13.09c0-.33.22-.55.55-.55h5.29c.29,0,.51.11.62.44l3.49,9.63c.07.22.22.33.33.33.15,0,.29-.15.29-.44v-9.4c0-.33.22-.55.55-.55h3.86c.33,0,.55.22.55.55v24.61c0,.33-.22.55-.55.55h-5.29c-.29,0-.51-.11-.63-.44l-3.49-10.54c-.07-.22-.22-.33-.33-.33-.15,0-.29.15-.29.4v10.36c0,.33-.22.55-.55.55h-3.86c-.33,0-.55-.22-.55-.55Z"/>
  <path class="st0" d="M330.33,37.7V13.09c0-.33.22-.55.55-.55h5.69c7.61,0,9.48,6.69,9.48,13.12,0,5.8-.74,12.6-9.55,12.6h-5.62c-.33,0-.55-.22-.55-.55ZM340.54,19.99c0-2.5-1.69-3.75-2.61-3.75-.33,0-.59.18-.59.55v6.32c0,.59.22.81.7.81,1.73-.04,2.5-2.39,2.5-3.93Z"/>
  <path class="st0" d="M9.18,59.93v-16.86c0-.33.22-.55.55-.55h5.92c.33,0,.55.22.55.55v9c0,1.91,0,2.87,1.43,2.87s1.43-.95,1.43-2.87v-9c0-.33.22-.55.55-.55h5.88c.33,0,.55.22.55.55v16.86c0,3.93-.99,8.49-8.38,8.49s-8.49-4.56-8.49-8.49Z"/>
  <path class="st0" d="M28.25,67.68v-24.61c0-.33.22-.55.55-.55h5.29c.29,0,.51.11.62.44l3.49,9.63c.07.22.22.33.33.33.15,0,.29-.15.29-.44v-9.4c0-.33.22-.55.55-.55h3.86c.33,0,.55.22.55.55v24.61c0,.33-.22.55-.55.55h-5.29c-.29,0-.51-.11-.62-.44l-3.49-10.54c-.07-.22-.22-.33-.33-.33-.15,0-.29.15-.29.4v10.36c0,.33-.22.55-.55.55h-3.86c-.33,0-.55-.22-.55-.55Z"/>
  <path class="st0" d="M55,52.62c0,1.76,1.18,1.98,3.16,1.98.37,0,.55.22.55.55v8.19c0,3.31-2.02,5.14-5.25,5.14s-5.07-1.8-5.07-5.03v-16.42h-2.09c-.33,0-.55-.22-.55-.55v-3.42c0-.33.22-.55.55-.55h11.9c.33,0,.55.22.55.55v3.42c0,.33-.22.55-.55.55h-3.2v5.58Z"/>
  <path class="st0" d="M71.49,68.23h-5.47c-3.2,0-5.07-1.73-5.07-4.96v-20.21c0-.33.33-.55.85-.55h9.4c.51,0,.85.22.85.55v2.68c0,.33-.33.55-.85.55h-2.42c-.48,0-.81.22-.81.55v1.54c0,.33.33.55.81.55h1.62c.48,0,.81.22.81.55v2.68c0,.33-.33.55-.81.55h-1.62c-.48,0-.81.15-.81.18v1.14c0,.33.33.55.81.55h2.72c.48,0,.81.22.81.55v12.53c0,.33-.33.55-.81.55Z"/>
  <path class="st0" d="M74.51,67.68v-24.65c0-.33.22-.55.55-.55h6.69c7.09,0,9.7,2.46,9.7,6.06s-2.61,5.36-4.59,5.88c-.29.07-.4.18-.4.26s.15.15.48.22c2.9.7,4.08,1.43,4.08,3.53v9.26c0,.33-.22.55-.55.55h-5.73c-.33,0-.55-.22-.55-.55v-9.48c0-1.14-.96-1.43-1.76-1.43-.55,0-.88.15-.88.51v10.4c0,.33-.22.55-.55.55h-5.92c-.33,0-.55-.22-.55-.55ZM81.97,51.95c.96,0,3.01-.77,3.01-3.01,0-1.95-1.84-2.57-2.83-2.57-.37,0-.62.07-.62.22v5.18c0,.11.18.18.44.18Z"/>
  <path class="st0" d="M93.43,67.68v-12.6c0-.33.22-.55.55-.55,3.31,0,4.41-.22,4.41-.99,0-1.73-5.29-1.51-5.29-6.06,0-2.02,1.76-5.29,7.27-5.29,5.18,0,7.35,1.65,7.35,6.65v.04c0,.33-.22.55-.55.55h-3.75c-.33,0-.55-.22-.55-.55,0-1.69-.18-3.16-2.09-3.16-1.54,0-1.87,1.14-1.87,2.02,0,4.7,9.81,2.98,9.81,12.71,0,5.58-3.27,7.79-9.33,7.79h-5.4c-.33,0-.55-.22-.55-.55Z"/>
  <path class="st0" d="M118.16,52.62c0,1.76,1.18,1.98,3.16,1.98.37,0,.55.22.55.55v8.19c0,3.31-2.02,5.14-5.25,5.14s-5.07-1.8-5.07-5.03v-16.42h-2.09c-.33,0-.55-.22-.55-.55v-3.42c0-.33.22-.55.55-.55h11.9c.33,0,.55.22.55.55v3.42c0,.33-.22.55-.55.55h-3.2v5.58Z"/>
  <path class="st0" d="M124.12,59.93v-16.86c0-.33.22-.55.55-.55h5.92c.33,0,.55.22.55.55v9c0,1.91,0,2.87,1.43,2.87s1.43-.95,1.43-2.87v-9c0-.33.22-.55.55-.55h5.88c.33,0,.55.22.55.55v16.86c0,3.93-.99,8.49-8.38,8.49s-8.49-4.56-8.49-8.49ZM127.68,40.09c0-.77.96-1.36,2.09-1.36s2.09.59,2.09,1.36c0,.81-.92,1.4-2.09,1.4s-2.09-.59-2.09-1.4ZM133.19,40.09c0-.77.92-1.36,2.13-1.36,1.1,0,2.06.59,2.06,1.36,0,.81-.96,1.4-2.06,1.4-1.21,0-2.13-.59-2.13-1.4Z"/>
  <path class="st0" d="M152.19,52.62c0,1.76,1.18,1.98,3.16,1.98.37,0,.55.22.55.55v8.19c0,3.31-2.02,5.14-5.25,5.14s-5.07-1.8-5.07-5.03v-16.42h-2.09c-.33,0-.55-.22-.55-.55v-3.42c0-.33.22-.55.55-.55h11.9c.33,0,.55.22.55.55v3.42c0,.33-.22.55-.55.55h-3.2v5.58Z"/>
  <path class="st0" d="M158.14,59.74v-4.41c0-.26.04-.48.22-.7l5.69-7.35c.07-.11.11-.18.11-.26,0-.22-.26-.37-.74-.37h-4.67c-.33,0-.55-.22-.55-.55v-3.05c0-.33.22-.55.55-.55h11.9c.33,0,.55.22.55.55v2.72c0,.26-.07.48-.22.7l-5.84,7.42c-.07.11-.11.22-.11.29,0,.22.26.37.7.37h4.85c.33,0,.55.22.55.55v12.56c0,.33-.22.55-.55.55h-3.97c-7.38,0-8.49-4.56-8.49-8.49Z"/>
  <path class="st0" d="M183.97,68.23h-5.47c-3.2,0-5.07-1.73-5.07-4.96v-20.21c0-.33.33-.55.85-.55h9.4c.51,0,.85.22.85.55v2.68c0,.33-.33.55-.85.55h-2.42c-.48,0-.81.22-.81.55v1.54c0,.33.33.55.81.55h1.62c.48,0,.81.22.81.55v2.68c0,.33-.33.55-.81.55h-1.62c-.48,0-.81.15-.81.18v1.14c0,.33.33.55.81.55h2.72c.48,0,.81.22.81.55v12.53c0,.33-.33.55-.81.55Z"/>
  <path class="st0" d="M194.7,59.93v-16.86c0-.33.22-.55.55-.55h5.92c.33,0,.55.22.55.55v9c0,1.91,0,2.87,1.43,2.87s1.43-.95,1.43-2.87v-9c0-.33.22-.55.55-.55h5.88c.33,0,.55.22.55.55v16.86c0,3.93-.99,8.49-8.38,8.49s-8.49-4.56-8.49-8.49Z"/>
  <path class="st0" d="M213.77,67.68v-24.61c0-.33.22-.55.55-.55h5.29c.29,0,.51.11.62.44l3.49,9.63c.07.22.22.33.33.33.15,0,.29-.15.29-.44v-9.4c0-.33.22-.55.55-.55h3.86c.33,0,.55.22.55.55v24.61c0,.33-.22.55-.55.55h-5.29c-.29,0-.51-.11-.63-.44l-3.49-10.54c-.07-.22-.22-.33-.33-.33-.15,0-.29.15-.29.4v10.36c0,.33-.22.55-.55.55h-3.86c-.33,0-.55-.22-.55-.55Z"/>
  <path class="st0" d="M231.74,67.68v-12.6c0-.33.22-.55.55-.55,3.31,0,4.41-.22,4.41-.99,0-1.73-5.29-1.51-5.29-6.06,0-2.02,1.76-5.29,7.27-5.29,5.18,0,7.35,1.65,7.35,6.65v.04c0,.33-.22.55-.55.55h-3.75c-.33,0-.55-.22-.55-.55,0-1.69-.18-3.16-2.09-3.16-1.54,0-1.87,1.14-1.87,2.02,0,4.7,9.81,2.98,9.81,12.71,0,5.58-3.27,7.79-9.33,7.79h-5.4c-.33,0-.55-.22-.55-.55Z"/>
  <path class="st0" d="M256.4,67.68v-24.61c0-.33.22-.55.55-.55h5.69c7.61,0,9.48,6.69,9.48,13.12,0,5.8-.74,12.6-9.55,12.6h-5.62c-.33,0-.55-.22-.55-.55ZM266.61,49.97c0-2.5-1.69-3.75-2.61-3.75-.33,0-.59.18-.59.55v6.32c0,.59.22.81.7.81,1.73-.04,2.5-2.39,2.5-3.93Z"/>
  <path class="st0" d="M272.05,67.64l4.78-24.62c.07-.33.33-.51.66-.51h7.82c.37,0,.59.15.66.48l4.92,24.65v.15c0,.29-.22.44-.55.44h-5.69c-.37,0-.59-.15-.62-.51l-.92-5.44c-.07-.37-.29-.51-.62-.51h-3.23c-.37,0-.55.18-.62.51l-1.21,5.44c-.07.33-.26.51-.62.51h-4.19c-.4,0-.62-.18-.55-.59ZM282.15,54.93l-.62-5.22c-.07-.48-.26-.7-.48-.7-.18,0-.4.22-.48.7l-.74,5.22v.07c0,.37.29.51.81.51h.62c.59,0,.96-.22.88-.59Z"/>
  <path class="st0" d="M292.34,67.68v-24.61c0-.33.22-.55.55-.55h7.5c4.19,0,6.28,1.4,6.28,4.12,0,1.43-.81,2.9-2.13,3.71-.18.11-.29.22-.29.29s.11.15.33.26c2.61,1.54,3.64,5,3.64,8.27,0,4.89-1.65,9.07-8.05,9.07h-7.27c-.33,0-.55-.22-.55-.55ZM299.61,49.35c.77,0,2.17-.66,2.17-1.76,0-1.03-1.29-1.51-2.06-1.51-.33,0-.59.07-.59.26v2.72c0,.18.18.29.48.29ZM299.65,55.52c.88,0,2.61-.63,2.61-1.91,0-1.18-1.51-1.73-2.42-1.73-.4,0-.7.11-.7.33v3.09c0,.15.18.22.51.22Z"/>
  <path class="st0" d="M320.41,68.23h-5.47c-3.2,0-5.07-1.73-5.07-4.96v-20.21c0-.33.33-.55.85-.55h9.4c.51,0,.85.22.85.55v2.68c0,.33-.33.55-.85.55h-2.42c-.48,0-.81.22-.81.55v1.54c0,.33.33.55.81.55h1.62c.48,0,.81.22.81.55v2.68c0,.33-.33.55-.81.55h-1.62c-.48,0-.81.15-.81.18v1.14c0,.33.33.55.81.55h2.72c.48,0,.81.22.81.55v12.53c0,.33-.33.55-.81.55Z"/>
  <path class="st0" d="M323.42,67.68v-24.61c0-.33.22-.55.55-.55h5.77c.33,0,.55.22.55.55v24.61c0,.33-.22.55-.55.55h-5.77c-.33,0-.55-.22-.55-.55Z"/>
  <path class="st0" d="M334.74,54.86l-2.06-11.76v-.15c0-.29.15-.44.48-.44h9.55c.37,0,.55.18.48.59l-2.02,11.76c-.07.33-.29.48-.62.48h-5.22c-.33,0-.51-.15-.59-.48ZM334.37,67.68v-10.62c0-.33.22-.55.55-.55h5.95c.33,0,.55.22.55.55v10.62c0,.33-.22.55-.55.55h-5.95c-.33,0-.55-.22-.55-.55Z"/>
</svg>