<?xml version="1.0" encoding="UTF-8"?>
<svg id="Ebene_1" xmlns="http://www.w3.org/2000/svg" version="1.1" viewBox="0 0 305.9 98.75">
  <!-- Generator: Adobe Illustrator 29.6.0, SVG Export Plug-In . SVG Version: 2.1.1 Build 207)  -->
  <defs>
    <style>
      .st0 {
        fill: #db1915;
      }
    </style>
  </defs>
  <path class="st0" d="M18.18,45.86L11.89,12.08v-.2c0-.4.2-.6.65-.6h7.1c.45,0,.7.25.81.7l3.02,16.46c.05.35.25.55.45.55.15,0,.35-.2.4-.55l2.87-16.46c.1-.45.4-.7.86-.7h7c.45,0,.76.25.86.7l2.97,16.46c.05.35.25.55.45.55s.4-.2.45-.55l2.87-16.46c.1-.45.35-.7.8-.7h6.59c.5,0,.75.25.65.81l-6.8,33.77c-.1.45-.35.65-.81.65h-8.41c-.45,0-.7-.25-.81-.7l-2.57-13.79c-.05-.35-.25-.55-.4-.55-.2,0-.35.2-.45.55l-2.92,13.84c-.1.45-.35.65-.81.65h-7.75c-.45,0-.7-.2-.81-.65Z"/>
  <path class="st0" d="M48.12,45.71l6.54-33.72c.1-.45.45-.7.91-.7h10.72c.5,0,.81.2.91.65l6.75,33.78v.2c0,.4-.3.6-.76.6h-7.8c-.5,0-.81-.2-.86-.7l-1.26-7.45c-.1-.5-.4-.71-.86-.71h-4.43c-.5,0-.75.25-.86.71l-1.66,7.45c-.1.45-.35.7-.86.7h-5.74c-.55,0-.86-.25-.75-.8ZM61.96,28.29l-.86-7.15c-.1-.65-.35-.96-.65-.96-.25,0-.55.3-.65.96l-1.01,7.15v.1c0,.5.4.71,1.11.71h.86c.81,0,1.31-.3,1.21-.81Z"/>
  <path class="st0" d="M76.2,45.76v-17.27c0-.45.3-.75.75-.75,4.53,0,6.04-.3,6.04-1.36,0-2.37-7.25-2.06-7.25-8.3,0-2.77,2.42-7.25,9.97-7.25,7.1,0,10.07,2.27,10.07,9.11v.05c0,.45-.3.76-.76.76h-5.13c-.45,0-.76-.3-.76-.76,0-2.32-.25-4.33-2.87-4.33-2.11,0-2.57,1.56-2.57,2.77,0,6.44,13.44,4.08,13.44,17.42,0,7.65-4.48,10.67-12.78,10.67h-7.4c-.45,0-.75-.3-.75-.75Z"/>
  <path class="st0" d="M109.97,45.76V12.03c0-.45.3-.75.76-.75h7.9c.45,0,.76.3.76.75v33.72c0,.45-.3.75-.76.75h-7.9c-.45,0-.76-.3-.76-.75Z"/>
  <path class="st0" d="M122.7,45.76v-17.27c0-.45.3-.75.75-.75,4.53,0,6.04-.3,6.04-1.36,0-2.37-7.25-2.06-7.25-8.3,0-2.77,2.42-7.25,9.97-7.25,7.1,0,10.07,2.27,10.07,9.11v.05c0,.45-.3.76-.76.76h-5.13c-.45,0-.76-.3-.76-.76,0-2.32-.25-4.33-2.87-4.33-2.11,0-2.57,1.56-2.57,2.77,0,6.44,13.44,4.08,13.44,17.42,0,7.65-4.48,10.67-12.78,10.67h-7.4c-.45,0-.75-.3-.75-.75Z"/>
  <path class="st0" d="M156.57,25.12c0,2.42,1.61,2.72,4.33,2.72.5,0,.76.3.76.75v11.22c0,4.53-2.77,7.05-7.2,7.05s-6.95-2.47-6.95-6.9v-22.5h-2.87c-.45,0-.76-.3-.76-.76v-4.68c0-.45.3-.75.76-.75h16.31c.45,0,.76.3.76.75v4.68c0,.45-.3.76-.76.76h-4.38v7.65Z"/>
  <path class="st0" d="M175.29,45.76V12.03c0-.45.3-.75.76-.75h10.27c5.74,0,8.61,1.91,8.61,5.64,0,1.96-1.11,3.98-2.92,5.08-.25.15-.4.3-.4.4s.15.2.45.35c3.57,2.11,4.98,6.84,4.98,11.32,0,6.69-2.27,12.43-11.02,12.43h-9.97c-.45,0-.76-.3-.76-.75ZM185.25,20.64c1.06,0,2.97-.91,2.97-2.42,0-1.41-1.76-2.06-2.82-2.06-.45,0-.81.1-.81.35v3.73c0,.25.25.4.65.4ZM185.3,29.1c1.21,0,3.57-.86,3.57-2.62,0-1.61-2.06-2.37-3.32-2.37-.55,0-.96.15-.96.45v4.23c0,.2.25.3.7.3Z"/>
  <path class="st0" d="M213.74,46.51h-7.5c-4.38,0-6.95-2.37-6.95-6.8V12.03c0-.45.45-.75,1.16-.75h12.89c.7,0,1.16.3,1.16.75v3.67c0,.45-.45.76-1.16.76h-3.32c-.65,0-1.11.3-1.11.75v2.11c0,.45.45.75,1.11.75h2.22c.65,0,1.11.3,1.11.76v3.67c0,.45-.45.75-1.11.75h-2.22c-.65,0-1.11.2-1.11.25v1.56c0,.45.45.76,1.11.76h3.72c.65,0,1.11.3,1.11.75v17.16c0,.45-.45.75-1.11.75Z"/>
  <path class="st0" d="M217.86,45.76V11.98c0-.45.3-.76.75-.76h9.16c9.71,0,13.29,3.37,13.29,8.31s-3.57,7.35-6.29,8.05c-.4.1-.55.25-.55.35s.2.2.65.3c3.98.96,5.59,1.96,5.59,4.83v12.68c0,.45-.3.75-.75.75h-7.85c-.45,0-.75-.3-.75-.75v-12.99c0-1.56-1.31-1.96-2.42-1.96-.76,0-1.21.2-1.21.7v14.24c0,.45-.3.75-.75.75h-8.1c-.45,0-.75-.3-.75-.75ZM228.08,24.21c1.31,0,4.13-1.06,4.13-4.13,0-2.67-2.52-3.52-3.88-3.52-.5,0-.86.1-.86.3v7.1c0,.15.25.25.6.25Z"/>
  <path class="st0" d="M243.47,39.72V12.03c0-.45.3-.75.75-.75h8.1c.45,0,.75.3.75.75v15.05c0,.45.3.76.76.76h3.82c.45,0,.76.3.76.75v17.16c0,.45-.3.75-.76.75h-7.25c-4.38,0-6.95-2.37-6.95-6.8Z"/>
  <path class="st0" d="M261.19,45.76V12.03c0-.45.3-.75.75-.75h7.9c.45,0,.75.3.75.75v33.72c0,.45-.3.75-.75.75h-7.9c-.45,0-.75-.3-.75-.75Z"/>
  <path class="st0" d="M273.62,45.76V12.03c0-.45.3-.75.75-.75h7.25c.4,0,.7.15.86.6l4.78,13.19c.1.3.3.45.45.45.2,0,.4-.2.4-.6v-12.89c0-.45.3-.75.75-.75h5.29c.45,0,.75.3.75.75v33.72c0,.45-.3.75-.75.75h-7.25c-.4,0-.7-.15-.85-.6l-4.78-14.45c-.1-.3-.3-.45-.45-.45-.2,0-.4.2-.4.55v14.19c0,.45-.3.75-.75.75h-5.29c-.45,0-.75-.3-.75-.75Z"/>
  <path class="st0" d="M74.87,87.73h-7.5c-4.38,0-6.95-2.37-6.95-6.8v-27.68c0-.45.45-.75,1.16-.75h12.89c.7,0,1.16.3,1.16.75v3.67c0,.45-.45.75-1.16.75h-3.32c-.65,0-1.11.3-1.11.76v2.11c0,.45.45.75,1.11.75h2.22c.65,0,1.11.3,1.11.75v3.67c0,.45-.45.76-1.11.76h-2.22c-.65,0-1.11.2-1.11.25v1.56c0,.45.45.75,1.11.75h3.73c.65,0,1.11.3,1.11.75v17.16c0,.45-.45.75-1.11.75Z"/>
  <path class="st0" d="M78.99,86.98v-33.72c0-.45.3-.75.76-.75h7.25c.4,0,.7.15.86.6l4.78,13.19c.1.3.3.45.45.45.2,0,.4-.2.4-.6v-12.89c0-.45.3-.75.76-.75h5.29c.45,0,.75.3.75.75v33.72c0,.45-.3.75-.75.75h-7.25c-.4,0-.71-.15-.86-.6l-4.78-14.44c-.1-.3-.3-.45-.45-.45-.2,0-.4.2-.4.55v14.19c0,.45-.3.75-.75.75h-5.29c-.45,0-.76-.3-.76-.75Z"/>
  <path class="st0" d="M114.17,86.98v-17.26c0-.45.3-.76.75-.76,4.53,0,6.04-.3,6.04-1.36,0-2.37-7.25-2.06-7.25-8.31,0-2.77,2.42-7.25,9.97-7.25,7.1,0,10.07,2.27,10.07,9.11v.05c0,.45-.3.75-.76.75h-5.13c-.45,0-.76-.3-.76-.75,0-2.32-.25-4.33-2.87-4.33-2.11,0-2.57,1.56-2.57,2.77,0,6.44,13.44,4.08,13.44,17.42,0,7.65-4.48,10.67-12.78,10.67h-7.4c-.45,0-.75-.3-.75-.75Z"/>
  <path class="st0" d="M135.76,86.93l6.54-33.72c.1-.45.45-.7.91-.7h10.72c.5,0,.81.2.91.65l6.75,33.77v.2c0,.4-.3.6-.76.6h-7.8c-.5,0-.81-.2-.86-.7l-1.26-7.45c-.1-.5-.4-.71-.86-.71h-4.43c-.5,0-.75.25-.86.71l-1.66,7.45c-.1.45-.35.7-.86.7h-5.74c-.55,0-.86-.25-.75-.8ZM149.6,69.51l-.86-7.15c-.1-.65-.35-.96-.65-.96-.25,0-.55.3-.65.96l-1.01,7.15v.1c0,.5.4.7,1.11.7h.86c.81,0,1.31-.3,1.21-.8Z"/>
  <path class="st0" d="M162.53,80.94v-27.68c0-.45.3-.75.76-.75h8.1c.45,0,.76.3.76.75v15.05c0,.45.3.75.75.75h3.83c.45,0,.75.3.75.75v17.16c0,.45-.3.75-.75.75h-7.25c-4.38,0-6.95-2.37-6.95-6.8Z"/>
  <path class="st0" d="M180.54,86.98v-17.26c0-.45.3-.76.75-.76,4.53,0,6.04-.3,6.04-1.36,0-2.37-7.25-2.06-7.25-8.31,0-2.77,2.42-7.25,9.97-7.25,7.1,0,10.07,2.27,10.07,9.11v.05c0,.45-.3.75-.75.75h-5.14c-.45,0-.75-.3-.75-.75,0-2.32-.25-4.33-2.87-4.33-2.12,0-2.57,1.56-2.57,2.77,0,6.44,13.44,4.08,13.44,17.42,0,7.65-4.48,10.67-12.79,10.67h-7.4c-.45,0-.75-.3-.75-.75Z"/>
  <path class="st0" d="M202.13,86.93l6.54-33.72c.1-.45.45-.7.91-.7h10.72c.5,0,.8.2.91.65l6.74,33.77v.2c0,.4-.3.6-.75.6h-7.8c-.5,0-.81-.2-.86-.7l-1.26-7.45c-.1-.5-.4-.71-.86-.71h-4.43c-.5,0-.76.25-.86.71l-1.66,7.45c-.1.45-.35.7-.86.7h-5.74c-.55,0-.86-.25-.75-.8ZM215.97,69.51l-.86-7.15c-.1-.65-.35-.96-.65-.96-.25,0-.55.3-.65.96l-1.01,7.15v.1c0,.5.4.7,1.11.7h.86c.8,0,1.31-.3,1.21-.8Z"/>
  <path class="st0" d="M233.69,69.31v-.1c0-4.78,7.15-5.64,7.15-9.71,0-1.21-.6-2.06-2.42-2.06s-2.62.81-2.62,3.12c0,.45-.3.75-.76.75h-5.38c-.45,0-.75-.3-.75-.75v-.05c0-5.34,3.87-8.16,9.46-8.16,4.88,0,10.17,2.52,10.17,7,0,4.78-5.19,6.39-5.19,9.92v.05c0,.45-.3.75-.75.75h-8.15c-.45,0-.76-.3-.76-.75ZM233.69,86.98v-14.55c0-.45.3-.75.76-.75h8.15c.45,0,.75.3.75.75v14.55c0,.45-.3.75-.75.75h-8.15c-.45,0-.76-.3-.76-.75Z"/>
</svg>