<?xml version="1.0" encoding="UTF-8"?>
<svg id="Ebene_1" xmlns="http://www.w3.org/2000/svg" version="1.1" viewBox="0 0 475.88 98.75">
  <!-- Generator: Adobe Illustrator 29.6.0, SVG Export Plug-In . SVG Version: 2.1.1 Build 207)  -->
  <defs>
    <style>
      .st0 {
        fill: #f6dea9;
      }
    </style>
  </defs>
  <path class="st0" d="M41.74,45.92l-6.53-35.05v-.21c0-.42.21-.63.68-.63h7.36c.47,0,.73.26.84.73l3.13,17.08c.05.37.26.57.47.57.16,0,.37-.21.42-.57l2.98-17.08c.1-.47.42-.73.89-.73h7.26c.47,0,.78.26.89.73l3.08,17.08c.05.37.26.57.47.57s.42-.21.47-.57l2.98-17.08c.1-.47.37-.73.84-.73h6.84c.52,0,.78.26.68.84l-7.05,35.05c-.1.47-.37.68-.84.68h-8.72c-.47,0-.73-.26-.84-.73l-2.66-14.31c-.05-.37-.26-.57-.42-.57-.21,0-.37.21-.47.57l-3.03,14.36c-.1.47-.37.68-.84.68h-8.04c-.47,0-.73-.21-.84-.68Z"/>
  <path class="st0" d="M77.31,45.81V10.82c0-.47.31-.78.78-.78h8.2c.47,0,.78.31.78.78v34.99c0,.47-.31.78-.78.78h-8.2c-.47,0-.78-.31-.78-.78Z"/>
  <path class="st0" d="M105.2,46.6h-7.78c-4.54,0-7.21-2.46-7.21-7.05V10.82c0-.47.47-.78,1.2-.78h13.37c.73,0,1.2.31,1.2.78v3.81c0,.47-.47.78-1.2.78h-3.45c-.68,0-1.15.31-1.15.78v2.19c0,.47.47.78,1.15.78h2.3c.68,0,1.15.31,1.15.78v3.81c0,.47-.47.78-1.15.78h-2.3c-.68,0-1.15.21-1.15.26v1.62c0,.47.47.78,1.15.78h3.87c.68,0,1.15.31,1.15.78v17.81c0,.47-.47.78-1.15.78Z"/>
  <path class="st0" d="M125.68,45.92l-6.53-35.05v-.21c0-.42.21-.63.68-.63h7.36c.47,0,.73.26.84.73l3.13,17.08c.05.37.26.57.47.57.16,0,.37-.21.42-.57l2.98-17.08c.1-.47.42-.73.89-.73h7.26c.47,0,.78.26.89.73l3.08,17.08c.05.37.26.57.47.57s.42-.21.47-.57l2.98-17.08c.1-.47.37-.73.84-.73h6.84c.52,0,.78.26.68.84l-7.05,35.05c-.1.47-.37.68-.84.68h-8.72c-.47,0-.73-.26-.84-.73l-2.66-14.31c-.05-.37-.26-.57-.42-.57-.21,0-.37.21-.47.57l-3.03,14.36c-.1.47-.37.68-.84.68h-8.04c-.47,0-.73-.21-.84-.68Z"/>
  <path class="st0" d="M161.25,45.81V10.82c0-.47.31-.78.78-.78h8.2c.47,0,.78.31.78.78v34.99c0,.47-.31.78-.78.78h-8.2c-.47,0-.78-.31-.78-.78Z"/>
  <path class="st0" d="M174.15,45.81V10.76c0-.47.31-.78.78-.78h9.51c10.08,0,13.79,3.5,13.79,8.62s-3.71,7.63-6.53,8.36c-.42.1-.57.26-.57.37s.21.21.68.31c4.13.99,5.8,2.04,5.8,5.01v13.16c0,.47-.31.78-.78.78h-8.15c-.47,0-.78-.31-.78-.78v-13.48c0-1.62-1.36-2.04-2.51-2.04-.78,0-1.25.21-1.25.73v14.78c0,.47-.31.78-.78.78h-8.41c-.47,0-.78-.31-.78-.78ZM184.76,23.46c1.36,0,4.28-1.1,4.28-4.28,0-2.77-2.61-3.66-4.02-3.66-.52,0-.89.1-.89.31v7.36c0,.16.26.26.63.26Z"/>
  <path class="st0" d="M200.74,45.81V10.82c0-.47.31-.78.78-.78h8.1c10.81,0,13.48,9.51,13.48,18.65,0,8.25-1.04,17.92-13.58,17.92h-7.99c-.47,0-.78-.31-.78-.78ZM215.26,20.64c0-3.55-2.4-5.33-3.71-5.33-.47,0-.84.26-.84.78v8.98c0,.84.31,1.15.99,1.15,2.46-.05,3.55-3.4,3.55-5.59Z"/>
  <path class="st0" d="M236.42,45.81V10.82c0-.47.31-.78.78-.78h10.66c5.95,0,8.93,1.98,8.93,5.85,0,2.04-1.15,4.13-3.03,5.28-.26.16-.42.31-.42.42s.16.21.47.37c3.71,2.19,5.17,7.1,5.17,11.75,0,6.95-2.35,12.9-11.44,12.9h-10.34c-.47,0-.78-.31-.78-.78ZM246.76,19.75c1.1,0,3.08-.94,3.08-2.51,0-1.46-1.83-2.14-2.92-2.14-.47,0-.84.1-.84.37v3.86c0,.26.26.42.68.42ZM246.81,28.52c1.25,0,3.71-.89,3.71-2.72,0-1.67-2.14-2.45-3.45-2.45-.57,0-.99.16-.99.47v4.39c0,.21.26.31.73.31Z"/>
  <path class="st0" d="M276.32,46.6h-7.78c-4.54,0-7.21-2.46-7.21-7.05V10.82c0-.47.47-.78,1.2-.78h13.37c.73,0,1.2.31,1.2.78v3.81c0,.47-.47.78-1.2.78h-3.45c-.68,0-1.15.31-1.15.78v2.19c0,.47.47.78,1.15.78h2.3c.68,0,1.15.31,1.15.78v3.81c0,.47-.47.78-1.15.78h-2.3c-.68,0-1.15.21-1.15.26v1.62c0,.47.47.78,1.15.78h3.87c.68,0,1.15.31,1.15.78v17.81c0,.47-.47.78-1.15.78Z"/>
  <path class="st0" d="M280.61,45.81V10.76c0-.47.31-.78.78-.78h9.51c10.08,0,13.79,3.5,13.79,8.62s-3.71,7.63-6.53,8.36c-.42.1-.57.26-.57.37s.21.21.68.31c4.13.99,5.8,2.04,5.8,5.01v13.16c0,.47-.31.78-.78.78h-8.15c-.47,0-.78-.31-.78-.78v-13.48c0-1.62-1.36-2.04-2.51-2.04-.78,0-1.25.21-1.25.73v14.78c0,.47-.31.78-.78.78h-8.41c-.47,0-.78-.31-.78-.78ZM291.21,23.46c1.36,0,4.28-1.1,4.28-4.28,0-2.77-2.61-3.66-4.02-3.66-.52,0-.89.1-.89.31v7.36c0,.16.26.26.63.26Z"/>
  <path class="st0" d="M307.2,39.54V10.82c0-.47.31-.78.78-.78h8.41c.47,0,.78.31.78.78v15.62c0,.47.31.78.78.78h3.97c.47,0,.78.31.78.78v17.81c0,.47-.31.78-.78.78h-7.52c-4.54,0-7.21-2.46-7.21-7.05Z"/>
  <path class="st0" d="M325.58,45.81V10.82c0-.47.31-.78.78-.78h8.2c.47,0,.78.31.78.78v34.99c0,.47-.31.78-.78.78h-8.2c-.47,0-.78-.31-.78-.78Z"/>
  <path class="st0" d="M338.48,45.81V10.82c0-.47.31-.78.78-.78h7.52c.42,0,.73.16.89.63l4.96,13.68c.1.31.31.47.47.47.21,0,.42-.21.42-.63v-13.37c0-.47.31-.78.78-.78h5.48c.47,0,.78.31.78.78v34.99c0,.47-.31.78-.78.78h-7.52c-.42,0-.73-.16-.89-.63l-4.96-14.99c-.1-.31-.31-.47-.47-.47-.21,0-.42.21-.42.57v14.73c0,.47-.31.78-.78.78h-5.48c-.47,0-.78-.31-.78-.78Z"/>
  <path class="st0" d="M389.67,46.6h-7.78c-4.54,0-7.21-2.46-7.21-7.05V10.82c0-.47.47-.78,1.2-.78h13.37c.73,0,1.2.31,1.2.78v3.81c0,.47-.47.78-1.2.78h-3.45c-.68,0-1.15.31-1.15.78v2.19c0,.47.47.78,1.15.78h2.3c.68,0,1.15.31,1.15.78v3.81c0,.47-.47.78-1.15.78h-2.3c-.68,0-1.15.21-1.15.26v1.62c0,.47.47.78,1.15.78h3.87c.68,0,1.15.31,1.15.78v17.81c0,.47-.47.78-1.15.78Z"/>
  <path class="st0" d="M393.96,45.81V10.82c0-.47.31-.78.78-.78h7.52c.42,0,.73.16.89.63l4.96,13.68c.1.31.31.47.47.47.21,0,.42-.21.42-.63v-13.37c0-.47.31-.78.78-.78h5.48c.47,0,.78.31.78.78v34.99c0,.47-.31.78-.78.78h-7.52c-.42,0-.73-.16-.89-.63l-4.96-14.99c-.1-.31-.31-.47-.47-.47-.21,0-.42.21-.42.57v14.73c0,.47-.31.78-.78.78h-5.48c-.47,0-.78-.31-.78-.78Z"/>
  <path class="st0" d="M46.33,88.66v-17.92c0-.47.31-.78.78-.78,4.7,0,6.27-.31,6.27-1.41,0-2.46-7.52-2.14-7.52-8.62,0-2.87,2.51-7.52,10.34-7.52,7.36,0,10.45,2.35,10.45,9.45v.05c0,.47-.31.78-.78.78h-5.33c-.47,0-.78-.31-.78-.78,0-2.4-.26-4.49-2.98-4.49-2.19,0-2.66,1.62-2.66,2.87,0,6.69,13.95,4.23,13.95,18.07,0,7.94-4.65,11.07-13.27,11.07h-7.68c-.47,0-.78-.31-.78-.78Z"/>
  <path class="st0" d="M68.74,88.61l6.79-34.99c.1-.47.47-.73.94-.73h11.12c.52,0,.84.21.94.68l7,35.05v.21c0,.42-.31.63-.78.63h-8.1c-.52,0-.84-.21-.89-.73l-1.31-7.73c-.1-.52-.42-.73-.89-.73h-4.6c-.52,0-.78.26-.89.73l-1.72,7.73c-.1.47-.37.73-.89.73h-5.95c-.57,0-.89-.26-.78-.84ZM83.11,70.54l-.89-7.42c-.1-.68-.37-.99-.68-.99-.26,0-.57.31-.68.99l-1.04,7.42v.1c0,.52.42.73,1.15.73h.89c.84,0,1.36-.31,1.25-.83Z"/>
  <path class="st0" d="M96.53,82.39v-28.73c0-.47.31-.78.78-.78h8.41c.47,0,.78.31.78.78v15.62c0,.47.31.78.78.78h3.97c.47,0,.78.31.78.78v17.81c0,.47-.31.78-.78.78h-7.52c-4.54,0-7.21-2.46-7.21-7.05Z"/>
  <path class="st0" d="M115.23,88.66v-17.92c0-.47.31-.78.78-.78,4.7,0,6.27-.31,6.27-1.41,0-2.46-7.52-2.14-7.52-8.62,0-2.87,2.51-7.52,10.34-7.52,7.36,0,10.45,2.35,10.45,9.45v.05c0,.47-.31.78-.78.78h-5.33c-.47,0-.78-.31-.78-.78,0-2.4-.26-4.49-2.98-4.49-2.19,0-2.66,1.62-2.66,2.87,0,6.69,13.95,4.23,13.95,18.07,0,7.94-4.65,11.07-13.27,11.07h-7.68c-.47,0-.78-.31-.78-.78Z"/>
  <path class="st0" d="M137.64,88.61l6.79-34.99c.1-.47.47-.73.94-.73h11.13c.52,0,.84.21.94.68l7,35.05v.21c0,.42-.31.63-.78.63h-8.1c-.52,0-.83-.21-.89-.73l-1.31-7.73c-.1-.52-.42-.73-.89-.73h-4.6c-.52,0-.78.26-.89.73l-1.72,7.73c-.1.47-.37.73-.89.73h-5.95c-.57,0-.89-.26-.78-.84ZM152.01,70.54l-.89-7.42c-.1-.68-.37-.99-.68-.99-.26,0-.57.31-.68.99l-1.04,7.42v.1c0,.52.42.73,1.15.73h.89c.84,0,1.36-.31,1.25-.83Z"/>
  <path class="st0" d="M176.4,88.66v-35c0-.47.47-.78,1.2-.78h14.15c.73,0,1.2.31,1.2.78v3.81c0,.47-.47.78-1.2.78h-4.23c-.68,0-1.15.31-1.15.78v2.19c0,.47.47.78,1.15.78h3.08c.68,0,1.15.31,1.15.78v3.81c0,.47-.47.78-1.15.78h-3.08c-.68,0-1.15.31-1.15.78v20.47c0,.47-.47.78-1.2.78h-7.57c-.73,0-1.2-.31-1.2-.78Z"/>
  <path class="st0" d="M195.36,88.66v-35c0-.47.31-.78.78-.78h8.2c.47,0,.78.31.78.78v35c0,.47-.31.78-.78.78h-8.2c-.47,0-.78-.31-.78-.78Z"/>
  <path class="st0" d="M208.26,88.66v-35c0-.47.31-.78.78-.78h7.52c.42,0,.73.16.89.63l4.96,13.68c.1.31.31.47.47.47.21,0,.42-.21.42-.63v-13.37c0-.47.31-.78.78-.78h5.48c.47,0,.78.31.78.78v35c0,.47-.31.78-.78.78h-7.52c-.42,0-.73-.16-.89-.63l-4.96-14.99c-.1-.31-.31-.47-.47-.47-.21,0-.42.21-.42.57v14.73c0,.47-.31.78-.78.78h-5.48c-.47,0-.78-.31-.78-.78Z"/>
  <path class="st0" d="M232.34,88.61l6.79-34.99c.1-.47.47-.73.94-.73h11.12c.52,0,.83.21.94.68l7,35.05v.21c0,.42-.31.63-.78.63h-8.1c-.52,0-.84-.21-.89-.73l-1.31-7.73c-.1-.52-.42-.73-.89-.73h-4.6c-.52,0-.78.26-.89.73l-1.72,7.73c-.1.47-.37.73-.89.73h-5.95c-.57,0-.89-.26-.78-.84ZM246.71,70.54l-.89-7.42c-.1-.68-.37-.99-.68-.99-.26,0-.58.31-.68.99l-1.04,7.42v.1c0,.52.42.73,1.15.73h.89c.84,0,1.36-.31,1.25-.83Z"/>
  <path class="st0" d="M261.18,88.66v-35c0-.47.31-.78.78-.78h7.52c.42,0,.73.16.89.63l4.96,13.68c.1.31.31.47.47.47.21,0,.42-.21.42-.63v-13.37c0-.47.31-.78.78-.78h5.48c.47,0,.78.31.78.78v35c0,.47-.31.78-.78.78h-7.52c-.42,0-.73-.16-.89-.63l-4.96-14.99c-.1-.31-.31-.47-.47-.47-.21,0-.42.21-.42.57v14.73c0,.47-.31.78-.78.78h-5.48c-.47,0-.78-.31-.78-.78Z"/>
  <path class="st0" d="M286.41,77.38v-6.27c0-.37.05-.68.31-.99l8.1-10.45c.1-.16.16-.26.16-.37,0-.31-.37-.52-1.04-.52h-6.63c-.47,0-.78-.31-.78-.78v-4.33c0-.47.31-.78.78-.78h16.92c.47,0,.78.31.78.78v3.87c0,.37-.1.68-.31.99l-8.3,10.55c-.1.16-.16.31-.16.42,0,.31.37.52.99.52h6.89c.47,0,.78.31.78.78v17.86c0,.47-.31.78-.78.78h-5.64c-10.5,0-12.06-6.48-12.06-12.07Z"/>
  <path class="st0" d="M308.14,88.66v-35c0-.47.31-.78.78-.78h8.2c.47,0,.78.31.78.78v35c0,.47-.31.78-.78.78h-8.2c-.47,0-.78-.31-.78-.78Z"/>
  <path class="st0" d="M336.03,89.45h-7.78c-4.54,0-7.21-2.46-7.21-7.05v-28.73c0-.47.47-.78,1.2-.78h13.37c.73,0,1.2.31,1.2.78v3.81c0,.47-.47.78-1.2.78h-3.45c-.68,0-1.15.31-1.15.78v2.19c0,.47.47.78,1.15.78h2.3c.68,0,1.15.31,1.15.78v3.81c0,.47-.47.78-1.15.78h-2.3c-.68,0-1.15.21-1.15.26v1.62c0,.47.47.78,1.15.78h3.87c.68,0,1.15.31,1.15.78v17.81c0,.47-.47.78-1.15.78Z"/>
  <path class="st0" d="M340.31,88.66v-35.05c0-.47.31-.78.78-.78h9.51c10.08,0,13.79,3.5,13.79,8.62s-3.71,7.63-6.53,8.36c-.42.1-.57.26-.57.37s.21.21.68.31c4.13.99,5.8,2.04,5.8,5.01v13.16c0,.47-.31.78-.78.78h-8.15c-.47,0-.78-.31-.78-.78v-13.48c0-1.62-1.36-2.04-2.51-2.04-.78,0-1.25.21-1.25.73v14.78c0,.47-.31.78-.78.78h-8.41c-.47,0-.78-.31-.78-.78ZM350.92,66.31c1.36,0,4.28-1.1,4.28-4.28,0-2.77-2.61-3.66-4.02-3.66-.52,0-.89.1-.89.31v7.36c0,.16.26.26.63.26Z"/>
  <path class="st0" d="M378.65,67.25c0,2.51,1.67,2.82,4.49,2.82.52,0,.78.31.78.78v11.65c0,4.7-2.87,7.31-7.47,7.31s-7.21-2.56-7.21-7.16v-23.35h-2.98c-.47,0-.78-.31-.78-.78v-4.86c0-.47.31-.78.78-.78h16.92c.47,0,.78.31.78.78v4.86c0,.47-.31.78-.78.78h-4.54v7.94Z"/>
  <path class="st0" d="M392.08,70.33v-.1c0-4.96,7.42-5.85,7.42-10.08,0-1.25-.63-2.14-2.51-2.14s-2.72.84-2.72,3.24c0,.47-.31.78-.78.78h-5.59c-.47,0-.78-.31-.78-.78v-.05c0-5.54,4.02-8.46,9.82-8.46,5.07,0,10.55,2.61,10.55,7.26,0,4.96-5.38,6.63-5.38,10.29v.05c0,.47-.31.78-.78.78h-8.46c-.47,0-.78-.31-.78-.78ZM392.08,88.66v-15.09c0-.47.31-.78.78-.78h8.46c.47,0,.78.31.78.78v15.09c0,.47-.31.78-.78.78h-8.46c-.47,0-.78-.31-.78-.78Z"/>
</svg>