<?xml version="1.0" encoding="UTF-8"?>
<svg id="Ebene_1" xmlns="http://www.w3.org/2000/svg" version="1.1" viewBox="0 0 606.68 121.42">
  <!-- Generator: Adobe Illustrator 29.6.1, SVG Export Plug-In . SVG Version: 2.1.1 Build 9)  -->
  <defs>
    <style>
      .st0 {
        fill: #b725e8;
      }
    </style>
  </defs>
  <path class="st0" d="M42.83,108.14v-47.75c0-1.25.58-2.09,1.44-2.09,8.67,0,11.56-.84,11.56-3.76,0-6.54-13.87-5.71-13.87-22.97,0-7.66,4.62-20.05,19.07-20.05,13.58,0,19.26,6.26,19.26,25.2v.14c0,1.25-.58,2.09-1.44,2.09h-9.82c-.87,0-1.44-.84-1.44-2.09,0-6.4-.48-11.97-5.49-11.97-4.04,0-4.91,4.31-4.91,7.66,0,17.82,25.71,11.28,25.71,48.17,0,21.16-8.57,29.51-24.46,29.51h-14.16c-.87,0-1.44-.83-1.44-2.09Z"/>
  <path class="st0" d="M87.23,78.77V14.88c0-1.25.58-2.09,1.44-2.09h15.5c.87,0,1.44.83,1.44,2.09v34.11c0,7.24,0,10.86,3.76,10.86s3.76-3.62,3.76-10.86V14.88c0-1.25.58-2.09,1.44-2.09h15.41c.87,0,1.44.83,1.44,2.09v63.9c0,14.9-2.6,32.16-21.96,32.16s-22.24-17.26-22.24-32.16Z"/>
  <path class="st0" d="M137.21,108.14V14.88c0-1.25.58-2.09,1.44-2.09h13.87c.77,0,1.35.42,1.64,1.67l9.15,36.47c.19.83.58,1.25.87,1.25.39,0,.77-.56.77-1.67V14.88c0-1.25.58-2.09,1.44-2.09h10.11c.87,0,1.44.83,1.44,2.09v93.27c0,1.25-.58,2.09-1.44,2.09h-13.87c-.77,0-1.35-.42-1.64-1.67l-9.15-39.95c-.19-.83-.58-1.25-.87-1.25-.39,0-.77.56-.77,1.53v39.26c0,1.25-.58,2.09-1.44,2.09h-10.11c-.87,0-1.44-.83-1.44-2.09Z"/>
  <path class="st0" d="M183.73,108.14V14.88c0-1.25.58-2.09,1.44-2.09h14.93c19.93,0,24.84,25.33,24.84,49.7,0,22-1.93,47.75-25.04,47.75h-14.73c-.87,0-1.44-.83-1.44-2.09ZM210.5,41.05c0-9.47-4.43-14.2-6.84-14.2-.87,0-1.54.7-1.54,2.09v23.94c0,2.23.58,3.06,1.83,3.06,4.53-.14,6.55-9.05,6.55-14.89Z"/>
  <path class="st0" d="M224.75,108l12.52-93.27c.19-1.25.87-1.95,1.73-1.95h20.51c.96,0,1.54.56,1.73,1.81l12.9,93.41v.56c0,1.11-.58,1.67-1.44,1.67h-14.93c-.96,0-1.54-.56-1.64-1.95l-2.41-20.6c-.19-1.39-.77-1.95-1.64-1.95h-8.47c-.96,0-1.44.7-1.64,1.95l-3.18,20.6c-.19,1.25-.67,1.95-1.64,1.95h-10.98c-1.06,0-1.64-.7-1.44-2.23ZM251.23,59.84l-1.64-19.77c-.19-1.81-.67-2.64-1.25-2.64-.48,0-1.06.83-1.25,2.64l-1.93,19.77v.28c0,1.39.77,1.95,2.12,1.95h1.64c1.54,0,2.5-.84,2.31-2.23Z"/>
  <path class="st0" d="M280.99,108.14v-45.94c0-.97,0-1.53-.29-2.51l-11.56-44.55c-.1-.42-.1-.7-.1-.97,0-.83.48-1.39,1.25-1.39h14.35c.77,0,1.35.42,1.64,1.67l5.01,21.58c.29.97.67,1.39,1.16,1.39s.96-.42,1.16-1.39l5.1-21.58c.29-1.25.87-1.67,1.64-1.67h10.21c1.06,0,1.54.83,1.16,2.37l-12.52,45.1c-.19.84-.39,1.67-.39,2.65v45.24c0,1.25-.58,2.09-1.44,2.09h-14.93c-.87,0-1.44-.83-1.44-2.09Z"/>
  <path class="st0" d="M332.51,108.14v-27.42c0-34.8,24.27-31.04,24.27-49.56,0-2.64-.77-6.26-4.91-6.26-4.91,0-5.49,5.57-5.49,11.97,0,1.25-.58,2.09-1.44,2.09h-9.82c-.87,0-1.44-.84-1.44-2.09v-.14c0-18.65,5.59-25.2,19.16-25.2,14.44,0,17.82,9.88,17.82,18.65,0,4.32-1.64,10.44-6.84,15.73-3.85,3.9-5.78,6.68-5.78,8.63,0,2.64,3.66,3.76,11.56,3.76.87,0,1.44.83,1.44,2.09v47.75c0,1.25-.58,2.09-1.44,2.09h-35.63c-.87,0-1.44-.83-1.44-2.09Z"/>
  <path class="st0" d="M375.75,77.38c0-26.03,4.62-65.29,23.5-65.29s22.53,39.26,22.53,65.29c0,14.89-3.56,32.99-22.92,32.99s-23.11-18.1-23.11-32.99ZM404.45,45.5c0-7.24-1.25-18.79-5.2-18.79-4.72,0-6.07,11.55-6.07,18.79,0,4.46,1.64,9.47,6.07,9.47,3.76,0,5.2-5.01,5.2-9.47Z"/>
  <path class="st0" d="M426.12,108.14v-16.15c0-1.25.58-2.09,1.44-2.09h15.6c.87,0,1.45.83,1.45,2.09v16.15c0,1.25-.58,2.09-1.45,2.09h-15.6c-.87,0-1.44-.83-1.44-2.09Z"/>
  <path class="st0" d="M448.85,77.38c0-26.03,4.62-65.29,23.5-65.29s22.53,39.26,22.53,65.29c0,14.89-3.56,32.99-22.92,32.99s-23.11-18.1-23.11-32.99ZM477.54,45.5c0-7.24-1.25-18.79-5.2-18.79-4.72,0-6.07,11.55-6.07,18.79,0,4.46,1.64,9.47,6.07,9.47,3.76,0,5.2-5.01,5.2-9.47Z"/>
  <path class="st0" d="M496.71,107.87l16.37-77.68c.1-.28.1-.56.1-.7,0-1.11-.58-1.67-1.35-1.67h-9.63c-.87,0-1.44-.83-1.44-2.09v-10.86c0-1.25.58-2.09,1.44-2.09h27.44c.87,0,1.45.83,1.45,2.09v10.86c0,.83-.1,1.67-.29,2.51l-15.79,80.18c-.29,1.25-.77,1.81-1.64,1.81h-15.41c-.96,0-1.54-.83-1.25-2.37Z"/>
  <path class="st0" d="M525.99,108.14v-16.15c0-1.25.58-2.09,1.44-2.09h15.6c.87,0,1.45.83,1.45,2.09v16.15c0,1.25-.58,2.09-1.45,2.09h-15.6c-.87,0-1.44-.83-1.44-2.09Z"/>
</svg>