<?xml version="1.0" encoding="UTF-8"?>
<svg id="Ebene_1" xmlns="http://www.w3.org/2000/svg" version="1.1" viewBox="0 0 606.68 121.42">
  <!-- Generator: Adobe Illustrator 29.6.1, SVG Export Plug-In . SVG Version: 2.1.1 Build 9)  -->
  <defs>
    <style>
      .st0 {
        fill: #b725e8;
      }
    </style>
  </defs>
  <path class="st0" d="M20.86,107.97v-47.75c0-1.25.58-2.09,1.44-2.09,8.67,0,11.56-.84,11.56-3.76,0-6.54-13.87-5.71-13.87-22.97,0-7.66,4.62-20.05,19.07-20.05,13.58,0,19.26,6.26,19.26,25.2v.14c0,1.25-.58,2.09-1.44,2.09h-9.82c-.87,0-1.44-.84-1.44-2.09,0-6.4-.48-11.97-5.49-11.97-4.04,0-4.91,4.31-4.91,7.66,0,17.82,25.71,11.28,25.71,48.17,0,21.16-8.57,29.51-24.46,29.51h-14.16c-.87,0-1.44-.83-1.44-2.09Z"/>
  <path class="st0" d="M62.17,107.83l12.52-93.27c.19-1.25.87-1.95,1.73-1.95h20.51c.96,0,1.54.56,1.73,1.81l12.9,93.41v.56c0,1.11-.58,1.67-1.44,1.67h-14.93c-.96,0-1.54-.56-1.64-1.95l-2.41-20.6c-.19-1.39-.77-1.95-1.64-1.95h-8.47c-.96,0-1.44.7-1.64,1.95l-3.18,20.6c-.19,1.25-.67,1.95-1.64,1.95h-10.98c-1.06,0-1.64-.7-1.44-2.23ZM88.65,59.66l-1.64-19.77c-.19-1.81-.67-2.65-1.25-2.65-.48,0-1.06.84-1.25,2.65l-1.93,19.77v.28c0,1.39.77,1.95,2.12,1.95h1.64c1.54,0,2.5-.84,2.31-2.23Z"/>
  <path class="st0" d="M132.18,50.89c0,6.68,3.08,7.52,8.28,7.52.96,0,1.44.84,1.44,2.09v31.04c0,12.53-5.3,19.49-13.77,19.49s-13.29-6.82-13.29-19.07V29.73h-5.49c-.87,0-1.44-.84-1.44-2.09v-12.95c0-1.25.58-2.09,1.44-2.09h31.2c.87,0,1.44.84,1.44,2.09v12.95c0,1.25-.58,2.09-1.44,2.09h-8.38v21.16Z"/>
  <path class="st0" d="M147.78,78.6V14.7c0-1.25.58-2.09,1.44-2.09h15.5c.87,0,1.44.84,1.44,2.09v34.11c0,7.24,0,10.86,3.76,10.86s3.76-3.62,3.76-10.86V14.7c0-1.25.58-2.09,1.44-2.09h15.41c.87,0,1.44.84,1.44,2.09v63.9c0,14.89-2.6,32.16-21.96,32.16s-22.24-17.26-22.24-32.16Z"/>
  <path class="st0" d="M197.77,107.97V14.56c0-1.25.58-2.09,1.44-2.09h17.53c18.59,0,25.42,9.33,25.42,22.97s-6.84,20.32-12.04,22.27c-.77.28-1.06.7-1.06.97s.39.56,1.25.84c7.61,2.65,10.69,5.43,10.69,13.36v35.08c0,1.25-.58,2.09-1.44,2.09h-15.02c-.87,0-1.44-.83-1.44-2.09v-35.92c0-4.31-2.5-5.43-4.62-5.43-1.44,0-2.31.56-2.31,1.95v39.4c0,1.25-.58,2.09-1.44,2.09h-15.5c-.87,0-1.44-.83-1.44-2.09ZM217.31,48.39c2.5,0,7.9-2.92,7.9-11.41,0-7.38-4.81-9.74-7.42-9.74-.96,0-1.64.28-1.64.84v19.63c0,.42.48.7,1.16.7Z"/>
  <path class="st0" d="M246.78,107.97V14.7c0-1.25.58-2.09,1.44-2.09h14.93c19.93,0,24.84,25.34,24.84,49.7,0,21.99-1.93,47.75-25.04,47.75h-14.73c-.87,0-1.44-.83-1.44-2.09ZM273.55,40.87c0-9.47-4.43-14.2-6.84-14.2-.87,0-1.54.7-1.54,2.09v23.94c0,2.23.58,3.06,1.83,3.06,4.53-.14,6.55-9.05,6.55-14.9Z"/>
  <path class="st0" d="M287.81,107.83l12.52-93.27c.19-1.25.87-1.95,1.73-1.95h20.51c.96,0,1.54.56,1.73,1.81l12.9,93.41v.56c0,1.11-.58,1.67-1.44,1.67h-14.93c-.96,0-1.54-.56-1.64-1.95l-2.41-20.6c-.19-1.39-.77-1.95-1.64-1.95h-8.47c-.96,0-1.44.7-1.64,1.95l-3.18,20.6c-.19,1.25-.67,1.95-1.64,1.95h-10.98c-1.06,0-1.64-.7-1.44-2.23ZM314.29,59.66l-1.64-19.77c-.19-1.81-.67-2.65-1.25-2.65-.48,0-1.06.84-1.25,2.65l-1.93,19.77v.28c0,1.39.77,1.95,2.12,1.95h1.64c1.54,0,2.5-.84,2.31-2.23Z"/>
  <path class="st0" d="M344.05,107.97v-45.94c0-.97,0-1.53-.29-2.51l-11.56-44.55c-.1-.42-.1-.7-.1-.97,0-.83.48-1.39,1.25-1.39h14.35c.77,0,1.35.42,1.64,1.67l5.01,21.58c.29.97.67,1.39,1.16,1.39s.96-.42,1.16-1.39l5.1-21.58c.29-1.25.87-1.67,1.64-1.67h10.21c1.06,0,1.54.84,1.16,2.37l-12.52,45.1c-.19.84-.38,1.67-.38,2.65v45.24c0,1.25-.58,2.09-1.44,2.09h-14.93c-.87,0-1.44-.83-1.44-2.09Z"/>
  <path class="st0" d="M399.9,108.11V41.85c0-1.25-.87-2.09-2.21-2.09h-2.02c-.87,0-1.44-.84-1.44-2.09v-7.24c0-1.11.77-1.53,1.64-2.23,2.89-2.09,4.43-9.19,4.91-13.64.19-1.25.67-1.95,1.54-1.95h14.45c.87,0,1.44.84,1.44,2.09v93.41c0,1.25-.58,2.09-1.44,2.09h-15.41c-.87,0-1.44-.84-1.44-2.09Z"/>
  <path class="st0" d="M425.33,107.97v-47.75c0-1.25.58-2.09,1.45-2.09,23.88,0,26.58-.84,26.58-9.74v-1.81c-.1,0-.39.7-1.16,1.53-2.02,2.23-5.58,4.18-10.4,4.18-5.59,0-18.88-3.34-18.88-18.93,0-9.47,5.2-21.44,20.32-21.44,20.13,0,24.27,19.63,24.27,41.21,0,35.36-4.72,56.93-28.02,56.93h-12.71c-.87,0-1.45-.83-1.45-2.09ZM446.03,30.99c0-3.2-1.64-6.68-4.04-6.68s-4.04,3.48-4.04,6.68,1.16,5.57,4.04,5.57c3.27,0,4.04-2.51,4.04-5.57Z"/>
  <path class="st0" d="M472.13,107.97v-16.15c0-1.25.58-2.09,1.44-2.09h15.6c.87,0,1.45.83,1.45,2.09v16.15c0,1.25-.58,2.09-1.45,2.09h-15.6c-.87,0-1.44-.83-1.44-2.09Z"/>
  <path class="st0" d="M494.86,77.2c0-26.03,4.62-65.29,23.5-65.29s22.53,39.26,22.53,65.29c0,14.89-3.56,32.99-22.92,32.99s-23.11-18.1-23.11-32.99ZM523.56,45.33c0-7.24-1.25-18.79-5.2-18.79-4.72,0-6.07,11.55-6.07,18.79,0,4.45,1.64,9.47,6.07,9.47,3.76,0,5.2-5.01,5.2-9.47Z"/>
  <path class="st0" d="M542.72,107.69l16.37-77.68c.1-.28.1-.56.1-.7,0-1.11-.58-1.67-1.35-1.67h-9.63c-.87,0-1.44-.83-1.44-2.09v-10.86c0-1.25.58-2.09,1.44-2.09h27.44c.87,0,1.45.84,1.45,2.09v10.86c0,.84-.1,1.67-.29,2.51l-15.79,80.18c-.29,1.25-.77,1.81-1.64,1.81h-15.41c-.96,0-1.54-.83-1.25-2.37Z"/>
  <path class="st0" d="M572,107.97v-16.15c0-1.25.58-2.09,1.44-2.09h15.6c.87,0,1.45.83,1.45,2.09v16.15c0,1.25-.58,2.09-1.45,2.09h-15.6c-.87,0-1.44-.83-1.44-2.09Z"/>
</svg>