<?xml version="1.0" encoding="UTF-8"?>
<svg id="Ebene_1" xmlns="http://www.w3.org/2000/svg" version="1.1" viewBox="0 0 3000 1000">
  <!-- Generator: Adobe Illustrator 30.2.1, SVG Export Plug-In . SVG Version: 2.1.1 Build 1)  -->
  <defs>
    <style>
      .st0 {
        fill: #b725e8;
      }
    </style>
  </defs>
  <path class="st0" d="M513.44,719.62v-401.12c0-5.39,3.51-8.98,8.96-8.98h105.59c5.45,0,8.96,3.59,8.96,8.98v43.71c0,5.39-3.51,8.98-8.96,8.98h-31.56c-5.06,0-8.57,3.59-8.57,8.98v25.14c0,5.39,3.51,8.98,8.57,8.98h22.99c5.06,0,8.57,3.59,8.57,8.98v43.71c0,5.39-3.51,8.98-8.57,8.98h-22.99c-5.06,0-8.57,3.59-8.57,8.98v234.69c0,5.39-3.51,8.98-8.96,8.98h-56.5c-5.45,0-8.96-3.59-8.96-8.98Z"/>
  <path class="st0" d="M654.87,719.62v-401.72c0-5.39,2.34-8.98,5.84-8.98h70.91c75.2,0,102.86,40.11,102.86,98.79s-27.66,87.41-48.7,95.79c-3.12,1.2-4.29,2.99-4.29,4.19s1.56,2.39,5.06,3.59c30.78,11.38,43.25,23.35,43.25,57.47v150.87c0,5.39-2.34,8.98-5.84,8.98h-60.78c-3.51,0-5.84-3.59-5.84-8.98v-154.46c0-18.56-10.13-23.35-18.7-23.35-5.84,0-9.35,2.39-9.35,8.38v169.43c0,5.39-2.34,8.98-5.84,8.98h-62.73c-3.51,0-5.84-3.59-5.84-8.98ZM733.96,463.38c10.13,0,31.95-12.57,31.95-49.09,0-31.73-19.48-41.91-30-41.91-3.9,0-6.62,1.2-6.62,3.59v84.42c0,1.8,1.95,2.99,4.68,2.99Z"/>
  <path class="st0" d="M965,728.6h-58.05c-33.9,0-53.77-28.14-53.77-80.82v-329.28c0-5.39,3.51-8.98,8.96-8.98h99.74c5.46,0,8.96,3.59,8.96,8.98v43.71c0,5.39-3.51,8.98-8.96,8.98h-25.71c-5.06,0-8.57,3.59-8.57,8.98v25.14c0,5.39,3.51,8.98,8.57,8.98h17.14c5.07,0,8.57,3.59,8.57,8.98v43.71c0,5.39-3.51,8.98-8.57,8.98h-17.14c-5.06,0-8.57,2.39-8.57,2.99v18.56c0,5.39,3.51,8.98,8.57,8.98h28.83c5.07,0,8.57,3.59,8.57,8.98v204.15c0,5.39-3.51,8.98-8.57,8.98Z"/>
  <path class="st0" d="M996.94,719.62v-401.12c0-5.39,2.34-8.98,5.84-8.98h61.17c3.51,0,5.84,3.59,5.84,8.98v401.12c0,5.39-2.34,8.98-5.84,8.98h-61.17c-3.51,0-5.84-3.59-5.84-8.98Z"/>
  <path class="st0" d="M1188.63,474.15c0,28.74,12.47,32.33,33.51,32.33,3.9,0,5.84,3.59,5.84,8.98v133.51c0,53.88-21.43,83.82-55.71,83.82s-53.77-29.34-53.77-82.02v-267.62h-22.21c-3.51,0-5.84-3.59-5.84-8.98v-55.68c0-5.39,2.34-8.98,5.84-8.98h126.24c3.51,0,5.84,3.59,5.84,8.98v55.68c0,5.39-2.34,8.98-5.84,8.98h-33.9v91Z"/>
  <path class="st0" d="M1236.55,719.02l50.65-401.12c.78-5.39,3.51-8.38,7.01-8.38h82.99c3.9,0,6.23,2.4,7.01,7.78l52.21,401.72v2.39c0,4.79-2.34,7.18-5.84,7.18h-60.39c-3.9,0-6.23-2.39-6.62-8.38l-9.74-88.61c-.78-5.99-3.12-8.38-6.62-8.38h-34.29c-3.9,0-5.84,2.99-6.62,8.38l-12.86,88.61c-.78,5.39-2.73,8.38-6.62,8.38h-44.42c-4.29,0-6.62-2.99-5.84-9.58ZM1343.69,511.87l-6.62-85.01c-.78-7.78-2.73-11.38-5.07-11.38-1.95,0-4.29,3.59-5.06,11.38l-7.79,85.01v1.2c0,5.99,3.12,8.38,8.57,8.38h6.62c6.23,0,10.13-3.59,9.35-9.58Z"/>
  <path class="st0" d="M1439.15,549.59c0-120.94,23.38-243.07,100.52-243.07,51.04,0,77.14,52.09,77.14,99.98,0,8.98-3.51,8.98-8.57,8.98h-32.73c-5.45,0-8.96,0-8.96-8.98,0-22.75-11.69-35.92-25.71-35.92-26.1,0-31.95,47.9-31.95,82.62,0,55.68,12.86,72.44,33.12,72.44,10.13,0,25.33-1.8,25.33-29.34,0-5.39-3.51-8.98-8.96-8.98h-17.92c-5.45,0-5.84-1.2-5.84-8.98v-29.34c0-5.39,3.51-8.98,8.57-8.98h67.79c5.45,0,8.96,3.59,8.96,8.98v270.61c0,5.39-3.51,8.98-8.96,8.98h-19.87c-5.06,0-8.57-3.59-8.57-8.98v-4.19c0-11.97-15.2,14.37-58.44,14.37-61.56,0-84.94-53.88-84.94-180.21Z"/>
  <path class="st0" d="M1721.22,587.31c0-111.96,18.7-280.79,95.07-280.79s91.17,168.83,91.17,280.79c0,64.06-14.42,141.89-92.73,141.89s-93.51-77.83-93.51-141.89ZM1837.33,450.21c0-31.13-5.07-80.82-21.04-80.82-19.09,0-24.55,49.69-24.55,80.82,0,19.16,6.62,40.71,24.55,40.71,15.2,0,21.04-21.55,21.04-40.71Z"/>
  <path class="st0" d="M1930.45,719.62v-205.35c0-5.39,2.34-8.98,5.84-8.98h49.48c19.09,0,35.85-1.8,35.85-22.75,0-8.38-8.18-16.16-23.38-16.16h-12.47c-3.51,0-5.84-3.59-5.84-8.98v-23.95c0-5.39,2.34-8.98,5.84-8.98h3.12c21.43,0,32.73-20.95,32.73-39.51,0-14.37-7.01-26.94-21.04-26.94s-22.21,11.97-22.21,39.51c0,5.39-2.34,8.98-5.84,8.98h-39.74c-3.51,0-5.84-3.59-5.84-8.98v-.6c0-63.46,36.23-91,72.86-91s76.75,29.34,76.75,82.62c0,19.76-7.01,39.51-24.16,52.09-2.34,1.2-3.51,2.39-3.51,3.59s1.17,2.4,3.51,3.59c26.49,13.17,54.55,53.28,54.55,128.12,0,64.06-35.07,152.67-113.38,152.67h-57.27c-3.51,0-5.84-3.59-5.84-8.98Z"/>
  <path class="st0" d="M2111.61,719.62v-69.45c0-5.39,2.34-8.98,5.84-8.98h63.12c3.51,0,5.84,3.59,5.84,8.98v69.45c0,5.39-2.34,8.98-5.84,8.98h-63.12c-3.51,0-5.84-3.59-5.84-8.98Z"/>
  <path class="st0" d="M2203.55,587.31c0-111.96,18.7-280.79,95.07-280.79s91.17,168.83,91.17,280.79c0,64.06-14.42,141.89-92.73,141.89s-93.51-77.83-93.51-141.89ZM2319.66,450.21c0-31.13-5.07-80.82-21.04-80.82-19.09,0-24.55,49.69-24.55,80.82,0,19.16,6.62,40.71,24.55,40.71,15.2,0,21.04-21.55,21.04-40.71Z"/>
  <path class="st0" d="M2397.19,718.42l66.24-334.07c.39-1.2.39-2.39.39-2.99,0-4.79-2.34-7.18-5.45-7.18h-38.96c-3.51,0-5.84-3.59-5.84-8.98v-46.7c0-5.39,2.34-8.98,5.84-8.98h111.04c3.51,0,5.84,3.59,5.84,8.98v46.7c0,3.59-.39,7.18-1.17,10.78l-63.9,344.85c-1.17,5.39-3.12,7.78-6.62,7.78h-62.34c-3.9,0-6.23-3.59-5.07-10.18Z"/>
  <path class="st0" d="M2515.64,719.62v-69.45c0-5.39,2.34-8.98,5.84-8.98h63.12c3.51,0,5.84,3.59,5.84,8.98v69.45c0,5.39-2.34,8.98-5.84,8.98h-63.12c-3.51,0-5.84-3.59-5.84-8.98Z"/>
</svg>