<?xml version="1.0" encoding="UTF-8"?>
<svg id="Ebene_1" xmlns="http://www.w3.org/2000/svg" version="1.1" viewBox="0 0 3000 1000">
  <!-- Generator: Adobe Illustrator 30.2.1, SVG Export Plug-In . SVG Version: 2.1.1 Build 1)  -->
  <defs>
    <style>
      .st0 {
        fill: #b725e8;
      }
    </style>
  </defs>
  <path class="st0" d="M541.7,713.93l-48.31-402.32v-2.39c0-4.19,1.95-6.59,5.46-6.59h54.55c3.51,0,5.84,2.99,6.62,7.78l22.99,196.37c.39,4.19,1.95,6.58,3.51,6.58,1.17,0,2.73-2.39,3.12-6.58l22.21-196.37c.78-4.79,3.12-7.78,6.62-7.78h54.55c3.9,0,6.23,3.59,5.45,8.98l-54.16,402.32c-.78,4.79-3.12,7.78-6.62,7.78h-69.35c-3.51,0-5.84-2.99-6.62-7.78Z"/>
  <path class="st0" d="M693.26,712.73v-401.12c0-5.39,2.34-8.98,5.84-8.98h61.17c3.51,0,5.84,3.59,5.84,8.98v401.12c0,5.39-2.34,8.98-5.84,8.98h-61.17c-3.51,0-5.84-3.59-5.84-8.98Z"/>
  <path class="st0" d="M901.31,721.71h-58.05c-33.9,0-53.77-28.14-53.77-80.82v-329.28c0-5.39,3.51-8.98,8.96-8.98h99.74c5.45,0,8.96,3.59,8.96,8.98v43.71c0,5.39-3.51,8.98-8.96,8.98h-25.71c-5.06,0-8.57,3.59-8.57,8.98v25.14c0,5.39,3.51,8.98,8.57,8.98h17.14c5.06,0,8.57,3.59,8.57,8.98v43.71c0,5.39-3.51,8.98-8.57,8.98h-17.14c-5.06,0-8.57,2.39-8.57,2.99v18.56c0,5.39,3.51,8.98,8.57,8.98h28.83c5.06,0,8.57,3.59,8.57,8.98v204.15c0,5.39-3.51,8.98-8.57,8.98Z"/>
  <path class="st0" d="M933.26,712.73v-401.72c0-5.39,2.34-8.98,5.84-8.98h70.91c75.2,0,102.86,40.11,102.86,98.79s-27.66,87.41-48.7,95.79c-3.12,1.2-4.29,2.99-4.29,4.19s1.56,2.39,5.06,3.59c30.78,11.38,43.25,23.35,43.25,57.47v150.87c0,5.39-2.34,8.98-5.84,8.98h-60.78c-3.51,0-5.84-3.59-5.84-8.98v-154.46c0-18.56-10.13-23.35-18.7-23.35-5.84,0-9.35,2.39-9.35,8.38v169.43c0,5.39-2.34,8.98-5.84,8.98h-62.73c-3.51,0-5.84-3.59-5.84-8.98ZM1012.35,456.49c10.13,0,31.95-12.57,31.95-49.09,0-31.73-19.48-41.91-30-41.91-3.9,0-6.62,1.2-6.62,3.59v84.42c0,1.8,1.95,2.99,4.68,2.99Z"/>
  <path class="st0" d="M1131.56,712.73v-401.12c0-5.39,2.34-8.98,5.84-8.98h56.1c3.12,0,5.45,1.8,6.62,7.18l37.01,156.86c.78,3.59,2.34,5.39,3.51,5.39,1.56,0,3.12-2.39,3.12-7.18v-153.27c0-5.39,2.34-8.98,5.84-8.98h40.91c3.51,0,5.84,3.59,5.84,8.98v401.12c0,5.39-2.34,8.98-5.84,8.98h-56.1c-3.12,0-5.45-1.8-6.62-7.18l-37.01-171.83c-.78-3.59-2.34-5.39-3.51-5.39-1.56,0-3.12,2.39-3.12,6.58v168.83c0,5.39-2.34,8.98-5.84,8.98h-40.91c-3.51,0-5.84-3.59-5.84-8.98Z"/>
  <path class="st0" d="M1431.56,721.71h-58.05c-33.9,0-53.77-28.14-53.77-80.82v-329.28c0-5.39,3.51-8.98,8.96-8.98h99.74c5.46,0,8.96,3.59,8.96,8.98v43.71c0,5.39-3.51,8.98-8.96,8.98h-25.71c-5.06,0-8.57,3.59-8.57,8.98v25.14c0,5.39,3.51,8.98,8.57,8.98h17.14c5.07,0,8.57,3.59,8.57,8.98v43.71c0,5.39-3.51,8.98-8.57,8.98h-17.14c-5.06,0-8.57,2.39-8.57,2.99v18.56c0,5.39,3.51,8.98,8.57,8.98h28.83c5.07,0,8.57,3.59,8.57,8.98v204.15c0,5.39-3.51,8.98-8.57,8.98Z"/>
  <path class="st0" d="M1465.84,712.73v-205.35c0-5.39,2.34-8.98,5.84-8.98,35.07,0,46.75-3.59,46.75-16.17,0-28.14-56.11-24.55-56.11-98.78,0-32.93,18.7-86.21,77.14-86.21,54.94,0,77.92,26.94,77.92,108.36v.6c0,5.39-2.34,8.98-5.84,8.98h-39.74c-3.51,0-5.84-3.59-5.84-8.98,0-27.54-1.95-51.49-22.21-51.49-16.36,0-19.87,18.56-19.87,32.93,0,76.63,104.03,48.49,104.03,207.15,0,91-34.68,126.92-98.96,126.92h-57.27c-3.51,0-5.84-3.59-5.84-8.98Z"/>
  <path class="st0" d="M1723.37,580.42c0-111.96,18.7-280.79,95.07-280.79s91.17,168.83,91.17,280.79c0,64.06-14.42,141.89-92.73,141.89s-93.51-77.83-93.51-141.89ZM1839.48,443.32c0-31.13-5.07-80.82-21.04-80.82-19.09,0-24.55,49.69-24.55,80.82,0,19.16,6.62,40.71,24.55,40.71,15.2,0,21.04-21.55,21.04-40.71Z"/>
  <path class="st0" d="M1932.59,712.73v-205.35c0-5.39,2.34-8.98,5.84-8.98h49.48c19.09,0,35.85-1.8,35.85-22.75,0-8.38-8.18-16.16-23.38-16.16h-12.47c-3.51,0-5.84-3.59-5.84-8.98v-23.95c0-5.39,2.34-8.98,5.84-8.98h3.12c21.43,0,32.73-20.95,32.73-39.51,0-14.37-7.01-26.94-21.04-26.94s-22.21,11.97-22.21,39.51c0,5.39-2.34,8.98-5.84,8.98h-39.74c-3.51,0-5.84-3.59-5.84-8.98v-.6c0-63.46,36.23-91,72.86-91s76.75,29.34,76.75,82.62c0,19.76-7.01,39.51-24.16,52.09-2.34,1.2-3.51,2.39-3.51,3.59s1.17,2.4,3.51,3.59c26.49,13.17,54.55,53.28,54.55,128.12,0,64.06-35.07,152.67-113.38,152.67h-57.27c-3.51,0-5.84-3.59-5.84-8.98Z"/>
  <path class="st0" d="M2113.76,712.73v-69.45c0-5.39,2.34-8.98,5.84-8.98h63.12c3.51,0,5.84,3.59,5.84,8.98v69.45c0,5.39-2.34,8.98-5.84,8.98h-63.12c-3.51,0-5.84-3.59-5.84-8.98Z"/>
  <path class="st0" d="M2205.7,580.42c0-111.96,18.7-280.79,95.07-280.79s91.17,168.83,91.17,280.79c0,64.06-14.42,141.89-92.73,141.89s-93.51-77.83-93.51-141.89ZM2321.81,443.32c0-31.13-5.07-80.82-21.04-80.82-19.09,0-24.55,49.69-24.55,80.82,0,19.16,6.62,40.71,24.55,40.71,15.2,0,21.04-21.55,21.04-40.71Z"/>
  <path class="st0" d="M2399.34,711.53l66.24-334.07c.39-1.2.39-2.39.39-2.99,0-4.79-2.34-7.18-5.45-7.18h-38.96c-3.51,0-5.84-3.59-5.84-8.98v-46.7c0-5.39,2.34-8.98,5.84-8.98h111.04c3.51,0,5.84,3.59,5.84,8.98v46.7c0,3.59-.39,7.18-1.17,10.78l-63.9,344.85c-1.17,5.39-3.12,7.78-6.62,7.78h-62.34c-3.9,0-6.23-3.59-5.07-10.18Z"/>
  <path class="st0" d="M2517.78,712.73v-69.45c0-5.39,2.34-8.98,5.84-8.98h63.12c3.51,0,5.84,3.59,5.84,8.98v69.45c0,5.39-2.34,8.98-5.84,8.98h-63.12c-3.51,0-5.84-3.59-5.84-8.98Z"/>
</svg>