<?xml version="1.0" encoding="UTF-8"?>
<svg id="Ebene_1" xmlns="http://www.w3.org/2000/svg" version="1.1" viewBox="0 0 3000 1000">
  <!-- Generator: Adobe Illustrator 30.2.1, SVG Export Plug-In . SVG Version: 2.1.1 Build 1)  -->
  <defs>
    <style>
      .st0 {
        fill: #b725e8;
      }
    </style>
  </defs>
  <path class="st0" d="M378.17,761.52v-205.35c0-5.39,2.34-8.98,5.84-8.98,35.07,0,46.75-3.59,46.75-16.17,0-28.14-56.1-24.55-56.1-98.78,0-32.93,18.7-86.21,77.14-86.21,54.94,0,77.92,26.94,77.92,108.36v.6c0,5.39-2.34,8.98-5.84,8.98h-39.74c-3.51,0-5.84-3.59-5.84-8.98,0-27.54-1.95-51.49-22.21-51.49-16.36,0-19.87,18.56-19.87,32.93,0,76.63,104.03,48.49,104.03,207.15,0,91-34.68,126.92-98.96,126.92h-57.27c-3.51,0-5.84-3.59-5.84-8.98Z"/>
  <path class="st0" d="M545.32,760.93l50.65-401.12c.78-5.39,3.51-8.38,7.01-8.38h82.99c3.9,0,6.23,2.4,7.01,7.78l52.21,401.72v2.39c0,4.79-2.34,7.18-5.84,7.18h-60.39c-3.9,0-6.23-2.39-6.62-8.38l-9.74-88.61c-.78-5.99-3.12-8.38-6.62-8.38h-34.29c-3.9,0-5.84,2.99-6.62,8.38l-12.86,88.61c-.78,5.39-2.73,8.38-6.62,8.38h-44.42c-4.29,0-6.62-2.99-5.84-9.58ZM652.46,553.78l-6.62-85.01c-.78-7.78-2.73-11.38-5.06-11.38-1.95,0-4.29,3.59-5.06,11.38l-7.79,85.01v1.2c0,5.99,3.12,8.38,8.57,8.38h6.62c6.23,0,10.13-3.59,9.35-9.58Z"/>
  <path class="st0" d="M760.38,761.52v-401.12c0-5.39,2.34-8.98,5.84-8.98h79.48c44.42,0,66.62,22.75,66.62,67.05,0,23.35-8.57,47.3-22.6,60.47-1.95,1.8-3.12,3.59-3.12,4.79s1.17,2.39,3.51,4.19c27.66,25.14,38.57,81.42,38.57,134.71,0,79.63-17.53,147.88-85.33,147.88h-77.14c-3.51,0-5.84-3.59-5.84-8.98ZM837.53,462.78c8.18,0,22.99-10.78,22.99-28.74,0-16.76-13.64-24.55-21.82-24.55-3.51,0-6.23,1.2-6.23,4.19v44.3c0,2.99,1.95,4.79,5.06,4.79ZM837.92,563.36c9.35,0,27.66-10.18,27.66-31.13,0-19.16-15.97-28.14-25.71-28.14-4.29,0-7.4,1.8-7.4,5.39v50.29c0,2.39,1.95,3.59,5.45,3.59Z"/>
  <path class="st0" d="M932.59,760.93l50.65-401.12c.78-5.39,3.51-8.38,7.01-8.38h82.99c3.9,0,6.23,2.4,7.01,7.78l52.21,401.72v2.39c0,4.79-2.34,7.18-5.84,7.18h-60.39c-3.9,0-6.23-2.39-6.62-8.38l-9.74-88.61c-.78-5.99-3.12-8.38-6.62-8.38h-34.29c-3.9,0-5.84,2.99-6.62,8.38l-12.86,88.61c-.78,5.39-2.73,8.38-6.62,8.38h-44.42c-4.29,0-6.62-2.99-5.84-9.58ZM1039.74,553.78l-6.62-85.01c-.78-7.78-2.73-11.38-5.06-11.38-1.95,0-4.29,3.59-5.06,11.38l-7.79,85.01v1.2c0,5.99,3.12,8.38,8.57,8.38h6.62c6.23,0,10.13-3.59,9.35-9.58Z"/>
  <path class="st0" d="M1147.66,761.52v-401.12c0-5.39,2.34-8.98,5.84-8.98h60.39c80.65,0,100.52,108.96,100.52,213.73,0,94.59-7.79,205.35-101.3,205.35h-59.61c-3.51,0-5.84-3.59-5.84-8.98ZM1255.97,472.95c0-40.71-17.92-61.07-27.66-61.07-3.51,0-6.23,2.99-6.23,8.98v102.98c0,9.58,2.34,13.17,7.4,13.17,18.31-.6,26.49-38.92,26.49-64.06Z"/>
  <path class="st0" d="M1324.15,629.21c0-168.83,38.18-280.79,95.46-280.79s91.17,107.76,91.17,280.79c0,93.4-32.73,143.69-93.12,143.69s-93.51-51.49-93.51-143.69ZM1440.64,492.11c0-46.1-9.35-80.82-21.04-80.82-14.81,0-24.55,33.53-24.55,80.82,0,24.55,9.74,40.71,24.55,40.71,12.08,0,21.04-16.17,21.04-40.71Z"/>
  <path class="st0" d="M1604.27,629.21c0-111.96,18.7-280.79,95.07-280.79s91.17,168.83,91.17,280.79c0,64.06-14.42,141.89-92.73,141.89s-93.51-77.83-93.51-141.89ZM1720.38,492.11c0-31.13-5.07-80.82-21.04-80.82-19.09,0-24.55,49.69-24.55,80.82,0,19.16,6.62,40.71,24.55,40.71,15.2,0,21.04-21.55,21.04-40.71Z"/>
  <path class="st0" d="M1898.82,761.52v-99.38c0-5.39-2.34-8.98-5.84-8.98h-77.14c-3.51,0-5.84-3.59-5.84-8.98v-86.81c0-4.19.39-6.59,1.95-10.78l75.59-189.19c1.56-4.19,3.51-5.99,6.62-5.99h72.86c3.51,0,5.84,3.59,5.84,8.98v181.4c0,5.39,2.34,8.98,5.84,8.98h3.51c3.51,0,5.84,3.59,5.84,8.98v84.42c0,5.39-2.34,8.98-5.84,8.98h-3.51c-3.51,0-5.84,3.59-5.84,8.98v99.38c0,5.39-2.34,8.98-5.84,8.98h-62.34c-3.51,0-5.84-3.59-5.84-8.98ZM1898.82,541.8v-83.22c0-2.99-2.34-2.99-3.51-.6l-30.78,82.02c-.78,1.8-1.17,3.59-1.17,5.39,0,3.59,1.95,5.39,5.06,5.39h24.55c3.51,0,5.84-3.59,5.84-8.98Z"/>
  <path class="st0" d="M1989.99,761.52v-69.45c0-5.39,2.34-8.98,5.84-8.98h63.12c3.51,0,5.84,3.59,5.84,8.98v69.45c0,5.39-2.34,8.98-5.84,8.98h-63.12c-3.51,0-5.84-3.59-5.84-8.98Z"/>
  <path class="st0" d="M2081.93,629.21c0-111.96,18.7-280.79,95.07-280.79s91.17,168.83,91.17,280.79c0,64.06-14.42,141.89-92.73,141.89s-93.51-77.83-93.51-141.89ZM2198.04,492.11c0-31.13-5.07-80.82-21.04-80.82-19.09,0-24.55,49.69-24.55,80.82,0,19.16,6.62,40.71,24.55,40.71,15.2,0,21.04-21.55,21.04-40.71Z"/>
  <path class="st0" d="M2275.57,760.33l66.24-334.07c.39-1.2.39-2.39.39-2.99,0-4.79-2.34-7.18-5.45-7.18h-38.96c-3.51,0-5.84-3.59-5.84-8.98v-46.7c0-5.39,2.34-8.98,5.84-8.98h111.04c3.51,0,5.84,3.59,5.84,8.98v46.7c0,3.59-.39,7.18-1.17,10.78l-63.9,344.85c-1.17,5.39-3.12,7.78-6.62,7.78h-62.34c-3.9,0-6.23-3.59-5.07-10.18Z"/>
  <path class="st0" d="M2394.02,761.52v-69.45c0-5.39,2.34-8.98,5.84-8.98h63.12c3.51,0,5.84,3.59,5.84,8.98v69.45c0,5.39-2.34,8.98-5.84,8.98h-63.12c-3.51,0-5.84-3.59-5.84-8.98Z"/>
</svg>