<?xml version="1.0" encoding="UTF-8"?>
<svg id="Ebene_1" xmlns="http://www.w3.org/2000/svg" version="1.1" viewBox="0 0 3000 1000">
  <!-- Generator: Adobe Illustrator 30.2.1, SVG Export Plug-In . SVG Version: 2.1.1 Build 1)  -->
  <defs>
    <style>
      .st0 {
        fill: #b725e8;
      }
    </style>
  </defs>
  <path class="st0" d="M367.02,720.81v-401.12c0-5.39,2.34-8.98,5.84-8.98h60.39c80.65,0,100.52,108.96,100.52,213.73,0,94.59-7.79,205.35-101.3,205.35h-59.61c-3.51,0-5.84-3.59-5.84-8.98ZM475.33,432.24c0-40.71-17.92-61.07-27.66-61.07-3.51,0-6.23,2.99-6.23,8.98v102.97c0,9.58,2.34,13.17,7.4,13.17,18.31-.6,26.49-38.92,26.49-64.06Z"/>
  <path class="st0" d="M543.51,588.5c0-168.83,38.18-280.79,95.46-280.79s91.17,107.76,91.17,280.79c0,93.4-32.73,143.69-93.12,143.69s-93.51-51.49-93.51-143.69ZM660.01,451.4c0-46.1-9.35-80.82-21.04-80.82-14.81,0-24.55,33.53-24.55,80.82,0,24.55,9.74,40.71,24.55,40.71,12.08,0,21.04-16.16,21.04-40.71Z"/>
  <path class="st0" d="M745.72,720.81v-401.12c0-5.39,2.34-8.98,5.84-8.98h72.08c3.51,0,5.45,2.99,6.23,7.78l26.1,153.86c.78,4.19,2.34,6.59,3.51,6.59,1.56,0,2.73-2.39,3.51-6.59l27.27-153.86c.78-4.79,2.73-7.78,6.23-7.78h72.47c3.51,0,5.84,3.59,5.84,8.98v401.12c0,5.39-2.34,8.98-5.84,8.98h-51.43c-3.51,0-5.84-3.59-5.84-8.98v-172.42c0-3.59-1.56-5.99-3.12-5.99-1.17,0-2.73,1.8-3.12,4.79l-30.78,174.82c-.78,4.79-2.73,7.78-6.23,7.78h-27.27c-3.51,0-5.45-2.99-6.23-7.78l-30.39-174.22c-.39-2.99-1.95-4.79-3.12-4.79-1.56,0-3.12,2.4-3.12,5.99v171.83c0,5.39-2.34,8.98-5.84,8.98h-40.91c-3.51,0-5.84-3.59-5.84-8.98Z"/>
  <path class="st0" d="M998.18,720.81v-401.12c0-5.39,2.34-8.98,5.84-8.98h61.17c3.51,0,5.84,3.59,5.84,8.98v401.12c0,5.39-2.34,8.98-5.84,8.98h-61.17c-3.51,0-5.84-3.59-5.84-8.98Z"/>
  <path class="st0" d="M1094.42,720.81v-401.12c0-5.39,2.34-8.98,5.84-8.98h56.1c3.12,0,5.45,1.8,6.62,7.18l37.01,156.86c.78,3.59,2.34,5.39,3.51,5.39,1.56,0,3.12-2.39,3.12-7.18v-153.27c0-5.39,2.34-8.98,5.84-8.98h40.91c3.51,0,5.84,3.59,5.84,8.98v401.12c0,5.39-2.34,8.98-5.84,8.98h-56.1c-3.12,0-5.46-1.8-6.62-7.18l-37.01-171.83c-.78-3.59-2.34-5.39-3.51-5.39-1.56,0-3.12,2.39-3.12,6.58v168.83c0,5.39-2.34,8.98-5.84,8.98h-40.91c-3.51,0-5.84-3.59-5.84-8.98Z"/>
  <path class="st0" d="M1277.92,550.78c0-120.94,23.38-243.07,100.52-243.07,51.04,0,77.14,52.09,77.14,99.98,0,8.98-3.51,8.98-8.57,8.98h-32.73c-5.46,0-8.96,0-8.96-8.98,0-22.75-11.69-35.92-25.71-35.92-26.1,0-31.95,47.9-31.95,82.62,0,55.68,12.86,72.44,33.12,72.44,10.13,0,25.33-1.8,25.33-29.34,0-5.39-3.51-8.98-8.96-8.98h-17.92c-5.45,0-5.84-1.2-5.84-8.98v-29.34c0-5.39,3.51-8.98,8.57-8.98h67.79c5.45,0,8.96,3.59,8.96,8.98v270.61c0,5.39-3.51,8.98-8.96,8.98h-19.87c-5.06,0-8.57-3.59-8.57-8.98v-4.19c0-11.97-15.2,14.37-58.44,14.37-61.56,0-84.94-53.88-84.94-180.21Z"/>
  <path class="st0" d="M1474.28,588.5c0-168.83,38.18-280.79,95.46-280.79s91.17,107.76,91.17,280.79c0,93.4-32.73,143.69-93.12,143.69s-93.51-51.49-93.51-143.69ZM1590.78,451.4c0-46.1-9.35-80.82-21.04-80.82-14.81,0-24.55,33.53-24.55,80.82,0,24.55,9.74,40.71,24.55,40.71,12.08,0,21.04-16.16,21.04-40.71Z"/>
  <path class="st0" d="M1754.41,588.5c0-111.96,18.7-280.79,95.07-280.79s91.17,168.83,91.17,280.79c0,64.06-14.42,141.89-92.73,141.89s-93.51-77.83-93.51-141.89ZM1870.51,451.4c0-31.13-5.07-80.82-21.04-80.82-19.09,0-24.55,49.69-24.55,80.82,0,19.16,6.62,40.71,24.55,40.71,15.2,0,21.04-21.55,21.04-40.71Z"/>
  <path class="st0" d="M1960.12,720.81v-205.35c0-5.39,2.34-8.98,5.84-8.98,43.64,0,56.88-6.59,57.27-29.93,0-15.57-11.3-29.94-54.55-29.94h-2.73c-3.51,0-5.84-3.59-5.84-8.98v-117.94c0-5.39,2.34-8.98,5.84-8.98h136.76c3.51,0,5.84,3.59,5.84,8.98v49.69c0,5.39-2.34,8.98-5.84,8.98h-68.57c-3.51,0-5.84,3.59-5.84,8.98v20.95c0,5.39,1.95,8.38,5.84,8.98,68.57,2.99,102.47,68.25,102.47,159.85,0,64.06-35.07,152.67-113.38,152.67h-57.27c-3.51,0-5.84-3.59-5.84-8.98Z"/>
  <path class="st0" d="M2154.14,720.81v-69.45c0-5.39,2.34-8.98,5.84-8.98h63.12c3.51,0,5.84,3.59,5.84,8.98v69.45c0,5.39-2.34,8.98-5.84,8.98h-63.12c-3.51,0-5.84-3.59-5.84-8.98Z"/>
  <path class="st0" d="M2246.09,588.5c0-111.96,18.7-280.79,95.07-280.79s91.17,168.83,91.17,280.79c0,64.06-14.42,141.89-92.73,141.89s-93.51-77.83-93.51-141.89ZM2362.19,451.4c0-31.13-5.07-80.82-21.04-80.82-19.09,0-24.55,49.69-24.55,80.82,0,19.16,6.62,40.71,24.55,40.71,15.2,0,21.04-21.55,21.04-40.71Z"/>
  <path class="st0" d="M2439.73,719.62l66.24-334.07c.39-1.2.39-2.39.39-2.99,0-4.79-2.34-7.18-5.45-7.18h-38.96c-3.51,0-5.84-3.59-5.84-8.98v-46.7c0-5.39,2.34-8.98,5.84-8.98h111.04c3.51,0,5.84,3.59,5.84,8.98v46.7c0,3.59-.39,7.18-1.17,10.78l-63.9,344.85c-1.17,5.39-3.12,7.78-6.62,7.78h-62.34c-3.9,0-6.23-3.59-5.07-10.18Z"/>
  <path class="st0" d="M2558.17,720.81v-69.45c0-5.39,2.34-8.98,5.84-8.98h63.12c3.51,0,5.84,3.59,5.84,8.98v69.45c0,5.39-2.34,8.98-5.84,8.98h-63.12c-3.51,0-5.84-3.59-5.84-8.98Z"/>
</svg>