<?xml version="1.0" encoding="UTF-8"?>
<svg id="Ebene_1" xmlns="http://www.w3.org/2000/svg" version="1.1" viewBox="0 0 3000 1000">
  <!-- Generator: Adobe Illustrator 30.2.1, SVG Export Plug-In . SVG Version: 2.1.1 Build 1)  -->
  <defs>
    <style>
      .st0 {
        fill: #b725e8;
      }
    </style>
  </defs>
  <path class="st0" d="M367.92,721.41v-205.35c0-5.39,2.34-8.98,5.84-8.98,35.07,0,46.75-3.59,46.75-16.17,0-28.14-56.11-24.55-56.11-98.78,0-32.93,18.7-86.21,77.14-86.21,54.94,0,77.92,26.94,77.92,108.36v.6c0,5.39-2.34,8.98-5.84,8.98h-39.74c-3.51,0-5.84-3.59-5.84-8.98,0-27.54-1.95-51.49-22.21-51.49-16.36,0-19.87,18.56-19.87,32.93,0,76.63,104.03,48.49,104.03,207.15,0,91-34.68,126.92-98.96,126.92h-57.27c-3.51,0-5.84-3.59-5.84-8.98Z"/>
  <path class="st0" d="M539.74,589.1c0-168.83,38.18-280.79,95.46-280.79s91.17,107.76,91.17,280.79c0,93.4-32.73,143.69-93.12,143.69s-93.51-51.49-93.51-143.69ZM656.24,452c0-46.1-9.35-80.82-21.04-80.82-14.81,0-24.55,33.53-24.55,80.82,0,24.55,9.74,40.71,24.55,40.71,12.08,0,21.04-16.16,21.04-40.71Z"/>
  <path class="st0" d="M741.95,721.41v-401.12c0-5.39,2.34-8.98,5.84-8.98h56.1c3.12,0,5.46,1.8,6.62,7.18l37.01,156.86c.78,3.59,2.34,5.39,3.51,5.39,1.56,0,3.12-2.39,3.12-7.18v-153.27c0-5.39,2.34-8.98,5.84-8.98h40.91c3.51,0,5.84,3.59,5.84,8.98v401.12c0,5.39-2.34,8.98-5.84,8.98h-56.1c-3.12,0-5.46-1.8-6.62-7.18l-37.01-171.83c-.78-3.59-2.34-5.39-3.51-5.39-1.56,0-3.12,2.39-3.12,6.58v168.83c0,5.39-2.34,8.98-5.84,8.98h-40.91c-3.51,0-5.84-3.59-5.84-8.98Z"/>
  <path class="st0" d="M930.12,721.41v-401.12c0-5.39,2.34-8.98,5.84-8.98h56.1c3.12,0,5.46,1.8,6.62,7.18l37.01,156.86c.78,3.59,2.34,5.39,3.51,5.39,1.56,0,3.12-2.39,3.12-7.18v-153.27c0-5.39,2.34-8.98,5.84-8.98h40.91c3.51,0,5.84,3.59,5.84,8.98v401.12c0,5.39-2.34,8.98-5.84,8.98h-56.1c-3.12,0-5.46-1.8-6.62-7.18l-37.01-171.83c-.78-3.59-2.34-5.39-3.51-5.39-1.56,0-3.12,2.39-3.12,6.58v168.83c0,5.39-2.34,8.98-5.84,8.98h-40.91c-3.51,0-5.84-3.59-5.84-8.98Z"/>
  <path class="st0" d="M1213.76,475.95c0,28.74,12.47,32.33,33.51,32.33,3.9,0,5.84,3.59,5.84,8.98v133.51c0,53.88-21.43,83.82-55.71,83.82s-53.77-29.34-53.77-82.02v-267.62h-22.21c-3.51,0-5.84-3.59-5.84-8.98v-55.68c0-5.39,2.34-8.98,5.84-8.98h126.24c3.51,0,5.84,3.59,5.84,8.98v55.68c0,5.39-2.34,8.98-5.84,8.98h-33.9v91Z"/>
  <path class="st0" d="M1261.68,720.81l50.65-401.12c.78-5.39,3.51-8.38,7.01-8.38h82.99c3.9,0,6.23,2.39,7.01,7.78l52.21,401.72v2.39c0,4.79-2.34,7.18-5.84,7.18h-60.39c-3.9,0-6.23-2.39-6.62-8.38l-9.74-88.61c-.78-5.99-3.12-8.38-6.62-8.38h-34.29c-3.9,0-5.84,2.99-6.62,8.38l-12.86,88.61c-.78,5.39-2.73,8.38-6.62,8.38h-44.42c-4.29,0-6.62-2.99-5.84-9.58ZM1368.82,513.67l-6.62-85.01c-.78-7.78-2.73-11.38-5.07-11.38-1.95,0-4.29,3.59-5.07,11.38l-7.79,85.01v1.2c0,5.99,3.12,8.38,8.57,8.38h6.62c6.23,0,10.13-3.59,9.35-9.58Z"/>
  <path class="st0" d="M1464.28,551.38c0-120.94,23.38-243.07,100.52-243.07,51.04,0,77.14,52.09,77.14,99.98,0,8.98-3.51,8.98-8.57,8.98h-32.73c-5.45,0-8.96,0-8.96-8.98,0-22.75-11.69-35.92-25.71-35.92-26.1,0-31.95,47.9-31.95,82.62,0,55.68,12.86,72.44,33.12,72.44,10.13,0,25.33-1.8,25.33-29.34,0-5.39-3.51-8.98-8.96-8.98h-17.92c-5.45,0-5.84-1.2-5.84-8.98v-29.34c0-5.39,3.51-8.98,8.57-8.98h67.79c5.45,0,8.96,3.59,8.96,8.98v270.61c0,5.39-3.51,8.98-8.96,8.98h-19.87c-5.06,0-8.57-3.59-8.57-8.98v-4.19c0-11.97-15.2,14.37-58.44,14.37-61.56,0-84.94-53.88-84.94-180.21Z"/>
  <path class="st0" d="M1746.35,589.1c0-111.96,18.7-280.79,95.07-280.79s91.17,168.83,91.17,280.79c0,64.06-14.42,141.89-92.73,141.89s-93.51-77.83-93.51-141.89ZM1862.46,452c0-31.13-5.07-80.82-21.04-80.82-19.09,0-24.55,49.69-24.55,80.82,0,19.16,6.62,40.71,24.55,40.71,15.2,0,21.04-21.55,21.04-40.71Z"/>
  <path class="st0" d="M1952.07,721.41v-205.35c0-5.39,2.34-8.98,5.84-8.98,43.64,0,56.88-6.59,57.27-29.93,0-15.57-11.3-29.94-54.55-29.94h-2.73c-3.51,0-5.84-3.59-5.84-8.98v-117.94c0-5.39,2.34-8.98,5.84-8.98h136.76c3.51,0,5.84,3.59,5.84,8.98v49.69c0,5.39-2.34,8.98-5.84,8.98h-68.57c-3.51,0-5.84,3.59-5.84,8.98v20.95c0,5.39,1.95,8.38,5.84,8.98,68.57,2.99,102.47,68.25,102.47,159.85,0,64.06-35.07,152.67-113.38,152.67h-57.27c-3.51,0-5.84-3.59-5.84-8.98Z"/>
  <path class="st0" d="M2146.09,721.41v-69.45c0-5.39,2.34-8.98,5.84-8.98h63.12c3.51,0,5.84,3.59,5.84,8.98v69.45c0,5.39-2.34,8.98-5.84,8.98h-63.12c-3.51,0-5.84-3.59-5.84-8.98Z"/>
  <path class="st0" d="M2238.04,589.1c0-111.96,18.7-280.79,95.07-280.79s91.17,168.83,91.17,280.79c0,64.06-14.42,141.89-92.73,141.89s-93.51-77.83-93.51-141.89ZM2354.14,452c0-31.13-5.07-80.82-21.04-80.82-19.09,0-24.55,49.69-24.55,80.82,0,19.16,6.62,40.71,24.55,40.71,15.2,0,21.04-21.55,21.04-40.71Z"/>
  <path class="st0" d="M2431.68,720.22l66.24-334.07c.39-1.2.39-2.39.39-2.99,0-4.79-2.34-7.18-5.45-7.18h-38.96c-3.51,0-5.84-3.59-5.84-8.98v-46.7c0-5.39,2.34-8.98,5.84-8.98h111.04c3.51,0,5.84,3.59,5.84,8.98v46.7c0,3.59-.39,7.18-1.17,10.78l-63.9,344.85c-1.17,5.39-3.12,7.78-6.62,7.78h-62.34c-3.9,0-6.23-3.59-5.07-10.18Z"/>
  <path class="st0" d="M2550.12,721.41v-69.45c0-5.39,2.34-8.98,5.84-8.98h63.12c3.51,0,5.84,3.59,5.84,8.98v69.45c0,5.39-2.34,8.98-5.84,8.98h-63.12c-3.51,0-5.84-3.59-5.84-8.98Z"/>
</svg>